<svg id="undraw_questions_re_1fy7" xmlns="http://www.w3.org/2000/svg" width="224.573" height="158.262" viewBox="0 0 224.573 158.262">
  <circle id="Ellipse_3202" data-name="Ellipse 3202" cx="12.23" cy="12.23" r="12.23" transform="translate(102.464 133.466)" fill="#9a69ad"/>
  <path id="Path_64780" data-name="Path 64780" d="M456.2,344.036c6.842-2.055,14.116-4.2,19.542-9.082,4.849-4.365,8.122-11.031,6.114-17.577s-8.009-10.889-14.208-13.056a58.294,58.294,0,0,0-10.872-2.446c-4-.582-8.012-1.059-12.025-1.518q-24.374-2.788-48.932-3.406c-8.078-.2-16.155-.2-24.235-.081-7.216.1-14.815.1-21.509-2.965-5.205-2.385-9.93-6.724-11.38-12.425-1.674-6.582,1.414-13.284,5.844-18.05a47.314,47.314,0,0,1,7.879-6.572c3.054-2.109,6.215-4.07,9.444-5.9a131.51,131.51,0,0,1,19.878-9.164c3.389-1.232,6.828-2.3,10.3-3.276a88.1,88.1,0,0,0,8.7-2.786c5.473-2.181,10.678-5.876,12.069-11.933,1.319-5.74-.9-11.972-4.8-16.237-4.51-4.934-11.31-7.1-17.829-7.446-7.319-.393-14.469,1.439-21.348,3.764-7.337,2.479-14.516,5.33-22.008,7.339a148.076,148.076,0,0,1-22.651,4.21,61.444,61.444,0,0,1-11.368.544,13.745,13.745,0,0,1-8.623-3.424A8.528,8.528,0,0,1,301.4,205.2c.074-.506.843-.291.769.212-.5,3.391,1.808,6.516,4.648,8.117,3.283,1.85,7.278,1.853,10.933,1.641a142.992,142.992,0,0,0,23.533-3.4,189.127,189.127,0,0,0,22.254-6.87c6.954-2.518,14.064-4.976,21.493-5.521,6.446-.473,13.227.466,18.843,3.835a20.846,20.846,0,0,1,9.721,13.564,15.722,15.722,0,0,1-4.626,14.973c-4.339,4-10.289,5.711-15.834,7.286a145.069,145.069,0,0,0-20.576,7.365A129.169,129.169,0,0,0,353.2,257.284c-5.915,4.042-11.752,9.127-13.622,16.338a15.051,15.051,0,0,0,.748,10.094,18.445,18.445,0,0,0,5.919,7.024c5.934,4.367,13.414,5.263,20.582,5.353,8.051.1,16.1-.172,24.156-.039q24.619.4,49.138,3,6.144.65,12.272,1.438a110.968,110.968,0,0,1,10.975,1.78c6.424,1.491,12.675,4.358,16.668,9.8a15.5,15.5,0,0,1,1.321,16.954c-3.066,6.033-8.809,9.87-14.908,12.391a105.786,105.786,0,0,1-10.037,3.389.4.4,0,0,1-.212-.769Z" transform="translate(-268.441 -186.797)" fill="#f2f2f2"/>
  <circle id="Ellipse_3203" data-name="Ellipse 3203" cx="6.381" cy="6.381" r="6.381" transform="translate(27.09 12.097)" fill="#f2f2f2"/>
  <circle id="Ellipse_3204" data-name="Ellipse 3204" cx="6.381" cy="6.381" r="6.381" transform="translate(71.357 24.194)" fill="#f2f2f2"/>
  <circle id="Ellipse_3205" data-name="Ellipse 3205" cx="6.381" cy="6.381" r="6.381" transform="translate(108.845)" fill="#f2f2f2"/>
  <circle id="Ellipse_3206" data-name="Ellipse 3206" cx="6.381" cy="6.381" r="6.381" transform="translate(132.241 27.119)" fill="#f2f2f2"/>
  <circle id="Ellipse_3207" data-name="Ellipse 3207" cx="6.381" cy="6.381" r="6.381" transform="translate(100.603 58.491)" fill="#f2f2f2"/>
  <circle id="Ellipse_3208" data-name="Ellipse 3208" cx="6.381" cy="6.381" r="6.381" transform="translate(60.457 73.646)" fill="#f2f2f2"/>
  <circle id="Ellipse_3209" data-name="Ellipse 3209" cx="6.381" cy="6.381" r="6.381" transform="translate(102.996 97.308)" fill="#f2f2f2"/>
  <circle id="Ellipse_3210" data-name="Ellipse 3210" cx="6.381" cy="6.381" r="6.381" transform="translate(148.725 110.602)" fill="#f2f2f2"/>
  <circle id="Ellipse_3211" data-name="Ellipse 3211" cx="6.381" cy="6.381" r="6.381" transform="translate(202.165 107.677)" fill="#f2f2f2"/>
  <path id="Path_64781" data-name="Path 64781" d="M507.377,220.37a35.392,35.392,0,0,0-35.035,34.78c0,.176,0,1.417,0,3.04a8.972,8.972,0,0,0,8.971,8.972h0a8.978,8.978,0,0,0,8.976-8.984c0-1.106,0-1.87,0-1.917a17.016,17.016,0,1,1,26.194,14.325l0,0s-12.769,8.221-16.662,19.5h0a24.992,24.992,0,0,0-1.03,7.117c0,.99.058,9.657.171,16.691a9.249,9.249,0,0,0,9.25,9.1h0a9.251,9.251,0,0,0,9.251-9.308c-.039-6.442-.06-13.943-.06-14.487,0-6.924,6.68-13.824,12.167-18.323a36.9,36.9,0,0,0,12.692-20.206,23.072,23.072,0,0,0,.664-5.007,35.294,35.294,0,0,0-35.549-35.293Z" transform="translate(-393.993 -202.29)" fill="#9a69ad"/>
  <path id="Path_64782" data-name="Path 64782" d="M401.92,745.883H177.979a.317.317,0,1,1,0-.633h223.94a.317.317,0,1,1,0,.633Z" transform="translate(-177.662 -587.621)" fill="#3f3d56"/>
  <circle id="Ellipse_3212" data-name="Ellipse 3212" cx="7.976" cy="7.976" r="7.976" transform="translate(159.109 56.629)" fill="#2f2e41"/>
  <path id="Path_64783" data-name="Path 64783" d="M559.73,547.413h-3.259l-1.551-12.572h4.811Z" transform="translate(-407.384 -392.643)" fill="#a0616a"/>
  <path id="Path_64784" data-name="Path 64784" d="M541.067,578.626h6.286v3.958H537.109A3.958,3.958,0,0,1,541.067,578.626Z" transform="translate(-394.308 -424.787)" fill="#2f2e41"/>
  <path id="Path_64785" data-name="Path 64785" d="M654.73,547.413h-3.259l-1.551-12.572h4.811Z" transform="translate(-477.126 -392.643)" fill="#a0616a"/>
  <path id="Path_64786" data-name="Path 64786" d="M636.067,578.626h6.286v3.958H632.109A3.958,3.958,0,0,1,636.067,578.626Z" transform="translate(-464.051 -424.787)" fill="#2f2e41"/>
  <circle id="Ellipse_3213" data-name="Ellipse 3213" cx="6.53" cy="6.53" r="6.53" transform="translate(159.343 59.568)" fill="#a0616a"/>
  <path id="Path_64787" data-name="Path 64787" d="M751.723,453.32l2.922-6.713a8.344,8.344,0,0,0-1.848-9.465,8.479,8.479,0,0,0-.816-.71,8.225,8.225,0,0,0-5.049-1.747,8.555,8.555,0,0,0-3.563.792c-.1.043-.189.088-.285.133-.183.088-.364.183-.54.282a8.422,8.422,0,0,0-4.174,6.349l-1.289,10.8c-.324.848-11.895,31.476-7.848,54.859a1.188,1.188,0,0,0,1.016.976l4.1.558a1.2,1.2,0,0,0,1.332-.939l6.883-32.811a.931.931,0,0,1,1.808-.061l9.726,34.5a1.189,1.189,0,0,0,1.146.872,1.361,1.361,0,0,0,.231-.021l5.012-.965a1.189,1.189,0,0,0,.965-1.279C760.717,500.527,756.8,459.39,751.723,453.32Z" transform="translate(-581.958 -359.626)" fill="#2f2e41"/>
  <path id="Path_64788" data-name="Path 64788" d="M706.052,414.809a2.673,2.673,0,0,0,2.817,2.979l3.65,8.772,2.761-4.093-3.889-7.7a2.688,2.688,0,0,0-5.338.045Z" transform="translate(-565.556 -343.277)" fill="#a0616a"/>
  <path id="Path_64789" data-name="Path 64789" d="M791.838,508.29a2.674,2.674,0,0,0,2.24-3.433l7.68-5.593-4.624-1.731-6.584,5.577a2.688,2.688,0,0,0,1.287,5.181Z" transform="translate(-626.327 -405.764)" fill="#a0616a"/>
  <path id="Path_64790" data-name="Path 64790" d="M727.04,451.476a4.533,4.533,0,0,1-.877-.086,4.335,4.335,0,0,1-3.177-2.557l-5.114-6.235a1.2,1.2,0,0,1,.3-1.776l3.638-2.252a1.2,1.2,0,0,1,1.652.4l3.6,5.938,6.9-5.1a2.585,2.585,0,0,1,3.007,4.137l-6.889,6.284A4.321,4.321,0,0,1,727.04,451.476Z" transform="translate(-574.048 -362.346)" fill="#2f2e41"/>
  <path id="Path_64791" data-name="Path 64791" d="M811.017,466.238h-.028a1.2,1.2,0,0,1-.88-.418l-3.235-3.774a1.2,1.2,0,0,1,.245-1.774l6.057-4.038-5.487-6.6a2.585,2.585,0,0,1,3.958-3.239l6.669,6.517a4.393,4.393,0,0,1-.977,7.163l-5.451,5.784a1.2,1.2,0,0,1-.871.376Z" transform="translate(-639.374 -367.73)" fill="#2f2e41"/>
  <path id="Path_64792" data-name="Path 64792" d="M785.333,442.395a1.228,1.228,0,0,1-.155-.01,1.186,1.186,0,0,1-.987-.816l-2.431-7.452a.82.82,0,0,1,.424-.99l.079-.037c.072-.034.142-.068.215-.1a8.661,8.661,0,0,1,3.617-.8,8.329,8.329,0,0,1,4.563,1.371.832.832,0,0,1,.24,1.142l-4.56,7.143a1.184,1.184,0,0,1-1,.553Z" transform="translate(-621.12 -357.791)" fill="#e6e6e6"/>
  <circle id="Ellipse_3214" data-name="Ellipse 3214" cx="2.61" cy="2.61" r="2.61" transform="translate(170.764 55.824)" fill="#2f2e41"/>
  <path id="Path_64793" data-name="Path 64793" d="M777.024,361.365h0a6.913,6.913,0,0,0-6.913,6.913V371.2h3.6l1.72-2.925.516,2.925h10.916l-2.925-2.925a6.913,6.913,0,0,0-6.913-6.913Z" transform="translate(-612.597 -305.799)" fill="#2f2e41"/>
  <path id="Path_64794" data-name="Path 64794" d="M834.809,357.7a4.028,4.028,0,0,1,4.382-2.764,5.582,5.582,0,0,1,3.762,3.108,30.607,30.607,0,0,1,1.672,4.766,8.632,8.632,0,0,0,2.6,4.25,3.875,3.875,0,0,0,4.677.252,5.349,5.349,0,0,1-9.964,1.909,11.569,11.569,0,0,1-1.071-4.055,8.862,8.862,0,0,0-1.293-3.972,3.285,3.285,0,0,0-3.67-1.366Z" transform="translate(-660.094 -301.05)" fill="#2f2e41"/>
  <path id="Path_64795" data-name="Path 64795" d="M483.5,303.259h0a8.972,8.972,0,0,1-8.971-8.971c0-1.624,0-2.865,0-3.041a34.963,34.963,0,0,1,4.083-15.928,35.042,35.042,0,0,0-6.742,20.182c0,.176,0,1.417,0,3.04a8.972,8.972,0,0,0,8.971,8.972h0a8.979,8.979,0,0,0,8.638-6.538A8.939,8.939,0,0,1,483.5,303.259Z" transform="translate(-393.645 -242.63)" fill="#3f3d56"/>
  <path id="Path_64796" data-name="Path 64796" d="M568.411,279.678a17.017,17.017,0,0,1,14.8,23.772,17.015,17.015,0,1,0-28.561-17.809,16.981,16.981,0,0,1,13.763-5.963Z" transform="translate(-454.419 -242.694)" fill="#3f3d56"/>
  <path id="Path_64797" data-name="Path 64797" d="M583.444,490.22h0a9.249,9.249,0,0,1-9.25-9.1c-.113-7.032-.171-15.7-.171-16.689a24.991,24.991,0,0,1,1.03-7.117h0a25.268,25.268,0,0,1,1.461-3.377,29.258,29.258,0,0,0-4.119,7.631h0a24.994,24.994,0,0,0-1.03,7.117c0,.99.058,9.657.171,16.691a9.249,9.249,0,0,0,9.25,9.1h0a9.253,9.253,0,0,0,8.88-6.658A9.215,9.215,0,0,1,583.444,490.22Z" transform="translate(-466.691 -373.759)" fill="#3f3d56"/>
  <path id="Path_64798" data-name="Path 64798" d="M126.539,547.869H129.8l1.551-12.572h-4.811Z" transform="translate(-92.895 -392.977)" fill="#ffb8b8"/>
  <path id="Path_64799" data-name="Path 64799" d="M0,0H10.244V3.958H3.958A3.958,3.958,0,0,1,0,0Z" transform="translate(43.188 157.918) rotate(179.997)" fill="#2f2e41"/>
  <path id="Path_64800" data-name="Path 64800" d="M82.539,547.869H85.8L87.349,535.3H82.538Z" transform="translate(-60.594 -392.977)" fill="#ffb8b8"/>
  <path id="Path_64801" data-name="Path 64801" d="M0,0H10.244V3.958H3.958A3.958,3.958,0,0,1,0,0Z" transform="translate(31.49 157.918) rotate(179.997)" fill="#2f2e41"/>
  <path id="Path_64802" data-name="Path 64802" d="M258.875,599.967l-3.184-.167a1.243,1.243,0,0,1-1.175-1.321l3.805-42.131,17.524,4.729,1.688-.461-5.28,37.3a1.249,1.249,0,0,1-1.159,1.049l-3.432.16a1.243,1.243,0,0,1-1.311-1.275l.622-22.385a.414.414,0,0,0-.82-.1l-6,23.612a1.235,1.235,0,0,1-1.215.99Z" transform="translate(-234.081 -448.943)" fill="#2f2e41"/>
  <circle id="Ellipse_3215" data-name="Ellipse 3215" cx="6.53" cy="6.53" r="6.53" transform="translate(27.699 59.873)" fill="#ffb8b8"/>
  <path id="Path_64803" data-name="Path 64803" d="M265.48,445.719l.718,15.492.26,5.636a1.234,1.234,0,0,0,.817,1.11l16.839,6.1a1.19,1.19,0,0,0,.425.075,1.234,1.234,0,0,0,1.24-1.273L285.089,445a9.819,9.819,0,0,0-8.174-9.485c-.163-.025-.329-.05-.494-.072a9.638,9.638,0,0,0-7.754,2.51,9.9,9.9,0,0,0-3.187,7.762Z" transform="translate(-242.124 -360.131)" fill="#ccc"/>
  <path id="Path_64804" data-name="Path 64804" d="M346.146,536.258a2.676,2.676,0,0,1-1.427-4.048l-5.71-7.593,4.928-.3,4.667,7.257a2.688,2.688,0,0,1-2.457,4.689Z" transform="translate(-296.111 -425.423)" fill="#ffb8b8"/>
  <path id="Path_64805" data-name="Path 64805" d="M324.417,477.71a1.235,1.235,0,0,1-.676-.67l-8.6-20.5a3.314,3.314,0,0,1,6.111-2.565l8.6,20.5a1.244,1.244,0,0,1-.665,1.627l-3.819,1.6a1.234,1.234,0,0,1-.951,0Z" transform="translate(-278.398 -372.298)" fill="#ccc"/>
  <path id="Path_64806" data-name="Path 64806" d="M298.1,500.523l8.263-15.822a1.3,1.3,0,0,1,1.748-.549l11.994,6.264a1.3,1.3,0,0,1,.549,1.748l-8.263,15.822a1.3,1.3,0,0,1-1.748.549l-11.994-6.264a1.3,1.3,0,0,1-.548-1.748Z" transform="translate(-265.973 -395.834)" fill="#3f3d56"/>
  <path id="Path_64807" data-name="Path 64807" d="M286.061,501.167a2.676,2.676,0,0,0-4.125-1.186l-7.917-5.252L274,499.666l7.52,4.23a2.688,2.688,0,0,0,4.536-2.73Z" transform="translate(-248.39 -403.706)" fill="#ffb8b8"/>
  <path id="Path_64808" data-name="Path 64808" d="M255.245,465.067l-6.47-5.125a4.563,4.563,0,0,1-2.08-7.214l5.875-7.7a2.684,2.684,0,0,1,4.554,2.734l-4.648,7.6,6.831,3.24a1.243,1.243,0,0,1,.518,1.786l-2.758,4.364a1.245,1.245,0,0,1-.842.561l-.021,0A1.248,1.248,0,0,1,255.245,465.067Z" transform="translate(-227.584 -366.496)" fill="#ccc"/>
  <path id="Path_64809" data-name="Path 64809" d="M278.98,381.1a.568.568,0,0,1,.494-.75,1.311,1.311,0,0,1,.924.456,3.679,3.679,0,0,0,.816.7.7.7,0,0,0,.924-.167,1.286,1.286,0,0,0-.049-1,9.81,9.81,0,0,1-.433-2.6,4.574,4.574,0,0,1,.654-2.778,3.675,3.675,0,0,1,3.149-1.339,21.164,21.164,0,0,1,3.538.627,1.188,1.188,0,0,0,1.157-.194,1.491,1.491,0,0,0,.06-1.33,9.24,9.24,0,0,0-1.4-3.337,5.024,5.024,0,0,0-3.207-1.805,7.694,7.694,0,0,0-3.579.406,9.6,9.6,0,0,0-4.7,3.275,7.773,7.773,0,0,0-1.483,5.743,7.09,7.09,0,0,0,2.628,4.481Z" transform="translate(-249.686 -310.327)" fill="#2f2e41"/>
  <path id="Path_64810" data-name="Path 64810" d="M572.531,682.667a12.228,12.228,0,0,1-4.538-19.007,12.229,12.229,0,1,0,16.635,17.671,12.222,12.222,0,0,1-12.1,1.336Z" transform="translate(-460.532 -527.724)" fill="#3f3d56"/>
</svg>
