<svg xmlns="http://www.w3.org/2000/svg" width="106.17" height="188.782" viewBox="0 0 106.17 188.782">
  <g id="undraw_post_online_re_1b82" transform="translate(0 0)">
    <path id="Path_64847" data-name="Path 64847" d="M496.024,238.05H439.686a15.633,15.633,0,0,1-15.633-15.633V76.532A15.651,15.651,0,0,1,439.686,60.9h56.339a15.651,15.651,0,0,1,15.633,15.633v26.349h.971v19.414h-.971V222.417a15.633,15.633,0,0,1-15.633,15.633ZM439.686,61.384a15.165,15.165,0,0,0-15.148,15.148V222.417a15.148,15.148,0,0,0,15.148,15.148h56.339a15.148,15.148,0,0,0,15.148-15.148V121.809h.971V103.366h-.971V76.532a15.165,15.165,0,0,0-15.148-15.148Z" transform="translate(-413.565 -60.899)" fill="#3f3d56"/>
    <path id="Path_64848" data-name="Path 64848" d="M509.894,246.537H453.285A11.75,11.75,0,0,1,441.548,234.8V89.13a11.75,11.75,0,0,1,11.737-11.737h7.228l-.136.334a5.221,5.221,0,0,0,4.832,7.189h32.276a5.221,5.221,0,0,0,4.832-7.189l-.136-.334h7.714A11.75,11.75,0,0,1,521.63,89.13V234.8a11.75,11.75,0,0,1-11.737,11.737ZM453.285,77.878A11.264,11.264,0,0,0,442.034,89.13V234.8a11.264,11.264,0,0,0,11.251,11.251h56.609A11.264,11.264,0,0,0,521.145,234.8V89.13h0a11.264,11.264,0,0,0-11.251-11.251h-7a5.706,5.706,0,0,1-5.405,7.523H465.209a5.707,5.707,0,0,1-5.406-7.523Z" transform="translate(-426.814 -73.389)" fill="#ccc"/>
    <path id="Path_64849" data-name="Path 64849" d="M481.894,323.7H385.979a5.133,5.133,0,0,1-5.128-5.128V287.809a5.133,5.133,0,0,1,5.128-5.128h95.915a5.133,5.133,0,0,1,5.128,5.128v30.765A5.133,5.133,0,0,1,481.894,323.7Z" transform="translate(-380.851 -228.844)" fill="#fff"/>
    <path id="Path_64850" data-name="Path 64850" d="M481.894,323.7H385.979a5.133,5.133,0,0,1-5.128-5.128V287.809a5.133,5.133,0,0,1,5.128-5.128h95.915a5.133,5.133,0,0,1,5.128,5.128v30.765A5.133,5.133,0,0,1,481.894,323.7Zm-95.915-40.417a4.529,4.529,0,0,0-4.524,4.524v30.765a4.529,4.529,0,0,0,4.524,4.524h95.915a4.529,4.529,0,0,0,4.524-4.524V287.809a4.529,4.529,0,0,0-4.524-4.524Z" transform="translate(-380.851 -228.844)" fill="#3f3d56"/>
    <path id="Path_64851" data-name="Path 64851" d="M539.383,345.284H505.9a2.413,2.413,0,1,1,0-4.826h33.48a2.413,2.413,0,1,1,0,4.826Z" transform="translate(-473.72 -272.596)" fill="#00c3cb"/>
    <path id="Path_64852" data-name="Path 64852" d="M570.45,378.832H505.9a2.413,2.413,0,1,1,0-4.826H570.45a2.413,2.413,0,1,1,0,4.826Z" transform="translate(-473.72 -298.001)" fill="#00c3cb"/>
    <circle id="Ellipse_3221" data-name="Ellipse 3221" cx="9.049" cy="9.049" r="9.049" transform="translate(7.028 65.298)" fill="#00c3cb"/>
    <path id="Path_64853" data-name="Path 64853" d="M745.443,419.214H737a2.413,2.413,0,0,1,0-4.826h8.445a2.413,2.413,0,0,1,0,4.826Z" transform="translate(-648.717 -328.58)" fill="#fff"/>
    <path id="Path_64854" data-name="Path 64854" d="M745.443,419.214H737a2.413,2.413,0,0,1,0-4.826h8.445a2.413,2.413,0,0,1,0,4.826Z" transform="translate(-648.717 -328.58)" fill="#ccc"/>
    <path id="Path_64855" data-name="Path 64855" d="M544.075,178.984H490.7a2.856,2.856,0,0,1-2.853-2.853V159.011a2.856,2.856,0,0,1,2.853-2.853h53.371a2.856,2.856,0,0,1,2.853,2.853v17.119A2.856,2.856,0,0,1,544.075,178.984ZM490.7,156.494a2.52,2.52,0,0,0-2.517,2.518v17.119a2.52,2.52,0,0,0,2.517,2.517h53.371a2.52,2.52,0,0,0,2.518-2.517V159.011a2.52,2.52,0,0,0-2.518-2.518Z" transform="translate(-461.877 -133.035)" fill="#ccc"/>
    <path id="Path_64856" data-name="Path 64856" d="M576.064,190.993h-18.63a1.343,1.343,0,1,1,0-2.685h18.63a1.343,1.343,0,0,1,0,2.685Z" transform="translate(-513.553 -157.38)" fill="#e6e6e6"/>
    <path id="Path_64857" data-name="Path 64857" d="M593.351,209.661H557.435a1.343,1.343,0,1,1,0-2.685h35.916a1.343,1.343,0,0,1,0,2.685Z" transform="translate(-513.553 -171.516)" fill="#e6e6e6"/>
    <circle id="Ellipse_3222" data-name="Ellipse 3222" cx="5.035" cy="5.035" r="5.035" transform="translate(29.884 29.501)" fill="#e6e6e6"/>
    <path id="Path_64858" data-name="Path 64858" d="M690.725,232.131h-4.7a1.343,1.343,0,0,1,0-2.685h4.7a1.343,1.343,0,0,1,0,2.685Z" transform="translate(-610.929 -188.532)" fill="#fff"/>
    <path id="Path_64859" data-name="Path 64859" d="M690.725,232.131h-4.7a1.343,1.343,0,0,1,0-2.685h4.7a1.343,1.343,0,0,1,0,2.685Z" transform="translate(-610.929 -188.532)" fill="#ccc"/>
    <path id="Path_64860" data-name="Path 64860" d="M544.075,504.984H490.7a2.856,2.856,0,0,1-2.853-2.853V485.012a2.856,2.856,0,0,1,2.853-2.853h53.371a2.856,2.856,0,0,1,2.853,2.853v17.119A2.856,2.856,0,0,1,544.075,504.984ZM490.7,482.494a2.52,2.52,0,0,0-2.517,2.518V502.13a2.52,2.52,0,0,0,2.517,2.518h53.371a2.52,2.52,0,0,0,2.518-2.518V485.012a2.52,2.52,0,0,0-2.518-2.518Z" transform="translate(-461.877 -379.899)" fill="#ccc"/>
    <path id="Path_64861" data-name="Path 64861" d="M576.064,516.993h-18.63a1.343,1.343,0,1,1,0-2.685h18.63a1.343,1.343,0,0,1,0,2.685Z" transform="translate(-513.553 -404.244)" fill="#e6e6e6"/>
    <path id="Path_64862" data-name="Path 64862" d="M593.351,535.661H557.435a1.343,1.343,0,1,1,0-2.685h35.917a1.343,1.343,0,0,1,0,2.685Z" transform="translate(-513.553 -418.38)" fill="#e6e6e6"/>
    <circle id="Ellipse_3223" data-name="Ellipse 3223" cx="5.035" cy="5.035" r="5.035" transform="translate(29.884 108.637)" fill="#e6e6e6"/>
    <path id="Path_64863" data-name="Path 64863" d="M690.725,558.131h-4.7a1.343,1.343,0,1,1,0-2.685h4.7a1.343,1.343,0,0,1,0,2.685Z" transform="translate(-610.929 -435.396)" fill="#fff"/>
    <path id="Path_64864" data-name="Path 64864" d="M690.725,558.131h-4.7a1.343,1.343,0,1,1,0-2.685h4.7a1.343,1.343,0,0,1,0,2.685Z" transform="translate(-610.929 -435.396)" fill="#ccc"/>
    <path id="Path_64865" data-name="Path 64865" d="M544.075,635.984H490.7a2.856,2.856,0,0,1-2.853-2.853V616.011a2.856,2.856,0,0,1,2.853-2.853h53.371a2.856,2.856,0,0,1,2.853,2.853V633.13A2.856,2.856,0,0,1,544.075,635.984ZM490.7,613.494a2.52,2.52,0,0,0-2.517,2.518V633.13a2.52,2.52,0,0,0,2.517,2.518h53.371a2.52,2.52,0,0,0,2.518-2.518V616.011a2.52,2.52,0,0,0-2.518-2.518Z" transform="translate(-461.877 -479.099)" fill="#ccc"/>
    <path id="Path_64866" data-name="Path 64866" d="M576.064,647.993h-18.63a1.343,1.343,0,1,1,0-2.685h18.63a1.343,1.343,0,0,1,0,2.685Z" transform="translate(-513.553 -503.444)" fill="#e6e6e6"/>
    <path id="Path_64867" data-name="Path 64867" d="M593.351,666.661H557.435a1.343,1.343,0,1,1,0-2.685h35.917a1.343,1.343,0,0,1,0,2.685Z" transform="translate(-513.553 -517.581)" fill="#e6e6e6"/>
    <circle id="Ellipse_3224" data-name="Ellipse 3224" cx="5.035" cy="5.035" r="5.035" transform="translate(29.884 140.437)" fill="#e6e6e6"/>
    <path id="Path_64868" data-name="Path 64868" d="M690.725,689.131h-4.7a1.343,1.343,0,1,1,0-2.685h4.7a1.343,1.343,0,0,1,0,2.685Z" transform="translate(-610.929 -534.596)" fill="#fff"/>
    <path id="Path_64869" data-name="Path 64869" d="M690.725,689.131h-4.7a1.343,1.343,0,1,1,0-2.685h4.7a1.343,1.343,0,0,1,0,2.685Z" transform="translate(-610.929 -534.596)" fill="#ccc"/>
    <path id="Path_64870" data-name="Path 64870" d="M201.655,729.994h2.976l1.416-11.479h-4.392Z" transform="translate(-152.704 -544.098)" fill="#ffb8b8"/>
    <path id="Path_64871" data-name="Path 64871" d="M579.381,822.7h5.861a3.735,3.735,0,0,1,3.735,3.735v.121h-9.6Z" transform="translate(-531.188 -637.773)" fill="#2f2e41"/>
    <path id="Path_64872" data-name="Path 64872" d="M152.656,729.994h2.976l1.416-11.479h-4.392Z" transform="translate(-115.598 -544.098)" fill="#ffb8b8"/>
    <path id="Path_64873" data-name="Path 64873" d="M530.381,822.7h5.861a3.735,3.735,0,0,1,3.735,3.735v.121h-9.6Z" transform="translate(-494.083 -637.773)" fill="#2f2e41"/>
    <circle id="Ellipse_3225" data-name="Ellipse 3225" cx="5.962" cy="5.962" r="5.962" transform="translate(43.584 94.501)" fill="#ffb8b8"/>
    <path id="Path_64874" data-name="Path 64874" d="M545.363,659.885h-5.522a1.092,1.092,0,0,1-1.092-1.106l.321-26.224a.364.364,0,0,0-.726-.049l-3.214,26.418a1.093,1.093,0,0,1-1.084.96h-5.576a1.092,1.092,0,0,1-1.089-1.177l3.682-47.111.1-.011,17.63-1.9-2.338,49.163A1.091,1.091,0,0,1,545.363,659.885Z" transform="translate(-491.808 -476.466)" fill="#2f2e41"/>
    <path id="Path_64875" data-name="Path 64875" d="M539.886,537.732a1.091,1.091,0,0,1-1.088-1.058c-.1-2.979-.261-13.286,1.656-20.853a9.934,9.934,0,0,1,9.174-7.486h0a10,10,0,0,1,9.845,6.317c3.223,8.181,6.267,18.266,2.471,19.847-4.975,2.073-18.09,3-21.991,3.231Z" transform="translate(-500.418 -399.71)" fill="#00c3cb"/>
    <path id="Path_64876" data-name="Path 64876" d="M628.184,436.481a2.562,2.562,0,0,0,.3.265l-.626,12.022-2.6,1.333,1.5,4.192,4.838-1.912a1.942,1.942,0,0,0,1.22-1.986l-1.267-13.638a2.548,2.548,0,1,0-3.362-.277Z" transform="translate(-565.929 -342.044)" fill="#ffb8b8"/>
    <path id="Path_64877" data-name="Path 64877" d="M609.9,500.122l1.831,5.2a1.092,1.092,0,0,1-.823,1.435l-5.4,1.046a3.034,3.034,0,0,1-2-5.729l4.849-2.559a1.092,1.092,0,0,1,1.54.6Z" transform="translate(-547.923 -392.95)" fill="#00c3cb"/>
    <path id="Path_64878" data-name="Path 64878" d="M516.46,436.481a2.556,2.556,0,0,1-.3.265l.626,12.022,2.6,1.333-1.5,4.192-4.838-1.912a1.942,1.942,0,0,1-1.22-1.986l1.267-13.637a2.548,2.548,0,1,1,3.362-.277Z" transform="translate(-480.03 -342.043)" fill="#ffb8b8"/>
    <path id="Path_64879" data-name="Path 64879" d="M526.782,499.468a1.091,1.091,0,0,1,.908.051l4.849,2.559a3.034,3.034,0,1,1-2,5.729l-5.4-1.046a1.092,1.092,0,0,1-.823-1.435l1.831-5.2A1.091,1.091,0,0,1,526.782,499.468Z" transform="translate(-489.445 -392.949)" fill="#00c3cb"/>
    <path id="Path_64880" data-name="Path 64880" d="M562.387,442.462a3.919,3.919,0,0,1,2.195-3.682,4.332,4.332,0,0,0,2.452-4.753c-.639-2.333-3.813-3.845-6.386-3.043a11.785,11.785,0,0,0-2.005.932l-1.681.9a17.393,17.393,0,0,0-2.072,1.223,6.874,6.874,0,0,0-2.736,6.44,9.19,9.19,0,0,0,4.01,6.035,6.781,6.781,0,0,0,2.748,1.221,3.651,3.651,0,0,0,2.9-.657c1.164-.99,1.044-2.649.667-4.034A2.931,2.931,0,0,1,562.387,442.462Z" transform="translate(-510.525 -340.983)" fill="#2f2e41"/>
  </g>
</svg>
