<svg xmlns="http://www.w3.org/2000/svg" xmlns:xlink="http://www.w3.org/1999/xlink" width="238.712" height="142.706" viewBox="0 0 238.712 142.706">
  <defs>
    <linearGradient id="linear-gradient" x1="0.5" x2="0.5" y2="1" gradientUnits="objectBoundingBox">
      <stop offset="0" stop-color="#17cea1"/>
      <stop offset="1" stop-color="#0c6751"/>
    </linearGradient>
    <linearGradient id="linear-gradient-3" x1="0.5" x2="0.5" y2="1" gradientUnits="objectBoundingBox">
      <stop offset="0" stop-color="#836ca0"/>
      <stop offset="1" stop-color="#0c6751"/>
    </linearGradient>
    <linearGradient id="linear-gradient-4" x1="0.5" x2="0.5" y2="1" gradientUnits="objectBoundingBox">
      <stop offset="0" stop-color="#4dd0f7"/>
      <stop offset="0.228" stop-color="#00c4fe"/>
      <stop offset="1" stop-color="#fff" stop-opacity="0.129"/>
    </linearGradient>
  </defs>
  <g id="undraw_login_re_4vu2" transform="translate(0 0)">
    <path id="Path_64724" data-name="Path 64724" d="M819.184,583.363a12.335,12.335,0,0,1-4.426-10.633,9.971,9.971,0,0,1,7.413-8.466c3.911-.843,8.37,1.491,9.558,5.312.654-7.366,1.407-15.041,5.323-21.314A22.573,22.573,0,0,1,853.4,537.791a20.253,20.253,0,0,1,17.816,7.273,18.381,18.381,0,0,1,2.26,18.924c-2.142,4.443-6.088,7.75-10.223,10.441a65.976,65.976,0,0,1-45.123,9.871Z" transform="translate(-636.42 -442.26)" fill="url(#linear-gradient)"/>
    <path id="Path_64725" data-name="Path 64725" d="M912.008,545.609a108.861,108.861,0,0,0-31.987,43.253c-.305.748.909,1.073,1.211.334A107.652,107.652,0,0,1,912.9,546.5c.627-.51-.266-1.394-.888-.888Z" transform="translate(-683.797 -447.907)" fill="#fff"/>
    <path id="Path_64726" data-name="Path 64726" d="M241.845,535.679a16.942,16.942,0,0,0,6.079-14.6c-.669-5.455-4.81-10.469-10.182-11.628s-11.5,2.048-13.128,7.3c-.9-10.117-1.933-20.659-7.312-29.275a31,31,0,0,0-22.449-14.383,27.817,27.817,0,0,0-24.471,9.989,25.246,25.246,0,0,0-3.1,25.992c2.942,6.1,8.362,10.645,14.041,14.34a90.618,90.618,0,0,0,61.977,13.558" transform="translate(-165 -395.277)" fill="url(#linear-gradient)"/>
    <path id="Path_64727" data-name="Path 64727" d="M213.567,483.823a148.26,148.26,0,0,1,20.662,20.517,148.695,148.695,0,0,1,23.272,38.89c.419,1.027-1.248,1.474-1.663.458a147.859,147.859,0,0,0-43.491-58.646c-.861-.7.366-1.915,1.219-1.219Z" transform="translate(-199.144 -403.034)" fill="#fff"/>
    <path id="Path_64728" data-name="Path 64728" d="M524.649,332.335H424.5V229.579a39.693,39.693,0,0,1,39.648-39.648H485a39.693,39.693,0,0,1,39.648,39.648s0,1.337,0,27.025S524.649,332.335,524.649,332.335Z" transform="translate(-353.298 -189.931)" fill="url(#linear-gradient-3)"/>
    <path id="Path_64729" data-name="Path 64729" d="M503.8,332.338H424.5V229.582a39.341,39.341,0,0,1,7.572-23.307c.182-.248.364-.493.551-.736a39.639,39.639,0,0,1,8.438-8.19c.181-.132.363-.261.547-.391a39.555,39.555,0,0,1,8.635-4.516c.181-.069.366-.138.551-.2a39.517,39.517,0,0,1,8.536-2.013c.18-.025.366-.044.551-.063a40.14,40.14,0,0,1,8.535,0c.185.019.37.039.553.064a39.507,39.507,0,0,1,8.533,2.013c.185.066.369.135.551.2a39.457,39.457,0,0,1,8.535,4.449c.184.127.369.256.55.385a40.054,40.054,0,0,1,5.044,4.27,39.592,39.592,0,0,1,3.491,3.992c.187.242.368.487.55.734a39.341,39.341,0,0,1,7.572,23.308Z" transform="translate(-353.298 -189.934)" fill="url(#linear-gradient-4)"/>
    <circle id="Ellipse_3196" data-name="Ellipse 3196" cx="4.39" cy="4.39" r="4.39" transform="translate(139.66 87.665)" fill="#3f3f3f"/>
    <path id="Path_64730" data-name="Path 64730" d="M581.47,473.47h-3.364l-1.6-12.975h4.965Z" transform="translate(-418.323 -334.143)" fill="#ffb8b8"/>
    <path id="Path_64731" data-name="Path 64731" d="M562.78,504.28h6.487v4.085H558.7A4.085,4.085,0,0,1,562.78,504.28Z" transform="translate(-405.399 -365.914)" fill="#2f2e41"/>
    <path id="Path_64732" data-name="Path 64732" d="M642.47,473.47h-3.364l-1.6-12.975h4.965Z" transform="translate(-462.586 -334.143)" fill="#ffb8b8"/>
    <path id="Path_64733" data-name="Path 64733" d="M623.78,504.28h6.487v4.085H619.7A4.085,4.085,0,0,1,623.78,504.28Z" transform="translate(-449.662 -365.914)" fill="#2f2e41"/>
    <path id="Path_64734" data-name="Path 64734" d="M696.753,433.754a2.948,2.948,0,0,1,1.238-4.347l11.435-31.517,5.627,3.071L702,431.08a2.964,2.964,0,0,1-5.243,2.675Z" transform="translate(-550.48 -340.829)" fill="#ffb8b8"/>
    <path id="Path_64735" data-name="Path 64735" d="M802.869,450.248a2.948,2.948,0,0,1-.794-4.45l-3.542-33.34,6.4.293,1.472,32.794a2.964,2.964,0,0,1-3.539,4.7Z" transform="translate(-624.703 -351.4)" fill="#ffb8b8"/>
    <circle id="Ellipse_3197" data-name="Ellipse 3197" cx="6.739" cy="6.739" r="6.739" transform="translate(161.212 37.745)" fill="#ffb8b8"/>
    <path id="Path_64736" data-name="Path 64736" d="M760.45,423.23H740.133l.025-.158c.036-.236,3.621-23.717.977-31.4a3.241,3.241,0,0,1,1.665-4h0c3.779-1.779,11.032-3.971,17.154,1.347a7.747,7.747,0,0,1,2.6,6.419Z" transform="translate(-582.327 -331.966)" fill="#cf56a0"/>
    <path id="Path_64737" data-name="Path 64737" d="M730.165,408.784l-9.147-1.856,4.288-10.16a3.841,3.841,0,1,1,7.437,1.92Z" transform="translate(-568.457 -337.924)" fill="#cf56a0"/>
    <path id="Path_64738" data-name="Path 64738" d="M795.4,414.11l-.55-12.605a3.875,3.875,0,1,1,7.569-1.31l2.067,11.779Z" transform="translate(-621.974 -339.805)" fill="#cf56a0"/>
    <path id="Path_64739" data-name="Path 64739" d="M756.879,517.049c3.269,12.451,3.626,28.28,2.744,45.547l-4.39-.549-7.957-32.926-4.39,33.475-4.939-.274c-1.475-18.117-2.912-33.671-.549-43.9Z" transform="translate(-579.432 -427.293)" fill="#2f2e41"/>
    <path id="Path_64740" data-name="Path 64740" d="M760.149,331.226a2.177,2.177,0,0,1-3.756-1.209,2.207,2.207,0,0,1,0-.427,9.894,9.894,0,0,0,.441-2.4,1.259,1.259,0,0,0-.231-.59c-1-1.342-3.354.6-4.3-.614-.58-.745.1-1.917-.343-2.749-.587-1.1-2.326-.557-3.417-1.158-1.214-.669-1.141-2.531-.342-3.664a5.763,5.763,0,0,1,4.369-2.224,11.72,11.72,0,0,1,4.937.964,9.866,9.866,0,0,1,4.665,3.234,7.9,7.9,0,0,1,.8,6.723A12.67,12.67,0,0,1,760.149,331.226Z" transform="translate(-587.758 -281.534)" fill="#2f2e41"/>
    <path id="Path_64741" data-name="Path 64741" d="M468.4,707.846H265.822a.327.327,0,1,1,0-.653H468.4a.327.327,0,1,1,0,.653Z" transform="translate(-237.921 -565.265)" fill="#3f3d56"/>
    <path id="Path_64742" data-name="Path 64742" d="M534.953,380.568h-35.67a1.774,1.774,0,0,1-1.784-1.76V299.191a1.774,1.774,0,0,1,1.783-1.76h35.67a1.774,1.774,0,0,1,1.783,1.76v79.617A1.774,1.774,0,0,1,534.953,380.568Z" transform="translate(-406.268 -267.934)" fill="#fff"/>
    <rect id="Rectangle_6562" data-name="Rectangle 6562" width="39.237" height="0.549" transform="translate(91.232 55.258)" fill="#ccc"/>
    <rect id="Rectangle_6563" data-name="Rectangle 6563" width="39.237" height="0.549" transform="translate(91.369 86.568)" fill="#ccc"/>
    <rect id="Rectangle_6564" data-name="Rectangle 6564" width="0.549" height="83.412" transform="translate(103.579 29.496)" fill="#ccc"/>
    <rect id="Rectangle_6565" data-name="Rectangle 6565" width="0.549" height="83.412" transform="translate(117.298 29.496)" fill="#ccc"/>
  </g>
</svg>
