<svg xmlns="http://www.w3.org/2000/svg" xmlns:xlink="http://www.w3.org/1999/xlink" width="133.578" height="155.801" viewBox="0 0 133.578 155.801">
  <defs>
    <linearGradient id="linear-gradient" x1="0.5" x2="0.5" y2="1" gradientUnits="objectBoundingBox">
      <stop offset="0" stop-color="#fdb9af"/>
      <stop offset="1" stop-color="#ff73aa"/>
    </linearGradient>
    <linearGradient id="linear-gradient-2" x1="0.5" x2="0.5" y2="1" gradientUnits="objectBoundingBox">
      <stop offset="0" stop-color="#00bfb6"/>
      <stop offset="1" stop-color="#70fff8"/>
    </linearGradient>
  </defs>
  <g id="undraw_authentication_re_svpt" transform="translate(0 0)">
    <path id="Path_64743" data-name="Path 64743" d="M457.649,190.623H332.593a4.208,4.208,0,0,1-4.2-4.2V137.4a4.208,4.208,0,0,1,4.2-4.2H457.649a4.208,4.208,0,0,1,4.2,4.2V186.42a4.208,4.208,0,0,1-4.2,4.2Z" transform="translate(-328.39 -133.199)" fill="url(#linear-gradient)"/>
    <path id="Path_64744" data-name="Path 64744" d="M436.706,196.17h-76.04A21.4,21.4,0,0,1,339.294,174.8v-9.316a21.4,21.4,0,0,1,21.372-21.373h85.356a21.4,21.4,0,0,1,21.372,21.373,30.723,30.723,0,0,1-30.689,30.688Z" transform="translate(-336.613 -141.427)" fill="#fff"/>
    <path id="Path_64745" data-name="Path 64745" d="M498.206,194.527H447.943a1.084,1.084,0,0,1,0-2.168h50.263a1.084,1.084,0,0,1,0,2.168Z" transform="translate(-417.728 -177.812)" fill="#e6e6e6"/>
    <path id="Path_64746" data-name="Path 64746" d="M523.65,241.558H447.943a1.084,1.084,0,0,1,0-2.168H523.65a1.084,1.084,0,0,1,0,2.168Z" transform="translate(-417.728 -213.278)" fill="#e6e6e6"/>
    <path id="Path_64747" data-name="Path 64747" d="M523.65,288.589H447.943a1.084,1.084,0,0,1,0-2.168H523.65a1.084,1.084,0,0,1,0,2.168Z" transform="translate(-417.728 -248.744)" fill="#e6e6e6"/>
    <path id="Path_64748" data-name="Path 64748" d="M523.65,288.589H447.943a1.084,1.084,0,0,1,0-2.168H523.65a1.084,1.084,0,0,1,0,2.168Z" transform="translate(-417.728 -248.744)" fill="#e6e6e6"/>
    <path id="Path_64749" data-name="Path 64749" d="M634.1,246.414a2.235,2.235,0,0,0,2.707,2.1l4.134,6.781,1.759-3.733-4.2-5.867a2.247,2.247,0,0,0-4.4.718Z" transform="translate(-558.923 -216.807)" fill="#ffb6b6"/>
    <path id="Path_64750" data-name="Path 64750" d="M677.016,281.7l-14.245-7.727-4.493-4.216s-1.953-.523-1.234-1.158-1.33-1.248-1.33-1.248l-2.412-2.263-3.428,2.425.992,1.538s-.068,2.546,1.326,2.056,1.046,1.621,1.046,1.621l8.324,12.9Z" transform="translate(-570.821 -232.655)" fill="#3f3d56"/>
    <circle id="Ellipse_3198" data-name="Ellipse 3198" cx="13.914" cy="13.914" r="13.914" transform="translate(50.229 13.933)" fill="url(#linear-gradient-2)"/>
    <path id="Path_64751" data-name="Path 64751" d="M418.949,577.378h-2.893l-1.377-11.159h4.27Z" transform="translate(-312.711 -426.987)" fill="#ffb6b6"/>
    <path id="Path_64752" data-name="Path 64752" d="M735.567,742.89h-2.075l-.37-1.959-.948,1.959h-5.5a1.237,1.237,0,0,1-.7-2.255l4.394-3.035v-1.98l4.622.276Z" transform="translate(-627.802 -587.486)" fill="#2f2e41"/>
    <path id="Path_64753" data-name="Path 64753" d="M324.847,577.378h-2.893l-1.377-11.159h4.27Z" transform="translate(-241.748 -426.987)" fill="#ffb6b6"/>
    <path id="Path_64754" data-name="Path 64754" d="M641.465,742.89h-2.075l-.37-1.959-.948,1.959h-5.5a1.237,1.237,0,0,1-.7-2.255l4.394-3.035v-1.98l4.622.276Z" transform="translate(-556.839 -587.486)" fill="#2f2e41"/>
    <rect id="Rectangle_6566" data-name="Rectangle 6566" width="14.603" height="16.625" transform="translate(88.566 65.994)" fill="#ffb6b6"/>
    <path id="Path_64755" data-name="Path 64755" d="M629.307,434.927l-2.471,2.921-4.269,8.986-10.755,25.59-2.275,5.412,1.837,9.567s.3,6.74.3,7.844a4.494,4.494,0,0,0,1.879,3.491l1.379,7.18,13.367-.562s-.466-7.914-3.266-9.91-4.087-12.4-4.087-12.4l-1.521-4.616,14.827-17.576.1,6.144.046,2.974s-2.171,19.341.36,23.095.052,3.312.052,3.312l.121,7.743,15.838.112-3.494-22.292s-1.774-1.4-.825-2.809-.92-3.133-.92-3.133l.838-17.4s-.928-3.006.164-3.4.143-2.976.143-2.976l.162-3.368-3.258-10.446Z" transform="translate(-540.404 -360.733)" fill="#2f2e41"/>
    <path id="Path_64756" data-name="Path 64756" d="M692.95,323.729l1.573-4.718,1.123-1.573.449-4.493c0-12.131-2.706-10.111-2.706-10.111l-1.562-4.267-7.189-.225-4.606,4.381-3.819,1.348-1.5,7.771,2.731,8.292.674,4.493c-1.286,2.373-1.177,1.251-.112,3.033l12.693,3.482c4.493,1.573,4.493-2.471,3.592-3.482S692.95,323.729,692.95,323.729Z" transform="translate(-589.557 -257.734)" fill="#3f3d56"/>
    <circle id="Ellipse_3199" data-name="Ellipse 3199" cx="6.664" cy="6.664" r="6.664" transform="translate(91.082 25.771)" fill="#ffb6b6"/>
    <path id="Path_64757" data-name="Path 64757" d="M699.506,307.834" transform="translate(-608.25 -264.892)" fill="#2f2e41"/>
    <path id="Path_64758" data-name="Path 64758" d="M709.428,249.239a.819.819,0,0,1-.456,1.2c-.894.3-1.445,1.161-2.087,1.853s-1.671,1.263-2.489.793-.872-1.66-1.555-2.307a2.164,2.164,0,0,0-2.552-.074l-.023.014a.824.824,0,0,1-1.261-.838l.821-4.37a14.694,14.694,0,0,1-3.076,4.65,3.382,3.382,0,0,1-1.334.939c-.467.148-.921-.335-1.375-.247,1.128-.986,4.92-7.308,4.241-11.534l-2.393.27a2.2,2.2,0,0,0-.535-1.009,2.585,2.585,0,0,1-.137,1.085l-1,.112a2.149,2.149,0,0,1-1.364-.146c-.663-.4-.683-1.361-.494-2.116a7.791,7.791,0,0,1,4.28-4.992c2.051-.959,2.658,1.177,4.819.494,4.268-1.348,7.539.957,8.692,5.234C711.119,241.836,710.416,245.644,709.428,249.239Z" transform="translate(-602.784 -207.907)" fill="#2f2e41"/>
    <path id="Path_64759" data-name="Path 64759" d="M805.674,739.124h-8.161l-.035-.064c-.1-.189-.205-.39-.3-.6a22.463,22.463,0,0,1-1.509-5.674l-.236-1.369a.845.845,0,0,1,1.33-.827q1.86,1.354,3.722,2.7c.47.342,1.007.738,1.521,1.165.05-.241.1-.482.153-.721a.846.846,0,0,1,1.544-.267l.955,1.534a5.59,5.59,0,0,1,1.186,3.415.19.19,0,0,1,0,.043,2.692,2.692,0,0,1-.139.573Z" transform="translate(-680.58 -583.575)" fill="#f0f0f0"/>
    <path id="Path_64760" data-name="Path 64760" d="M631.715,764.7l-77.546.076a.293.293,0,1,1,0-.586l77.546-.076a.293.293,0,0,1,0,.586Z" transform="translate(-498.43 -608.972)" fill="#cacaca"/>
    <path id="Path_64761" data-name="Path 64761" d="M556.377,287.025l-8.53-7.2a1.442,1.442,0,0,1-.171-2.03l1.57-1.859a1.442,1.442,0,0,1,2.03-.171l8.53,7.2a1.442,1.442,0,0,1,.171,2.03l-1.57,1.859A1.442,1.442,0,0,1,556.377,287.025Z" transform="translate(-493.499 -240.45)" fill="#3f3d56"/>
    <path id="Path_64762" data-name="Path 64762" d="M550.673,279.123a.777.777,0,0,0,.092,1.094l8.53,7.2a.777.777,0,0,0,1.094-.092l1.57-1.859a.777.777,0,0,0-.092-1.094l-8.53-7.2a.777.777,0,0,0-1.094.092Z" transform="translate(-495.877 -241.632)" fill="#fff"/>
    <path id="Path_64763" data-name="Path 64763" d="M565.664,287.149a.328.328,0,0,1-.259.137l-1.34.031a.328.328,0,1,1-.015-.656l.877-.02-.863-2.278a.328.328,0,1,1,.613-.232l1.028,2.712a.328.328,0,0,1-.035.3Z" transform="translate(-505.86 -246.857)" fill="#00bfb6"/>
    <path id="Path_64764" data-name="Path 64764" d="M564.359,299.3a2.235,2.235,0,0,1,1.795,2.919l6.292,4.847-3.9,1.343-5.376-4.808a2.247,2.247,0,0,1,1.192-4.3Z" transform="translate(-504.384 -258.439)" fill="#ffb6b6"/>
    <path id="Path_64765" data-name="Path 64765" d="M609.947,309.129l-16.109,9.9s-6.495-2.4-5.226-3.516-2.771-1.865-2.771-1.865l-4.464-3-2.59,3.01s.472,4.89,1.275,4.043,2,1.466,2,1.466.355,2.583,2.641,1.933,8.42,6.163,8.42,6.163l19.825-7.394Z" transform="translate(-517.215 -265.869)" fill="#3f3d56"/>
    <path id="Path_64766" data-name="Path 64766" d="M574.518,234.625a1.2,1.2,0,0,1-.962-.481l-2.95-3.934a1.2,1.2,0,0,1,1.925-1.443l1.93,2.573,4.957-7.436a1.2,1.2,0,0,1,2,1.335l-5.9,8.851a1.2,1.2,0,0,1-.968.535Z" transform="translate(-510.864 -201.196)" fill="#fff"/>
  </g>
</svg>
