<svg id="_67" data-name="67" xmlns="http://www.w3.org/2000/svg" xmlns:xlink="http://www.w3.org/1999/xlink" width="169.658" height="113.105" viewBox="0 0 169.658 113.105">
  <defs>
    <linearGradient id="linear-gradient" x1="0.5" x2="0.5" y2="1" gradientUnits="objectBoundingBox">
      <stop offset="0" stop-color="#9fbfff" stop-opacity="0.502"/>
      <stop offset="1" stop-color="#2879f3"/>
    </linearGradient>
    <linearGradient id="linear-gradient-2" x1="0.5" x2="0.5" y2="1" gradientUnits="objectBoundingBox">
      <stop offset="0" stop-color="#9fc3ff" stop-opacity="0.502"/>
      <stop offset="1" stop-color="#286cf3"/>
    </linearGradient>
    <linearGradient id="linear-gradient-3" x1="0.5" x2="0.5" y2="1" gradientUnits="objectBoundingBox">
      <stop offset="0" stop-color="#fac47f"/>
      <stop offset="1" stop-color="#f8a946"/>
    </linearGradient>
  </defs>
  <path id="Path_59017" data-name="Path 59017" d="M0,0H169.658V113.105H0Z" fill="none"/>
  <path id="Path_59018" data-name="Path 59018" d="M546.781,180.929c-4.807-2.338-9.878.415-16.89,6.372-5.278,4.487-10.142,8.5-13.667,15.533a38.61,38.61,0,0,0-3.883,14.459c-.339,4.807-1.357,10.726,2.752,13.026,5.655,3.167,21.961-2.187,30.482-17.908,9.35-17.267,5.9-29.2,1.206-31.481Z" transform="translate(-415.465 -146.149)" fill="#fff"/>
  <path id="Path_59019" data-name="Path 59019" d="M287.02,144.831c3.563,3.242,2.96,8.408.3,16.287-2,5.919-3.732,11.348-8.445,16.627a34.837,34.837,0,0,1-10.8,8.068c-3.9,1.885-8.521,4.732-11.82,2.036-4.543-3.695-5.5-19.115,4.807-31.5,11.348-13.592,22.489-14.685,25.958-11.518Z" transform="translate(-205.302 -116.329)" fill="#fff"/>
  <path id="Path_59020" data-name="Path 59020" d="M497.459,125.657c-5.938,6.636-17.663,5.825-17.663,5.825s-2.074-11.556,3.883-18.191c5.938-6.636,17.663-5.825,17.663-5.825S503.4,119.021,497.459,125.657Z" transform="translate(-389.067 -87.182)" fill="#fff"/>
  <g id="Group_56199" data-name="Group 56199" transform="translate(55.704 27.089)">
    <path id="Path_59021" data-name="Path 59021" d="M370.887,172.733v32.1a7.12,7.12,0,0,1-7.126,7.126H313.826a7.12,7.12,0,0,1-7.126-7.126v-32.1a7.12,7.12,0,0,1,7.126-7.126h7.126l5.222-8.935a3.57,3.57,0,0,1,3.073-1.772h18.926a3.567,3.567,0,0,1,3.054,1.734l5.391,8.973h7.126a7.112,7.112,0,0,1,7.145,7.126Z" transform="translate(-304.589 -152.789)" fill-rule="evenodd" fill="url(#linear-gradient)"/>
    <path id="Path_59022" data-name="Path 59022" d="M354.673,204.984H304.737a9.252,9.252,0,0,1-9.237-9.237v-32.1a9.252,9.252,0,0,1,9.237-9.237h5.938l4.6-7.9a5.69,5.69,0,0,1,4.9-2.809H339.1a5.7,5.7,0,0,1,4.845,2.733l4.788,7.955h5.957a9.252,9.252,0,0,1,9.237,9.237v32.1A9.284,9.284,0,0,1,354.673,204.984Zm-49.936-46.373a5.044,5.044,0,0,0-5.033,5.033v32.1a5.044,5.044,0,0,0,5.033,5.033h49.936a5.044,5.044,0,0,0,5.033-5.033v-32.1a5.044,5.044,0,0,0-5.033-5.033h-7.126a2.064,2.064,0,0,1-1.791-1.018l-5.391-8.973a1.5,1.5,0,0,0-1.263-.716H320.157a1.457,1.457,0,0,0-1.263.735l-5.222,8.935a2.113,2.113,0,0,1-1.81,1.037Z" transform="translate(-295.5 -143.7)" fill="url(#linear-gradient-2)"/>
  </g>
  <path id="Path_59023" data-name="Path 59023" d="M436.679,247.817a11.344,11.344,0,0,1,0,16.155,11.617,11.617,0,0,1-16.325,0,11.344,11.344,0,0,1,0-16.155A11.617,11.617,0,0,1,436.679,247.817Zm8.973-7.239a2.279,2.279,0,1,1-3.224,0A2.253,2.253,0,0,1,445.652,240.579Z" transform="translate(-338.371 -194.677)" fill="#fff" fill-rule="evenodd"/>
  <path id="Path_59024" data-name="Path 59024" d="M630.17,150.718v.792H631a.612.612,0,0,1,.622.6.624.624,0,0,1-.622.6h-.829v.792a.624.624,0,0,1-.622.6.612.612,0,0,1-.622-.6v-.773H628.1a.612.612,0,0,1-.622-.6.624.624,0,0,1,.622-.6h.829v-.792a.624.624,0,0,1,.622-.6A.585.585,0,0,1,630.17,150.718Zm-5.486-8.068v1.093h1.15a.831.831,0,1,1,0,1.659h-1.15V146.5a.888.888,0,0,1-1.772,0v-1.074h-1.169a.831.831,0,1,1,0-1.659h1.15v-1.093a.862.862,0,0,1,.886-.829A.841.841,0,0,1,624.684,142.65Zm-10.293-4.505v1.6h1.64a1.225,1.225,0,1,1,0,2.451h-1.64v1.6a1.244,1.244,0,0,1-2.488,0v-1.6h-1.659a1.225,1.225,0,1,1,0-2.451h1.64v-1.621a1.254,1.254,0,0,1,2.507.019Z" transform="translate(-494.198 -111.093)" fill="#ffd514" fill-rule="evenodd"/>
  <circle id="Ellipse_3115" data-name="Ellipse 3115" cx="1" cy="1" r="1" transform="translate(46.829 44.553)" fill="#e1e4e5"/>
  <path id="Path_59025" data-name="Path 59025" d="M413.714,181.826h-.057c-.283,3.619-3.28,3.676-3.28,3.676s3.3.057,3.3,4.241c0-4.185,3.3-4.241,3.3-4.241S414,185.445,413.714,181.826ZM350.187,156h-.038A2.308,2.308,0,0,1,348,158.356s2.168.038,2.168,2.733c0-2.7,2.168-2.733,2.168-2.733A2.308,2.308,0,0,1,350.187,156Z" transform="translate(-282.399 -126.593)" fill="#ff4e98"/>
  <path id="Path_59026" data-name="Path 59026" d="M577.645,414.681h.566a.25.25,0,0,1,.245.245v.566a.25.25,0,0,1-.245.245h-.566a.25.25,0,0,1-.245-.245v-.566a.25.25,0,0,1,.245-.245Zm1.942,0h.566a.25.25,0,0,1,.245.245v.566a.25.25,0,0,1-.245.245h-.566a.25.25,0,0,1-.245-.245v-.566A.25.25,0,0,1,579.587,414.681Zm1.942,0h.566a.25.25,0,0,1,.245.245v.566a.25.25,0,0,1-.245.245h-.566a.25.25,0,0,1-.245-.245v-.566a.25.25,0,0,1,.245-.245Zm1.942,0h.565a.25.25,0,0,1,.245.245v.566a.25.25,0,0,1-.245.245h-.565a.25.25,0,0,1-.245-.245v-.566A.25.25,0,0,1,583.47,414.681Zm1.942,0h.565a.25.25,0,0,1,.245.245v.566a.25.25,0,0,1-.245.245h-.565a.25.25,0,0,1-.245-.245v-.566A.25.25,0,0,1,585.412,414.681Zm-5.75,2.111h.565a.25.25,0,0,1,.245.245v.566a.25.25,0,0,1-.245.245h-.565a.25.25,0,0,1-.245-.245v-.566a.238.238,0,0,1,.245-.245Zm1.942,0h.566a.25.25,0,0,1,.245.245v.566a.25.25,0,0,1-.245.245H581.6a.249.249,0,0,1-.245-.245v-.566a.238.238,0,0,1,.245-.245Zm1.942,0h.566a.25.25,0,0,1,.245.245v.566a.25.25,0,0,1-.245.245h-.566a.25.25,0,0,1-.245-.245v-.566a.25.25,0,0,1,.245-.245Zm-2.017-4.392h.566a.25.25,0,0,1,.245.245v.566a.25.25,0,0,1-.245.245h-.566a.25.25,0,0,1-.245-.245v-.566a.25.25,0,0,1,.245-.245Zm1.942,0h.565a.25.25,0,0,1,.245.245v.566a.25.25,0,0,1-.245.245h-.565a.25.25,0,0,1-.245-.245v-.566A.25.25,0,0,1,583.47,412.4Z" transform="translate(-468.555 -334.659)" fill="#fff" fill-rule="evenodd"/>
  <path id="Path_59027" data-name="Path 59027" d="M214.246,274.366l-5.58,5.58a.512.512,0,0,1-.735,0h0a.512.512,0,0,1,0-.735l5.58-5.58a.512.512,0,0,1,.735,0h0A.512.512,0,0,1,214.246,274.366Z" transform="translate(-168.608 -221.922)" fill="#e1e4e5"/>
  <path id="Path_59028" data-name="Path 59028" d="M213.268,274.266l-1.6,1.6a.512.512,0,0,1-.735,0h0a.512.512,0,0,1,0-.735l1.6-1.6a.512.512,0,0,1,.735,0h0A.512.512,0,0,1,213.268,274.266Z" transform="translate(-171.042 -221.841)" fill="#e1e4e5"/>
  <circle id="Ellipse_3116" data-name="Ellipse 3116" cx="1.697" cy="1.697" r="1.697" transform="translate(46.882 62.208)" fill="url(#linear-gradient-3)"/>
  <path id="Path_59029" data-name="Path 59029" d="M209.629,201.441a3.193,3.193,0,0,1,.434.019,7.052,7.052,0,1,0-9.03,7.522,9.007,9.007,0,0,1,2-4.468,8.517,8.517,0,0,1,6.6-3.073Zm-.019,1.32a3.941,3.941,0,0,1,.471.019,7.062,7.062,0,0,1-7.031,6.485c-.245,0-.49-.019-.735-.038a7.554,7.554,0,0,1,1.715-3.883A7.253,7.253,0,0,1,209.61,202.76Zm-8.69-1.791a1.561,1.561,0,0,0,1.565-1.565h0a1.561,1.561,0,0,0-1.565-1.565h0a1.561,1.561,0,0,0-1.565,1.565h0a1.561,1.561,0,0,0,1.565,1.565Zm97.8,2.055a1.828,1.828,0,0,1,.32.019,5.519,5.519,0,1,0-7.182,5.976,7,7,0,0,1,1.6-3.544,6.7,6.7,0,0,1,5.259-2.451Zm-.019,1.32a2.283,2.283,0,0,1,.358.019,5.524,5.524,0,0,1-5.919,4.92,6,6,0,0,1,1.3-2.96,5.509,5.509,0,0,1,4.26-1.979Zm-6.786-1.546a1.225,1.225,0,1,0-1.225-1.225A1.223,1.223,0,0,0,291.913,202.8Zm-79.193-48.108a1.83,1.83,0,0,1,.32.019,5.517,5.517,0,1,0-9.369,4.637,5.453,5.453,0,0,0,2.187,1.338,7,7,0,0,1,1.6-3.544,6.755,6.755,0,0,1,5.259-2.451Zm-.019,1.32a2.282,2.282,0,0,1,.358.019,5.524,5.524,0,0,1-5.919,4.92,6,6,0,0,1,1.3-2.96A5.481,5.481,0,0,1,212.7,156.01Zm-6.805-1.546a1.225,1.225,0,1,0-1.225-1.225,1.223,1.223,0,0,0,1.225,1.225Z" transform="translate(-159.052 -121.664)" fill="#ff4e98" fill-rule="evenodd"/>
</svg>
