<svg xmlns="http://www.w3.org/2000/svg" xmlns:xlink="http://www.w3.org/1999/xlink" width="134" height="134" viewBox="0 0 134 134">
  <defs>
    <linearGradient id="linear-gradient" x1="0.5" x2="0.5" y2="1" gradientUnits="objectBoundingBox">
      <stop offset="0" stop-color="#f4f5f7"/>
      <stop offset="1" stop-color="#e5e8ed"/>
    </linearGradient>
    <filter id="Base" x="0" y="0" width="134" height="134" filterUnits="userSpaceOnUse">
      <feOffset dy="12" input="SourceAlpha"/>
      <feGaussianBlur stdDeviation="10" result="blur"/>
      <feFlood flood-color="#002f70" flood-opacity="0.239"/>
      <feComposite operator="in" in2="blur"/>
      <feComposite in="SourceGraphic"/>
    </filter>
    <linearGradient id="linear-gradient-2" x1="0.5" x2="0.5" y2="1" gradientUnits="objectBoundingBox">
      <stop offset="0" stop-color="#6c4dda" stop-opacity="0.6"/>
      <stop offset="1" stop-color="#522ed2"/>
    </linearGradient>
    <clipPath id="clip-path">
      <rect id="Rectangle" width="72" height="72" rx="16" fill="#1761c5"/>
    </clipPath>
    <clipPath id="clip-path-2">
      <path id="Mask" d="M2.639,0H16.711L19.35,31.275H0Z" fill="#fff"/>
    </clipPath>
    <clipPath id="clip-path-3">
      <path id="Mask-2" data-name="Mask" d="M2.818,14.983a13.05,13.05,0,0,1,7.719-8.727L26.02,0s4.16,10.579,7.73,10.579S41.513,0,41.513,0L56.969,6.254a13.05,13.05,0,0,1,7.712,8.725L67.5,25.515H0Z" transform="translate(0)" fill="url(#linear-gradient)"/>
    </clipPath>
    <linearGradient id="linear-gradient-4" x1="0.5" x2="0.5" y2="1" gradientUnits="objectBoundingBox">
      <stop offset="0" stop-color="#23d2c3"/>
      <stop offset="1" stop-color="#01bcad"/>
    </linearGradient>
    <filter id="Oval" x="36.998" y="65" width="60" height="60" filterUnits="userSpaceOnUse">
      <feOffset dy="4" input="SourceAlpha"/>
      <feGaussianBlur stdDeviation="4" result="blur-2"/>
      <feFlood flood-opacity="0.078"/>
      <feComposite operator="in" in2="blur-2"/>
      <feComposite in="SourceGraphic"/>
    </filter>
  </defs>
  <g id="Group_57256" data-name="Group 57256" transform="translate(-101.016 -13)">
    <g id="Avatar" transform="translate(132.016 32)">
      <g transform="matrix(1, 0, 0, 1, -31, -19)" filter="url(#Base)">
        <g id="Base-2" data-name="Base" transform="translate(31 19)" fill="#fff" stroke="#fff" stroke-width="1">
          <rect width="72" height="72" rx="16" stroke="none"/>
          <rect x="-0.5" y="-0.5" width="73" height="73" rx="16.5" fill="none"/>
        </g>
      </g>
      <g id="Pic">
        <rect id="Rectangle-2" data-name="Rectangle" width="72" height="72" rx="16" fill="url(#linear-gradient-2)"/>
        <g id="Pic-2" data-name="Pic" clip-path="url(#clip-path)">
          <circle id="Oval-2" data-name="Oval" cx="22.275" cy="22.275" r="22.275" transform="translate(-10.575 -15.75)" fill="none" stroke="#fff" stroke-width="9" opacity="0.21"/>
          <circle id="Oval-3" data-name="Oval" cx="29.25" cy="29.25" r="29.25" transform="translate(39.375 37.8)" fill="none" stroke="#fff" stroke-width="9" opacity="0.21"/>
          <g id="Group" transform="translate(2.25 3.697)">
            <g id="Path_58" data-name="Path 58" transform="translate(24.075 34.028)">
              <path id="Mask-3" data-name="Mask" d="M2.639,0H16.711L19.35,31.275H0Z" fill="#fff"/>
              <g id="Path_58-2" data-name="Path 58" clip-path="url(#clip-path-2)">
                <path id="Path_58-3" data-name="Path 58" d="M.569,2.3s1.567,4.5,7.484,5.5,9.306,0,9.306,0L16.12,0,0,.075Z" transform="translate(1.507 0.675)" fill="#1761c5" opacity="0.6"/>
              </g>
            </g>
            <g id="Rectangle-3" data-name="Rectangle" transform="translate(0 43.013)">
              <path id="Mask-4" data-name="Mask" d="M2.818,14.983a13.05,13.05,0,0,1,7.719-8.727L26.02,0s4.16,10.579,7.73,10.579S41.513,0,41.513,0L56.969,6.254a13.05,13.05,0,0,1,7.712,8.725L67.5,25.515H0Z" transform="translate(0)" fill="url(#linear-gradient)"/>
              <g id="Rectangle-4" data-name="Rectangle" clip-path="url(#clip-path-3)">
                <rect id="Rectangle-5" data-name="Rectangle" width="0.9" height="16.875" transform="translate(33.3 8.865)" fill="#becae4"/>
                <path id="Path_2" data-name="Path 2" d="M1.452,5.527,2.3,0,0,5.527Z" transform="translate(13.44 19.988)" fill="#becae4"/>
                <path id="Path_2-2" data-name="Path 2" d="M-1.452,5.527-2.3,0,0,5.527Z" transform="translate(56.014 19.988)" fill="#becae4"/>
              </g>
            </g>
            <path id="Path" d="M.156,2.612a.675.675,0,0,1,.394-.8L4.948,0c2.605,6.877,5.142,10.27,7.127,10.7,0,0-1.667,6.807-3.061,7.3-.643.228-4.571-2.32-6.833-7.915Z" transform="translate(21.001 42.812)" fill="#002f70"/>
            <path id="Path-2" data-name="Path" d="M-.156,2.612a.675.675,0,0,0-.394-.8L-4.948,0c-2.605,6.877-5.142,10.27-7.127,10.7,0,0,1.667,6.807,3.061,7.3.643.228,4.571-2.32,6.833-7.915Z" transform="translate(46.478 42.812)" fill="#002f70"/>
            <path id="Rectangle-6" data-name="Rectangle" d="M.073,0h22.95s-.043,15.281-.45,20.852l-.161.894a11.039,11.039,0,0,1-10.864,9.078h0A11.039,11.039,0,0,1,.684,21.747l-.161-.894C-.2,11.011.073,0,.073,0Z" transform="translate(22.877 9.128)" fill="#fff"/>
            <ellipse id="Oval-4" data-name="Oval" cx="2.025" cy="1.013" rx="2.025" ry="1.013" transform="translate(26.325 27)" fill="#fde0d5"/>
            <ellipse id="Oval-5" data-name="Oval" cx="2.025" cy="1.013" rx="2.025" ry="1.013" transform="translate(38.7 27)" fill="#fde0d5"/>
            <circle id="Oval-6" data-name="Oval" cx="1.013" cy="1.013" r="1.013" transform="translate(28.35 22.403)" fill="#002f70"/>
            <circle id="Oval-7" data-name="Oval" cx="1.013" cy="1.013" r="1.013" transform="translate(38.7 22.403)" fill="#002f70"/>
            <path id="Path_55" data-name="Path 55" d="M0,3.341A5.55,5.55,0,0,0,6.3,7.459C11.476,6.793,14.468.865,19.33,6c0,0-3.064-6.714-9.887-5.91S0,3.341,0,3.341Z" transform="translate(25.244 7.653)" fill="#325cd8" opacity="0.34"/>
            <path id="Path_45" data-name="Path 45" d="M0,0S.875,2.622,5.42,3.452" transform="translate(25.244 10.995)" fill="none" stroke="#002f70" stroke-linecap="round" stroke-width="0.675"/>
            <path id="Path_51" data-name="Path 51" d="M3.234,24.428S-3.816,8.776,4.5,6.406c0,0,.334-6.218,5.711-6.394s6.252,1.583,10.857,2.2,8.116,5.07,8.116,10.3-3,11.918-3,11.918.483-12.129-4.591-13.433-6.549,1.844-9.847,1.844a12.446,12.446,0,0,1-6.217-2.012,50.764,50.764,0,0,1-.6,5.535C4.446,19.226,3.234,24.428,3.234,24.428Z" transform="translate(19.716 0)" fill="#002f70"/>
            <path id="Path_52" data-name="Path 52" d="M0,.843A5,5,0,0,1,4.3.348" transform="translate(26.826 18.899)" fill="none" stroke="#002f70" stroke-linecap="round" stroke-width="0.9"/>
            <path id="Path_52-2" data-name="Path 52" d="M0,.843A5,5,0,0,0-4.3.348" transform="translate(42.377 18.899)" fill="none" stroke="#002f70" stroke-linecap="round" stroke-width="0.9"/>
            <g id="Group_2" data-name="Group 2" transform="translate(45.188 21.738)">
              <path id="Path_53" data-name="Path 53" d="M.336,2.477S1.9-1.5,4.29.912,3.9,10.036,0,7.78Z" transform="translate(0 -0.134)" fill="#fff"/>
              <path id="Path_54" data-name="Path 54" d="M0,3.374Q.441.514,1.6,0" transform="translate(1.643 1.949)" fill="none" stroke="#ccd4e6" stroke-linecap="round" stroke-width="0.675"/>
            </g>
            <g id="Group_2-2" data-name="Group 2" transform="translate(18.413 21.738)">
              <path id="Path_53-2" data-name="Path 53" d="M-.336,2.477S-1.9-1.5-4.29.912-3.9,10.036,0,7.78Z" transform="translate(5.175 -0.134)" fill="#fff"/>
              <path id="Path_54-2" data-name="Path 54" d="M0,3.374Q-.441.514-1.6,0" transform="translate(3.532 1.949)" fill="none" stroke="#ccd4e6" stroke-linecap="round" stroke-width="0.675"/>
            </g>
            <path id="Path_56" data-name="Path 56" d="M.881,0V2.335c0,1.436,3,5.993,1.054,6.561A16.875,16.875,0,0,1,0,9.426" transform="translate(33.522 19.701)" fill="none" stroke="#ccd4e6" stroke-linecap="round" stroke-width="0.9"/>
            <path id="Path_57" data-name="Path 57" d="M0,0S3.437,1.6,5.99,0" transform="translate(31.635 33.227)" fill="none" stroke="#ccd4e6" stroke-linecap="round" stroke-width="0.675"/>
          </g>
        </g>
      </g>
    </g>
    <g id="Selected" transform="translate(152.014 88)">
      <g transform="matrix(1, 0, 0, 1, -51, -75)" filter="url(#Oval)">
        <g id="Oval-8" data-name="Oval" transform="translate(51 75)" stroke="#fff" stroke-width="2" fill="url(#linear-gradient-4)">
          <circle cx="16" cy="16" r="16" stroke="none"/>
          <circle cx="16" cy="16" r="17" fill="none"/>
        </g>
      </g>
      <g id="Icon" transform="translate(4 4)">
        <rect id="Icons_Glyph_24_White_tick_background" data-name="Icons / Glyph / 24 / White / tick background" width="24" height="24" fill="none"/>
        <rect id="Bound" width="24" height="24" fill="none"/>
        <path id="Path-3" data-name="Path" d="M0,6.559,4.958,11.6,14.4,0" transform="translate(4.8 5.7)" fill="none" stroke="#f6f7f8" stroke-linecap="round" stroke-linejoin="round" stroke-width="2.4"/>
      </g>
    </g>
  </g>
</svg>
