<svg id="Group_57309" data-name="Group 57309" xmlns="http://www.w3.org/2000/svg" xmlns:xlink="http://www.w3.org/1999/xlink" width="57.24" height="57.25" viewBox="0 0 57.24 57.25">
  <defs>
    <linearGradient id="linear-gradient" x1="0.509" y1="1.798" x2="0.49" y2="0.079" gradientUnits="objectBoundingBox">
      <stop offset="0" stop-color="#d7e3ee"/>
      <stop offset="0.705" stop-color="#ccd8e3"/>
      <stop offset="0.958" stop-color="#b1bbc6"/>
    </linearGradient>
    <linearGradient id="linear-gradient-2" x1="0.257" y1="1.151" x2="0.974" y2="-0.77" gradientUnits="objectBoundingBox">
      <stop offset="0" stop-color="#f6f6f6"/>
      <stop offset="0.228" stop-color="#edeeef"/>
      <stop offset="0.595" stop-color="#d6d9db"/>
      <stop offset="1" stop-color="#b4bbc0"/>
    </linearGradient>
  </defs>
  <g id="Group_57292" data-name="Group 57292">
    <g id="Group_57295" data-name="Group 57295">
      <path id="Container" d="M28.62,0A28.62,28.62,0,0,1,57.24,28.62v.01A28.62,28.62,0,0,1,0,28.63v-.01A28.62,28.62,0,0,1,28.62,0Z" fill="#fff"/>
    </g>
  </g>
  <g id="icons8-smurf" transform="translate(11.181 11.186)">
    <path id="Path_65351" data-name="Path 65351" d="M30.86,24.018v1.228H7V24.018a16.65,16.65,0,0,1,1.137-5.684c.674-1.607,2.33-4.014,4.091-8.049Q12.891,8.8,13.547,7H24.312q.653,1.8,1.319,3.284c1.761,4.035,3.418,6.442,4.091,8.049A16.65,16.65,0,0,1,30.86,24.018Z" transform="translate(-1.491 -1.491)" fill="url(#linear-gradient)"/>
    <path id="Path_65352" data-name="Path 65352" d="M21.614,2C18.514,2,16,4.2,16,6.912s2.514,4.912,5.614,4.912,5.614-2.2,5.614-4.912S24.714,2,21.614,2Z" transform="translate(-4.175)" fill="url(#linear-gradient-2)"/>
    <path id="Path_65353" data-name="Path 65353" d="M7.614,32.4a3.329,3.329,0,0,0-.7-.7A3.507,3.507,0,0,0,4.807,31,2.617,2.617,0,0,0,2,33.807c0,2.456,2.105,5.614,6.667,5.614a3.553,3.553,0,0,0,2.456-.7Z" transform="translate(0 -8.649)" fill="#3a93f4"/>
    <path id="Path_65354" data-name="Path 65354" d="M8.509,35.4A2.816,2.816,0,0,0,6.4,34,1.322,1.322,0,0,0,5,35.4a3.563,3.563,0,0,0,2.105,2.807,2.034,2.034,0,0,1-.7-1.579c0-.965.789-1.228,1.491-1.228Z" transform="translate(-0.895 -9.544)" fill="#1f74e1"/>
    <path id="Path_65355" data-name="Path 65355" d="M36.509,32.4a3.329,3.329,0,0,1,.7-.7,3.507,3.507,0,0,1,2.105-.7,2.617,2.617,0,0,1,2.807,2.807c0,2.456-2.105,5.614-6.667,5.614a3.553,3.553,0,0,1-2.456-.7Z" transform="translate(-9.246 -8.649)" fill="#3a93f4"/>
    <path id="Path_65356" data-name="Path 65356" d="M38,35.4A2.816,2.816,0,0,1,40.105,34a1.322,1.322,0,0,1,1.4,1.4A3.563,3.563,0,0,1,39.4,38.211a2.034,2.034,0,0,0,.7-1.579c0-.965-.789-1.228-1.491-1.228Z" transform="translate(-10.737 -9.544)" fill="#1f74e1"/>
    <path id="Path_65357" data-name="Path 65357" d="M27.092,35.42a11.742,11.742,0,0,1-7.566,2.826C14.921,38.246,9,35.439,9,28.421,9,28.421,10.974,20,19.526,20c6.19,0,10.526,4.269,10.526,8.785A8.318,8.318,0,0,1,27.092,35.42Z" transform="translate(-2.088 -5.368)" fill="#57a5f5"/>
    <path id="Path_65358" data-name="Path 65358" d="M21.614,40.105C17.587,40.105,16,38,16,38a6.044,6.044,0,0,0,5.614,3.509A6.044,6.044,0,0,0,27.228,38S25.641,40.105,21.614,40.105Z" transform="translate(-4.175 -10.737)" fill="#272727"/>
    <path id="Path_65359" data-name="Path 65359" d="M24.474,26a3.158,3.158,0,0,0-3.158,3.158,3.158,3.158,0,1,0-3.158,3.158h6.316a3.158,3.158,0,0,0,0-6.316Z" transform="translate(-3.877 -7.158)" fill="#fff"/>
    <path id="Path_65360" data-name="Path 65360" d="M19.4,29a1.4,1.4,0,1,0,1.4,1.4A1.4,1.4,0,0,0,19.4,29Z" transform="translate(-4.772 -8.053)" fill="#272727"/>
    <path id="Path_65361" data-name="Path 65361" d="M14,24.211A7.6,7.6,0,0,1,19.614,20.7a2.782,2.782,0,0,0-2.05-.7C14,20,14,24.211,14,24.211Zm14.035,0A7.6,7.6,0,0,0,22.421,20.7a2.782,2.782,0,0,1,2.05-.7C28.035,20,28.035,24.211,28.035,24.211Z" transform="translate(-3.579 -5.368)" fill="#272727"/>
    <path id="Path_65362" data-name="Path 65362" d="M27.4,29a1.4,1.4,0,1,0,1.4,1.4A1.4,1.4,0,0,0,27.4,29Z" transform="translate(-7.158 -8.053)" fill="#272727"/>
    <path id="Path_65363" data-name="Path 65363" d="M22.509,31C20.571,31,19,32.257,19,33.807s1.571,2.807,3.509,2.807,3.509-1.257,3.509-2.807S24.446,31,22.509,31Z" transform="translate(-5.07 -8.649)" fill="#81bef8"/>
    <path id="Path_65364" data-name="Path 65364" d="M20.7,28a.7.7,0,1,0,.7.7A.7.7,0,0,0,20.7,28Zm5.7,0a.7.7,0,1,0,.7.7A.7.7,0,0,0,26.4,28Z" transform="translate(-5.368 -7.754)" fill="#fff"/>
  </g>
</svg>
