<svg xmlns="http://www.w3.org/2000/svg" width="17.5" height="16.737" viewBox="0 0 17.5 16.737">
  <path id="icons8-speech-bubble" d="M10.813,4.063c-4.8,0-8.75,3.381-8.75,7.606a7.3,7.3,0,0,0,3.409,6,2.253,2.253,0,0,1-.107.608,6.2,6.2,0,0,1-.942,1.967l-.393.548.679.012a5.227,5.227,0,0,0,3.934-1.788,9.96,9.96,0,0,0,2.17.262c4.8,0,8.75-3.381,8.75-7.606S15.612,4.063,10.813,4.063Zm0,.715c4.469,0,8.035,3.11,8.035,6.89s-3.566,6.89-8.035,6.89A9.35,9.35,0,0,1,8.607,18.3l-.215-.048-.143.179a5.353,5.353,0,0,1-2.861,1.538,7.235,7.235,0,0,0,.668-1.5,4.184,4.184,0,0,0,.155-.954v-.191l-.167-.107a6.613,6.613,0,0,1-3.266-5.543C2.778,7.888,6.342,4.778,10.813,4.778Z" transform="translate(-2.063 -4.063)"/>
</svg>
