<svg xmlns="http://www.w3.org/2000/svg" width="19.5" height="19.5" viewBox="0 0 19.5 19.5">
  <g id="SWM_icons_duotone_copy" data-name="SWM icons / duotone / copy" transform="translate(0.75 0.75)">
    <path id="tone" d="M0,2A2,2,0,0,1,2,0H9a2,2,0,0,1,2,2V9a2,2,0,0,1-2,2H2A2,2,0,0,1,0,9Z" transform="translate(0 7)" fill="#ff4e98" opacity="0.15"/>
    <path id="shape" d="M0,9A2,2,0,0,1,2,7H9a2,2,0,0,1,2,2v7a2,2,0,0,1-2,2H2a2,2,0,0,1-2-2Z" fill="none" stroke="#ff4e98" stroke-linecap="round" stroke-linejoin="round" stroke-width="1.5"/>
    <path id="shape-2" data-name="shape" d="M14.5,11H16a2,2,0,0,0,2-2V2a2,2,0,0,0-2-2H9A2,2,0,0,0,7,2V3.5" fill="none" stroke="#ff4e98" stroke-linecap="round" stroke-linejoin="round" stroke-width="1.5"/>
  </g>
</svg>
