<svg xmlns="http://www.w3.org/2000/svg" width="16.744" height="16.744" viewBox="0 0 16.744 16.744">
  <g id="Group_57314" data-name="Group 57314" transform="translate(-8.892 -9.128)">
    <path id="Path_65341" data-name="Path 65341" d="M13.372,5a8.372,8.372,0,1,0,8.372,8.372A8.372,8.372,0,0,0,13.372,5Z" transform="translate(3.892 4.128)" fill="#039be5"/>
    <path id="Path_65342" data-name="Path 65342" d="M20.914,19.955h2.167l.34-2.2H20.914v-1.2c0-.914.3-1.725,1.154-1.725h1.374V12.9a11.674,11.674,0,0,0-1.717-.1c-2.015,0-3.2,1.064-3.2,3.489v1.464H16.457v2.2h2.071V26a7.591,7.591,0,0,0,2.386.018Z" transform="translate(-2.517 -0.236)" fill="#fff"/>
  </g>
</svg>
