<svg xmlns="http://www.w3.org/2000/svg" xmlns:xlink="http://www.w3.org/1999/xlink" width="210.369" height="147.655" viewBox="0 0 210.369 147.655">
  <defs>
    <linearGradient id="linear-gradient" x1="0.5" x2="0.5" y2="1" gradientUnits="objectBoundingBox">
      <stop offset="0" stop-color="#6c4dda" stop-opacity="0.6"/>
      <stop offset="1" stop-color="#522ed2"/>
    </linearGradient>
    <linearGradient id="linear-gradient-2" x1="0.5" x2="0.5" y2="1" gradientUnits="objectBoundingBox">
      <stop offset="0" stop-color="#ffbf35" stop-opacity="0.6"/>
      <stop offset="1" stop-color="#ffa900"/>
    </linearGradient>
    <linearGradient id="linear-gradient-3" x1="1.41" y1="12.323" x2="-0.862" y2="14.979" gradientUnits="objectBoundingBox">
      <stop offset="0" stop-color="#fff"/>
      <stop offset="1" stop-color="#eee"/>
    </linearGradient>
    <linearGradient id="linear-gradient-4" x1="-0.391" y1="-11.976" x2="1.832" y2="-9.138" xlink:href="#linear-gradient-3"/>
    <linearGradient id="linear-gradient-5" x1="0.5" x2="0.5" y2="1" gradientUnits="objectBoundingBox">
      <stop offset="0" stop-color="#ffd5cf"/>
      <stop offset="1" stop-color="#fe8270"/>
    </linearGradient>
  </defs>
  <g id="Group_57276" data-name="Group 57276" transform="translate(-82 -136.034)">
    <g id="Illustration" transform="translate(624.167 -3067.606)">
      <g id="_404" data-name="404" transform="translate(-542.167 3203.64)">
        <g id="Group_20973" data-name="Group 20973" transform="translate(36.998 0.006)">
          <path id="Path_59003" data-name="Path 59003" d="M357.213,72.24a20.728,20.728,0,0,0-13.7-19.521L311,41.03l.2-.547-.2.547a50.732,50.732,0,0,0-34.262,0L244.2,52.748A20.759,20.759,0,0,0,230.5,72.24v52.229c0,13.3,9.3,24.934,20.961,34.32,11.6,9.357,25.423,16.3,34.118,20.212h0a20.078,20.078,0,0,0,16.584,0h0c8.7-3.916,22.515-10.855,34.118-20.212,11.632-9.357,20.961-21.018,20.961-34.291V72.24Z" transform="translate(-229.924 -37.466)" fill="#fff"/>
          <path id="Path_59004" data-name="Path 59004" d="M292.447,179.889a20.465,20.465,0,0,1-8.522-1.843c-9.329-4.175-22.832-11.085-34.262-20.27C235.612,146.49,228.5,134.8,228.5,123.025V70.8a21.389,21.389,0,0,1,14.079-20.039l32.535-11.718a51.373,51.373,0,0,1,34.118-.2h0l.547.2,32.506,11.69A21.33,21.33,0,0,1,356.365,70.8h0v52.229c0,11.747-7.112,23.437-21.162,34.752-11.459,9.213-24.934,16.123-34.262,20.3h-.029A20.628,20.628,0,0,1,292.447,179.889Zm0-142.722a50.118,50.118,0,0,0-16.93,2.937L242.982,51.851A20.2,20.2,0,0,0,229.652,70.8v52.229c0,11.4,6.968,22.8,20.73,33.859,11.344,9.127,24.732,15.98,34,20.126a19.607,19.607,0,0,0,16.095,0h.029c9.242-4.146,22.63-11,33.974-20.126,13.763-11.085,20.73-22.458,20.73-33.831V70.8a20.234,20.234,0,0,0-13.331-18.974L309.924,40.305h0l-.547-.2A50,50,0,0,0,292.447,37.167Z" transform="translate(-228.5 -36.022)" fill="#e1e4e5"/>
        </g>
        <path id="Path_59005" data-name="Path 59005" d="M372.809,151.336v-43.1a17.594,17.594,0,0,0-11.632-16.555L334.343,82a42.125,42.125,0,0,0-28.619,0l-26.892,9.674A17.594,17.594,0,0,0,267.2,108.234v43.1c0,22.4,31.354,38.984,45.779,45.462a17.148,17.148,0,0,0,14.079,0C341.454,190.349,372.809,173.736,372.809,151.336Z" transform="translate(-219.06 -66.976)" fill-rule="evenodd" fill="url(#linear-gradient)"/>
        <path id="Path_59006" data-name="Path 59006" d="M426.052,239l-27.525,27.352L382,249.941" transform="translate(-300.807 -180.552)" fill="none" stroke="#fff" stroke-linecap="round" stroke-linejoin="round" stroke-width="9"/>
        <path id="Path_62389" data-name="Path 62389" d="M21.968,0A21.968,21.968,0,1,1,0,21.968,21.968,21.968,0,0,1,21.968,0Z" transform="translate(0.605 34.262)" fill="url(#linear-gradient-2)"/>
        <path id="Path_59007" data-name="Path 59007" d="M167.173,218.435v1.094a1.094,1.094,0,0,1-1.094,1.094H153.094A1.094,1.094,0,0,1,152,219.529v-1.094c0-3.282,3.743-5.384,7.572-5.384,3.858-.029,7.6,2.1,7.6,5.384m-4.895-14.885a3.787,3.787,0,1,1-5.355,0A3.806,3.806,0,0,1,162.279,203.55Z" transform="translate(-137.028 -154.517)" fill="#fff" fill-rule="evenodd"/>
        <path id="Path_59008" data-name="Path 59008" d="M174.907,98.911c3.541,1.756,8.263-.489,8.263-.489s-1.037-5.125-4.607-6.881c-3.541-1.756-8.263.489-8.263.489S171.365,97.154,174.907,98.911Z" transform="translate(-150.059 -75.071)" fill="url(#linear-gradient-3)"/>
        <path id="Path_59009" data-name="Path 59009" d="M560.882,519.012c-4.405,2.62-10.682.2-10.682.2s.835-6.708,5.211-9.329c4.405-2.62,10.682-.2,10.682-.2s-.835,6.68-5.211,9.329Z" transform="translate(-420.579 -372.576)" fill="url(#linear-gradient-4)"/>
        <circle id="Ellipse_2970" data-name="Ellipse 2970" cx="2.419" cy="2.419" r="2.419" transform="translate(0 23.984)" fill="#ff4e98"/>
        <circle id="Ellipse_2971" data-name="Ellipse 2971" cx="4.52" cy="4.52" r="4.52" transform="translate(168.692 4.492)" fill="#ff4e98"/>
        <circle id="Ellipse_2972" data-name="Ellipse 2972" cx="2.419" cy="2.419" r="2.419" transform="translate(180.468 49.465)" fill="#ff4e98"/>
        <circle id="Ellipse_2973" data-name="Ellipse 2973" cx="3.397" cy="3.397" r="3.397" transform="translate(44.685 131.205)" fill="#e1e4e5"/>
        <circle id="Ellipse_2974" data-name="Ellipse 2974" cx="4.29" cy="4.29" r="4.29" transform="translate(0 88.017)" fill="#e1e4e5"/>
        <circle id="Ellipse_2975" data-name="Ellipse 2975" cx="3.397" cy="3.397" r="3.397" transform="matrix(0.259, -0.966, 0.966, 0.259, 172.05, 70.956)" fill="#e1e4e5"/>
        <ellipse id="Ellipse_2976" data-name="Ellipse 2976" cx="3.484" cy="2.793" rx="3.484" ry="2.793" transform="translate(17.016 96.77)" fill="#e1e4e5"/>
        <circle id="Ellipse_2977" data-name="Ellipse 2977" cx="5.557" cy="5.557" r="5.557" transform="translate(13.014 116.435)" fill="#e1e4e5"/>
        <path id="Path_59010" data-name="Path 59010" d="M373.548,60.7h-.058c-.288,4.146-3.4,4.232-3.4,4.232s3.4.058,3.4,4.866c0-4.808,3.4-4.866,3.4-4.866s-3.052-.058-3.34-4.232ZM230.711,36h-.058c-.288,4.146-3.253,4.2-3.253,4.2s3.282.058,3.282,4.866c0-4.779,3.282-4.866,3.282-4.866S230.97,40.146,230.711,36Z" transform="translate(-190.719 -36)" fill="#e1e4e5"/>
        <path id="Path_59013" data-name="Path 59013" d="M717.083,476.41a4.7,4.7,0,1,0-4.722.029v2.994a2.372,2.372,0,0,0,2.361,2.361h0a2.372,2.372,0,0,0,2.361-2.361h0V476.41Z" transform="translate(-534.369 -343.334)" fill="#fff" fill-rule="evenodd"/>
      </g>
      <g id="Group_872" data-name="Group 872" transform="translate(-372.898 3271.981)">
        <path id="Vector" d="M163.348,226.319l.294-13.942c-2.534-.509-7.518-1.926-10.107-5.4a8.218,8.218,0,0,1-1.462-6.592c.87-4.524,4.154-5.824,6.721-5.582,3.086.318,6.35,2.757,8.292,6.43,2.192-3.308,5.457-6.349,9.794-5.213a6.326,6.326,0,0,1,3.708,2.455,6.109,6.109,0,0,1,1.122,4.247c-.351,4.727-5.274,10.254-13.685,11.181l-.168-1.508Zm11.717-25.36c-2.191.15-4.634,4.458-5.863,7.606,4.78-1.07,7.221-4.183,7.392-6.183a1.1,1.1,0,0,0-.164-.908,1.128,1.128,0,0,0-.35-.324,1.153,1.153,0,0,0-.455-.153,1.769,1.769,0,0,0-.56-.038Zm-16.993-1.037c-.269.018-.646.224-.873,1.426a3.152,3.152,0,0,0,.545,2.634c1.2,1.625,3.835,2.639,5.883,3.164-.58-4.228-3.6-7.042-5.371-7.22Z" transform="translate(-146.532 -194.774)" fill="#fff"/>
        <path id="Vector-2" data-name="Vector" d="M0,0H38.462V27.545H0Z" transform="matrix(1, 0.005, -0.005, 1, 1.075, 18.486)" fill="url(#linear-gradient-5)"/>
        <path id="Vector-3" data-name="Vector" d="M0,0H41.067V6.752H0Z" transform="matrix(1, 0.005, -0.005, 1, 0.034, 15.066)" fill="#f7931a"/>
        <g id="Group" transform="translate(0 15.066)" opacity="0.29">
          <path id="Vector-4" data-name="Vector" d="M0,0H41.06V6.753H0Z" transform="matrix(1, 0.005, -0.005, 1, 0.034, 0)" fill="url(#linear-gradient-5)"/>
        </g>
        <path id="Vector-5" data-name="Vector" d="M0,0H6.295V33.531H0Z" transform="matrix(1, 0.005, -0.005, 1, 16.962, 13.634)" fill="#fff"/>
      </g>
    </g>
  </g>
</svg>
