<svg xmlns="http://www.w3.org/2000/svg" width="16.337" height="16.407" viewBox="0 0 16.337 16.407">
  <g id="Group_57317" data-name="Group 57317" transform="translate(-74.331 -613.296)">
    <path id="Path_65338" data-name="Path 65338" d="M12.069,4.407a7.729,7.729,0,0,1,0,15.458h0a7.72,7.72,0,0,1-3.693-.941L4.275,20l1.1-4a7.73,7.73,0,0,1,6.7-11.589m0,15.458h0m0,0h0M12.069,4h0A8.138,8.138,0,0,0,4.934,16.05L3.882,19.892a.407.407,0,0,0,.5.5L8.322,19.36A8.137,8.137,0,1,0,12.069,4Z" transform="translate(70.464 609.296)" fill="#cfd8dc" fill-rule="evenodd"/>
    <g id="Group_57315" data-name="Group 57315">
      <g id="Group_57316" data-name="Group 57316">
        <path id="Path_65337" data-name="Path 65337" d="M4.572,20.5a.2.2,0,0,1-.2-.257L5.45,16.32a7.932,7.932,0,1,1,3.194,3.119l-4.02,1.054A.186.186,0,0,1,4.572,20.5Z" transform="translate(70.167 609)" fill="#fff" fill-rule="evenodd"/>
        <path id="Path_65339" data-name="Path 65339" d="M19.2,10.089a6.425,6.425,0,0,0-9.986,7.956l.153.243-.649,2.37,2.431-.637.235.139a6.412,6.412,0,0,0,3.27.9h0A6.424,6.424,0,0,0,19.2,10.089Z" transform="translate(67.876 606.802)" fill="#40c351" fill-rule="evenodd"/>
        <path id="Path_65340" data-name="Path 65340" d="M16.361,15.552c-.145-.322-.3-.328-.435-.334-.113,0-.241,0-.37,0a.71.71,0,0,0-.515.242,2.165,2.165,0,0,0-.676,1.61,3.755,3.755,0,0,0,.789,2,7.929,7.929,0,0,0,3.3,2.915c1.631.643,1.963.515,2.318.483a1.949,1.949,0,0,0,1.3-.918,1.617,1.617,0,0,0,.113-.918c-.048-.081-.177-.129-.37-.226s-1.143-.564-1.32-.628-.306-.1-.435.1-.5.628-.611.757-.226.145-.418.048a5.286,5.286,0,0,1-1.553-.958A5.818,5.818,0,0,1,16.4,18.379c-.113-.193-.012-.3.085-.394s.193-.226.29-.338a1.321,1.321,0,0,0,.193-.322.355.355,0,0,0-.016-.338C16.908,16.889,16.533,15.934,16.361,15.552Z" transform="translate(64.24 602.647)" fill="#fff" fill-rule="evenodd"/>
      </g>
    </g>
  </g>
</svg>
