<svg width="52" height="52" viewBox="0 0 52 52" fill="none" xmlns="http://www.w3.org/2000/svg">
<defs>
<linearGradient id="paint0_linear_34_8" x1="26" y1="0" x2="26" y2="52" gradientUnits="userSpaceOnUse">
<stop stop-color="#9FDEFF"/>
<stop offset="1" stop-color="#28BCF3"/>
</linearGradient>
</defs>
<path d="M26 0C31.1423 0 36.1691 1.52487 40.4448 4.38179C44.7205 7.23871 48.053 11.2994 50.0209 16.0502C51.9887 20.8011 52.5036 26.0288 51.5004 31.0723C50.4972 36.1159 48.0209 40.7486 44.3848 44.3848C40.7486 48.0209 36.1159 50.4972 31.0723 51.5004C26.0288 52.5036 20.8011 51.9887 16.0502 50.0209C11.2994 48.053 7.23871 44.7205 4.38179 40.4448C1.52487 36.1691 0 31.1423 0 26C0 19.1044 2.73928 12.4912 7.61522 7.61522C12.4912 2.73928 19.1044 0 26 0V0Z" fill="url(#paint0_linear_34_8)"/>
<path d="M24.8571 34V27.1429H18V24.8571H24.8571V18H27.1429V24.8571H34V27.1429H27.1429V34H24.8571Z" fill="#F8F8F8"/>
</svg>
