<svg width="48" height="48" viewBox="0 0 48 48" fill="none" xmlns="http://www.w3.org/2000/svg">
<g clip-path="url(#clip0_35_2)">
<path d="M24 0C28.7467 0 33.3869 1.40758 37.3337 4.04473C41.2805 6.68188 44.3566 10.4302 46.1731 14.8156C47.9896 19.201 48.4649 24.0266 47.5388 28.6822C46.6128 33.3377 44.327 37.6141 40.9706 40.9706C37.6141 44.327 33.3377 46.6128 28.6822 47.5388C24.0266 48.4649 19.201 47.9896 14.8156 46.1731C10.4302 44.3566 6.68188 41.2805 4.04473 37.3337C1.40758 33.3869 0 28.7467 0 24C0 17.6348 2.52856 11.5303 7.02944 7.02944C11.5303 2.52856 17.6348 0 24 0V0Z" fill="white"/>
<g filter="url(#filter0_d_35_2)">
<path d="M27.2584 28.6182H31.9449V30.9615H27.2584V28.6182ZM27.2584 19.2466H35.4591V21.5899H27.2584V19.2466ZM27.2584 23.9331H34.2838V26.2764H27.2584V23.9331ZM13.2002 30.9601C13.2021 31.5809 13.4496 32.1758 13.8887 32.6149C14.3277 33.0539 14.9226 33.3014 15.5435 33.3033H22.5718C23.1927 33.3014 23.7876 33.0539 24.2267 32.6149C24.6657 32.1758 24.9132 31.5809 24.9151 30.9601V19.2466H13.2002V30.9601ZM26.086 15.731H22.5718L21.4009 14.5601H16.7158L15.5449 15.731H12.0293V18.0742H26.0875L26.086 15.731Z" fill="url(#paint0_linear_35_2)"/>

<filter id="filter0_d_35_2" x="-77.9707" y="-65.4399" width="203.43" height="198.743" filterUnits="userSpaceOnUse" color-interpolation-filters="sRGB">
<feFlood flood-opacity="0" result="BackgroundImageFix"/>
<feColorMatrix in="SourceAlpha" type="matrix" values="0 0 0 0 0 0 0 0 0 0 0 0 0 0 0 0 0 0 127 0" result="hardAlpha"/>
<feOffset dy="10"/>
<feGaussianBlur stdDeviation="45"/>
<feColorMatrix type="matrix" values="0 0 0 0 1 0 0 0 0 0.854902 0 0 0 0 0.878431 0 0 0 1 0"/>
<feBlend mode="normal" in2="BackgroundImageFix" result="effect1_dropShadow_35_2"/>
<feBlend mode="normal" in="SourceGraphic" in2="effect1_dropShadow_35_2" result="shape"/>
</filter>
<linearGradient id="paint0_linear_35_2" x1="23.7442" y1="14.5601" x2="23.7442" y2="33.3033" gradientUnits="userSpaceOnUse">
<stop stop-color="#9FDEFF"/>
<stop offset="1" stop-color="#28BCF3"/>
</linearGradient>
<clipPath id="clip0_35_2">
<rect width="48" height="48" fill="white"/>
</clipPath>

</g>
</g>
</svg>
