<svg xmlns="http://www.w3.org/2000/svg" xmlns:xlink="http://www.w3.org/1999/xlink" width="56" height="56" viewBox="0 0 56 56">
  <defs>
    <linearGradient id="linear-gradient" x1="0.5" x2="0.5" y2="1" gradientUnits="objectBoundingBox">
      <stop offset="0" stop-color="#ff9f9f"/>
      <stop offset="1" stop-color="#f32828"/>
    </linearGradient>
  </defs>
  <g id="call" transform="translate(-7875 -5369)">
    <circle id="Ellipse_426" data-name="Ellipse 426" cx="28" cy="28" r="28" transform="translate(7875 5369)" fill="url(#linear-gradient)"/>
    <path id="Icon_feather-phone-call" data-name="Icon feather-phone-call" d="M18.5,6.241a5.926,5.926,0,0,1,4.682,4.682M18.5,1.5a10.667,10.667,0,0,1,9.423,9.411M26.74,20.369v3.556A2.37,2.37,0,0,1,24.156,26.3a23.456,23.456,0,0,1-10.229-3.639,23.112,23.112,0,0,1-7.111-7.111A23.456,23.456,0,0,1,3.177,5.269,2.371,2.371,0,0,1,5.536,2.685H9.092a2.371,2.371,0,0,1,2.371,2.039,15.218,15.218,0,0,0,.83,3.331,2.371,2.371,0,0,1-.533,2.5l-1.505,1.505a18.964,18.964,0,0,0,7.112,7.112l1.505-1.505a2.371,2.371,0,0,1,2.5-.533,15.219,15.219,0,0,0,3.331.83A2.371,2.371,0,0,1,26.74,20.369Z" transform="translate(7887.332 5383)" fill="none" stroke="#fff" stroke-linecap="round" stroke-linejoin="round" stroke-width="2"/>
  </g>
</svg>
