<svg id="icon_search" data-name="icon / search" xmlns="http://www.w3.org/2000/svg" width="21.573" height="21.573" viewBox="0 0 21.573 21.573">
  <g id="search" transform="translate(0.899 0.899)">
    <path id="Shape" d="M8.09,16.179a8.1,8.1,0,1,1,5.717-2.372A8.1,8.1,0,0,1,8.09,16.179ZM8.09,1.8A6.292,6.292,0,1,0,14.382,8.09,6.3,6.3,0,0,0,8.09,1.8Z" fill="#ff4e98"/>
    <path id="Path" d="M1.8,4.494H0A4.5,4.5,0,0,1,4.494,0V1.8a2.7,2.7,0,0,0-2.7,2.7Z" transform="translate(3.595 3.595)" fill="#ff4e98"/>
    <path id="Path-2" data-name="Path" d="M5.1,3.826,1.271,0A9.871,9.871,0,0,1,0,1.271L3.826,5.1A.9.9,0,0,0,5.1,3.826Z" transform="translate(14.415 14.415)" fill="#ff4e98"/>
  </g>
  <rect id="Rectangle" width="21.573" height="21.573" fill="none"/>
</svg>
