<svg xmlns="http://www.w3.org/2000/svg" xmlns:xlink="http://www.w3.org/1999/xlink" width="239.76" height="278.036" viewBox="0 0 239.76 278.036">
  <defs>
    <linearGradient id="linear-gradient" x1="0.085" y1="0.5" x2="0.915" y2="0.5" gradientUnits="objectBoundingBox">
      <stop offset="0" stop-color="#c9d0d8"/>
      <stop offset="1" stop-color="#99a3b0"/>
    </linearGradient>
    <clipPath id="clip-path">
      <path id="vectorMask" d="M3922.31,5535.6h0a16.437,16.437,0,0,1,16.446,16.458v40.276h0l-32.892-8.229h0v-32.047A16.436,16.436,0,0,1,3922.31,5535.6Z" transform="translate(-3905.865 -5535.597)" fill="none"/>
    </clipPath>
    <clipPath id="clip-path-2">
      <path id="vectorMask-2" data-name="vectorMask" d="M3937.044,5410H3941v3.949a3.5,3.5,0,0,1-3.505,3.508h-3.958v-3.95A3.5,3.5,0,0,1,3937.044,5410Z" transform="translate(-3933.539 -5409.997)" fill="none"/>
    </clipPath>
    <linearGradient id="linear-gradient-2" x1="0.5" y1="0.18" x2="0.5" y2="0.82" gradientUnits="objectBoundingBox">
      <stop offset="0" stop-color="#fff"/>
      <stop offset="1" stop-color="#fff" stop-opacity="0.157"/>
    </linearGradient>
  </defs>
  <g id="Artowork" transform="translate(-3661.48 -5339)" opacity="0.902" style="mix-blend-mode: normal;isolation: isolate">
    <g id="Group_59" data-name="Group 59" transform="translate(3813.388 5475.853)">
      <rect id="pole_2" data-name="pole 2" width="8.223" height="141.184" transform="translate(5.193 0)" fill="#c4cdd7"/>
      <rect id="pole_1" data-name="pole 1" width="5.627" height="141.184" transform="translate(0 0)" fill="#dee3eb"/>
    </g>
    <path id="outside" d="M3922.31,5535.6h42.845a23.789,23.789,0,0,1,23.8,23.819v21.655a2.671,2.671,0,0,1-2.131,2.541l-47.889,8.458h0l-33.075-7.968h0v-32.047A16.436,16.436,0,0,1,3922.31,5535.6Z" transform="translate(-134.024 -107.816)" fill="#b6bfc9"/>
    <g id="inside" transform="translate(3771.84 5427.781)">
      <path id="Mask" d="M3922.31,5535.6h0a16.437,16.437,0,0,1,16.446,16.458v40.276h0l-32.892-8.229h0v-32.047A16.436,16.436,0,0,1,3922.31,5535.6Z" transform="translate(-3905.865 -5535.597)" fill="url(#linear-gradient)"/>
      <g id="Mask_by_Mask" data-name="Mask by Mask" transform="translate(0 0)" clip-path="url(#clip-path)">
        <g id="Mask_by_Mask-2" data-name="Mask by Mask" transform="translate(-2.246 43.681)">
          <path id="Path_4" data-name="Path 4" d="M3900.892,5637.21l43.648-4.885,29.869,4.452-38.356,8.6Z" transform="translate(-3900.892 -5632.325)" fill="#8996a3"/>
        </g>
      </g>
    </g>
    <path id="lid" d="M3886.508,5642.334,3873.5,5661.9c-5.257,7.909-2.151,16.489,6.947,19.2h0c9.1,2.707,20.6-1.567,25.722-9.562l13.315-20.765h0l-32.978-8.438Z" transform="translate(-114.873 -166.353)" fill="#ccd3d8"/>
    <path id="path" d="M35.727,79.575h0c-.715-.209-1.525-.418-2.477-.638l.291-1.265c.972.223,1.807.438,2.551.657l-.365,1.247ZM30.3,78.307h0l-.748-.151-1.8-.364.26-1.274,1.685.341.12.024.741.15L30.3,78.306ZM24.78,77.154h0c-.911-.207-1.743-.41-2.543-.62l.33-1.257c.784.206,1.6.406,2.5.61l-.287,1.266Zm-5.493-1.479h0c-.865-.28-1.7-.578-2.483-.885l.474-1.21c.749.3,1.56.584,2.409.858l-.4,1.236ZM13.98,73.541h0c-.805-.4-1.586-.834-2.322-1.286l.68-1.108c.7.431,1.447.845,2.221,1.23l-.578,1.163ZM9.1,70.476h0a24.883,24.883,0,0,1-2-1.762l.909-.928a23.389,23.389,0,0,0,1.9,1.67l-.8,1.019ZM5.021,66.393h0a25.269,25.269,0,0,1-1.534-2.181l1.1-.691a23.754,23.754,0,0,0,1.455,2.069l-1.02.8ZM1.985,61.478h0c-.323-.679-.63-1.392-.911-2.121-.038-.1-.077-.2-.123-.327l1.222-.442c.031.088.067.184.113.3.269.7.563,1.382.872,2.029l-1.172.559ZM.174,55.966h0A15.773,15.773,0,0,1,0,53.259l1.3.031a14.456,14.456,0,0,0,.155,2.482l-1.284.194Zm1.485-5.578h0l-1.267-.28a18.354,18.354,0,0,1,.774-2.579l1.213.463a17.081,17.081,0,0,0-.72,2.4Zm15.719-4.126h0l-.108-1.295a10.881,10.881,0,0,0,2.406-.472l.394,1.238a12.26,12.26,0,0,1-2.691.529Zm-3.159-.116h0a15.606,15.606,0,0,1-2.638-.624l.409-1.233a14.259,14.259,0,0,0,2.417.571l-.188,1.285Zm-10.591-.8h0l-1.13-.64a23.5,23.5,0,0,1,1.448-2.245L5,43.225a22.121,22.121,0,0,0-1.368,2.12Zm19.347-1.027h0l-.737-1.069a7.678,7.678,0,0,0,1.747-1.639l1.03.79a8.979,8.979,0,0,1-2.04,1.918ZM8.694,44.2h0A13.957,13.957,0,0,1,6.5,42.579l.87-.963a12.874,12.874,0,0,0,1.986,1.471L8.694,44.2ZM6.885,40.937h0l-.95-.886c.6-.648,1.245-1.272,1.907-1.855l.859.974c-.632.558-1.243,1.153-1.815,1.767ZM4.4,40.2h0a14.392,14.392,0,0,1-1.339-2.369L4.25,37.3a13.122,13.122,0,0,0,1.219,2.155L4.4,40.2Zm21.953-.83h0l-1.283-.194a4.166,4.166,0,0,0-.271-2.235l1.2-.494a5.451,5.451,0,0,1,.353,2.923ZM11.018,37.348h0l-.742-1.066a25.245,25.245,0,0,1,2.264-1.409l.625,1.139a23.922,23.922,0,0,0-2.147,1.336ZM23.2,34.854h0a4.775,4.775,0,0,0-2.132-.831l.194-1.285a6.074,6.074,0,0,1,2.7,1.066l-.764,1.05Zm-7.357-.072h0l-.45-1.219A15.765,15.765,0,0,1,18,32.836l.232,1.279a14.459,14.459,0,0,0-2.392.667ZM2.078,34.771h0a15.792,15.792,0,0,1-.323-2.69l1.3-.044a14.432,14.432,0,0,0,.3,2.468l-1.27.266Zm1.149-5.6h0l-1.282-.2c.042-.271.092-.551.149-.832.123-.6.276-1.2.455-1.792l1.243.377c-.169.558-.312,1.122-.426,1.676-.051.252-.1.511-.138.77Zm1.62-5.2h0l-1.177-.548a25.817,25.817,0,0,1,1.25-2.355l1.114.666a24.843,24.843,0,0,0-1.187,2.236ZM7.69,19.27h0l-1.041-.776c.508-.683,1.066-1.376,1.657-2.061l.982.85c-.562.65-1.1,1.318-1.6,1.986Zm3.625-4.164h0l-.919-.918c.6-.6,1.243-1.212,1.908-1.812l.869.965c-.657.594-1.282,1.187-1.858,1.765Zm4.148-3.72h0l-.817-1.01c.686-.555,1.383-1.1,2.072-1.61l.776,1.041c-.7.522-1.381,1.053-2.03,1.578Zm4.473-3.324h0L19.2,6.99c.716-.49,1.45-.976,2.182-1.444l.7,1.094c-.736.471-1.459.95-2.148,1.423Zm4.707-3h0L23.98,3.945c.726-.432,1.488-.871,2.264-1.306l.634,1.133c-.721.4-1.473.837-2.235,1.289Zm4.885-2.724h0l-.6-1.151C29.693.785,30.453.4,31.252,0l.578,1.163c-.848.423-1.579.8-2.3,1.175Z" transform="translate(3749.678 5380.047)" fill="#5c738e" opacity="0.302"/>
    <ellipse id="joint" cx="6.923" cy="6.927" rx="6.923" ry="6.927" transform="translate(3815.985 5452.037)" fill="#9dacb9"/>
    <path id="handle" d="M.761,18.891a2.6,2.6,0,0,1,0-3.675l13.893-13.9A2.816,2.816,0,0,1,19.024.826l4.9,4.9a2.814,2.814,0,0,1-3.978,3.981L16.777,6.54,4.434,18.891a2.594,2.594,0,0,1-3.673,0Z" transform="translate(3820.521 5442.22)" fill="#fff"/>
    <g id="bee" transform="translate(3777.097 5364.604)">
      <path id="Oval" d="M3926.816,5405.015c1.688-1.689-.251-6.368-1.937-8.054a4.323,4.323,0,0,0-6.111,6.115C3920.453,5404.762,3925.128,5406.7,3926.816,5405.015Z" transform="translate(-3917.506 -5395.698)" fill="#ced8e5" opacity="0.4"/>
      <path id="Oval_Copy" data-name="Oval Copy" d="M3943.879,5421.181c-1.687,1.689.252,6.367,1.936,8.054a4.323,4.323,0,0,0,6.111-6.116C3950.242,5421.433,3945.567,5419.492,3943.879,5421.181Z" transform="translate(-3931.613 -5409.316)" fill="#ced8e5" opacity="0.4"/>
      <g id="Rectangle_4" data-name="Rectangle 4" transform="translate(7.24 6.457)">
        <path id="Mask-2" data-name="Mask" d="M3937.044,5410H3941v3.949a3.5,3.5,0,0,1-3.505,3.508h-3.958v-3.95A3.5,3.5,0,0,1,3937.044,5410Z" transform="translate(-3933.539 -5409.997)" fill="#a8b7c5"/>
        <g id="Mask_by_Mask-3" data-name="Mask by Mask" clip-path="url(#clip-path-2)">
          <g id="Mask_by_Mask-4" data-name="Mask by Mask" transform="translate(-1.307 -0.722)">
            <path id="Rectangle_4-2" data-name="Rectangle 4" d="M3930.645,5413.576l.833-.833,6.1,6.1-.833.834Z" transform="translate(-3930.645 -5410.781)" fill="#dde5f2"/>
            <path id="Rectangle_4_Copy" data-name="Rectangle 4 Copy" d="M3935.865,5409.231l.833-.834,6.1,6.105-.833.834Z" transform="translate(-3933.508 -5408.397)" fill="#dde5f2"/>
          </g>
        </g>
      </g>
      <line id="Path_7_Copy" data-name="Path 7 Copy" y1="0.682" x2="2.868" transform="translate(18.711 3.907)" fill="none" stroke="#8696c5" stroke-linecap="round" stroke-width="1.8"/>
      <line id="Path_7" data-name="Path 7" y1="2.84" x2="1.106" transform="translate(17.532 0.57)" fill="none" stroke="#8696c5" stroke-linecap="round" stroke-width="1.8"/>
      <ellipse id="Oval_4" data-name="Oval 4" cx="3.143" cy="3.139" rx="3.143" ry="3.139" transform="translate(12.741 2.534)" fill="#8b9aa8"/>
    </g>
    <path id="cloud" d="M16.6,42.413q-.5.031-1.016.031C6.976,42.444,0,35.754,0,27.5S6.976,12.558,15.58,12.558h.062A14.126,14.126,0,0,1,29.863,0,14.444,14.444,0,0,1,40.477,4.584,18.132,18.132,0,0,1,52.583,0a17.753,17.753,0,0,1,17.96,17.539q0,.7-.056,1.389A17.525,17.525,0,0,1,80.929,34.862,17.753,17.753,0,0,1,62.969,52.4a18.1,18.1,0,0,1-13.6-6.084c-3.143,4.1-8.861,6.085-15.4,6.085C25.629,52.4,18.613,49.17,16.6,42.413Z" transform="translate(3820.311 5339)" fill="url(#linear-gradient-2)"/>
    <path id="cloud-2" data-name="cloud" d="M49.369,46.318c-3.143,4.1-8.861,6.084-15.395,6.084-8.344,0-15.36-3.233-17.377-9.989q-.5.032-1.017.032C6.975,42.445,0,35.754,0,27.5S6.975,12.559,15.58,12.559h.062A14.127,14.127,0,0,1,29.864,0,14.443,14.443,0,0,1,40.477,4.584,18.132,18.132,0,0,1,52.583,0a17.753,17.753,0,0,1,17.96,17.539q0,.7-.056,1.389A17.525,17.525,0,0,1,80.929,34.862,17.753,17.753,0,0,1,62.969,52.4,18.1,18.1,0,0,1,49.369,46.318Z" transform="translate(3661.48 5365.418)" fill="url(#linear-gradient-2)"/>
  </g>
</svg>
