<svg xmlns="http://www.w3.org/2000/svg" width="15.181" height="15.209" viewBox="0 0 15.181 15.209">
  <g id="Phone" transform="translate(-297.5 -55)">
    <path id="Shape" d="M15.18,13.385A1.817,1.817,0,0,1,13.194,15.2a14.742,14.742,0,0,1-6.427-2.286A14.531,14.531,0,0,1,2.3,8.446,14.751,14.751,0,0,1,.007,1.98,1.817,1.817,0,0,1,1.816,0H3.992A1.818,1.818,0,0,1,5.81,1.566,8.966,8.966,0,0,0,6.3,3.528a1.818,1.818,0,0,1-.41,1.918l-.725.725A11.265,11.265,0,0,0,9.01,10.017l.726-.726a1.817,1.817,0,0,1,1.916-.409,8.976,8.976,0,0,0,1.966.489,1.817,1.817,0,0,1,1.563,1.839Z" transform="translate(297.5 55)" fill="#fff"/>
  </g>
</svg>
