<svg width="56" height="56" viewBox="0 0 56 56" fill="none" xmlns="http://www.w3.org/2000/svg">
<defs>
<linearGradient id="paint0_linear_201_2" x1="28" y1="0" x2="28" y2="56" gradientUnits="userSpaceOnUse">
<stop stop-color="#23D2C3" stop-opacity="0.6"/>
<stop offset="1" stop-color="#01BCAD"/>
</linearGradient>
<clipPath id="clip0_201_2">
<rect width="56" height="56" fill="white"/>
</clipPath>
<clipPath id="clip1_201_2">
<rect width="30.54" height="26.071" fill="white" transform="translate(13 15)"/>
</clipPath>
</defs>
<g clip-path="url(#clip0_201_2)">
<path d="M28 56C43.464 56 56 43.464 56 28C56 12.536 43.464 0 28 0C12.536 0 0 12.536 0 28C0 43.464 12.536 56 28 56Z" fill="url(#paint0_linear_201_2)"/>
<g clip-path="url(#clip1_201_2)">
<path d="M41.9 19.35C41.289 19.022 40.008 18.68 38.265 19.901L36.075 21.45C35.912 16.818 33.9 15 29.015 15H20.076C14.981 15 13 16.981 13 22.076V33.994C13 37.42 14.862 41.07 20.076 41.07H29.015C33.901 41.07 35.915 39.252 36.076 34.619L38.266 36.168C38.9453 36.6977 39.7742 37 40.635 37.032C41.0762 37.0323 41.5108 36.9249 41.901 36.719C42.512 36.406 43.54 35.557 43.54 33.427V22.642C43.54 20.512 42.512 19.663 41.9 19.35ZM26.78 27.112C26.2262 27.112 25.6849 26.9478 25.2244 26.6401C24.7639 26.3324 24.4051 25.8951 24.1931 25.3835C23.9812 24.8719 23.9258 24.3089 24.0338 23.7657C24.1418 23.2226 24.4085 22.7237 24.8001 22.3321C25.1917 21.9405 25.6906 21.6738 26.2337 21.5658C26.7769 21.4578 27.3399 21.5132 27.8515 21.7251C28.3631 21.9371 28.8004 22.2959 29.1081 22.7564C29.4158 23.2169 29.58 23.7582 29.58 24.312C29.5782 25.054 29.2826 25.7652 28.7579 26.2899C28.2332 26.8146 27.522 27.1102 26.78 27.112Z" fill="white"/>
</g>
</g>
</svg>
