<svg xmlns="http://www.w3.org/2000/svg" xmlns:xlink="http://www.w3.org/1999/xlink" width="56" height="56" viewBox="0 0 56 56">
  <defs>
    <linearGradient id="linear-gradient" x1="0.5" x2="0.5" y2="1" gradientUnits="objectBoundingBox">
      <stop offset="0" stop-color="#ffbf35" stop-opacity="0.6"/>
      <stop offset="1" stop-color="#ffa900"/>
    </linearGradient>
  </defs>
  <g id="camera" transform="translate(-7998 -5369)">
    <path id="Path_65228" data-name="Path 65228" d="M28,0A28,28,0,1,1,0,28,28,28,0,0,1,28,0Z" transform="translate(7998 5369)" fill="url(#linear-gradient)"/>
    <path id="Icon_ionic-ios-reverse-camera" data-name="Icon ionic-ios-reverse-camera" d="M29.355,11.25H25.523a1.141,1.141,0,0,1-.844-.38c-2-2.236-2.749-3-3.565-3H15.1c-.823,0-1.631.759-3.635,3a1.119,1.119,0,0,1-.837.373h-.288v-.562a.564.564,0,0,0-.563-.562H7.952a.564.564,0,0,0-.562.563v.563H6.862A2.28,2.28,0,0,0,4.5,13.409V25.784a2.434,2.434,0,0,0,2.355,2.341h22.5A2.254,2.254,0,0,0,31.5,25.784V13.409A2.1,2.1,0,0,0,29.355,11.25ZM21.677,23.941a.844.844,0,0,1-.337.429A5.864,5.864,0,0,1,18,25.411a5.931,5.931,0,0,1-4.015-1.6,6.068,6.068,0,0,1-1.9-3.53H10.652a.406.406,0,0,1-.394-.464.253.253,0,0,1,.049-.127l2.215-2.974a.387.387,0,0,1,.619,0l2.264,2.939a.4.4,0,0,1-.127.6.225.225,0,0,1-.134.035H13.683a4.5,4.5,0,0,0,1.4,2.391,4.214,4.214,0,0,0,5.379.345.822.822,0,0,1,.457-.148.768.768,0,0,1,.584.26A.778.778,0,0,1,21.677,23.941Zm3.98-4.746-2.194,3.016a.393.393,0,0,1-.584.056.186.186,0,0,1-.035-.042L20.566,19.2a.4.4,0,0,1,.134-.6.291.291,0,0,1,.134-.035H22.31a4.674,4.674,0,0,0-1.4-2.5,4.221,4.221,0,0,0-5.379-.373.793.793,0,0,1-.45.141.783.783,0,0,1-.577-.253.805.805,0,0,1,.155-1.23A5.886,5.886,0,0,1,18.007,13.3a5.961,5.961,0,0,1,4.064,1.568,6.452,6.452,0,0,1,1.842,3.684H25.4a.263.263,0,0,1,.127.035A.424.424,0,0,1,25.657,19.2Z" transform="translate(8008.5 5379.125)" fill="#fff"/>
  </g>
</svg>
