<svg xmlns="http://www.w3.org/2000/svg" width="264" height="216.878" viewBox="0 0 264 216.878">
  <g id="undraw_couple_re_94tl" transform="translate(0.002)">
    <circle id="Ellipse_3256" data-name="Ellipse 3256" cx="16.12" cy="16.12" r="16.12" transform="translate(44.587)" fill="#ff6584"/>
    <path id="Path_64959" data-name="Path 64959" d="M465.972,399.44h-20.3V382.786l7.234-.041a5.373,5.373,0,0,0,5.067-3.674l5.082-15.246a5.373,5.373,0,0,0-5.1-7.073H445.673v-7.164H461.1a5.373,5.373,0,0,0,5.236-4.169l3.5-15.225a5.373,5.373,0,0,0-5.237-6.577H445.673v-1.791a3.582,3.582,0,1,0-7.164,0v1.791H311.639v-1.791a3.582,3.582,0,0,0-7.164,0v1.791H289.431a5.373,5.373,0,0,0-5.237,6.577l3.5,15.224a5.373,5.373,0,0,0,5.237,4.169h11.543v7.164h-8.406a5.373,5.373,0,0,0-5.114,7.021l5.187,16.1a5.373,5.373,0,0,0,5.145,3.725l3.188-.018V399.44H288.055a5.373,5.373,0,0,0-5.373,5.373h0a5.373,5.373,0,0,0,5.373,5.373h16.418v39.4a3.582,3.582,0,1,0,7.164,0v-39.4h126.87v39.4a3.582,3.582,0,1,0,7.164,0v-39.4h20.3a5.373,5.373,0,0,0,5.373-5.373h0a5.373,5.373,0,0,0-5.373-5.373ZM311.639,349.588h126.87v7.164H311.639Zm0,49.853v-15.9l126.87-.713V399.44Z" transform="translate(-245.409 -249.136)" fill="#e6e6e6"/>
    <path id="Path_64960" data-name="Path 64960" d="M846.147,575.06c1.568-12.611,9.384-25.036,21.41-29.139a58.549,58.549,0,0,0,0,40.2c1.848,5,4.424,10.366,2.686,15.4a13.089,13.089,0,0,1-6.685,7.033,38.871,38.871,0,0,1-9.482,2.915l-.638.528C848.3,600.379,844.579,587.67,846.147,575.06Z" transform="translate(-640.415 -408.848)" fill="#e6e6e6"/>
    <path id="Path_64961" data-name="Path 64961" d="M885,545.53a50.044,50.044,0,0,0-12.441,28.165,21.551,21.551,0,0,0,.245,6.748,12.36,12.36,0,0,0,3.074,5.733,25.583,25.583,0,0,1,3.971,4.752,7.568,7.568,0,0,1,.37,6.178,19.664,19.664,0,0,1-4.357,6.5c-1.95,2.157-4.01,4.366-4.839,7.225-.1.346-.632.17-.532-.176,1.442-4.975,6.271-7.8,8.574-12.281a7.665,7.665,0,0,0,.518-6.725c-.881-1.93-2.523-3.372-3.939-4.9a13.188,13.188,0,0,1-3.215-5.494,19.92,19.92,0,0,1-.5-6.713,48.552,48.552,0,0,1,3.546-14.755,50.931,50.931,0,0,1,9.158-14.676c.24-.268.609.154.371.42Z" transform="translate(-657.734 -408.218)" fill="#fff"/>
    <path id="Path_64962" data-name="Path 64962" d="M864.47,610.629a7.508,7.508,0,0,1-5.715-7.865.28.28,0,0,1,.559.028,6.952,6.952,0,0,0,5.331,7.305c.351.083.173.615-.176.532Z" transform="translate(-649.498 -448.543)" fill="#fff"/>
    <path id="Path_64963" data-name="Path 64963" d="M885.539,660.574A14.471,14.471,0,0,0,892,652.239c.1-.346.633-.17.532.176a15.052,15.052,0,0,1-6.742,8.659C885.481,661.258,885.23,660.757,885.539,660.574Z" transform="translate(-668.204 -483.297)" fill="#fff"/>
    <path id="Path_64964" data-name="Path 64964" d="M895.43,577.657a4.25,4.25,0,0,0,4.028-.2c.308-.188.558.313.252.5a4.762,4.762,0,0,1-4.455.236.289.289,0,0,1-.178-.354.282.282,0,0,1,.354-.178Z" transform="translate(-674.984 -430.938)" fill="#fff"/>
    <path id="Path_64965" data-name="Path 64965" d="M921.56,618.222c-.189.123-.378.246-.567.373a55.979,55.979,0,0,0-7.155,5.587c-.175.156-.35.317-.52.477A59.006,59.006,0,0,0,900.5,642.2a57.3,57.3,0,0,0-3.139,8.121c-1.158,3.843-2.108,8.1-4.4,11.245a9.837,9.837,0,0,1-.766.945H871.479c-.047-.024-.094-.043-.142-.066l-.827.038c.033-.147.071-.3.1-.444.019-.085.042-.17.061-.255.014-.057.028-.113.038-.165,0-.019.01-.038.014-.052.009-.052.024-.1.033-.147q.312-1.269.643-2.538s0,0,0-.009a84.257,84.257,0,0,1,7.09-18.615c.095-.175.189-.355.293-.529a54.688,54.688,0,0,1,4.911-7.45,48.339,48.339,0,0,1,3.219-3.682,40.194,40.194,0,0,1,10.059-7.535c7.431-3.923,16.034-5.427,23.975-3.03C921.16,618.094,921.357,618.156,921.56,618.222Z" transform="translate(-657.76 -458.625)" fill="#e6e6e6"/>
    <path id="Path_64966" data-name="Path 64966" d="M921.742,620.926a50.043,50.043,0,0,0-26.89,15,21.551,21.551,0,0,0-3.867,5.535,12.36,12.36,0,0,0-1,6.428,25.585,25.585,0,0,1,.309,6.185,7.568,7.568,0,0,1-3.425,5.156,19.664,19.664,0,0,1-7.392,2.566c-2.856.548-5.831,1.071-8.214,2.855-.289.216-.607-.245-.319-.46,4.147-3.1,9.7-2.452,14.24-4.643a7.665,7.665,0,0,0,4.463-5.057c.458-2.071.015-4.211-.195-6.285a13.19,13.19,0,0,1,.741-6.322,19.924,19.924,0,0,1,3.64-5.664,48.552,48.552,0,0,1,11.714-9.646,50.932,50.932,0,0,1,16.148-6.2c.353-.07.393.489.043.558Z" transform="translate(-657.987 -461.067)" fill="#fff"/>
    <path id="Path_64967" data-name="Path 64967" d="M954.531,640.665a7.508,7.508,0,0,1,.172-9.721c.239-.27.669.089.43.359a6.952,6.952,0,0,0-.142,9.043C955.221,640.623,954.759,640.941,954.531,640.665Z" transform="translate(-715.506 -468.423)" fill="#fff"/>
    <path id="Path_64968" data-name="Path 64968" d="M933.453,702.505a14.471,14.471,0,0,0,10.178-2.764c.29-.215.608.246.319.46a15.053,15.053,0,0,1-10.6,2.854C932.994,703.016,933.1,702.465,933.453,702.505Z" transform="translate(-701.686 -516.711)" fill="#fff"/>
    <path id="Path_64969" data-name="Path 64969" d="M1002.969,633.39a4.25,4.25,0,0,0,3.339,2.262c.359.035.257.586-.1.551a4.763,4.763,0,0,1-3.7-2.494.289.289,0,0,1,.071-.39A.281.281,0,0,1,1002.969,633.39Z" transform="translate(-750.322 -470.122)" fill="#fff"/>
    <path id="Path_64970" data-name="Path 64970" d="M180.147,575.06c1.568-12.611,9.384-25.036,21.41-29.139a58.549,58.549,0,0,0,0,40.2c1.848,5,4.424,10.366,2.686,15.4a13.088,13.088,0,0,1-6.685,7.033,38.871,38.871,0,0,1-9.482,2.915l-.638.528C182.3,600.379,178.579,587.67,180.147,575.06Z" transform="translate(-173.228 -408.848)" fill="#e6e6e6"/>
    <path id="Path_64971" data-name="Path 64971" d="M219,545.53a50.044,50.044,0,0,0-12.441,28.165,21.551,21.551,0,0,0,.245,6.748,12.36,12.36,0,0,0,3.074,5.733,25.582,25.582,0,0,1,3.971,4.752,7.568,7.568,0,0,1,.37,6.178,19.664,19.664,0,0,1-4.357,6.5c-1.95,2.157-4.01,4.366-4.839,7.225-.1.346-.632.17-.532-.176,1.442-4.975,6.271-7.8,8.574-12.281a7.664,7.664,0,0,0,.518-6.725c-.881-1.93-2.523-3.372-3.939-4.9a13.189,13.189,0,0,1-3.215-5.494,19.923,19.923,0,0,1-.5-6.713,48.551,48.551,0,0,1,3.546-14.755,50.931,50.931,0,0,1,9.158-14.676c.239-.268.609.154.371.42Z" transform="translate(-190.547 -408.218)" fill="#fff"/>
    <path id="Path_64972" data-name="Path 64972" d="M198.47,610.629a7.508,7.508,0,0,1-5.715-7.865.28.28,0,0,1,.56.028,6.952,6.952,0,0,0,5.331,7.305c.351.083.173.615-.176.532Z" transform="translate(-182.311 -448.543)" fill="#fff"/>
    <path id="Path_64973" data-name="Path 64973" d="M219.539,660.574A14.471,14.471,0,0,0,226,652.239c.1-.346.633-.17.532.176a15.052,15.052,0,0,1-6.742,8.659C219.481,661.258,219.23,660.757,219.539,660.574Z" transform="translate(-201.017 -483.297)" fill="#fff"/>
    <path id="Path_64974" data-name="Path 64974" d="M229.43,577.657a4.25,4.25,0,0,0,4.028-.2c.308-.188.558.313.252.5a4.763,4.763,0,0,1-4.455.236.289.289,0,0,1-.178-.354.282.282,0,0,1,.354-.178Z" transform="translate(-207.797 -430.938)" fill="#fff"/>
    <path id="Path_64975" data-name="Path 64975" d="M255.561,618.222c-.189.123-.378.246-.567.373a55.977,55.977,0,0,0-7.156,5.587c-.175.156-.35.317-.52.477A59,59,0,0,0,234.5,642.2a57.305,57.305,0,0,0-3.139,8.121c-1.158,3.843-2.108,8.1-4.4,11.245a9.828,9.828,0,0,1-.766.945H205.479c-.047-.024-.094-.043-.142-.066l-.827.038c.033-.147.071-.3.1-.444.019-.085.042-.17.061-.255.014-.057.028-.113.038-.165,0-.019.009-.038.014-.052.009-.052.024-.1.033-.147q.312-1.269.643-2.538s0,0,0-.009a84.254,84.254,0,0,1,7.09-18.615c.095-.175.189-.355.293-.529a54.68,54.68,0,0,1,4.911-7.45,48.332,48.332,0,0,1,3.219-3.682,40.2,40.2,0,0,1,10.059-7.535c7.431-3.923,16.034-5.427,23.975-3.03C255.159,618.094,255.358,618.156,255.561,618.222Z" transform="translate(-190.573 -458.625)" fill="#e6e6e6"/>
    <path id="Path_64976" data-name="Path 64976" d="M255.74,620.926a50.044,50.044,0,0,0-26.89,15,21.55,21.55,0,0,0-3.867,5.535,12.36,12.36,0,0,0-1,6.428,25.583,25.583,0,0,1,.309,6.185,7.568,7.568,0,0,1-3.425,5.156,19.663,19.663,0,0,1-7.392,2.566c-2.856.548-5.831,1.071-8.214,2.855-.289.216-.607-.245-.319-.46,4.147-3.1,9.7-2.452,14.24-4.643a7.665,7.665,0,0,0,4.463-5.057c.459-2.071.015-4.211-.195-6.285a13.19,13.19,0,0,1,.741-6.322,19.923,19.923,0,0,1,3.64-5.664,48.551,48.551,0,0,1,11.714-9.646,50.929,50.929,0,0,1,16.148-6.2C256.05,620.3,256.091,620.857,255.74,620.926Z" transform="translate(-190.799 -461.067)" fill="#fff"/>
    <path id="Path_64977" data-name="Path 64977" d="M288.531,640.665a7.508,7.508,0,0,1,.172-9.721c.239-.27.669.089.43.359a6.952,6.952,0,0,0-.142,9.043c.23.278-.232.595-.46.319Z" transform="translate(-248.319 -468.423)" fill="#fff"/>
    <path id="Path_64978" data-name="Path 64978" d="M267.453,702.505a14.471,14.471,0,0,0,10.178-2.764c.29-.215.608.246.319.46a15.052,15.052,0,0,1-10.6,2.854C266.994,703.016,267.1,702.465,267.453,702.505Z" transform="translate(-234.499 -516.711)" fill="#fff"/>
    <path id="Path_64979" data-name="Path 64979" d="M336.973,633.39a4.25,4.25,0,0,0,3.339,2.262c.359.035.257.586-.1.551a4.763,4.763,0,0,1-3.7-2.494.289.289,0,0,1,.071-.39A.281.281,0,0,1,336.973,633.39Z" transform="translate(-283.138 -470.122)" fill="#fff"/>
    <path id="Path_64980" data-name="Path 64980" d="M393.535,160.471c-1.308-.923-2.739-1.886-4.34-1.848-3.874.093-5.963,5.773-9.834,5.573-2.468-.127-4.107-2.635-6.4-3.544a5.48,5.48,0,0,0-7.126,4.332l.384-.352a92.774,92.774,0,0,0,35.543,1.642Z" transform="translate(-303.736 -137.165)" fill="#e6e6e6"/>
    <path id="Path_64981" data-name="Path 64981" d="M598.71,211.043a5.457,5.457,0,0,0-3.114-1.326c-2.78.067-4.279,4.142-7.056,4-1.771-.091-2.947-1.89-4.6-2.543a3.932,3.932,0,0,0-5.113,3.108l.276-.252a66.565,66.565,0,0,0,25.5,1.178Z" transform="translate(-453.153 -173.006)" fill="#e6e6e6"/>
    <path id="Path_64982" data-name="Path 64982" d="M756.038,143.669a3.626,3.626,0,0,0-2.069-.881c-1.847.044-2.843,2.752-4.688,2.657-1.177-.061-1.958-1.256-3.053-1.689a2.612,2.612,0,0,0-3.4,2.065l.183-.168a44.224,44.224,0,0,0,16.943.783Z" transform="translate(-568.196 -126.057)" fill="#e6e6e6"/>
    <path id="Path_64983" data-name="Path 64983" d="M637.349,458.735a3.867,3.867,0,0,0,3.073-4.473,3.981,3.981,0,0,0-.156-.613l22.1-21.123-6.557-2.2-20.576,21.031a3.9,3.9,0,0,0-2.221,4.21,3.77,3.77,0,0,0,4.333,3.171Z" transform="translate(-491.122 -327.758)" fill="#9e616a"/>
    <path id="Path_64984" data-name="Path 64984" d="M705.417,362.329s4.668,1.035,4.058,6.643-13.381,17.247-15.385,19.186-15.479,8.293-15.479,8.293l-5.15-5.671Z" transform="translate(-519.534 -280.062)" fill="#cb0072"/>
    <path id="Path_64985" data-name="Path 64985" d="M453.652,575.419l-4.753-1.235,1.945-21.351,7.015,1.823Z" transform="translate(-314.896 -387.802)" fill="#9e616a"/>
    <path id="Path_64986" data-name="Path 64986" d="M607.852,557.338c-.018-.042-1.78-4.233-.623-8.148a6.875,6.875,0,0,0,.2-1.154,7.822,7.822,0,0,1,.239-1.36,7.444,7.444,0,0,1,.5-1.162,7.714,7.714,0,0,0,.515-1.2c2.782-9.3,6.664-21.949,9.358-29.351,3.025-8.312,35.77-6.034,37.681-5.894l5.8-4.133,2.165,14.62-20.622,6.552-.017.005-16.794-.035-.6,1.783a3.487,3.487,0,0,1,.347,2.522,3.067,3.067,0,0,1-1.483,2.011l-.46.248-5.621,16.843a8.255,8.255,0,0,1-1.511,4.716l-.122.17-2.163,4.787-6.764-1.757Z" transform="translate(-472.797 -380.097)" fill="#2f2e41"/>
    <path id="Path_64987" data-name="Path 64987" d="M580.951,706.157l-17.7-4.6.051-.254a8,8,0,0,1,3.136-4.994,6.337,6.337,0,0,1,5.335-1.02h0l3.8-1.938,5.47,4.346,1.545.4Z" transform="translate(-442.222 -512.268)" fill="#2f2e41"/>
    <path id="Path_64988" data-name="Path 64988" d="M491.467,612.937h-4.876l-2.32-21.3h7.2Z" transform="translate(-339.709 -415.021)" fill="#9e616a"/>
    <ellipse id="Ellipse_3257" data-name="Ellipse 3257" cx="9.732" cy="11.023" rx="9.732" ry="11.023" transform="translate(169.665 53.227)" fill="#9e616a"/>
    <path id="Path_64989" data-name="Path 64989" d="M638.978,579.471a14.3,14.3,0,0,1-2.287-7.775,2.772,2.772,0,0,1,.565-1.287,2.847,2.847,0,0,0,.567-1.274c.111-2.634.231-5.218.358-7.682a17.468,17.468,0,0,0-.737-4.92,17.54,17.54,0,0,1-.752-5.324c.691-9.9,3.777-19.2,5.16-20.771,3.063-3.469,21.808-13.548,22.6-13.976l.032-.017,24,3.051.092.012.017.1c.016.093,1.51,9.35-1.978,15.071a8.973,8.973,0,0,1-6.1,4.3c-10.275,2.06-25.057,3.557-26.367,3.687l-5,26.446a4.263,4.263,0,0,1-.577,4.768l-.41.449-.477,2.518-1.76,2.673h-6.905Z" transform="translate(-493.725 -388.171)" fill="#2f2e41"/>
    <path id="Path_64990" data-name="Path 64990" d="M721.889,397.317l4.521-7.681L724.1,376.03l.417-19.322.834-2.878a10.015,10.015,0,0,1,4.857-6.144l5.611-2.909a2.445,2.445,0,0,1,2.213-.03,2.966,2.966,0,0,1,1.479,1.754c1.236.19,9.134,1.728,10.843,10.156.636,3.135,1,9.34,1.08,18.443a154.447,154.447,0,0,1-1.087,19.676,2.9,2.9,0,0,1-.854,1.371,2.8,2.8,0,0,0-.778,1.192,1.975,1.975,0,0,0,.445,1.171,2.165,2.165,0,0,1,.484,1.392c-.169,1.095-.268,2.207-.364,3.282a38.551,38.551,0,0,1-.567,4.407,42.48,42.48,0,0,1-1.282,4.477c-.344,1.055-.7,2.146-.98,3.212l-.022.085-.077.015h-.005C746.265,415.38,745.984,412.3,721.889,397.317Z" transform="translate(-553.505 -267.553)" fill="#cb0072"/>
    <path id="Path_64991" data-name="Path 64991" d="M632.3,744.117H614.141v-.26a8.519,8.519,0,0,1,2.071-5.662,6.635,6.635,0,0,1,5-2.345h0L624.528,733l6.19,2.851H632.3Z" transform="translate(-477.921 -540.08)" fill="#2f2e41"/>
    <path id="Path_64992" data-name="Path 64992" d="M449.825,470.124l.528,5.906s.229,4.9.953,5.988,20.344,1.215,20.344,1.215,1.3-6.99,2.414-13.109Z" transform="translate(-362.657 -355.678)" fill="#ffb6b6"/>
    <path id="Path_64993" data-name="Path 64993" d="M478.163,594.093l4.1-.829-1.174-16.572-6.055,1.223Z" transform="translate(-333.231 -404.539)" fill="#ffb6b6"/>
    <path id="Path_64994" data-name="Path 64994" d="M437.325,604.364h4.182l1.99-16.49h-6.172Z" transform="translate(-306.776 -412.383)" fill="#ffb6b6"/>
    <path id="Path_64995" data-name="Path 64995" d="M478.3,576.373l-8.218.764L465.6,543.915c-14.775,2.541-28.714,3.355-40.771.281a7.793,7.793,0,0,1-5.573-9.415q.07-.293.163-.579c1.443-4.4,7.3-8.63,10.272-13.472l16.486,6.765.747,3.055,21.116-2.732a7.786,7.786,0,0,1,8.662,6.865q.043.344.056.69Z" transform="translate(-341.055 -391.177)" fill="#2f2e41"/>
    <path id="Path_64996" data-name="Path 64996" d="M495.669,562.01l-8.218.764-14.9-30.473c-14.775,2.541-28.714,3.355-40.771.281a7.793,7.793,0,0,1-5.573-9.415q.07-.293.163-.579c1.443-4.4,5.22-7.518,8.2-12.36l21.737.33-2.428,8.377,21.116-2.732a7.786,7.786,0,0,1,8.662,6.865q.043.344.056.69Z" transform="translate(-345.934 -383.811)" fill="#2f2e41"/>
    <circle id="Ellipse_3258" data-name="Ellipse 3258" cx="10.084" cy="10.084" r="10.084" transform="translate(86.912 57.48)" fill="#ffb6b6"/>
    <path id="Path_64997" data-name="Path 64997" d="M448.944,353.315l8.093.952a1.651,1.651,0,0,1,1.42,1.288l1.287,5.889,8.023,9.448a19.811,19.811,0,0,1,1.8,11.524c-1.08,6.122-1.555,10.671-1.555,10.671s-21.522,8.069-22.242,6.989-.954-5.988-.954-5.988l-2.881-32.052s3.241-5.4,5.042-5.4C448.139,356.6,447.991,353.981,448.944,353.315Z" transform="translate(-357.123 -273.738)" fill="#cb0072"/>
    <path id="Path_64998" data-name="Path 64998" d="M305.847,336.909,323.941,356.8l3.222-1.982Z" transform="translate(-214.548 -236.336)" opacity="0.2"/>
    <ellipse id="Ellipse_3259" data-name="Ellipse 3259" cx="2.055" cy="2.466" rx="2.055" ry="2.466" transform="translate(109.054 116.388)" fill="#cb0072"/>
    <path id="Path_64999" data-name="Path 64999" d="M560.1,480.2a4.133,4.133,0,0,1-3.437-5.324l-25.324-21.684,7.16-2.641,23.63,21.65a4.155,4.155,0,0,1-2.03,8Z" transform="translate(-419.841 -341.944)" fill="#ffb6b6"/>
    <path id="Path_65000" data-name="Path 65000" d="M463.837,380.74s-5.12,1.31-4.212,7.291,15.515,17.9,17.812,19.9S494.9,416.15,494.9,416.15l5.461-6.3Z" transform="translate(-369.455 -292.977)" fill="#cb0072"/>
    <path id="Path_65001" data-name="Path 65001" d="M567.267,461.308a4.133,4.133,0,0,1-4.165-4.776L534.93,438.7l6.708-3.641L568.129,453.1a4.155,4.155,0,0,1-.862,8.207Z" transform="translate(-422.356 -331.084)" fill="#ffb6b6"/>
    <path id="Path_65002" data-name="Path 65002" d="M458.652,377.646s-4.879,2.03-3.123,7.82S473.452,400.96,476.01,402.6s18.463,5.632,18.463,5.632l4.5-7.014Z" transform="translate(-366.39 -290.806)" fill="#cb0072"/>
    <path id="Path_65003" data-name="Path 65003" d="M412.8,256.951c-3.5-2.4-6.576-2.771-9.1-2.089a3.325,3.325,0,0,0-1.33-1.181,10.93,10.93,0,0,0-20.915,6c.6,3.284,2.671,6.127,3.5,9.361a13.36,13.36,0,0,1-8.457,15.449,13.043,13.043,0,0,0,14.3-7.935c1.013-2.7,1.074-5.64,1.2-8.518s.361-5.842,1.665-8.41a8.594,8.594,0,0,1,4.113-3.991,3.281,3.281,0,0,0,.479,2.953,8.731,8.731,0,0,0-2.106,4.661c-2.833,5.177,1.218,9.624,6.4,12.456a10.606,10.606,0,0,0,6.777,1.181l.217-.925.293.833s3.371,11.133,4.482,11.786c-.422-1.981-.905-11.155-1.14-13.088-.325-2.632.808-6.55,1.626-8.932a14.063,14.063,0,0,0,.77-4.564v-.068l.8,2.557,2.9-1.236C418.726,260.158,419.265,256.646,412.8,256.951Z" transform="translate(-311.219 -199.027)" fill="#2f2e41"/>
    <path id="Path_65004" data-name="Path 65004" d="M628.886,475.685a4.133,4.133,0,0,0,3.245-5.443l24.538-22.57-7.25-2.385-22.846,22.476a4.155,4.155,0,0,0,2.313,7.922Z" transform="translate(-484.868 -338.255)" fill="#9e616a"/>
    <path id="Path_65005" data-name="Path 65005" d="M704.518,372.636s5.163,1.127,4.468,7.137-14.87,18.444-17.094,20.517-17.161,8.837-17.161,8.837l-5.681-6.1Z" transform="translate(-516.439 -287.292)" fill="#cb0072"/>
    <path id="Path_65006" data-name="Path 65006" d="M636.507,700.065l6.255-3.135,1.179,2.75,7.91,1.6a1.869,1.869,0,0,1,.366,3.55l-7.642,3.276-2.483-2.156.652,2.941-2.881,1.235Z" transform="translate(-493.611 -514.778)" fill="#2f2e41"/>
    <path id="Path_65007" data-name="Path 65007" d="M589.417,722.389l6.984-.417v2.992l6.64,4.586a1.869,1.869,0,0,1-1.062,3.407h-8.315L592.231,730l-.56,2.96h-3.135Z" transform="translate(-459.96 -532.345)" fill="#2f2e41"/>
    <path id="Path_65008" data-name="Path 65008" d="M739.945,261.348c-1.272-1.646-3.862-2.349-5.517-1.088a3.492,3.492,0,0,0,1.152-4.09,5.44,5.44,0,0,0-3.294-3,12.938,12.938,0,0,0-4.53-.6,14.222,14.222,0,0,0-5.867.994,6.148,6.148,0,0,0-3.683,4.418,3.923,3.923,0,1,0-.55,7.512,19.768,19.768,0,0,0,2.87-1.2,2.868,2.868,0,0,1,2.946.234c1.039.958.863,3.017,2.2,3.49.736.261,1.553-.156,2.324-.032a2.294,2.294,0,0,1,1.71,1.964,6.724,6.724,0,0,1-.313,2.743l-1.543,5.993.6-.152a13.537,13.537,0,0,0,12.591-11.218A7.639,7.639,0,0,0,739.945,261.348Z" transform="translate(-547.207 -203.064)" fill="#2f2e41"/>
    <path id="Path_65009" data-name="Path 65009" d="M414.686,769.586H158.171a.355.355,0,1,1,0-.711H414.686a.355.355,0,0,1,0,.711Z" transform="translate(-157.817 -565.247)" fill="#ccc"/>
    <path id="Path_65010" data-name="Path 65010" d="M407.828,698.01c.916-7.367,5.482-14.626,12.508-17.023a34.2,34.2,0,0,0,0,23.484c1.08,2.92,2.585,6.056,1.569,9A7.646,7.646,0,0,1,418,717.578a22.709,22.709,0,0,1-5.539,1.7l-.373.308C409.083,712.8,406.912,705.377,407.828,698.01Z" transform="translate(-333.048 -503.594)" fill="#e6e6e6"/>
    <path id="Path_65011" data-name="Path 65011" d="M430.523,680.758a29.235,29.235,0,0,0-7.268,16.454,12.589,12.589,0,0,0,.143,3.942,7.221,7.221,0,0,0,1.8,3.349,14.945,14.945,0,0,1,2.32,2.776,4.421,4.421,0,0,1,.216,3.609,11.489,11.489,0,0,1-2.545,3.8,11.279,11.279,0,0,0-2.827,4.221c-.059.2-.369.1-.311-.1.843-2.906,3.664-4.557,5.009-7.174a4.478,4.478,0,0,0,.3-3.929,11.6,11.6,0,0,0-2.3-2.863,7.705,7.705,0,0,1-1.878-3.209,11.64,11.64,0,0,1-.294-3.922,28.362,28.362,0,0,1,2.072-8.62,29.754,29.754,0,0,1,5.35-8.574c.14-.157.355.09.216.245Z" transform="translate(-343.166 -503.227)" fill="#fff"/>
    <path id="Path_65012" data-name="Path 65012" d="M418.531,718.789a4.386,4.386,0,0,1-3.339-4.595c.017-.21.344-.194.327.016a4.062,4.062,0,0,0,3.115,4.268c.2.049.1.359-.1.311Z" transform="translate(-338.354 -526.784)" fill="#fff"/>
    <path id="Path_65013" data-name="Path 65013" d="M430.84,747.966a8.454,8.454,0,0,0,3.775-4.869c.059-.2.37-.1.311.1a8.794,8.794,0,0,1-3.939,5.059c-.181.108-.328-.185-.147-.292Z" transform="translate(-349.282 -547.087)" fill="#fff"/>
    <path id="Path_65014" data-name="Path 65014" d="M436.619,699.527a2.483,2.483,0,0,0,2.353-.119c.18-.11.326.183.147.292a2.782,2.782,0,0,1-2.6.138.169.169,0,0,1-.1-.207.164.164,0,0,1,.207-.1Z" transform="translate(-353.243 -516.499)" fill="#fff"/>
    <path id="Path_65015" data-name="Path 65015" d="M451.885,723.225c-.11.072-.221.144-.331.218a32.694,32.694,0,0,0-4.181,3.264c-.1.091-.2.185-.3.279a34.471,34.471,0,0,0-7.486,10.248,33.48,33.48,0,0,0-1.834,4.744c-.677,2.245-1.232,4.733-2.571,6.569a5.748,5.748,0,0,1-.447.552h-12.1l-.083-.039-.483.022c.019-.086.041-.174.061-.26.011-.05.025-.1.036-.149.008-.033.017-.066.022-.1,0-.011.006-.022.008-.03.006-.03.014-.058.019-.086q.182-.741.376-1.483s0,0,0-.005a49.219,49.219,0,0,1,4.142-10.875c.055-.1.11-.207.171-.309a31.945,31.945,0,0,1,2.869-4.352,28.23,28.23,0,0,1,1.881-2.151,23.482,23.482,0,0,1,5.876-4.4,18.646,18.646,0,0,1,14.006-1.77C451.65,723.15,451.766,723.186,451.885,723.225Z" transform="translate(-343.181 -532.674)" fill="#e6e6e6"/>
    <path id="Path_65016" data-name="Path 65016" d="M451.989,724.8a29.235,29.235,0,0,0-15.709,8.762,12.589,12.589,0,0,0-2.259,3.234,7.22,7.22,0,0,0-.583,3.755,14.946,14.946,0,0,1,.181,3.613,4.421,4.421,0,0,1-2,3.012,11.488,11.488,0,0,1-4.318,1.5,11.279,11.279,0,0,0-4.8,1.668c-.169.126-.355-.143-.186-.269,2.423-1.813,5.669-1.433,8.319-2.713a4.478,4.478,0,0,0,2.607-2.955,11.594,11.594,0,0,0-.114-3.672,7.705,7.705,0,0,1,.433-3.693,11.638,11.638,0,0,1,2.126-3.309,28.362,28.362,0,0,1,6.844-5.635,29.752,29.752,0,0,1,9.434-3.625c.206-.041.23.286.025.326Z" transform="translate(-343.312 -534.101)" fill="#fff"/>
    <path id="Path_65017" data-name="Path 65017" d="M471.145,736.336a4.386,4.386,0,0,1,.1-5.679c.14-.158.391.052.251.21a4.062,4.062,0,0,0-.083,5.283c.134.162-.136.348-.269.186Z" transform="translate(-376.915 -538.398)" fill="#fff"/>
    <path id="Path_65018" data-name="Path 65018" d="M458.832,772.463a8.454,8.454,0,0,0,5.946-1.615c.169-.126.355.143.186.269a8.793,8.793,0,0,1-6.191,1.668C458.563,772.762,458.623,772.44,458.832,772.463Z" transform="translate(-368.842 -566.608)" fill="#fff"/>
    <path id="Path_65019" data-name="Path 65019" d="M499.444,732.085a2.483,2.483,0,0,0,1.951,1.321c.21.021.15.342-.058.322a2.782,2.782,0,0,1-2.161-1.457.169.169,0,0,1,.041-.228A.164.164,0,0,1,499.444,732.085Z" transform="translate(-397.256 -539.39)" fill="#fff"/>
    <path id="Path_65020" data-name="Path 65020" d="M485.206,811.587H333.173a.355.355,0,1,1,0-.711H485.206a.355.355,0,1,1,0,.711Z" transform="translate(-280.578 -594.709)" fill="#ccc"/>
  </g>
</svg>
