<svg id="undraw_everywhere_together_re_xe5a" xmlns="http://www.w3.org/2000/svg" width="282" height="225.052" viewBox="0 0 282 225.052">
  <g id="Group_57056" data-name="Group 57056" transform="translate(148.5 31.997)">
    <g id="Group_57052" data-name="Group 57052" transform="translate(61.292 172.202)">
      <path id="Path_64881" data-name="Path 64881" d="M451.4,432.4h-4.558l-2.168-17.582h6.728Z" transform="translate(-435.57 -414.815)" fill="#ffb6b6"/>
      <path id="Path_64882" data-name="Path 64882" d="M426.393,445.018h0a3.914,3.914,0,0,0-.217,1.289h0a1.547,1.547,0,0,0,1.547,1.547H441.84A1.055,1.055,0,0,0,442.9,446.8v-.588a4.512,4.512,0,0,0-.739-3.944s-1.787,1.7-4.457-.965l-.787-1.426-5.7,4.168-3.159.389C427.362,444.518,426.749,444.42,426.393,445.018Z" transform="translate(-426.177 -427.539)" fill="#2f2e41"/>
    </g>
    <g id="Group_57053" data-name="Group 57053" transform="translate(40.568 172.202)">
      <path id="Path_64883" data-name="Path 64883" d="M409.3,432.4h-4.558l-2.168-17.582H409.3Z" transform="translate(-393.47 -414.815)" fill="#ffb6b6"/>
      <path id="Path_64884" data-name="Path 64884" d="M384.293,445.018h0a3.913,3.913,0,0,0-.217,1.289h0a1.547,1.547,0,0,0,1.547,1.547H399.74A1.055,1.055,0,0,0,400.8,446.8v-.588a4.512,4.512,0,0,0-.739-3.944s-1.787,1.7-4.457-.965l-.787-1.426-5.7,4.168-3.159.389C385.262,444.518,384.649,444.42,384.293,445.018Z" transform="translate(-384.077 -427.539)" fill="#2f2e41"/>
    </g>
    <path id="Path_64885" data-name="Path 64885" d="M433.068,227.543l-31.722.846L398.112,236l-3.956,49.485,3.384,43.564h9.878V287.936l7.463-25.287,2.96,65.135,10.2,1.269,4.183-44.833,3.807-42.719Z" transform="translate(-348.626 -147.529)" fill="#2f2e41"/>
    <path id="Path_64886" data-name="Path 64886" d="M424.531,112.41l-11,.423-1.269,5.075s-13.535,3.807-12.689,8.882,5.075,27.492,5.075,27.492-4.652,14.38-1.692,16.072,33.47,0,33.47,0,2.481-6.344,1.212-7.19,3.807-41.45,2.961-42.3-14.8-5.075-14.8-5.075l-1.269-3.384Z" transform="translate(-351.359 -89.072)" fill="#cb0072"/>
    <g id="Group_57054" data-name="Group 57054" transform="translate(77.254 31.95)">
      <path id="Path_64887" data-name="Path 64887" d="M480.6,195.276l.846,5.921-9.3,21.148-4.652-2.538,5.075-19.879.846-7.613Z" transform="translate(-463.116 -161.593)" fill="#ffb6b6"/>
      <path id="Path_64888" data-name="Path 64888" d="M474.667,130.175s4.652-2.115,8.036,5.5,2.538,24.108,2.538,24.108,1.269,1.269.423,2.115-2.453-1.145-.846,1.545c.846,1.415,3.384.992.846,1.415s-1.648-.759-.846.846c.423.846,2.115.846.423,1.269s-10.2-.3-10.2-.3-2.907-1.389-1.215-2.235,2.538-1.012,1.692-1.352-2.961-.34-1.692-1.609,2.115-1.269,1.269-1.269-1.8-2.038-1.8-2.038l1.375-27.992Z" transform="translate(-466.061 -129.905)" fill="#cb0072"/>
      <ellipse id="Ellipse_3226" data-name="Ellipse 3226" cx="5.889" cy="3.497" rx="5.889" ry="3.497" transform="translate(0 67.672) rotate(-71.527)" fill="#ffb6b6"/>
    </g>
    <g id="Group_57055" data-name="Group 57055" transform="translate(0 32.955)">
      <path id="Path_64889" data-name="Path 64889" d="M347.4,187.007l-3.365,4.946-21.125,9.357-1.728-5.01,17.144-11.269,5.755-5.056Z" transform="translate(-311.573 -156.332)" fill="#ffb6b6"/>
      <path id="Path_64890" data-name="Path 64890" d="M381.349,131.946s4.863,1.572,2.233,9.478-14.368,19.524-14.368,19.524.083,1.793-1.112,1.848-1.042-2.5-1.666.572c-.329,1.616,1.832,3.013-.329,1.616s-.707-1.672-1.2.055c-.257.91.993,2.05-.542,1.223s-7.336-7.1-7.336-7.1-1.212-2.985.608-2.47,2.557.962,2.161.141-1.959-2.246-.166-2.329,2.418.487,1.793-.083.045-2.717.045-2.717l19.876-19.758Z" transform="translate(-329.577 -131.946)" fill="#cb0072"/>
      <ellipse id="Ellipse_3227" data-name="Ellipse 3227" cx="5.889" cy="3.497" rx="5.889" ry="3.497" transform="translate(0 44.007) rotate(-29.168)" fill="#ffb6b6"/>
    </g>
    <circle id="Ellipse_3228" data-name="Ellipse 3228" cx="10.157" cy="10.157" r="10.157" transform="translate(57.995 0.956)" fill="#ffb6b6"/>
    <path id="Path_64891" data-name="Path 64891" d="M423.088,67.943a3.571,3.571,0,0,1,3.5-2.321c.066,0,.132,0,.2,0a14.652,14.652,0,0,0,2.3-.456,8.267,8.267,0,0,1,4.318.28,4.129,4.129,0,0,0,1.312.333,1.06,1.06,0,0,0,1.059-.689l.079,1.2.443-.967.3,1.286.947-1.075a1.383,1.383,0,0,0,.565,1.254,5.21,5.21,0,0,0,1.278.659,7.04,7.04,0,0,1,4.255,4.259,9.664,9.664,0,0,1-.018,3.907,8.184,8.184,0,0,1-.964,3.314,9.574,9.574,0,0,0-1.221,1.857,13.91,13.91,0,0,1-.464,2.018,2.847,2.847,0,0,1-1.65,1.2,7.437,7.437,0,0,0-1.917.807c-.565.407-1.22,1.581-2.45,1.517l-.4-.746c-.408-.333,1.1-.069,1.119-.6s-1.819-.852-1.559-1.31c.4-.7.938-1.314,1.387-1.986a3.646,3.646,0,0,0,.757-2.661,1.937,1.937,0,0,0-.511-1c-.766-.781-1.621-.438-2.451-.326a1.53,1.53,0,0,1-1.553-.507c-.348-.579.04-1.316-.008-1.99a2.439,2.439,0,0,0-1.18-1.707,16.207,16.207,0,0,1-1.787-1.185c-.53-.482-.446-.232-.215-.909-3.938,2.954-3.356-2.146-6-1.509a13.413,13.413,0,0,1,.526-1.947Z" transform="translate(-363.049 -65)" fill="#2f2e41"/>
  </g>
  <path id="Path_64892" data-name="Path 64892" d="M319.029,435.1a6.857,6.857,0,0,0-2.855,2.567,7.193,7.193,0,0,0-.4.785,21.365,21.365,0,0,1,2.042-6.745c.369-.716-.251-1.765-.622-1.044h0c-1.585.824-2.253,2.749-2.508,5.03a9.313,9.313,0,0,0-1.155-2.167c-.185-.25-.442-.3-.622,0a1.133,1.133,0,0,0,0,1.044c-.682,3.583,1.079,4.693,1.687,6.477.014.4.028.786.042,1.168a.731.731,0,0,0,.324.681c.081.211.227.356.376.356.249,0,.427-.339.44-.738.049-1.467.2-4.013,1.07-3.878,1.855.288,1.941-1.213,2.419-2.11.376-.706.309-1.708-.234-1.424Z" transform="translate(-158.795 -218.537)" fill="#e6e6e6"/>
  <path id="Path_64893" data-name="Path 64893" d="M514.512,435.1a6.856,6.856,0,0,1,2.855,2.567,7.182,7.182,0,0,1,.4.785,21.366,21.366,0,0,0-2.042-6.745c-.369-.716.251-1.765.622-1.044h0c1.585.824,2.253,2.749,2.508,5.03a9.315,9.315,0,0,1,1.155-2.167c.185-.25.442-.3.622,0a1.132,1.132,0,0,1,0,1.044c.682,3.583-1.079,4.693-1.687,6.477-.014.4-.028.786-.042,1.168a.731.731,0,0,1-.324.681c-.081.211-.227.356-.376.356-.249,0-.427-.339-.44-.738-.049-1.467-.2-4.013-1.07-3.878-1.855.288-1.941-1.213-2.419-2.11C513.9,435.814,513.969,434.812,514.512,435.1Z" transform="translate(-260.997 -218.537)" fill="#e6e6e6"/>
  <path id="Path_64894" data-name="Path 64894" d="M167.192,455.382a.584.584,0,0,0,.586.586H366.3a.586.586,0,1,0,0-1.172H167.778a.584.584,0,0,0-.586.586Z" transform="translate(-84.889 -230.916)" fill="#ccc"/>
  <g id="Group_57057" data-name="Group 57057">
    <path id="Path_64895" data-name="Path 64895" d="M108.528,225.052H21.68a19.227,19.227,0,0,1-19.2-19.205V19.2A19.227,19.227,0,0,1,21.68,0h86.848a19.227,19.227,0,0,1,19.2,19.2V205.847a19.227,19.227,0,0,1-19.2,19.205Z" transform="translate(-1.257)" fill="#3f3d56"/>
    <path id="Path_64896" data-name="Path 64896" d="M256.089,139.464a.813.813,0,0,0-.812.812v26a.812.812,0,1,0,1.625,0v-26A.813.813,0,0,0,256.089,139.464Z" transform="translate(-129.613 -70.811)" fill="#3f3d56"/>
    <path id="Path_64897" data-name="Path 64897" d="M127.79,21.089V207.728a17.379,17.379,0,0,1-16.245,17.342h0c-.134.008-.268.016-.406.02-.24.012-.479.016-.723.016,0,0-.894-.065-2.527-.187-1.649-.122-4.05-.3-7.044-.544q-1.347-.1-2.844-.227c-1.991-.162-4.176-.341-6.52-.544-.934-.077-1.9-.162-2.888-.248-5.045-.435-10.7-.942-16.655-1.519q-1.511-.14-3.047-.292c-.268-.028-.54-.053-.812-.081-4.249-.418-61.886-11.557-61.886-13.735V21.089A17.377,17.377,0,0,1,23.568,3.71H33.943a3.168,3.168,0,0,1,3.132,2.945c.012.11.024.219.045.329A3.53,3.53,0,0,0,40.633,9.8H93.346A3.53,3.53,0,0,0,96.86,6.985c.02-.11.033-.219.045-.329a3.168,3.168,0,0,1,3.132-2.945h10.375A17.377,17.377,0,0,1,127.79,21.089Z" transform="translate(-3.142 -1.884)" fill="#fff"/>
    <path id="Path_64898" data-name="Path 64898" d="M.812,99.853a.813.813,0,0,0-.812.812v6.5a.812.812,0,0,0,1.625,0v-6.5A.813.813,0,0,0,.812,99.853Z" transform="translate(0 -50.699)" fill="#3f3d56"/>
    <path id="Path_64899" data-name="Path 64899" d="M.812,139.464a.813.813,0,0,0-.812.812V152.87a.812.812,0,0,0,1.625,0V140.276A.813.813,0,0,0,.812,139.464Z" transform="translate(0 -70.811)" fill="#3f3d56"/>
    <path id="Path_64900" data-name="Path 64900" d="M.812,175.773a.813.813,0,0,0-.812.812v12.593a.812.812,0,0,0,1.625,0V176.585A.813.813,0,0,0,.812,175.773Z" transform="translate(0 -89.246)" fill="#3f3d56"/>
    <rect id="Rectangle_6591" data-name="Rectangle 6591" width="15.843" height="2.031" rx="0.31" transform="translate(14.827 4.672)" fill="#e6e6e6"/>
    <circle id="Ellipse_3229" data-name="Ellipse 3229" cx="1.625" cy="1.625" r="1.625" transform="translate(97.837 3.453)" fill="#e6e6e6"/>
    <circle id="Ellipse_3230" data-name="Ellipse 3230" cx="1.625" cy="1.625" r="1.625" transform="translate(102.306 3.453)" fill="#e6e6e6"/>
    <circle id="Ellipse_3231" data-name="Ellipse 3231" cx="1.625" cy="1.625" r="1.625" transform="translate(106.774 3.453)" fill="#e6e6e6"/>
  </g>
  <g id="Group_57060" data-name="Group 57060" transform="translate(71.04 30.198)">
    <g id="Group_57058" data-name="Group 57058" transform="translate(44.87 165.966)">
      <path id="Path_64901" data-name="Path 64901" d="M239.808,416.747l3.749-.945L241,398.491l-5.534,1.393Z" transform="translate(-235.463 -398.491)" fill="#ffb6b6"/>
      <path id="Path_64902" data-name="Path 64902" d="M255.831,429.724h0a1.116,1.116,0,0,1-.682,1.416l-7.394,2.049a6.929,6.929,0,0,0-4.854-3.16l.954,4.24-3.814,1.057-1.4-6.855s-2.018-3.316-.408-5.743-.036-1.7-.036-1.7l-.32-4.395,5.952-.919,1.853,6.524,4.595,5.713,4.664.89a1.2,1.2,0,0,1,.891.879Z" transform="translate(-236.553 -407.238)" fill="#2f2e41"/>
    </g>
    <g id="Group_57059" data-name="Group 57059" transform="translate(6.973 164.9)">
      <path id="Path_64903" data-name="Path 64903" d="M171.337,412.639l3.615,1.372,7.81-15.66-5.335-2.025Z" transform="translate(-165.007 -396.326)" fill="#ffb6b6"/>
      <path id="Path_64904" data-name="Path 64904" d="M174.631,432.209h0a1.116,1.116,0,0,1-1.37.771l-7.236-2.553a6.929,6.929,0,0,0-2.171-5.369l-1.645,4.023-3.733-1.317,2.775-6.423s.244-3.874,2.953-4.943.941-1.411.941-1.411L167.4,411.2l5.406,2.653-2.215,6.41.5,7.314,3.315,3.4a1.2,1.2,0,0,1,.228,1.231Z" transform="translate(-158.478 -403.878)" fill="#2f2e41"/>
    </g>
    <path id="Path_64905" data-name="Path 64905" d="M178.869,87.81H159.684a5.561,5.561,0,0,0-.558-2.607,6.5,6.5,0,0,1-.581,2.607h-.872a2.417,2.417,0,0,1-2.415-2.415V72.929A11.44,11.44,0,0,1,166.149,61.5c.183-.009.361-.014.544-.014a11.453,11.453,0,0,1,10.91,7.994c2.218-1.022,3.544,4.787,4.426,14.014a3.318,3.318,0,0,1-3.16,4.313Z" transform="translate(-149.87 -61.418)" fill="#2f2e41"/>
    <path id="Path_64906" data-name="Path 64906" d="M269.788,247.365c.951,2.255.559,4.573-.876,5.178s-3.369-.732-4.32-2.987a6.124,6.124,0,0,1-.5-2.848l-3.91-9.6,4.546-1.739,3.372,9.652a6.125,6.125,0,0,1,1.69,2.347Z" transform="translate(-203.142 -149.701)" fill="#ffb6b6"/>
    <path id="Path_64907" data-name="Path 64907" d="M183.4,106.385l-9.17,1.918,1.406,4.219-2.813,32.272,4.688,10.392,28.6-2.344-7.033-14.065s2.813-11.721-.938-14.065-9.846-14.065-9.846-14.065l-4.895-4.262Z" transform="translate(-158.787 -84.213)" fill="#cb0072"/>
    <path id="Path_64908" data-name="Path 64908" d="M165.178,114.073l-8.123,3.291,2.813,41.257-6.095,35.631,19.691,3.282s-2.344-78.764-3.751-80.17a31.276,31.276,0,0,0-4.535-3.291Z" transform="translate(-149.116 -88.116)" fill="#2f2e41"/>
    <path id="Path_64909" data-name="Path 64909" d="M209.262,122.691s5.286-3.344,8.142-.868,24.843,62.334,24.843,62.334l-5.931,2.577-13.6-28.518-13.453-35.525Z" transform="translate(-177.289 -91.587)" fill="#2f2e41"/>
    <path id="Path_64910" data-name="Path 64910" d="M211.221,261.184l5.363,41.224-7.5.469s-3.9-10.642-8.35-23.179c-.947-2.658-1.918-5.4-2.879-8.148-1.041-2.982-2.077-5.964-3.061-8.842-2.433-7.1-4.566-13.559-5.785-17.778-.211-.741-.4-1.411-.553-2-3.282-12.6-5.157-45.538-5.157-45.538l27.192-2.344.291.361,5.8,7.253-.272,1.533-7.229,40.549,2.138,16.442Z" transform="translate(-164.106 -129.229)" fill="#2f2e41"/>
    <path id="Path_64911" data-name="Path 64911" d="M206.665,251.884l2.138,16.442-9.616,16.93-.872,1.585-13.24,24.06-6.54-3.708a392.689,392.689,0,0,0,13.84-37.343c.591-1.955,1.139-3.891,1.632-5.776,1.449-5.518-.924-15.589,0-18.364,3.137-9.367,13.357-28.107,18.1-36.6l1.782,2.222-7.229,40.549Z" transform="translate(-161.688 -136.371)" fill="#2f2e41"/>
    <path id="Path_64912" data-name="Path 64912" d="M204.008,114.32l9.5,3.638,24.848,72.669-15,2.344-7.033-42.195Z" transform="translate(-174.622 -88.242)" fill="#2f2e41"/>
    <path id="Path_64913" data-name="Path 64913" d="M149.958,259.634c-.242,2.435-1.694,4.284-3.243,4.13s-2.61-2.252-2.368-4.687a6.124,6.124,0,0,1,.92-2.742l1.154-10.3,4.824.644-1.649,10.09a6.124,6.124,0,0,1,.363,2.869Z" transform="translate(-144.312 -155.116)" fill="#ffb6b6"/>
    <path id="Path_64914" data-name="Path 64914" d="M155.984,120.449s-6.095-1.406-7.97,1.875-2.813,67.043-2.813,67.043l6.449.469,3.4-31.412.938-37.976Z" transform="translate(-144.763 -91.202)" fill="#2f2e41"/>
    <circle id="Ellipse_3232" data-name="Ellipse 3232" cx="9.746" cy="9.746" r="9.746" transform="translate(9.253 1.544)" fill="#ffb6b6"/>
    <path id="Path_64915" data-name="Path 64915" d="M185.455,71.8s-4.748-1.407-7.59,0c-3.95,1.955-14.035,0-14.035,0V67.39a5.1,5.1,0,0,1,4.467-5.061l7.278-.91a9.572,9.572,0,0,1,10.759,9.5h0a.878.878,0,0,1-.878.878Z" transform="translate(-154.222 -61.344)" fill="#2f2e41"/>
    <path id="Path_64916" data-name="Path 64916" d="M173.631,94.647H162.585a5.561,5.561,0,0,0-.558-2.607,6.5,6.5,0,0,1-.581,2.607h-.474V74.956h8.439l4.219,19.691Z" transform="translate(-152.771 -68.255)" fill="#2f2e41"/>
  </g>
</svg>
