<svg xmlns="http://www.w3.org/2000/svg" width="270.099" height="204.091" viewBox="0 0 270.099 204.091">
  <g id="undraw_online_dating_re_hu03" transform="translate(0 0)">
    <path id="Path_64917" data-name="Path 64917" d="M524.736,373.316a13.609,13.609,0,1,1,0-27.219c.065,0,.129,0,.194.005v-15.98l-.137-.138-.141.141a26.439,26.439,0,1,0-34.881,39.623l32.486,32.486a1.495,1.495,0,0,0,2.552-1.05l.122-27.874C524.865,373.312,524.8,373.316,524.736,373.316Z" transform="translate(-389.881 -268.604)" fill="#cb0072"/>
    <path id="Path_64918" data-name="Path 64918" d="M608.681,331.983a26.421,26.421,0,0,0-2.152-2.427h0a26.441,26.441,0,0,0-37.393,0h0c-.046.046-.088.095-.134.141l0,0v15.98c-.065,0-.129,0-.194,0a13.712,13.712,0,0,0-1.752.116,5.642,5.642,0,1,0-9.279,5.526,13.6,13.6,0,0,0-.892,1.4,5.643,5.643,0,1,0-.947,11.205c.024,0,.047,0,.071,0a13.563,13.563,0,0,0,1.564,3.044,5.641,5.641,0,1,0,9.624,5.83,13.741,13.741,0,0,0,1.609.1c.065,0,.129,0,.194,0V400.6a1.495,1.495,0,0,0,2.552,1.057l32.607-32.607A26.4,26.4,0,0,0,608.681,331.983Z" transform="translate(-433.95 -268.181)" fill="#f2f2f2"/>
    <path id="Path_64919" data-name="Path 64919" d="M589.745,498.306l-3.833-.059-1.6-14.813,5.658.087Z" transform="translate(-364.404 -301.491)" fill="#ffb6b6"/>
    <path id="Path_64920" data-name="Path 64920" d="M822.79,703.558l-.026-.361-.12-1.8-.463-6.819-1.25-.094-4.2-.316-.674-.053-.038,2.627-5.886,3.929a1.641,1.641,0,0,0,.316,2.89,1.588,1.588,0,0,0,.568.113l7.294.113.113-.226,1.182-2.352.406,2.352.045.252,2.747.041Z" transform="translate(-595.548 -500.364)" fill="#2f2e41"/>
    <path id="Path_64921" data-name="Path 64921" d="M597.078,490.64,594.055,493l-10.534-10.536,4.461-3.481Z" transform="translate(-363.91 -298.714)" fill="#ffb6b6"/>
    <path id="Path_64922" data-name="Path 64922" d="M856.013,688.557l-6.308-6.835-1.035.711-3.463,2.386-.557.384,1.615,2.07-2.006,6.394-.113.358a1.634,1.634,0,0,0,.233,1.445c.011.019.026.034.038.053a1.484,1.484,0,0,0,.324.309,1.644,1.644,0,0,0,.975.32,1.626,1.626,0,0,0,.975-.32l.03-.023,5.747-4.486-.606-2.819,1.983,1.742Z" transform="translate(-617.165 -492.637)" fill="#2f2e41"/>
    <path id="Path_64923" data-name="Path 64923" d="M850.7,409.361l-4.865-18.006a3.01,3.01,0,0,0-3.652-2.122h0a3.011,3.011,0,0,0-2.168,3.664q.02.077.044.154l5.627,18.549,2.944,11.415a2.627,2.627,0,1,0,3.368.15Z" transform="translate(-614.575 -310.169)" fill="#ffb8b8"/>
    <path id="Path_64924" data-name="Path 64924" d="M747.433,402.53l12.984-13.39a3.01,3.01,0,0,0-.044-4.223h0a3.01,3.01,0,0,0-4.257.011q-.056.057-.11.116l-13.06,14.323-8.3,8.368a2.627,2.627,0,1,0,1.594,2.971Z" transform="translate(-546.671 -306.989)" fill="#ffb8b8"/>
    <path id="Path_64925" data-name="Path 64925" d="M800.11,439.1l2.558,11.33,16.672-1.042c-1.741-5.847-2.349-7.027-1.041-11.1Z" transform="translate(-589.748 -340.822)" fill="#ffb8b8"/>
    <path id="Path_64926" data-name="Path 64926" d="M798.806,369.559H791.99l-2.927,5.009-1.395-.077c-2.88-.159-9.817,5.954-9.817,8.838h0l3.988,5.132,3.473-3.126s-4.3,2.194.126,4.829c0,0-.79,4.965,0,4.912s2.609-1.064.79-.053-1.683,1.146-1.448,1.381l.235.235,19.125,3.211s.56-3.708.62-4.369-.344.955.06-.661,1.011-1.01.4-1.617,1.15-8.118-.713-11.031l-.791,9.068,6.6-2.084c.807-3.62.074-7.334-1.737-11.115,0-2.795-2.795-3.843-5.589-3.843h-.358Z" transform="translate(-575.866 -297.958)" fill="#e6e6e6"/>
    <path id="Path_64927" data-name="Path 64927" d="M822.657,464.962l.577,6.4s6.477,6.427,4.281,14.676-6.287,30.718-6.287,30.718,2.177,20.32-2.423,29.143l-6.918-1.378-4.133-27.568-1.885-31.35-1.488-8.9.951-10.334Z" transform="translate(-592.411 -357.456)" fill="#2f2e41"/>
    <path id="Path_64928" data-name="Path 64928" d="M551.333,307.126l-4.6,3.657L536.784,353.4l22.161,28.272,4.277-3.953-14.846-25.865,3.473-23.271-2.589-10.98Z" transform="translate(-334.762 -191.537)" fill="#2f2e41"/>
    <path id="Path_64929" data-name="Path 64929" d="M798.334,338.977c2.331,4.016-2.058,10.783,2.366,12.188l-.364-.364c-2.671-3.285,2.911-10.238.241-13.523a8.031,8.031,0,0,1-1.061-1.577Z" transform="translate(-588.641 -276.842)" fill="#2f2e41"/>
    <path id="Path_64930" data-name="Path 64930" d="M820.314,329.611a7.952,7.952,0,1,1-13.677-5.515l.038-.038c.064-.067.127-.134.194-.2h0v0h0c.083-.076.165-.153.251-.226a7.95,7.95,0,0,1,13.19,5.98Z" transform="translate(-592.431 -268.086)" fill="#2f2e41"/>
    <circle id="Ellipse_3233" data-name="Ellipse 3233" cx="6.668" cy="6.668" r="6.668" transform="translate(211.305 56.697)" fill="#ffb8b8"/>
    <path id="Path_64931" data-name="Path 64931" d="M811.313,327.278a7.52,7.52,0,0,0-7.851-1.524l-.105.045c-.132.053-.263.113-.4.177l-.075.034v.011l-.045.034a.267.267,0,0,1-.109.06,4.117,4.117,0,0,0-3.1,1.291,6.792,6.792,0,0,0-1.37,5.1l0,.068.06.038.053.034c.527.327,1.027.617,1.513.873.294.158.58.3.866.433l.1.045c.109.053.222.1.331.151a10.46,10.46,0,0,0,7.734.583l.045-.015.821-1.374.26-.433c.057.309.09.794.128,1.351a20.825,20.825,0,0,0,.29,2.593v.008a2.285,2.285,0,0,0,.768,1.577.5.5,0,0,0,.188.072l.61-.805,1.6-2.115.026-.124A8.962,8.962,0,0,0,811.313,327.278Z" transform="translate(-588.576 -270.324)" fill="#2f2e41"/>
    <path id="Path_64932" data-name="Path 64932" d="M857.894,327.43a28.032,28.032,0,0,1-6.872,5.867c-.2.105-.4.2-.6.294a2.358,2.358,0,0,0,.109-1.5,3.981,3.981,0,0,0-1.069-1.554q-1.835-1.925-3.673-3.846a9.776,9.776,0,0,1,1.8,7.73,8.707,8.707,0,0,1-3.075-.09,7.138,7.138,0,0,1-5.07-4.023,10.889,10.889,0,0,1-.4-5.611,21.585,21.585,0,0,0,.339-5.664,5.509,5.509,0,0,0-3.06-4.49.789.789,0,0,1,.038,1.189,1.352,1.352,0,0,1-.964.324,1.86,1.86,0,0,1-.327-.026c-1.4-.222-2.431-1.4-3.327-2.5a1.251,1.251,0,0,1-1-.82,1.006,1.006,0,0,1,0-.7,1.183,1.183,0,0,1,1.957-.233,3.841,3.841,0,0,1,3.368-4.742c1.622-.154,4.2-.4,5.273.832,1.675,1.927,4.245,3.858,4.516,6.4s1.671,2.032,2.258,4.516,3,3.346,5.269,4.516C855.914,324.6,855.564,329.086,857.894,327.43Z" transform="translate(-608.808 -258.88)" fill="#2f2e41"/>
    <path id="Path_64933" data-name="Path 64933" d="M828.8,341.1c2.331,4.016-2.059,10.783,2.366,12.188l-.365-.364c-2.671-3.285,2.911-10.238.241-13.523a8.018,8.018,0,0,1-1.061-1.577Z" transform="translate(-607.639 -278.168)" fill="#2f2e41"/>
    <path id="Path_64934" data-name="Path 64934" d="M820.805,336.363a13.563,13.563,0,0,0-10.442-9.074c-.01,0-.041-.016-.083-.035-.025-.016-.057-.032-.089-.048.1-.054.188-.1.283-.15h0v0h0c.083-.076.166-.153.251-.226l.242.01S819.466,325.492,820.805,336.363Z" transform="translate(-596.036 -271.282)" fill="#fd6584"/>
    <path id="Path_64935" data-name="Path 64935" d="M457.045,393.838a2.439,2.439,0,0,1-2.688,2.084,2.335,2.335,0,0,1-.378-.081l-10.59,12.834L440,404.159l12.486-11.444a2.432,2.432,0,0,1,2.541-1.536,2.328,2.328,0,0,1,2.025,2.595h0C457.051,393.8,457.048,393.816,457.045,393.838Z" transform="translate(-365.168 -311.432)" fill="#a0616a"/>
    <path id="Path_64936" data-name="Path 64936" d="M396.845,391.465s7.068-.8,8.573,2.585,5.3,10.44,5.3,10.44-1.946.829.041-1.324c.89-.965-.753-.376.376-.753s1.505,0,1.505,0l3.764,6.4a2.146,2.146,0,0,1-2.258,1.505c-1.955.047,1.129-1.882-1.505.753-1.36,1.36-2.282.843-2.282.843L393.716,402.7Z" transform="translate(-336.303 -311.568)" fill="#3f3d56"/>
    <path id="Path_64937" data-name="Path 64937" d="M309.607,485.241a2.439,2.439,0,0,0,.065-3.4,2.346,2.346,0,0,0-.291-.255l5.033-18.259-6.022-2.634-2.41,21.566a2.432,2.432,0,0,0,.287,2.955,2.327,2.327,0,0,0,3.291.073h0Z" transform="translate(-281.358 -354.793)" fill="#a0616a"/>
    <path id="Path_64938" data-name="Path 64938" d="M323.167,383.55s-3.031-4.44-8.211,1.329-6.8,20.814-6.552,21.76,1.609.4-.015,1.991-2.753.459-1.624,1.588.765,2.819-1.166,3.229,8.3,2.037,8.3,2.037,1.095-.4,1.141-3.037c.026-1.481-.727-2.234.4-2.61s-.259-2.89-.141-3.324,5.011-8.338,5.011-8.338Z" transform="translate(-281.198 -305.666)" fill="#3f3d56"/>
    <ellipse id="Ellipse_3234" data-name="Ellipse 3234" cx="1.978" cy="2.844" rx="1.978" ry="2.844" transform="matrix(0.144, -0.99, 0.99, 0.144, 104.229, 187.91)" fill="#f2f2f2"/>
    <ellipse id="Ellipse_3235" data-name="Ellipse 3235" cx="1.978" cy="2.844" rx="1.978" ry="2.844" transform="matrix(0.144, -0.99, 0.99, 0.144, 122.735, 186.104)" fill="#f2f2f2"/>
    <ellipse id="Ellipse_3236" data-name="Ellipse 3236" cx="1.978" cy="2.844" rx="1.978" ry="2.844" transform="matrix(0.144, -0.99, 0.99, 0.144, 99.162, 172.928)" fill="#f2f2f2"/>
    <ellipse id="Ellipse_3237" data-name="Ellipse 3237" cx="1.797" cy="1.25" rx="1.797" ry="1.25" transform="matrix(0.008, -1, 1, 0.008, 94.519, 167.43)" fill="#f2f2f2"/>
    <ellipse id="Ellipse_3238" data-name="Ellipse 3238" cx="1.797" cy="1.25" rx="1.797" ry="1.25" transform="matrix(0.008, -1, 1, 0.008, 91.792, 156)" fill="#f2f2f2"/>
    <ellipse id="Ellipse_3239" data-name="Ellipse 3239" cx="1.797" cy="1.25" rx="1.797" ry="1.25" transform="matrix(0.008, -1, 1, 0.008, 112.998, 176.117)" fill="#f2f2f2"/>
    <ellipse id="Ellipse_3240" data-name="Ellipse 3240" cx="1.797" cy="1.25" rx="1.797" ry="1.25" transform="matrix(0.008, -1, 1, 0.008, 104.055, 180.582)" fill="#f2f2f2"/>
    <ellipse id="Ellipse_3241" data-name="Ellipse 3241" cx="1.797" cy="1.25" rx="1.797" ry="1.25" transform="matrix(0.008, -1, 1, 0.008, 116.504, 188.835)" fill="#f2f2f2"/>
    <ellipse id="Ellipse_3242" data-name="Ellipse 3242" cx="1.978" cy="2.844" rx="1.978" ry="2.844" transform="matrix(0.144, -0.99, 0.99, 0.144, 176.489, 55.433)" fill="#f2f2f2"/>
    <ellipse id="Ellipse_3243" data-name="Ellipse 3243" cx="1.978" cy="2.844" rx="1.978" ry="2.844" transform="matrix(0.144, -0.99, 0.99, 0.144, 194.995, 53.627)" fill="#f2f2f2"/>
    <ellipse id="Ellipse_3244" data-name="Ellipse 3244" cx="1.978" cy="2.844" rx="1.978" ry="2.844" transform="matrix(0.144, -0.99, 0.99, 0.144, 171.422, 40.451)" fill="#f2f2f2"/>
    <ellipse id="Ellipse_3245" data-name="Ellipse 3245" cx="1.797" cy="1.25" rx="1.797" ry="1.25" transform="matrix(0.008, -1, 1, 0.008, 166.779, 34.954)" fill="#f2f2f2"/>
    <ellipse id="Ellipse_3246" data-name="Ellipse 3246" cx="1.797" cy="1.25" rx="1.797" ry="1.25" transform="matrix(0.008, -1, 1, 0.008, 164.052, 23.523)" fill="#f2f2f2"/>
    <ellipse id="Ellipse_3247" data-name="Ellipse 3247" cx="1.797" cy="1.25" rx="1.797" ry="1.25" transform="matrix(0.008, -1, 1, 0.008, 185.258, 43.64)" fill="#f2f2f2"/>
    <ellipse id="Ellipse_3248" data-name="Ellipse 3248" cx="1.797" cy="1.25" rx="1.797" ry="1.25" transform="matrix(0.008, -1, 1, 0.008, 176.315, 48.105)" fill="#f2f2f2"/>
    <ellipse id="Ellipse_3249" data-name="Ellipse 3249" cx="1.797" cy="1.25" rx="1.797" ry="1.25" transform="matrix(0.008, -1, 1, 0.008, 188.764, 56.358)" fill="#f2f2f2"/>
    <path id="Path_64939" data-name="Path 64939" d="M564.987,179.312H487.835a5.834,5.834,0,1,0,0,11.667h77.153a5.834,5.834,0,0,0,0-11.667Z" transform="translate(-391.361 -179.312)" fill="#e6e6e6"/>
    <path id="Path_64940" data-name="Path 64940" d="M528.712,232.025H316.4a.927.927,0,1,1,0-1.854H528.712a.927.927,0,1,1,0,1.854Z" transform="translate(-287.504 -211.03)" fill="#e6e6e6"/>
    <ellipse id="Ellipse_3250" data-name="Ellipse 3250" cx="3.183" cy="3.254" rx="3.183" ry="3.254" transform="translate(36.311 2.634)" fill="#e6e6e6"/>
    <ellipse id="Ellipse_3251" data-name="Ellipse 3251" cx="3.183" cy="3.254" rx="3.183" ry="3.254" transform="translate(47.306 2.634)" fill="#e6e6e6"/>
    <ellipse id="Ellipse_3252" data-name="Ellipse 3252" cx="3.183" cy="3.254" rx="3.183" ry="3.254" transform="translate(58.301 2.634)" fill="#e6e6e6"/>
    <path id="Path_64941" data-name="Path 64941" d="M433.661,193.262a.375.375,0,0,1-.269-.113l-2.148-2.2a.376.376,0,0,1,0-.526l2.147-2.2a.376.376,0,0,1,.543.521l-.005.005-1.89,1.932,1.89,1.932a.376.376,0,0,1-.269.64Z" transform="translate(-359.64 -184.803)" fill="#e6e6e6"/>
    <path id="Path_64942" data-name="Path 64942" d="M446.807,193.267a.376.376,0,0,1-.269-.639l1.89-1.932-1.89-1.932a.376.376,0,1,1,.538-.526l2.147,2.2a.376.376,0,0,1,0,.526l-2.147,2.2A.375.375,0,0,1,446.807,193.267Z" transform="translate(-369.178 -184.807)" fill="#e6e6e6"/>
    <path id="Path_64943" data-name="Path 64943" d="M825.958,187.312h-3.993a.824.824,0,0,0-.824.824v4a.824.824,0,0,0,.824.824h3.994a.827.827,0,0,0,.828-.824v-4A.827.827,0,0,0,825.958,187.312Z" transform="translate(-602.864 -184.301)" fill="#e6e6e6"/>
    <path id="Path_64944" data-name="Path 64944" d="M799.958,187.312h-3.993a.824.824,0,0,0-.824.824v4a.824.824,0,0,0,.824.824h3.994a.827.827,0,0,0,.828-.824v-4A.827.827,0,0,0,799.958,187.312Z" transform="translate(-586.649 -184.301)" fill="#e6e6e6"/>
    <path id="Path_64945" data-name="Path 64945" d="M850.458,187.812h-3.993a.824.824,0,0,0-.824.824v4a.824.824,0,0,0,.824.824h3.994a.827.827,0,0,0,.828-.824v-4A.827.827,0,0,0,850.458,187.812Z" transform="translate(-618.143 -184.613)" fill="#e6e6e6"/>
    <path id="Path_64946" data-name="Path 64946" d="M533.893,191.852H501.974a1,1,0,0,0,0,2.01h31.921a1,1,0,1,0,0-2.01Z" transform="translate(-403.19 -187.132)" fill="#fff"/>
    <path id="Path_64947" data-name="Path 64947" d="M130.659,506.7h3.726l1.773-14.373h-5.5Z" transform="translate(-81.484 -307.039)" fill="#a0616a"/>
    <path id="Path_64948" data-name="Path 64948" d="M371.477,709.9h11.459v-.145a4.46,4.46,0,0,0-4.46-4.46h0l-2.093-1.588-3.905,1.588h-1Z" transform="translate(-322.433 -506.346)" fill="#2f2e41"/>
    <path id="Path_64949" data-name="Path 64949" d="M87.659,506.7h3.726l1.773-14.373h-5.5Z" transform="translate(-54.667 -307.039)" fill="#a0616a"/>
    <path id="Path_64950" data-name="Path 64950" d="M328.477,709.9h11.459v-.145a4.46,4.46,0,0,0-4.46-4.46h0l-2.093-1.588-3.905,1.588h-1Z" transform="translate(-295.617 -506.346)" fill="#2f2e41"/>
    <path id="Path_64951" data-name="Path 64951" d="M348.771,499.553s4.242,5.913,1.18,16.129.915,19.349.056,21.181-2.589,3.571-1.16,4.959,2.182,2.518,1.053,2.894-7.151,26.721-7.151,26.721l-6.4.376s-2.318-12.238.158-22.114c0,0-.544-7.17.59-9.276s.911-.206.834-2.85a23.212,23.212,0,0,0-.83-5.654c-.376-1.505-.594-16.678-.594-16.678l-3.8,20.247a5.012,5.012,0,0,0-.275,2.168,9.316,9.316,0,0,1-.033,3.129,2.672,2.672,0,0,0-.294,1.728c.105,1.072-4.411,28-4.411,28h-7.151l-3.387-28.431a9.316,9.316,0,0,0,1.505-2.258c.753-1.505.782-1.588.391-2.676a14.412,14.412,0,0,1-.391-3.841c0-.634-.391-29.424,4.509-33.659S348.771,499.553,348.771,499.553Z" transform="translate(-288.557 -377.898)" fill="#2f2e41"/>
    <path id="Path_64952" data-name="Path 64952" d="M332.922,371.783l7.144-1.851,3.334-4.6,7.919.974L353,372.579l5.638,3.272s-3.116,32.958-2.375,34.768-1.057,3.324-3.327,5.656,1.886-.27,2.413,2.27,4.366,5.228,0,5.2-28.381,1.186-27.628-1.825-1.589-3.835-.454-5.723,1.9-.833,1.517-3.618a32.626,32.626,0,0,1-.006-6.173c0-1.505,1.261-15.185,1.261-15.185Z" transform="translate(-294.668 -295.322)" fill="#e6e6e6"/>
    <circle id="Ellipse_3253" data-name="Ellipse 3253" cx="8.677" cy="8.677" r="8.677" transform="translate(45.203 51.869)" fill="#a0616a"/>
    <path id="Path_64953" data-name="Path 64953" d="M362.32,329.867c2.051-1.6-.753-8.656,2.634-7.151,0,0,4.14-2.634,4.972-.9.963,2,4.388,1.1,6.492.388a5.11,5.11,0,0,1-.35-1.2,9.61,9.61,0,0,0,1.231.824,2.5,2.5,0,0,0,.753-.617,1.529,1.529,0,0,0,.192-1.735c-.35-.538-1.073-.7-1.5-1.182a.515.515,0,0,1-.071-.473,1.352,1.352,0,0,0-1.212-1.694.487.487,0,0,1-.231-.05,5.277,5.277,0,0,1-.982-.775,9.745,9.745,0,0,0,1.483-.041c.1-.011.2-.023.3-.038a3.333,3.333,0,0,0-2.059-1.87,9.792,9.792,0,0,0-2.981-.418l-1.746-.056a17.462,17.462,0,0,0-3.685.128,9,9,0,0,0-6.236,4.456C358.056,319.774,356.674,327.233,362.32,329.867Z" transform="translate(-314.15 -262.58)" fill="#2f2e41"/>
    <path id="Path_64954" data-name="Path 64954" d="M355.976,427.769c1.362,2.431-6.311,3.146-14.625,2.819a5.514,5.514,0,0,0-.787-1.724c-.918-1.332.192-10.346-1.148-11.257.606,1.468-1.844,11.223-2.356,12.725-7.52-.6-14.373-1.968-14.29-3.594.023-.474,1.592-9.507,2.352-10.192s-.008-13.617,0-16.39,4.132-23.195,4.132-23.948,9.785-4.516,9.785-4.516l4.14,23.71,6.293-22.3a13.307,13.307,0,0,0,2.119,2.269c1.261,1.05,6.266,5.348,6.266,5.348l-4.287,31.719s2.029,4.787,1.923,6.688a13.331,13.331,0,0,1-.877,4.407C354.007,425.326,354.071,424.367,355.976,427.769Z" transform="translate(-292.057 -299.288)" fill="#3f3d56"/>
    <circle id="Ellipse_3254" data-name="Ellipse 3254" cx="5.645" cy="5.645" r="5.645" transform="translate(129.404 84.447)" fill="#fff"/>
    <path id="Path_64955" data-name="Path 64955" d="M241.166,719.661a.447.447,0,0,0,.445.448H510.817a.448.448,0,1,0,0-.9h-269.2a.447.447,0,0,0-.448.445Z" transform="translate(-241.166 -516.018)" fill="#ccc"/>
    <path id="Path_64956" data-name="Path 64956" d="M597.146,412.638h-1.694v-1.694a.753.753,0,1,0-1.505,0v1.694h-1.694a.753.753,0,0,0,0,1.505h1.694v1.694a.753.753,0,1,0,1.505,0v-1.694h1.694a.753.753,0,1,0,0-1.505Z" transform="translate(-459.65 -323.299)" fill="#3f3d56"/>
    <path id="Path_64957" data-name="Path 64957" d="M751.313,445.817a26.393,26.393,0,0,0-2.152-2.427h0a26.441,26.441,0,0,0-37.393,0h0c-.046.046-.088.095-.134.141l0,0v15.979c-.065,0-.129,0-.194,0a13.737,13.737,0,0,0-1.752.116,5.642,5.642,0,1,0-9.279,5.526,13.62,13.62,0,0,0-.892,1.4,5.643,5.643,0,1,0-.947,11.205c.024,0,.047,0,.071,0a13.557,13.557,0,0,0,1.564,3.044,5.641,5.641,0,1,0,9.624,5.83,13.7,13.7,0,0,0,1.609.1c.065,0,.129,0,.194,0V514.43a1.495,1.495,0,0,0,2.552,1.057l32.607-32.607A26.4,26.4,0,0,0,751.313,445.817Z" transform="translate(-522.901 -339.173)" fill="#cb0072"/>
    <circle id="Ellipse_3255" data-name="Ellipse 3255" cx="5.645" cy="5.645" r="5.645" transform="translate(183.51 128.388)" fill="#3f3d56"/>
    <path id="Path_64958" data-name="Path 64958" d="M740.908,529.392h-1.694V527.7a.753.753,0,0,0-1.505,0v1.694h-1.694a.753.753,0,1,0,0,1.505h1.694v1.694a.753.753,0,0,0,1.505,0V530.9h1.694a.753.753,0,1,0,0-1.505Z" transform="translate(-549.307 -396.112)" fill="#cb0072"/>
  </g>
</svg>
