<svg xmlns="http://www.w3.org/2000/svg" width="28.776" height="28.805" viewBox="0 0 28.776 28.805">
  <g id="art" transform="translate(-763.3 -309.9)">
    <g id="Group_57264" data-name="Group 57264" transform="translate(763.3 309.9)">
      <path id="Path_65268" data-name="Path 65268" d="M763.3,325.311v-2.026c.009-.075.028-.15.038-.216a12.528,12.528,0,0,1,.413-2.429,14.257,14.257,0,0,1,4.652-7.354,14.114,14.114,0,0,1,5.975-3.02,21.122,21.122,0,0,1,2.289-.366h2.082c.525.075,1.06.1,1.585.2a14.473,14.473,0,0,1,8.957,5.027,11.39,11.39,0,0,1,2.776,7.907,7.753,7.753,0,0,1-2.973,5.909,7.9,7.9,0,0,1-5.084,1.792c-.919.009-1.838-.009-2.748,0a2.368,2.368,0,0,0-2.335,2.748,2.858,2.858,0,0,0,.638,1.323,2.387,2.387,0,0,1,.169,2.786,2.493,2.493,0,0,1-1.651,1.116h-1.407c-.066-.009-.131-.028-.188-.038a12.494,12.494,0,0,1-2.5-.431,14.456,14.456,0,0,1-10.289-10.571A16.9,16.9,0,0,1,763.3,325.311Zm12.737-9.82a2.359,2.359,0,1,0-2.345,2.364A2.358,2.358,0,0,0,776.037,315.49Zm3.273.009a2.359,2.359,0,1,0,2.354-2.382A2.358,2.358,0,0,0,779.311,315.5Zm-8.057,6.406a2.368,2.368,0,1,0-2.364,2.354A2.364,2.364,0,0,0,771.254,321.906Zm15.2-2.382a2.373,2.373,0,1,0,2.373,2.373A2.364,2.364,0,0,0,786.458,319.523Z" transform="translate(-763.3 -309.9)" fill="#f15a24"/>
    </g>
  </g>
</svg>
