<svg xmlns="http://www.w3.org/2000/svg" width="22.691" height="22.691" viewBox="0 0 22.691 22.691">
  <path id="Icon_awesome-football-ball" data-name="Icon awesome-football-ball" d="M22.027,2.955a2.415,2.415,0,0,0-1.706-1.711A20.5,20.5,0,0,0,15.527.563l7.164,7.173a20.553,20.553,0,0,0-.663-4.781ZM.663,20.861A2.415,2.415,0,0,0,2.37,22.572a20.5,20.5,0,0,0,4.794.682L0,16.08A20.553,20.553,0,0,0,.663,20.861Zm-.471-7.7,9.891,9.909A14.537,14.537,0,0,0,22.5,10.654L12.608.745A14.527,14.527,0,0,0,.192,13.161ZM14.708,7.507a.367.367,0,0,1,.517,0l.517.517a.367.367,0,0,1,0,.517L14.447,9.835l1.295,1.295a.367.367,0,0,1,0,.517l-.517.517a.367.367,0,0,1-.517,0l-1.295-1.295-1.034,1.038L13.674,13.2a.367.367,0,0,1,0,.517l-.517.517a.367.367,0,0,1-.517,0l-1.295-1.295-1.034,1.034,1.295,1.295a.367.367,0,0,1,0,.517l-.517.517a.367.367,0,0,1-.517,0L9.278,15.01,7.983,16.3a.367.367,0,0,1-.517,0l-.517-.517a.367.367,0,0,1,0-.517l1.295-1.295-1.295-1.29a.367.367,0,0,1,0-.517l.517-.517a.367.367,0,0,1,.517,0l1.295,1.295,1.034-1.034L9.017,10.618a.367.367,0,0,1,0-.517l.517-.517a.367.367,0,0,1,.517,0l1.295,1.295,1.034-1.034L11.085,8.55a.367.367,0,0,1,0-.517l.517-.517a.367.367,0,0,1,.517,0l1.295,1.295Z" transform="translate(0 -0.563)" fill="#00bce5"/>
</svg>
