<svg xmlns="http://www.w3.org/2000/svg" width="27.438" height="21.341" viewBox="0 0 27.438 21.341">
  <path id="Icon_awesome-book-open" data-name="Icon awesome-book-open" d="M25.829,2.252c-2.61.148-7.8.687-11,2.648a.732.732,0,0,0-.346.627V22.861a.754.754,0,0,0,1.109.643c3.3-1.659,8.061-2.111,10.418-2.235a1.486,1.486,0,0,0,1.43-1.461V3.715a1.493,1.493,0,0,0-1.609-1.462ZM12.611,4.9c-3.2-1.961-8.391-2.5-11-2.648A1.494,1.494,0,0,0,0,3.715V19.808a1.485,1.485,0,0,0,1.43,1.461c2.357.124,7.126.577,10.421,2.236a.752.752,0,0,0,1.106-.641V5.519A.717.717,0,0,0,12.611,4.9Z" transform="translate(0 -2.25)" fill="#0eb9f9"/>
</svg>
