<svg xmlns="http://www.w3.org/2000/svg" width="26.414" height="26.394" viewBox="0 0 26.414 26.394">
  <g id="cooking-pot" transform="translate(-53.406 -17.2)">
    <path id="Path_62380" data-name="Path 62380" d="M53.5,121a.967.967,0,0,1,1.066-.619c.3.021.6.007.908.007.076-.66.158-1.314.241-2-.144,0-.275.007-.413,0a.822.822,0,0,1-.626-1.321,6.491,6.491,0,0,1,1.892-1.651,15.219,15.219,0,0,1,4.684-1.74,24.3,24.3,0,0,1,4.34-.53c.083,0,.172-.014.268-.021v-1.754c-.165,0-.33.007-.488,0a.822.822,0,1,1,.021-1.644c.874-.007,1.754-.007,2.628,0a.822.822,0,1,1,.021,1.644c-.158.007-.323,0-.5,0v1.747c.454.028.9.048,1.355.083a19.808,19.808,0,0,1,7.23,1.8,7.151,7.151,0,0,1,2.435,1.83,1.5,1.5,0,0,1,.323.6.784.784,0,0,1-.695.936c-.158.021-.323.014-.488.028.076.66.158,1.307.234,1.981.289,0,.585.021.88-.007a.985.985,0,0,1,1.094.619v.413a.959.959,0,0,1-1.059.626c-.33-.028-.667-.007-.991-.007a.324.324,0,0,0-.034.1l-.021.124a11.086,11.086,0,0,1-4.038,7.154,5.9,5.9,0,0,1-.557.358h-13a2.545,2.545,0,0,1-.378-.213,11.084,11.084,0,0,1-4.01-6.211c-.1-.426-.179-.867-.261-1.314-.337,0-.667-.021-.991.007a.959.959,0,0,1-1.059-.626A3.543,3.543,0,0,1,53.5,121Zm22.514-2.6H57.4c-.076.564-.2,1.121-.227,1.685a9.387,9.387,0,0,0,3.329,7.89.579.579,0,0,0,.358.138q5.84.01,11.687,0a.605.605,0,0,0,.358-.138,9.4,9.4,0,0,0,3.329-7.89C76.214,119.519,76.09,118.961,76.014,118.4Zm-18.373-1.685H75.766C71.419,114.139,62.016,114.146,57.641,116.719Z" transform="translate(-0.094 -86.16)" fill="#23d2c3"/>
    <path id="Path_62382" data-name="Path 62382" d="M177.245,17.2c.041.028.083.048.131.076a.8.8,0,0,1,.316,1.238.849.849,0,0,0-.069,1,7.438,7.438,0,0,1,.509,1.369,2.093,2.093,0,0,1-.468,1.74.8.8,0,0,1-1.066.172.77.77,0,0,1-.3-1.032,1.181,1.181,0,0,0-.021-1.279,5.244,5.244,0,0,1-.433-1.231,2.049,2.049,0,0,1,.626-1.809,1.78,1.78,0,0,1,.358-.234C176.969,17.2,177.107,17.2,177.245,17.2Z" transform="translate(-113.988)" fill="#23d2c3"/>
    <path id="Path_62383" data-name="Path 62383" d="M70.1,85.6a1.767,1.767,0,0,1-.22.475.778.778,0,0,0-.083.908,8.417,8.417,0,0,1,.523,1.362,2.131,2.131,0,0,1-.44,1.8.8.8,0,0,1-1.087.186.762.762,0,0,1-.3-1.032,1.13,1.13,0,0,0-.028-1.273,2.82,2.82,0,0,1-.433-1.74,2.359,2.359,0,0,1,.619-1.279.8.8,0,0,1,.9-.186A.911.911,0,0,1,70.1,85.6Z" transform="translate(-13.614 -62.909)" fill="#23d2c3"/>
    <path id="Path_62384" data-name="Path 62384" d="M124.4,54.949a2.4,2.4,0,0,1-.468,1.293.806.806,0,0,1-1.1.206.764.764,0,0,1-.289-1.052,1.146,1.146,0,0,0-.007-1.211,5.616,5.616,0,0,1-.454-1.3,2.034,2.034,0,0,1,.626-1.782.8.8,0,0,1,1.08-.048.766.766,0,0,1,.179,1.059.945.945,0,0,0-.034,1.2A3.22,3.22,0,0,1,124.4,54.949Z" transform="translate(-63.927 -31.352)" fill="#23d2c3"/>
  </g>
</svg>
