<svg xmlns="http://www.w3.org/2000/svg" width="28.833" height="20.586" viewBox="0 0 28.833 20.586">
  <g id="Icon_ionic-logo-game-controller-b" data-name="Icon ionic-logo-game-controller-b" transform="translate(-2.247 -6.757)">
    <path id="Path_62376" data-name="Path 62376" d="M9.384,14.386a1.248,1.248,0,1,0,1.242,1.248A1.244,1.244,0,0,0,9.384,14.386Z" transform="translate(-0.5 -0.647)" fill="#ffbf35"/>
    <path id="Path_62377" data-name="Path 62377" d="M30.2,16.59c-1.364-5.7-2.806-8.72-5.7-9.575a5.74,5.74,0,0,0-1.654-.257c-1.776,0-3.018.946-6.184.946s-4.408-.946-6.184-.946a5.676,5.676,0,0,0-1.654.257C5.937,7.87,4.5,10.9,3.131,16.59s-1.113,9.807.5,10.573a1.877,1.877,0,0,0,.8.18c1.4,0,2.9-1.532,4.357-3.346,1.654-2.066,2.066-2.124,7.1-2.124h1.564c5.026,0,5.444.051,7.1,2.124,1.448,1.815,2.96,3.346,4.357,3.346a1.9,1.9,0,0,0,.8-.18C31.31,26.39,31.555,22.278,30.2,16.59Zm-21.306.946a2.548,2.548,0,1,1,2.523-2.548A2.54,2.54,0,0,1,8.891,17.536Zm11.126-1.255a1.293,1.293,0,1,1,1.293-1.293A1.294,1.294,0,0,1,20.017,16.281Zm2.825,2.825a1.29,1.29,0,1,1,1.293-1.287A1.292,1.292,0,0,1,22.842,19.106Zm0-5.65a1.293,1.293,0,1,1,1.293-1.293A1.294,1.294,0,0,1,22.842,13.456Zm2.825,2.825a1.293,1.293,0,1,1,1.293-1.293A1.294,1.294,0,0,1,25.667,16.281Z" transform="translate(0 0)" fill="#ffbf35"/>
  </g>
</svg>
