<svg xmlns="http://www.w3.org/2000/svg" width="21.864" height="21.864" viewBox="0 0 21.864 21.864">
  <path id="Icon_awesome-music" data-name="Icon awesome-music" d="M21.863,1.367a1.366,1.366,0,0,0-1.776-1.3L6.422,4.1a1.366,1.366,0,0,0-.957,1.3V16.565A5.907,5.907,0,0,0,4.1,16.4C1.835,16.4,0,17.621,0,19.131s1.835,2.733,4.1,2.733,4.1-1.223,4.1-2.733V9.151l10.932-3.2v7.884a5.907,5.907,0,0,0-1.366-.167c-2.264,0-4.1,1.223-4.1,2.733s1.835,2.733,4.1,2.733,4.1-1.223,4.1-2.733V1.367Z" transform="translate(0 0.001)" fill="#466fff"/>
</svg>
