<svg xmlns="http://www.w3.org/2000/svg" width="22.467" height="22.472" viewBox="0 0 22.467 22.472">
  <g id="Icon_ionic-md-photos" data-name="Icon ionic-md-photos" transform="translate(-3.375 -3.375)">
    <path id="Path_62378" data-name="Path 62378" d="M22.385,24.579v-14.4a2.312,2.312,0,0,0-2.306-2.306H5.681a2.312,2.312,0,0,0-2.306,2.306v14.4a2.312,2.312,0,0,0,2.306,2.306h14.4A2.319,2.319,0,0,0,22.385,24.579ZM9.278,18.244,11.724,21.7l3.6-5.185,4.753,6.913H5.681Z" transform="translate(0 -1.044)" fill="#9c88ff"/>
    <path id="Path_62379" data-name="Path 62379" d="M24.579,3.375h-14.4A2.312,2.312,0,0,0,7.875,5.681v.286H21.987a2.312,2.312,0,0,1,2.306,2.306V22.385h.286a2.312,2.312,0,0,0,2.306-2.306V5.681A2.312,2.312,0,0,0,24.579,3.375Z" transform="translate(-1.044)" fill="#9c88ff"/>
  </g>
</svg>
