<svg xmlns="http://www.w3.org/2000/svg" width="27.898" height="22.318" viewBox="0 0 27.898 22.318">
  <path id="Icon_awesome-luggage-cart" data-name="Icon awesome-luggage-cart" d="M9.764,13.949h1.395V4.185H9.764A1.4,1.4,0,0,0,8.369,5.58v6.974A1.4,1.4,0,0,0,9.764,13.949Zm15.344-1.395V5.58a1.4,1.4,0,0,0-1.395-1.395H22.318v9.764h1.395A1.4,1.4,0,0,0,25.108,12.554ZM27.2,16.739H5.58V.7a.7.7,0,0,0-.7-.7H.7A.7.7,0,0,0,0,.7V2.092a.7.7,0,0,0,.7.7H2.79V18.831a.7.7,0,0,0,.7.7H7.1a2.07,2.07,0,0,0-.128.7,2.092,2.092,0,0,0,4.185,0,2.07,2.07,0,0,0-.128-.7h8.626a2.07,2.07,0,0,0-.128.7,2.092,2.092,0,0,0,4.185,0,2.07,2.07,0,0,0-.128-.7H27.2a.7.7,0,0,0,.7-.7V17.436A.7.7,0,0,0,27.2,16.739ZM20.923,4.185V2.092A2.092,2.092,0,0,0,18.831,0H14.646a2.092,2.092,0,0,0-2.092,2.092V13.949h8.369Zm-2.092,0H14.646V2.092h4.185Z" fill="#ff4e98"/>
</svg>
