<svg xmlns="http://www.w3.org/2000/svg" width="28.905" height="20.474" viewBox="0 0 28.905 20.474">
  <path id="Icon_map-swimming" data-name="Icon map-swimming" d="M29.625,24.794a4.289,4.289,0,0,1-1.777-.386,4.406,4.406,0,0,0-3.669,0,4.289,4.289,0,0,1-3.555,0,4.414,4.414,0,0,0-3.671,0,4.3,4.3,0,0,1-3.561,0,4.4,4.4,0,0,0-3.664,0,4.3,4.3,0,0,1-3.56,0,4.4,4.4,0,0,0-3.664,0,4.338,4.338,0,0,1-1.784.386V22.147a4.5,4.5,0,0,0,1.784-.38,4.338,4.338,0,0,1,3.664,0,4.359,4.359,0,0,0,3.56,0,4.337,4.337,0,0,1,3.664,0,4.361,4.361,0,0,0,3.561,0,4.4,4.4,0,0,1,1.836-.406,4.457,4.457,0,0,1,1.835.406,4.347,4.347,0,0,0,3.555,0,4.346,4.346,0,0,1,3.668,0,4.444,4.444,0,0,0,1.778.38Zm-4.186-7.489A3.416,3.416,0,1,0,22,13.886a3.347,3.347,0,0,0,3.44,3.419ZM5.412,19.228a4.243,4.243,0,0,1,.758.263,4.3,4.3,0,0,0,3.56,0,4.325,4.325,0,0,1,3.664,0,4.3,4.3,0,0,0,3.56,0,4.5,4.5,0,0,1,1.836-.407,4.549,4.549,0,0,1,1.835.407,4.347,4.347,0,0,0,1.778.386,4.433,4.433,0,0,0,1.323-.208L17.989,9.4l6.672-1.209a1.975,1.975,0,0,0,1.69-1.926A1.952,1.952,0,0,0,24.386,4.32l-.223.007L13.858,6.189a1.841,1.841,0,0,0-1.136,2.506l.088.208L15.5,13.721,5.412,19.228Z" transform="translate(-0.72 -4.32)" fill="#4b71fd"/>
</svg>
