<svg xmlns="http://www.w3.org/2000/svg" width="34.514" height="34.514" viewBox="0 0 34.514 34.514">
  <g id="Group_56385" data-name="Group 56385" transform="translate(-23.613 -13.613)">
    <path id="Rectangle" d="M0,0H34.514V34.514H0Z" transform="translate(23.613 13.613)" fill="#23d2c3" opacity="0"/>
    <path id="Stroke_1" data-name="Stroke 1" d="M10.066,20.133C1.342,20.133,0,17.616,0,10.066S1.342,0,10.066,0,20.133,2.517,20.133,10.066,18.791,20.133,10.066,20.133Z" transform="translate(30.803 20.803)" fill="none" stroke="#fe4242" stroke-linecap="round" stroke-linejoin="round" stroke-width="2"/>
    <path id="Stroke_3" data-name="Stroke 3" d="M2.876,5.752C.384,5.752,0,5.033,0,2.876S.384,0,2.876,0,5.752.719,5.752,2.876,5.368,5.752,2.876,5.752Z" transform="translate(37.994 27.993)" fill="none" stroke="#fe4242" stroke-linecap="round" stroke-linejoin="round" stroke-width="2"/>
    <path id="Stroke_5" data-name="Stroke 5" d="M0,0V2.876" transform="translate(37.994 17.927)" fill="none" stroke="#fe4242" stroke-linecap="round" stroke-linejoin="round" stroke-width="2"/>
    <path id="Stroke_7" data-name="Stroke 7" d="M0,0V2.876" transform="translate(43.746 17.927)" fill="none" stroke="#fe4242" stroke-linecap="round" stroke-linejoin="round" stroke-width="2"/>
    <path id="Stroke_9" data-name="Stroke 9" d="M0,0V2.876" transform="translate(37.994 40.936)" fill="none" stroke="#fe4242" stroke-linecap="round" stroke-linejoin="round" stroke-width="2"/>
    <path id="Stroke_11" data-name="Stroke 11" d="M0,0V2.876" transform="translate(43.746 40.936)" fill="none" stroke="#fe4242" stroke-linecap="round" stroke-linejoin="round" stroke-width="2"/>
    <path id="Stroke_13" data-name="Stroke 13" d="M2.876,0H0" transform="translate(27.927 27.993)" fill="none" stroke="#fe4242" stroke-linecap="round" stroke-linejoin="round" stroke-width="2"/>
    <path id="Stroke_15" data-name="Stroke 15" d="M2.876,0H0" transform="translate(27.927 33.746)" fill="none" stroke="#fe4242" stroke-linecap="round" stroke-linejoin="round" stroke-width="2"/>
    <path id="Stroke_17" data-name="Stroke 17" d="M2.876,0H0" transform="translate(50.936 27.993)" fill="none" stroke="#fe4242" stroke-linecap="round" stroke-linejoin="round" stroke-width="2"/>
    <path id="Stroke_19" data-name="Stroke 19" d="M2.876,0H0" transform="translate(50.936 33.746)" fill="none" stroke="#fe4242" stroke-linecap="round" stroke-linejoin="round" stroke-width="2"/>
  </g>
</svg>
