<svg id="icon_instagram" xmlns="http://www.w3.org/2000/svg" width="15.256" height="15.256" viewBox="0 0 15.256 15.256">
  <path id="Path_6" data-name="Path 6" d="M11.442,1.43H3.814A2.384,2.384,0,0,0,1.43,3.814v7.628a2.384,2.384,0,0,0,2.384,2.384h7.628a2.384,2.384,0,0,0,2.384-2.384V3.814A2.384,2.384,0,0,0,11.442,1.43ZM3.814,0A3.814,3.814,0,0,0,0,3.814v7.628a3.814,3.814,0,0,0,3.814,3.814h7.628a3.814,3.814,0,0,0,3.814-3.814V3.814A3.814,3.814,0,0,0,11.442,0Z" fill="#fff" fill-rule="evenodd"/>
  <path id="Path_8" data-name="Path 8" d="M11.5,3.453a.953.953,0,1,1,.953.953A.953.953,0,0,1,11.5,3.453Z" transform="translate(-4.825 1.884)" fill="#fff"/>
  <path id="Path_65040" data-name="Path 65040" d="M11.5,4.355c0-1.024.427-1.855.953-1.855s.953.83.953,1.855S12.98,6.21,12.453,6.21,11.5,5.379,11.5,4.355Z" transform="translate(-4.825 4.444)" fill="#fff"/>
</svg>
