<svg xmlns="http://www.w3.org/2000/svg" width="183.99" height="129.487" viewBox="0 0 183.99 129.487">
  <g id="Group_57274" data-name="Group 57274" transform="translate(-55.003 -50)">
    <path id="Shape_1723_copy_4" data-name="Shape 1723 copy 4" d="M1198.124,8478.373a7.022,7.022,0,0,0,2.49-1.549,8.086,8.086,0,0,0,1.557-2.682.214.214,0,0,1,.406.022,6.835,6.835,0,0,0,1.184,2.7,5.591,5.591,0,0,0,2.559,1.513.214.214,0,0,1,.027.408,7.447,7.447,0,0,0-2.517,1.479,6.448,6.448,0,0,0-1.38,2.583.214.214,0,0,1-.409,0,6.637,6.637,0,0,0-1.332-2.555,6.553,6.553,0,0,0-2.574-1.514A.214.214,0,0,1,1198.124,8478.373Z" transform="translate(-1115.49 -8391.013)" fill="#f9ca1b"/>
    <path id="Shape_1723" data-name="Shape 1723" d="M1161.311,8417.239a14.844,14.844,0,0,0,5.269-3.271,17.108,17.108,0,0,0,3.293-5.665.454.454,0,0,1,.858.046c.484,1.6.975,3.97,2.505,5.7a11.846,11.846,0,0,0,5.415,3.2.452.452,0,0,1,.056.862,15.779,15.779,0,0,0-5.325,3.126,13.615,13.615,0,0,0-2.919,5.459.454.454,0,0,1-.866.006,14.032,14.032,0,0,0-2.818-5.4,13.87,13.87,0,0,0-5.446-3.2A.454.454,0,0,1,1161.311,8417.239Z" transform="translate(-1097.004 -8358.018)" fill="#f9ca1b"/>
    <path id="Shape_1723_copy" data-name="Shape 1723 copy" d="M1143.2,8552.83a9.5,9.5,0,0,0,3.369-2.064,10.737,10.737,0,0,0,2.106-3.576.292.292,0,0,1,.549.031,9.031,9.031,0,0,0,1.6,3.6,7.583,7.583,0,0,0,3.462,2.016.285.285,0,0,1,.036.545,10.143,10.143,0,0,0-3.405,1.973,8.567,8.567,0,0,0-1.866,3.444.292.292,0,0,1-.554,0,7.136,7.136,0,0,0-5.285-5.426A.285.285,0,0,1,1143.2,8552.83Z" transform="translate(-1088.003 -8427.514)" fill="#f9ca1b"/>
    <path id="Shape_1723_copy_2" data-name="Shape 1723 copy 2" d="M1494.124,8489.373a7.011,7.011,0,0,0,2.49-1.549,8.081,8.081,0,0,0,1.556-2.682.215.215,0,0,1,.406.021,6.821,6.821,0,0,0,1.184,2.7,5.6,5.6,0,0,0,2.559,1.513.214.214,0,0,1,.027.407,7.471,7.471,0,0,0-2.517,1.48,6.453,6.453,0,0,0-1.379,2.583.214.214,0,0,1-.409,0,6.641,6.641,0,0,0-1.332-2.555,6.543,6.543,0,0,0-2.574-1.514A.214.214,0,0,1,1494.124,8489.373Z" transform="translate(-1263.49 -8396.513)" fill="#f9ca1b"/>
    <path id="Shape_1723_copy_3" data-name="Shape 1723 copy 3" d="M1482.1,8656.4a5.36,5.36,0,0,0,1.9-1.2,6.312,6.312,0,0,0,1.19-2.087.163.163,0,0,1,.311.019,5.368,5.368,0,0,0,.906,2.1,4.267,4.267,0,0,0,1.956,1.176.167.167,0,0,1,.021.317,5.707,5.707,0,0,0-1.925,1.15,5.058,5.058,0,0,0-1.055,2.01.163.163,0,0,1-.312,0,5.206,5.206,0,0,0-1.019-1.987,4.987,4.987,0,0,0-1.968-1.177A.168.168,0,0,1,1482.1,8656.4Z" transform="translate(-1257.493 -8480.512)" fill="#f9ca1b"/>
  </g>
</svg>
