<svg xmlns="http://www.w3.org/2000/svg" width="52.159" height="52.216" viewBox="0 0 52.159 52.216">
  <g id="Group_57186" data-name="Group 57186" transform="translate(-15 -570.867)">
    <g id="Untitled-1" transform="translate(15 570.867)">
      <path id="Path_65072" data-name="Path 65072" d="M1044.566,1421.129a24.6,24.6,0,0,1-7.679,4.781,24.986,24.986,0,0,1-7.389,1.739c-.087,0-.174,0-.2.087h-.522a.605.605,0,0,1-.116-.174,1.444,1.444,0,0,1-.058-.348v-6.23a.734.734,0,0,1,.058-.348c.116-.319.435-.29.7-.319a21.6,21.6,0,0,0,5.013-1.275,19.158,19.158,0,0,0,4.462-2.608,1.662,1.662,0,0,1,.667-.435,2.375,2.375,0,0,1,.782.638c1.333,1.333,2.666,2.637,3.97,3.97C1044.421,1420.752,1044.624,1420.868,1044.566,1421.129Z" transform="translate(-1001.159 -1375.606)" fill="#fcad02"/>
      <path id="Path_65073" data-name="Path 65073" d="M940.607,1387.249a25.533,25.533,0,0,1-5.592-10.055,26.133,26.133,0,0,1-.9-4.723c0-.116.029-.261-.116-.29v-.609a.456.456,0,0,1,.2-.2c.058,0-.029,0,.058-.029,2.289-.087,4.549-.087,6.839,0,.29.116.261.377.29.608a21.43,21.43,0,0,0,1.043,4.434,19.046,19.046,0,0,0,2.811,5.1,2.383,2.383,0,0,1,.464.724c-.087.29-.348.406-.521.58l-4.086,4.086C940.955,1386.988,940.839,1387.19,940.607,1387.249Z" transform="translate(-933.971 -1343.841)" fill="#fcca02"/>
      <path id="Path_65074" data-name="Path 65074" d="M979.384,1427.836a6.5,6.5,0,0,0-1.825-.29,25.722,25.722,0,0,1-13.358-6.317c.029-.2.2-.319.319-.435,1.507-1.536,3.072-3.043,4.578-4.607a.207.207,0,0,1,.174-.087,1.93,1.93,0,0,1,.609.377,18.832,18.832,0,0,0,9.272,3.941c.319.058.725-.029.956.348a2.171,2.171,0,0,1,.058.609v5.8a1.785,1.785,0,0,1-.058.551.614.614,0,0,1-.116.174A2.174,2.174,0,0,0,979.384,1427.836Z" transform="translate(-955.42 -1375.677)" fill="#fcca02"/>
      <path id="Path_65075" data-name="Path 65075" d="M934,1321.9a6.1,6.1,0,0,0,.29-1.768,26.022,26.022,0,0,1,6.259-13.3.1.1,0,0,1,.058-.029c1.594,1.565,3.246,3.071,4.81,4.694.116.145.261.261.261.493a1.7,1.7,0,0,1-.29.493,18.766,18.766,0,0,0-3.941,9.33c-.029.319.029.7-.319.9a2.169,2.169,0,0,1-.609.058h-5.708a2.167,2.167,0,0,1-.608-.058.457.457,0,0,1-.2-.2Z" transform="translate(-933.971 -1298.049)" fill="#fcca02"/>
      <path id="Path_65076" data-name="Path 65076" d="M934.016,1361.3h7.1c.232.2.174.464.145.7a5.257,5.257,0,0,0,0,1.652.765.765,0,0,1-.145.7h-7.1c-.116-.2-.029-.434-.058-.666-.029-.2.058-.435-.058-.667v-.405c.116-.2.029-.435.058-.667A2.6,2.6,0,0,1,934.016,1361.3Z" transform="translate(-933.9 -1336.757)" fill="#fcad02"/>
      <path id="Path_65077" data-name="Path 65077" d="M1025.009,1431.258v7.128c-.2.116-.434-.029-.608.087h-.927a.8.8,0,0,1-.174-.608v-5.94a.951.951,0,0,1,.116-.551A1.511,1.511,0,0,1,1025.009,1431.258Z" transform="translate(-997.395 -1386.315)" fill="#fc8b02"/>
      <path id="Path_65078" data-name="Path 65078" d="M1020.236,1431.449v7.128h-.927c-.174-.145-.406.029-.608-.087v-7.129a.456.456,0,0,1,.493-.116C1019.54,1431.391,1019.917,1431.188,1020.236,1431.449Z" transform="translate(-994.128 -1386.419)" fill="#fcad02"/>
      <path id="Path_65079" data-name="Path 65079" d="M934.087,1361.016v.7q-.044.087-.087,0v-.811A.4.4,0,0,0,934.087,1361.016Z" transform="translate(-933.971 -1336.473)" fill="#fcc23d"/>
      <path id="Path_65080" data-name="Path 65080" d="M934.016,1369.294v.7l-.116.116v-.811C933.958,1369.235,933.987,1369.235,934.016,1369.294Z" transform="translate(-933.9 -1342.403)" fill="#fdc23d"/>
      <path id="Path_65081" data-name="Path 65081" d="M934,1363.8h.087c-.029.2.087.435-.087.608Z" transform="translate(-933.971 -1338.532)" fill="#fcb313"/>
      <path id="Path_65082" data-name="Path 65082" d="M934.087,1367.908H934v-.608C934.174,1367.474,934.058,1367.706,934.087,1367.908Z" transform="translate(-933.971 -1341.018)" fill="#fcb313"/>
      <path id="Path_65083" data-name="Path 65083" d="M1018.7,1456.172c.2.029.435-.087.608.087h-.608Z" transform="translate(-994.128 -1404.13)" fill="#fdc43e"/>
      <path id="Path_65084" data-name="Path 65084" d="M1027.1,1456.334c.174-.174.406-.087.609-.087v.087Z" transform="translate(-1000.094 -1404.175)" fill="#fdb050"/>
      <path id="Path_65085" data-name="Path 65085" d="M963.8,1283.394a25.691,25.691,0,0,1,16.517-6.693.5.5,0,0,1,.2.029c0,.029,0,.087-.029.087-.637.145-.637.608-.608,1.13.029,1.71,0,3.419,0,5.129a2.156,2.156,0,0,1-.058.754c-.087.232-.319.232-.493.261-.666.116-1.333.2-2,.348a18.852,18.852,0,0,0-7.795,3.709,1.579,1.579,0,0,1-.522.319.5.5,0,0,1-.348-.174C967.016,1286.61,965.394,1285.016,963.8,1283.394Z" transform="translate(-955.136 -1276.671)" fill="#fcca02"/>
      <path id="Path_65086" data-name="Path 65086" d="M1078.6,1306.8a25.334,25.334,0,0,1,5.593,10.055,25.686,25.686,0,0,1,1.014,6.462c-.29-.7-.9-.551-1.449-.551h-4.868a2.162,2.162,0,0,1-.753-.058c-.29-.116-.261-.377-.29-.609a19.791,19.791,0,0,0-1.072-4.433,18.455,18.455,0,0,0-2.811-5.071,2.38,2.38,0,0,1-.464-.724c.087-.261.348-.406.521-.579l4.086-4.086A.962.962,0,0,1,1078.6,1306.8Z" transform="translate(-1033.048 -1298.049)" fill="#fcad02"/>
      <path id="Path_65087" data-name="Path 65087" d="M1026.8,1276.7a25.56,25.56,0,0,1,8.2,1.565,24.658,24.658,0,0,1,8.316,5.013c-.058.2-.232.319-.348.464-1.507,1.536-3.043,3.014-4.52,4.55a.207.207,0,0,1-.174.087,1.926,1.926,0,0,1-.608-.377,18.533,18.533,0,0,0-9.273-3.912c-.348-.058-.724.029-.985-.319a2.212,2.212,0,0,1-.058-.753v-4.9C1027.351,1277.6,1027.5,1276.99,1026.8,1276.7Z" transform="translate(-999.881 -1276.671)" fill="#fcad02"/>
      <path id="Path_65088" data-name="Path 65088" d="M1085.349,1369.4a25.843,25.843,0,0,1-1.478,7.968,24.954,24.954,0,0,1-5.1,8.548c-1.681-1.478-3.217-3.1-4.81-4.694a.639.639,0,0,1-.261-.464,1.406,1.406,0,0,1,.319-.521,18.808,18.808,0,0,0,3.912-9.244c.058-.319-.029-.724.319-.956a2.213,2.213,0,0,1,.754-.058h4.9C1084.421,1369.951,1085.03,1370.1,1085.349,1369.4Z" transform="translate(-1033.19 -1342.51)" fill="#fcad02"/>
      <path id="Path_65089" data-name="Path 65089" d="M1066.473,1304.5a.443.443,0,0,1,.2-.348l4.636-4.636a.608.608,0,0,1,.174-.116,16.669,16.669,0,0,1,2.144,2.144c-.753.869-1.594,1.622-2.376,2.434l-2.26,2.26c-.116.116-.232.29-.464.29a.191.191,0,0,1-.261-.087,19.379,19.379,0,0,0-1.71-1.739A.15.15,0,0,1,1066.473,1304.5Z" transform="translate(-1028.05 -1292.793)" fill="#fc8b02"/>
      <path id="Path_65090" data-name="Path 65090" d="M958.828,1299.8c.174,0,.261.116.377.232l4.607,4.607a.607.607,0,0,1,.116.174.225.225,0,0,1-.116.29,15.353,15.353,0,0,0-1.681,1.681c-.087.116-.174.2-.348.145q-1.565-1.652-3.216-3.216a7.952,7.952,0,0,1-1.768-1.912A18.891,18.891,0,0,1,958.828,1299.8Z" transform="translate(-950.164 -1293.077)" fill="#fcad02"/>
      <path id="Path_65091" data-name="Path 65091" d="M1095.881,1363.647c-.174.7-.174.7-.956.7h-6.23a.694.694,0,0,1-.145-.666,5.637,5.637,0,0,0,0-1.71.709.709,0,0,1,.145-.666h6.23c.782,0,.782,0,.956.7Z" transform="translate(-1043.723 -1336.757)" fill="#fc8b02"/>
      <path id="Path_65092" data-name="Path 65092" d="M1068.612,1408.768c1.391,1.449,2.782,2.9,4.259,4.231.29.261.638.464.725.869a18.752,18.752,0,0,1-2.144,2.144c-.985-1.014-1.97-2.028-2.956-3.014a23.9,23.9,0,0,0-1.941-1.883c-.058-.058-.058-.145-.087-.232-.058-.174.087-.232.174-.319a13.3,13.3,0,0,0,1.536-1.594C1068.293,1408.855,1068.409,1408.71,1068.612,1408.768Z" transform="translate(-1028.044 -1370.46)" fill="#fc8b02"/>
      <path id="Path_65093" data-name="Path 65093" d="M1024.38,1276.629c.7.174.7.174.7.956v6.23a1.586,1.586,0,0,1-1.565-.116,1.149,1.149,0,0,1-.116-.7v-5.679a.917.917,0,0,1,.174-.724A7.54,7.54,0,0,0,1024.38,1276.629Z" transform="translate(-997.46 -1276.6)" fill="#fc8b02"/>
      <path id="Path_65094" data-name="Path 65094" d="M1020.307,1276.7v7.1c-.29.261-.7.058-1.014.2-.174.029-.377.058-.493-.116v-6.462c0-.493.087-.753.637-.667a.412.412,0,0,0,.174-.058Z" transform="translate(-994.199 -1276.671)" fill="#fcad02"/>
      <path id="Path_65095" data-name="Path 65095" d="M963.857,1411.082a.443.443,0,0,1-.2.348l-4.636,4.636a.6.6,0,0,1-.174.116,18.694,18.694,0,0,1-2.144-2.144c.7-.812,1.478-1.536,2.231-2.289.783-.811,1.594-1.623,2.405-2.405.116-.116.232-.29.464-.29.145-.058.232.029.319.116a12.267,12.267,0,0,0,1.623,1.623C963.828,1410.88,963.915,1410.967,963.857,1411.082Z" transform="translate(-950.093 -1370.66)" fill="#fcad02"/>
      <path id="Path_65096" data-name="Path 65096" d="M1003.852,1301.259c.319-.174.7-.058,1.043-.087l1.536.087a18.76,18.76,0,0,1,10.2,4.027c.2.145.406.319.609.464a26.747,26.747,0,0,1,2.028,2.029,19.625,19.625,0,0,1,3.564,6.288,19.9,19.9,0,0,1,.927,4.52,17.76,17.76,0,0,1,0,3.043,18.793,18.793,0,0,1-4.057,10.2c-.116.145-.232.319-.348.493a29.882,29.882,0,0,1-2.144,2.144,19.1,19.1,0,0,1-10.808,4.492,13.632,13.632,0,0,0-1.536.087,4.238,4.238,0,0,1-1.043-.087.345.345,0,0,1,.261-.145c.521,0,.609-.29.609-.753v-6.114c0-.638-.029-.7-.7-.7h-6.172c-.261,0-.608.116-.724-.261a.834.834,0,0,1,.58-.145c1.1,0,2.2-.029,3.3,0,1.275-.029,2.579-.029,3.854,0,1.275-.029,2.579,0,3.854,0,1.1.029,2.2,0,3.3.029a.737.737,0,0,0,.753-.464c.406-.869.869-1.71,1.275-2.55.754-1.594,1.623-3.13,2.405-4.724a5.208,5.208,0,0,0,.087-4.926,5.1,5.1,0,0,0-5.361-2.753,5.281,5.281,0,0,1-.667.087c-.261,0-.377-.2-.493-.377a5.736,5.736,0,0,0-3.216-2.666c-.232-.087-.464-.145-.551-.406-.087-.666-.029-1.3-.058-1.97,0-.7-.029-.724-.754-.724h-.666a3.8,3.8,0,0,1-1.507-.116c.087-.348.376-.261.608-.261.753-.058.753-.029.753-.782v-5.824c0-.754,0-.754-.724-.985C1003.939,1301.346,1003.881,1301.317,1003.852,1301.259Z" transform="translate(-978.787 -1294.044)" fill="#fed564"/>
      <path id="Path_65097" data-name="Path 65097" d="M969.991,1331.259c.174.174.377.087.58.087h6.664c.406,0,.522.087.522.522q-.044,3.347,0,6.694c0,.521-.116.724-.638.637a1.893,1.893,0,0,0-.406,0h-.493a19.189,19.189,0,0,1-10.635-4.375c-.058-.029-.116-.087-.174-.116a26.8,26.8,0,0,1-2.028-2.028,19.318,19.318,0,0,1-4.115-8.345,22.921,22.921,0,0,1-.377-2.463,26.633,26.633,0,0,1,0-3.043,18.7,18.7,0,0,1,4.086-10.229c.116-.145.2-.29.319-.464a30.024,30.024,0,0,1,2.144-2.144,19.623,19.623,0,0,1,6.288-3.564,20.2,20.2,0,0,1,4.52-.927h.493c1.043.058,1.043.058,1.043,1.1v6.23c0,.377-.087.55-.493.521-.348,0-.7-.145-1.014.087a.542.542,0,0,1,.145.406,21.743,21.743,0,0,1-.029,2.376c-.058.261-.29.348-.521.435a5.8,5.8,0,0,0-3.275,2.753.5.5,0,0,1-.319.319,1.456,1.456,0,0,1-.609-.058,4.958,4.958,0,0,0-4.433,1.246,5.041,5.041,0,0,0-1.652,3.014,5.574,5.574,0,0,0,.637,3.477c1.188,2.376,2.434,4.694,3.593,7.07C969.876,1330.767,970.049,1330.969,969.991,1331.259Z" transform="translate(-951.62 -1294.285)" fill="#fede8d"/>
      <path id="Path_65098" data-name="Path 65098" d="M1025.081,1338.423a6.409,6.409,0,0,1,3.622,2.637c.145.232.174.522.464.637a5.415,5.415,0,0,1,.58,3.3c-.58,3.825-1.3,7.592-1.942,11.417a1.892,1.892,0,0,1-.26.869h-3.97a.933.933,0,0,1-.174-.667v-17.7a1.483,1.483,0,0,1,.087-.609A1.394,1.394,0,0,1,1025.081,1338.423Z" transform="translate(-997.466 -1320.283)" fill="#fcad02"/>
      <path id="Path_65099" data-name="Path 65099" d="M1008.694,1338.388v19.038h-3.883a.916.916,0,0,1-.2-.551c-.7-3.941-1.478-7.882-2.115-11.852a5.424,5.424,0,0,1,.435-2.782.676.676,0,0,1,.29-.348,6.479,6.479,0,0,1,3.97-3.274,2.115,2.115,0,0,1,1.449-.261C1008.635,1338.33,1008.664,1338.359,1008.694,1338.388Z" transform="translate(-982.585 -1320.451)" fill="#fcca02"/>
      <path id="Path_65100" data-name="Path 65100" d="M988.049,1349.973a6.14,6.14,0,0,0-.58,2.956c.116,1.043.348,2.086.522,3.13.435,2.376.84,4.752,1.275,7.157.145.782.319,1.536.406,2.347h-3.883c-1.42-2.811-2.927-5.593-4.2-8.461a5.281,5.281,0,0,1,5.245-7.331A8.924,8.924,0,0,1,988.049,1349.973Z" transform="translate(-967.447 -1328.559)" fill="#fcad02"/>
      <path id="Path_65101" data-name="Path 65101" d="M1037.7,1365.462c.2-1.3.435-2.608.638-3.941.348-2.115.724-4.2,1.072-6.317.145-.753.29-1.507.377-2.289a5.744,5.744,0,0,0-.406-2.608c-.058-.145-.174-.261-.058-.435a5.3,5.3,0,0,1,6.752,4.491,5.114,5.114,0,0,1-.464,2.869c-1.3,2.666-2.666,5.3-4,7.969-.116.232-.261.261-.493.261Z" transform="translate(-1007.622 -1328.487)" fill="#fc8b02"/>
      <path id="Path_65102" data-name="Path 65102" d="M1025.027,1331.952c-.522-.058-1.014-.145-1.536-.2h0a.543.543,0,0,1-.145-.406q-.044-.956,0-1.912a.543.543,0,0,1,.145-.406c1.536-.087,1.536-.087,1.536,1.42Z" transform="translate(-997.412 -1313.813)" fill="#fc8b02"/>
      <path id="Path_65103" data-name="Path 65103" d="M1020.236,1329v2.753c-.521.058-1.014.145-1.536.2V1329Z" transform="translate(-994.128 -1313.816)" fill="#fcad02"/>
    </g>
  </g>
</svg>
