<svg id="Payment" xmlns="http://www.w3.org/2000/svg" width="96" height="96" viewBox="0 0 96 96">
  <rect id="Rectangle" width="96" height="96" fill="none"/>
  <g id="money" transform="translate(8 8)">
    <path id="Rectangle-2" data-name="Rectangle" d="M0,4.007a4,4,0,0,1,4-4l60.65.054a4,4,0,0,1,4,4l.024,26.909a4,4,0,0,1-4,4l-60.65-.054a4,4,0,0,1-4-4Z" transform="translate(79.918 30.269) rotate(149.65)" fill="#31978c"/>
    <path id="Path" d="M48.117,0,1.393,27.3A3.684,3.684,0,0,1,0,32.328l10.562,18a3.7,3.7,0,0,1,5.073,1.247l46.724-27.3a3.683,3.683,0,0,1,1.393-5.025l-10.562-18A3.7,3.7,0,0,1,48.117,0Z" transform="translate(9.578 6.744)" fill="#44c4a1"/>
    <g id="Group" transform="translate(27.154 16.876)">
      <ellipse id="Oval" cx="11.908" cy="9.416" rx="11.908" ry="9.416" transform="translate(12.19 30.687) rotate(-120.35)" fill="#31978c"/>
      <ellipse id="Oval-2" data-name="Oval" cx="2.131" cy="2.127" rx="2.131" ry="2.127" transform="translate(35.193 0.074)" fill="#31978c"/>
    </g>
    <ellipse id="Oval-3" data-name="Oval" cx="2.131" cy="2.127" rx="2.131" ry="2.127" transform="translate(16.295 43.865)" fill="#3ea69b"/>
    <path id="Shape" d="M10.916,15.833a10.079,10.079,0,0,1-6.195.7l.441-2.588a8.05,8.05,0,0,0,4.477-.286L7.368,9.787a9.468,9.468,0,0,1-4.141.517A3.723,3.723,0,0,1,.651,8.313,4.215,4.215,0,0,1,.2,4.783,5.666,5.666,0,0,1,2.651,1.745l-.585-1L3.344,0l.6,1.017A9.7,9.7,0,0,1,8.978.085l-.223,2.6a7.494,7.494,0,0,0-3.538.512l2.2,3.751.06-.035a9.413,9.413,0,0,1,4.233-.517,3.833,3.833,0,0,1,2.643,2.032,4.19,4.19,0,0,1,.428,3.568,5.959,5.959,0,0,1-2.576,3.114l.842,1.436-1.279.747Z" transform="translate(34.097 23.77)" fill="#44c4a1"/>
    <path id="Rectangle-3" data-name="Rectangle" d="M0,0,13.331.012l.031,34.909L.031,34.909Z" transform="translate(56.038 44.223) rotate(149.65)" fill="#f6c358"/>
    <g id="Group-2" data-name="Group" transform="translate(27.642 14.604)">
      <path id="Rectangle-4" data-name="Rectangle" d="M0,0H1.019L1.05,34.91H.031Z" transform="translate(18.62 35.336) rotate(149.65)" fill="#fff"/>
      <path id="Rectangle-5" data-name="Rectangle" d="M0,0H1.019L1.05,34.91H.031Z" transform="translate(27.544 30.115) rotate(149.65)" fill="#fff"/>
    </g>
    <rect id="Rectangle-6" data-name="Rectangle" width="68.69" height="34.917" rx="4" transform="matrix(-0.982, 0.189, -0.189, -0.982, 78.713, 55.088)" fill="#3ea69b"/>
    <path id="Path-2" data-name="Path" d="M4.713,38.445,0,13.975a2.493,2.493,0,0,0,1.981-2.918L59.622,0a2.5,2.5,0,0,0,2.924,1.977l4.713,24.471a2.493,2.493,0,0,0-1.981,2.918L7.637,40.422A2.5,2.5,0,0,0,4.713,38.445Z" transform="translate(8.064 24.216)" fill="#44c4a1"/>
    <g id="Group-3" data-name="Group" transform="translate(13.333 30.832)">
      <ellipse id="Oval-4" data-name="Oval" cx="11.902" cy="9.42" rx="11.902" ry="9.42" transform="matrix(-0.189, -0.982, 0.982, -0.189, 21.353, 27.06)" fill="#3ea69b"/>
      <ellipse id="Oval-5" data-name="Oval" cx="2.131" cy="2.127" rx="2.131" ry="2.127" transform="translate(52.428 6.443)" fill="#3ea69b"/>
      <ellipse id="Oval-6" data-name="Oval" cx="2.131" cy="2.127" rx="2.131" ry="2.127" transform="translate(0.026 16.495)" fill="#3ea69b"/>
    </g>
    <path id="Shape-2" data-name="Shape" d="M7.262,17.446a10.08,10.08,0,0,1-6.075-1.4l1.281-2.294a8.053,8.053,0,0,0,4.317,1.22l-.849-4.406a9.476,9.476,0,0,1-4.077-.89A3.713,3.713,0,0,1,.095,6.942,4.215,4.215,0,0,1,.851,3.464,5.684,5.684,0,0,1,4.174,1.415L3.956.279,5.411,0l.223,1.157a9.706,9.706,0,0,1,5.061.8L9.617,4.326a7.488,7.488,0,0,0-3.506-.693L6.933,7.9,7,7.889a9.407,9.407,0,0,1,4.163.921,3.825,3.825,0,0,1,1.814,2.8,4.193,4.193,0,0,1-.788,3.506A5.977,5.977,0,0,1,8.721,17.19l.315,1.634L7.581,19.1Z" transform="translate(35.425 34.831)" fill="#44c4a1"/>
    <path id="Path-3" data-name="Path" d="M27.894,4.787c0,3.232-6.244,5.852-13.947,5.852S0,8.019,0,4.787V0H27.894Z" transform="translate(0.001 69.281)" fill="#f6c358"/>
    <ellipse id="Oval-7" data-name="Oval" cx="13.947" cy="5.849" rx="13.947" ry="5.849" transform="translate(0.001 63.428)" fill="#fcd462"/>
    <g id="Group-4" data-name="Group" transform="translate(1.626 64.422)">
      <path id="Shape-3" data-name="Shape" d="M0,4.709C0,2.108,5.45,0,12.173,0S24.344,2.108,24.344,4.709s-5.45,4.709-12.172,4.709S0,7.31,0,4.709Z" transform="translate(0.15 0.15)" fill="#dc8744"/>
      <path id="Shape-4" data-name="Shape" d="M4.99,6.506V5.933A17.774,17.774,0,0,1,0,5.078L1.48,4.4a13.535,13.535,0,0,0,3.51.682V3.555A16.858,16.858,0,0,1,1.633,3Q.567,2.652.568,1.974T1.795.863A10.486,10.486,0,0,1,4.99.392V0h1.3V.4a18.5,18.5,0,0,1,4.22.589l-1.319.722a13.836,13.836,0,0,0-2.9-.455V2.732H6.35A16.763,16.763,0,0,1,9.777,3.3q1.1.362,1.1,1.048T9.615,5.47a11.143,11.143,0,0,1-3.326.471v.565Z" transform="translate(6.885 1.606)" fill="#dc8744"/>
    </g>
    <path id="Path-4" data-name="Path" d="M27.894,4.787c0,3.232-6.244,5.852-13.947,5.852S0,8.019,0,4.787V0H27.894Z" transform="translate(0.001 63.467)" fill="#f6c358"/>
    <ellipse id="Oval-8" data-name="Oval" cx="13.947" cy="5.849" rx="13.947" ry="5.849" transform="translate(0.001 57.621)" fill="#fcd462"/>
    <g id="Group-5" data-name="Group" transform="translate(1.626 58.742)">
      <path id="Shape-5" data-name="Shape" d="M0,4.709C0,2.108,5.45,0,12.173,0S24.344,2.108,24.344,4.709s-5.45,4.709-12.172,4.709S0,7.31,0,4.709Z" transform="translate(0.15 0.015)" fill="#dc8744"/>
      <path id="Shape-6" data-name="Shape" d="M4.99,6.506V5.933A17.774,17.774,0,0,1,0,5.078L1.48,4.4a13.535,13.535,0,0,0,3.51.682V3.555A16.858,16.858,0,0,1,1.633,3Q.567,2.652.568,1.974T1.795.863A10.486,10.486,0,0,1,4.99.392V0h1.3V.4a18.5,18.5,0,0,1,4.22.589l-1.319.722a13.836,13.836,0,0,0-2.9-.455V2.732H6.35A16.763,16.763,0,0,1,9.777,3.3q1.1.362,1.1,1.049T9.615,5.47a11.169,11.169,0,0,1-3.326.472v.564Z" transform="translate(6.885 1.471)" fill="#dc8744"/>
    </g>
    <path id="Path-5" data-name="Path" d="M27.894,4.787c0,3.232-6.244,5.852-13.947,5.852S0,8.019,0,4.787V0H27.894Z" transform="translate(0.001 57.653)" fill="#f6c358"/>
    <ellipse id="Oval-9" data-name="Oval" cx="13.947" cy="5.849" rx="13.947" ry="5.849" transform="translate(0.001 51.805)" fill="#fcd462"/>
    <g id="Group-6" data-name="Group" transform="translate(1.626 52.901)">
      <path id="Shape-7" data-name="Shape" d="M0,4.709C0,2.108,5.45,0,12.173,0S24.344,2.108,24.344,4.709s-5.45,4.709-12.172,4.709S0,7.31,0,4.709Z" transform="translate(0.15 0.043)" fill="#dc8744"/>
      <path id="Shape-8" data-name="Shape" d="M4.99,6.506V5.933A17.774,17.774,0,0,1,0,5.078L1.48,4.4a13.535,13.535,0,0,0,3.51.682V3.555A16.858,16.858,0,0,1,1.633,3Q.567,2.652.568,1.974T1.795.863A10.486,10.486,0,0,1,4.99.392V0h1.3V.4a18.5,18.5,0,0,1,4.22.589l-1.319.722a13.836,13.836,0,0,0-2.9-.455V2.732H6.35A16.763,16.763,0,0,1,9.777,3.3q1.1.362,1.1,1.049T9.615,5.47a11.169,11.169,0,0,1-3.326.472v.564Z" transform="translate(6.885 1.499)" fill="#dc8744"/>
    </g>
    <path id="Path-6" data-name="Path" d="M27.894,4.787c0,3.232-6.244,5.852-13.947,5.852S0,8.019,0,4.787V0H27.894Z" transform="translate(0.001 51.839)" fill="#f6c358"/>
    <ellipse id="Oval-10" data-name="Oval" cx="13.947" cy="5.849" rx="13.947" ry="5.849" transform="translate(0.001 45.989)" fill="#fcd462"/>
    <g id="Group-7" data-name="Group" transform="translate(1.626 47.059)">
      <path id="Shape-9" data-name="Shape" d="M0,4.709C0,2.108,5.45,0,12.173,0S24.344,2.108,24.344,4.709s-5.45,4.709-12.172,4.709S0,7.31,0,4.709Z" transform="translate(0.15 0.071)" fill="#dc8744"/>
      <path id="Shape-10" data-name="Shape" d="M4.99,6.506V5.933A17.774,17.774,0,0,1,0,5.078l1.48-.683a13.5,13.5,0,0,0,3.51.683V3.555A16.858,16.858,0,0,1,1.633,3Q.567,2.652.568,1.974T1.795.863A10.486,10.486,0,0,1,4.99.392V0h1.3V.4a18.5,18.5,0,0,1,4.22.589l-1.319.722a13.836,13.836,0,0,0-2.9-.455V2.732H6.35A16.763,16.763,0,0,1,9.777,3.3q1.1.362,1.1,1.049T9.615,5.47a11.169,11.169,0,0,1-3.326.472v.564Z" transform="translate(6.885 1.527)" fill="#dc8744"/>
    </g>
    <path id="Path-7" data-name="Path" d="M27.894,4.787c0,3.232-6.244,5.852-13.947,5.852S0,8.019,0,4.787V0H27.894Z" transform="translate(29.413 69.281)" fill="#f6c358"/>
    <ellipse id="Oval-11" data-name="Oval" cx="13.947" cy="5.849" rx="13.947" ry="5.849" transform="translate(29.411 63.428)" fill="#fcd462"/>
    <g id="Group-8" data-name="Group" transform="translate(31.057 64.422)">
      <path id="Shape-11" data-name="Shape" d="M0,4.709C0,2.108,5.45,0,12.173,0S24.344,2.108,24.344,4.709s-5.45,4.709-12.172,4.709S0,7.31,0,4.709Z" transform="translate(0.131 0.15)" fill="#dc8744"/>
      <path id="Shape-12" data-name="Shape" d="M4.99,6.506V5.933A17.774,17.774,0,0,1,0,5.078L1.48,4.4a13.535,13.535,0,0,0,3.51.682V3.555A16.858,16.858,0,0,1,1.633,3Q.567,2.652.568,1.974T1.795.863A10.486,10.486,0,0,1,4.99.392V0h1.3V.4a18.5,18.5,0,0,1,4.22.589l-1.319.722a13.836,13.836,0,0,0-2.9-.455V2.732H6.35A16.763,16.763,0,0,1,9.777,3.3q1.1.362,1.1,1.048T9.615,5.47a11.143,11.143,0,0,1-3.326.471v.565Z" transform="translate(6.866 1.606)" fill="#dc8744"/>
    </g>
    <path id="Path-8" data-name="Path" d="M27.894,4.787c0,3.232-6.244,5.852-13.947,5.852S0,8.019,0,4.787V0H27.894Z" transform="translate(29.413 63.467)" fill="#f6c358"/>
    <ellipse id="Oval-12" data-name="Oval" cx="13.947" cy="5.849" rx="13.947" ry="5.849" transform="translate(29.411 57.621)" fill="#fcd462"/>
    <g id="Group-9" data-name="Group" transform="translate(31.057 58.742)">
      <path id="Shape-13" data-name="Shape" d="M0,4.709C0,2.108,5.45,0,12.173,0S24.344,2.108,24.344,4.709s-5.45,4.709-12.172,4.709S0,7.31,0,4.709Z" transform="translate(0.131 0.015)" fill="#dc8744"/>
      <path id="Shape-14" data-name="Shape" d="M4.99,6.506V5.933A17.774,17.774,0,0,1,0,5.078L1.48,4.4a13.535,13.535,0,0,0,3.51.682V3.555A16.858,16.858,0,0,1,1.633,3Q.567,2.652.568,1.974T1.795.863A10.486,10.486,0,0,1,4.99.392V0h1.3V.4a18.5,18.5,0,0,1,4.22.589l-1.319.722a13.836,13.836,0,0,0-2.9-.455V2.732H6.35A16.763,16.763,0,0,1,9.777,3.3q1.1.362,1.1,1.049T9.615,5.47a11.169,11.169,0,0,1-3.326.472v.564Z" transform="translate(6.866 1.471)" fill="#dc8744"/>
    </g>
  </g>
</svg>
