<svg xmlns="http://www.w3.org/2000/svg" width="36.694" height="36.704" viewBox="0 0 36.694 36.704">
  <g id="question" transform="translate(-456.8 -240.8)">
    <g id="Group_57320" data-name="Group 57320" transform="translate(456.8 240.8)">
      <path id="Path_65368" data-name="Path 65368" d="M476.653,277.5h-3.011c-.6-.086-1.214-.134-1.806-.268q-11.054-2.38-14.414-13.171a18.991,18.991,0,0,1-.621-3.336v-3.154c.086-.573.143-1.166.258-1.73q2.38-11.083,13.21-14.424a20.275,20.275,0,0,1,3.3-.621h3.154c.717.115,1.443.163,2.151.335a18.206,18.206,0,0,1,14,13.133,20.153,20.153,0,0,1,.621,3.374v3.011c-.086.6-.134,1.214-.268,1.807q-2.38,11.069-13.21,14.423A18.966,18.966,0,0,1,476.653,277.5ZM459.4,259.142A15.747,15.747,0,1,0,475.171,243.4,15.779,15.779,0,0,0,459.4,259.142Z" transform="translate(-456.8 -240.8)"/>
      <path id="Path_65369" data-name="Path 65369" d="M600.88,335.8a6.615,6.615,0,0,1,3.3.841,3.7,3.7,0,0,1,1.51,4.932,6.931,6.931,0,0,1-1.749,2.246,7.675,7.675,0,0,1-.6.507,3.1,3.1,0,0,0-1.329,2.7c.01.87-.315,1.2-1.176,1.281a2.868,2.868,0,0,1-.574,0,1.006,1.006,0,0,1-1.013-.975,4.611,4.611,0,0,1,1.692-4.464c.411-.335.822-.659,1.214-1a2.341,2.341,0,0,0,.745-1.157,1.453,1.453,0,0,0-.937-1.845,2.686,2.686,0,0,0-3.345.975,1.166,1.166,0,0,1-1.682.535,1.382,1.382,0,0,1-.793-1.625,3.374,3.374,0,0,1,1.873-2.275A6.147,6.147,0,0,1,600.88,335.8Z" transform="translate(-582.786 -326.72)"/>
      <path id="Path_65370" data-name="Path 65370" d="M625.461,483.4a1.888,1.888,0,1,1-.009,3.775,1.887,1.887,0,0,1-1.854-1.883A1.849,1.849,0,0,1,625.461,483.4Z" transform="translate(-607.654 -460.212)"/>
    </g>
  </g>
</svg>
