<svg id="icon-shopping" xmlns="http://www.w3.org/2000/svg" width="55" height="55" viewBox="0 0 55 55">
  <circle id="BG" cx="27.5" cy="27.5" r="27.5" fill="rgba(254,168,69,0.25)"/>
  <path id="Icont" d="M492.051,624.19a3.875,3.875,0,1,1,3.581,2.4A3.894,3.894,0,0,1,492.051,624.19Zm1.869-2.2a1.853,1.853,0,1,0,1.712-1.147A1.861,1.861,0,0,0,493.92,621.994Zm-11.745,2.2a3.875,3.875,0,1,1,3.582,2.4A3.895,3.895,0,0,1,482.175,624.19Zm1.869-2.2a1.853,1.853,0,1,0,1.713-1.147A1.863,1.863,0,0,0,484.044,621.994Zm-.267-4.464a1.012,1.012,0,0,1-.988-.789l-2.318-10.125-1.718-5.176h-3.2a1.014,1.014,0,0,1,0-2.029h3.932a1.013,1.013,0,0,1,.959.694l1.735,5.222h17.765a1.014,1.014,0,0,1,.988,1.241L498.6,616.74a1.012,1.012,0,0,1-.986.789Zm.806-2.028h12.225l1.867-8.146H482.716Z" transform="translate(-460 -586)" fill="#fea845"/>
</svg>
