<svg xmlns="http://www.w3.org/2000/svg" width="13.646" height="13.661" viewBox="0 0 13.646 13.661">
  <g id="Group_57194" data-name="Group 57194" transform="translate(-15 -570.867)">
    <g id="Untitled-1" transform="translate(15 570.867)">
      <path id="Path_65072" data-name="Path 65072" d="M1032.777,1417.342a6.434,6.434,0,0,1-2.009,1.251,6.534,6.534,0,0,1-1.933.455c-.023,0-.046,0-.053.023h-.137a.163.163,0,0,1-.03-.046.383.383,0,0,1-.015-.091v-1.63a.192.192,0,0,1,.015-.091c.03-.083.114-.076.182-.083a5.659,5.659,0,0,0,1.312-.333,5.014,5.014,0,0,0,1.167-.682.433.433,0,0,1,.174-.114.619.619,0,0,1,.2.167c.349.349.7.69,1.039,1.039C1032.739,1417.243,1032.792,1417.273,1032.777,1417.342Z" transform="translate(-1021.421 -1405.432)" fill="#fcad02"/>
      <path id="Path_65073" data-name="Path 65073" d="M935.729,1375.454a6.682,6.682,0,0,1-1.463-2.631,6.829,6.829,0,0,1-.235-1.236c0-.03.008-.068-.03-.076v-.159a.119.119,0,0,1,.053-.053c.015,0-.008,0,.015-.008.6-.023,1.19-.023,1.789,0,.076.03.068.1.076.159a5.611,5.611,0,0,0,.273,1.16,4.982,4.982,0,0,0,.735,1.334.625.625,0,0,1,.121.19c-.023.076-.091.106-.136.151l-1.069,1.069C935.819,1375.386,935.789,1375.439,935.729,1375.454Z" transform="translate(-933.992 -1364.098)" fill="#fcca02"/>
      <path id="Path_65074" data-name="Path 65074" d="M968.173,1419.17a1.7,1.7,0,0,0-.478-.076,6.728,6.728,0,0,1-3.495-1.653c.008-.053.053-.083.083-.114.394-.4.8-.8,1.2-1.205a.054.054,0,0,1,.046-.023.5.5,0,0,1,.159.1,4.929,4.929,0,0,0,2.426,1.031c.084.015.19-.007.25.091a.564.564,0,0,1,.015.159V1419a.464.464,0,0,1-.015.144.163.163,0,0,1-.03.045A.569.569,0,0,0,968.173,1419.17Z" transform="translate(-961.903 -1405.524)" fill="#fcca02"/>
      <path id="Path_65075" data-name="Path 65075" d="M934,1310.75a1.6,1.6,0,0,0,.076-.462,6.806,6.806,0,0,1,1.638-3.48.026.026,0,0,1,.015-.008c.417.409.849.8,1.258,1.228.03.038.068.068.068.129a.448.448,0,0,1-.076.129,4.91,4.91,0,0,0-1.031,2.441c-.007.083.008.182-.083.235a.573.573,0,0,1-.159.015h-1.493a.573.573,0,0,1-.159-.015.121.121,0,0,1-.053-.053Z" transform="translate(-933.992 -1304.511)" fill="#fcca02"/>
      <path id="Path_65076" data-name="Path 65076" d="M933.93,1361.3h1.857c.061.053.046.121.038.182a1.372,1.372,0,0,0,0,.432.2.2,0,0,1-.038.182H933.93c-.03-.053-.008-.114-.015-.174s.015-.114-.015-.175v-.106c.03-.053.008-.114.015-.174A.688.688,0,0,1,933.93,1361.3Z" transform="translate(-933.9 -1354.879)" fill="#fcad02"/>
      <path id="Path_65077" data-name="Path 65077" d="M1023.747,1431.125v1.865c-.053.03-.114-.007-.159.023h-.242a.208.208,0,0,1-.045-.159V1431.3a.249.249,0,0,1,.03-.144A.4.4,0,0,1,1023.747,1431.125Z" transform="translate(-1016.523 -1419.366)" fill="#fc8b02"/>
      <path id="Path_65078" data-name="Path 65078" d="M1019.1,1431.283v1.865h-.243c-.045-.038-.106.008-.159-.023v-1.865a.119.119,0,0,1,.129-.03C1018.92,1431.268,1019.018,1431.215,1019.1,1431.283Z" transform="translate(-1012.271 -1419.502)" fill="#fcad02"/>
      <path id="Path_65079" data-name="Path 65079" d="M934.023,1360.93v.182c-.008.015-.015.015-.023,0v-.212A.1.1,0,0,0,934.023,1360.93Z" transform="translate(-933.992 -1354.509)" fill="#fcc23d"/>
      <path id="Path_65080" data-name="Path 65080" d="M933.93,1369.261v.182l-.03.031v-.212C933.915,1369.246,933.923,1369.246,933.93,1369.261Z" transform="translate(-933.9 -1362.226)" fill="#fdc23d"/>
      <path id="Path_65081" data-name="Path 65081" d="M934,1363.8h.023c-.008.053.023.114-.023.159Z" transform="translate(-933.992 -1357.189)" fill="#fcb313"/>
      <path id="Path_65082" data-name="Path 65082" d="M934.023,1367.459H934v-.159C934.045,1367.345,934.015,1367.406,934.023,1367.459Z" transform="translate(-933.992 -1360.424)" fill="#fcb313"/>
      <path id="Path_65083" data-name="Path 65083" d="M1018.7,1456.164c.053.007.114-.023.159.023h-.159Z" transform="translate(-1012.271 -1442.548)" fill="#fdc43e"/>
      <path id="Path_65084" data-name="Path 65084" d="M1027.1,1456.254c.045-.045.106-.023.159-.023v.023Z" transform="translate(-1020.034 -1442.608)" fill="#fdb050"/>
      <path id="Path_65085" data-name="Path 65085" d="M963.8,1278.451a6.721,6.721,0,0,1,4.321-1.751.129.129,0,0,1,.053.008c0,.007,0,.023-.008.023-.167.038-.167.159-.159.3.008.447,0,.895,0,1.342a.566.566,0,0,1-.015.2c-.023.061-.083.061-.129.068-.174.03-.349.053-.523.091a4.933,4.933,0,0,0-2.039.97.413.413,0,0,1-.137.083.132.132,0,0,1-.091-.045C964.641,1279.293,964.217,1278.876,963.8,1278.451Z" transform="translate(-961.533 -1276.693)" fill="#fcca02"/>
      <path id="Path_65086" data-name="Path 65086" d="M1074.834,1306.8a6.627,6.627,0,0,1,1.463,2.63,6.716,6.716,0,0,1,.265,1.691c-.076-.182-.235-.144-.379-.144h-1.274a.569.569,0,0,1-.2-.015c-.076-.031-.068-.1-.076-.159a5.193,5.193,0,0,0-.281-1.16,4.826,4.826,0,0,0-.735-1.327.62.62,0,0,1-.121-.189c.023-.068.091-.106.136-.152l1.069-1.069A.251.251,0,0,1,1074.834,1306.8Z" transform="translate(-1062.917 -1304.511)" fill="#fcad02"/>
      <path id="Path_65087" data-name="Path 65087" d="M1026.8,1276.7a6.685,6.685,0,0,1,2.146.409,6.453,6.453,0,0,1,2.176,1.311c-.015.053-.061.083-.091.121-.394.4-.8.788-1.182,1.19a.054.054,0,0,1-.046.023.5.5,0,0,1-.159-.1,4.849,4.849,0,0,0-2.426-1.023c-.091-.015-.189.008-.258-.083a.577.577,0,0,1-.015-.2v-1.281C1026.944,1276.935,1026.982,1276.776,1026.8,1276.7Z" transform="translate(-1019.757 -1276.692)" fill="#fcad02"/>
      <path id="Path_65088" data-name="Path 65088" d="M1076.748,1369.4a6.763,6.763,0,0,1-.387,2.085,6.529,6.529,0,0,1-1.334,2.236c-.44-.387-.842-.811-1.258-1.228a.168.168,0,0,1-.068-.121.366.366,0,0,1,.083-.136,4.922,4.922,0,0,0,1.024-2.418c.015-.083-.008-.189.083-.25a.58.58,0,0,1,.2-.015h1.281C1076.5,1369.544,1076.664,1369.582,1076.748,1369.4Z" transform="translate(-1063.102 -1362.365)" fill="#fcad02"/>
      <path id="Path_65089" data-name="Path 65089" d="M1066.465,1300.734a.116.116,0,0,1,.053-.091l1.213-1.213a.159.159,0,0,1,.046-.03,4.37,4.37,0,0,1,.561.561c-.2.228-.417.425-.622.637l-.591.591c-.03.03-.06.076-.121.076a.05.05,0,0,1-.068-.023,5.083,5.083,0,0,0-.447-.455A.039.039,0,0,1,1066.465,1300.734Z" transform="translate(-1056.413 -1297.672)" fill="#fc8b02"/>
      <path id="Path_65090" data-name="Path 65090" d="M957.331,1299.8c.046,0,.068.03.1.061l1.205,1.205a.157.157,0,0,1,.03.046.059.059,0,0,1-.03.076,4.009,4.009,0,0,0-.44.44c-.023.03-.046.053-.091.038q-.409-.432-.842-.841a2.081,2.081,0,0,1-.462-.5A4.9,4.9,0,0,1,957.331,1299.8Z" transform="translate(-955.064 -1298.041)" fill="#fcad02"/>
      <path id="Path_65091" data-name="Path 65091" d="M1090.453,1361.914c-.045.182-.045.182-.25.182h-1.63a.182.182,0,0,1-.038-.174,1.469,1.469,0,0,0,0-.447.185.185,0,0,1,.038-.174h1.63c.2,0,.2,0,.25.182Z" transform="translate(-1076.807 -1354.879)" fill="#fc8b02"/>
      <path id="Path_65092" data-name="Path 65092" d="M1067.019,1408.758c.364.379.728.758,1.114,1.107.076.068.167.121.189.228a4.928,4.928,0,0,1-.561.561c-.258-.265-.516-.531-.773-.789a6.286,6.286,0,0,0-.508-.493c-.015-.015-.015-.038-.023-.061-.015-.045.023-.061.045-.083a3.488,3.488,0,0,0,.4-.417C1066.935,1408.781,1066.965,1408.743,1067.019,1408.758Z" transform="translate(-1056.405 -1398.736)" fill="#fc8b02"/>
      <path id="Path_65093" data-name="Path 65093" d="M1023.65,1276.608c.182.045.182.045.182.25v1.63a.415.415,0,0,1-.409-.03.3.3,0,0,1-.03-.182v-1.486a.24.24,0,0,1,.045-.19A1.927,1.927,0,0,0,1023.65,1276.608Z" transform="translate(-1016.608 -1276.6)" fill="#fc8b02"/>
      <path id="Path_65094" data-name="Path 65094" d="M1019.194,1276.7v1.857c-.076.068-.182.015-.265.053-.045.007-.1.015-.129-.031v-1.691c0-.129.023-.2.167-.174a.106.106,0,0,0,.045-.015Z" transform="translate(-1012.364 -1276.692)" fill="#fcad02"/>
      <path id="Path_65095" data-name="Path 65095" d="M958.573,1409.571a.116.116,0,0,1-.053.091l-1.213,1.213a.157.157,0,0,1-.046.03,4.874,4.874,0,0,1-.561-.561c.182-.212.387-.4.584-.6.2-.212.417-.425.629-.629.03-.031.061-.076.121-.076.038-.015.061.008.083.03a3.216,3.216,0,0,0,.425.425C958.565,1409.518,958.588,1409.541,958.573,1409.571Z" transform="translate(-954.971 -1398.995)" fill="#fcad02"/>
      <path id="Path_65096" data-name="Path 65096" d="M998.866,1301.187c.083-.046.182-.015.273-.023l.4.023a4.909,4.909,0,0,1,2.669,1.054c.053.038.106.083.159.121a7.035,7.035,0,0,1,.531.531,5.137,5.137,0,0,1,.932,1.645,5.212,5.212,0,0,1,.243,1.183,4.658,4.658,0,0,1,0,.8,4.917,4.917,0,0,1-1.061,2.669c-.03.038-.061.083-.091.129a7.832,7.832,0,0,1-.561.561,5,5,0,0,1-2.828,1.175,3.6,3.6,0,0,0-.4.023,1.1,1.1,0,0,1-.273-.023.09.09,0,0,1,.068-.038c.136,0,.159-.076.159-.2v-1.6c0-.167-.008-.182-.182-.182H997.29c-.068,0-.159.03-.19-.068a.219.219,0,0,1,.152-.038c.288,0,.576-.008.864,0,.334-.008.675-.008,1.008,0,.334-.008.675,0,1.008,0,.288.007.576,0,.864.007a.193.193,0,0,0,.2-.121c.106-.227.227-.447.333-.667.2-.417.425-.819.629-1.236a1.362,1.362,0,0,0,.023-1.289,1.333,1.333,0,0,0-1.4-.72,1.373,1.373,0,0,1-.174.023c-.068,0-.1-.053-.129-.1a1.5,1.5,0,0,0-.842-.7c-.061-.023-.121-.038-.144-.106-.023-.174-.008-.341-.015-.516s-.008-.19-.2-.19H999.1a.992.992,0,0,1-.394-.03c.023-.091.1-.068.159-.068.2-.015.2-.008.2-.2v-1.524c0-.2,0-.2-.19-.258C998.889,1301.209,998.874,1301.2,998.866,1301.187Z" transform="translate(-992.309 -1299.299)" fill="#fed564"/>
      <path id="Path_65097" data-name="Path 65097" d="M961.765,1309.286c.045.046.1.023.152.023h1.743c.106,0,.137.023.137.137q-.011.875,0,1.751c0,.136-.03.189-.167.167a.5.5,0,0,0-.106,0h-.129a5.019,5.019,0,0,1-2.782-1.145c-.015-.007-.03-.023-.046-.03a6.963,6.963,0,0,1-.531-.531,5.056,5.056,0,0,1-1.077-2.183,6.025,6.025,0,0,1-.1-.644,6.985,6.985,0,0,1,0-.8,4.891,4.891,0,0,1,1.069-2.676c.03-.038.053-.076.083-.121a7.885,7.885,0,0,1,.561-.561,5.135,5.135,0,0,1,1.645-.932,5.284,5.284,0,0,1,1.183-.243h.129c.273.015.273.015.273.288v1.63c0,.1-.023.144-.129.136-.091,0-.182-.038-.265.023a.142.142,0,0,1,.038.106,5.689,5.689,0,0,1-.008.622c-.015.068-.076.091-.136.114a1.517,1.517,0,0,0-.857.72.13.13,0,0,1-.083.083.381.381,0,0,1-.159-.015,1.3,1.3,0,0,0-1.16.326,1.319,1.319,0,0,0-.432.788,1.458,1.458,0,0,0,.167.91c.311.621.637,1.228.94,1.85C961.734,1309.157,961.78,1309.21,961.765,1309.286Z" transform="translate(-956.958 -1299.612)" fill="#fede8d"/>
      <path id="Path_65098" data-name="Path 65098" d="M1023.84,1338.188a1.678,1.678,0,0,1,.948.69c.038.061.045.137.121.167a1.418,1.418,0,0,1,.152.864c-.152,1-.341,1.986-.508,2.987a.5.5,0,0,1-.068.228h-1.039a.244.244,0,0,1-.046-.174v-4.632a.389.389,0,0,1,.023-.159A.365.365,0,0,1,1023.84,1338.188Z" transform="translate(-1016.615 -1333.443)" fill="#fcad02"/>
      <path id="Path_65099" data-name="Path 65099" d="M1004.082,1338.354v4.981h-1.016a.239.239,0,0,1-.053-.144c-.182-1.031-.387-2.062-.553-3.1a1.42,1.42,0,0,1,.114-.728.178.178,0,0,1,.076-.091,1.7,1.7,0,0,1,1.039-.857.553.553,0,0,1,.379-.068C1004.067,1338.339,1004.075,1338.347,1004.082,1338.354Z" transform="translate(-997.252 -1333.661)" fill="#fcca02"/>
      <path id="Path_65100" data-name="Path 65100" d="M982.943,1349.814a1.608,1.608,0,0,0-.152.773c.03.273.091.546.136.819.114.622.22,1.243.334,1.873.038.2.083.4.106.614h-1.016c-.371-.735-.766-1.463-1.1-2.214a1.382,1.382,0,0,1,1.372-1.918A2.325,2.325,0,0,1,982.943,1349.814Z" transform="translate(-977.552 -1344.212)" fill="#fcad02"/>
      <path id="Path_65101" data-name="Path 65101" d="M1037.7,1353.792c.053-.341.114-.682.167-1.031.091-.553.19-1.1.281-1.653.038-.2.076-.394.1-.6a1.5,1.5,0,0,0-.106-.682c-.015-.038-.046-.068-.015-.114a1.387,1.387,0,0,1,1.766,1.175,1.337,1.337,0,0,1-.121.751c-.341.7-.7,1.387-1.046,2.085-.03.061-.068.068-.129.068Z" transform="translate(-1029.831 -1344.119)" fill="#fc8b02"/>
      <path id="Path_65102" data-name="Path 65102" d="M1023.77,1329.769c-.136-.015-.265-.038-.4-.053h0a.143.143,0,0,1-.038-.106q-.012-.25,0-.5a.142.142,0,0,1,.038-.106c.4-.023.4-.023.4.372Z" transform="translate(-1016.545 -1325.023)" fill="#fc8b02"/>
      <path id="Path_65103" data-name="Path 65103" d="M1019.1,1329v.72c-.137.015-.265.038-.4.053V1329Z" transform="translate(-1012.271 -1325.027)" fill="#fcad02"/>
    </g>
  </g>
</svg>
