<svg xmlns="http://www.w3.org/2000/svg" width="82.907" height="82.754" viewBox="0 0 82.907 82.754">
  <g id="swsw" transform="translate(-878.1 -1283.146)">
    <path id="Path_65171" data-name="Path 65171" d="M878.3,1321.1a27.119,27.119,0,0,0,.6-3.8,38.994,38.994,0,0,1,1.8-6.7,3.4,3.4,0,0,1,1-.1h75.8a3.4,3.4,0,0,1,1,.1,41.052,41.052,0,0,1,2.4,13.9c-.2.2-.5.2-.8.3H879.9a2.223,2.223,0,0,1-1.6-.3v-1.3a2.046,2.046,0,0,0,0-1.1Z" fill="#fdec50"/>
    <path id="Path_65172" data-name="Path 65172" d="M878.3,1324.5H961a39.269,39.269,0,0,1-2.3,13.6c0,.1-.1.1-.2.2a2.966,2.966,0,0,1-1.6.2H882.1a5.7,5.7,0,0,1-1.3-.1c-.5-.1-.6-.6-.8-1a31.956,31.956,0,0,1-1.8-9.1.368.368,0,0,0-.1-.3v-1.4c.2-.3,0-.6.1-1,0-.3.1-.6-.1-.8C878.3,1324.7,878.3,1324.6,878.3,1324.5Z" fill="#1b7f2a"/>
    <path id="Path_65173" data-name="Path 65173" d="M950.4,1352.1a33.731,33.731,0,0,1-7.2,6.4,41.335,41.335,0,0,1-19.8,7.2c-.2,0-.3,0-.4.2h-.5a.5.5,0,0,0-.6,0h-.8a2.046,2.046,0,0,0-1.1,0h-.6a2.855,2.855,0,0,0-1.3,0h-.6a.454.454,0,0,0-.5,0h-.8a41.98,41.98,0,0,1-7.1-1.1,40.867,40.867,0,0,1-16-8.3,25.765,25.765,0,0,1-3.8-3.6c-.2-.3-.6-.5-.2-1a2.537,2.537,0,0,1,1.2-.2h58.8C949.6,1351.7,950.1,1351.6,950.4,1352.1Z" fill="#8b0783"/>
    <path id="Path_65174" data-name="Path 65174" d="M918,1365.9a1.22,1.22,0,0,1,1.3,0Z" fill="#951b80"/>
    <path id="Path_65175" data-name="Path 65175" d="M878.3,1322.1a.9.9,0,0,1,0,1.1Z" fill="#fdf181"/>
    <path id="Path_65176" data-name="Path 65176" d="M920,1365.9a.782.782,0,0,1,1.1,0Z" fill="#951b80"/>
    <path id="Path_65177" data-name="Path 65177" d="M878.4,1325.6c0,.3.2.7-.2,1v-1Z" fill="#489639"/>
    <path id="Path_65178" data-name="Path 65178" d="M878.4,1325.6h-.2v-.8C878.6,1325,878.4,1325.4,878.4,1325.6Z" fill="#30892e"/>
    <path id="Path_65179" data-name="Path 65179" d="M916.9,1365.9c.2-.2.3-.2.5,0Z" fill="#c27993"/>
    <path id="Path_65180" data-name="Path 65180" d="M921.9,1365.9c.1-.2.2-.2.3-.1,0,0,.1.1,0,.1h-.3Z" fill="#be718f"/>
    <path id="Path_65181" data-name="Path 65181" d="M922.2,1365.9v-.1c.1,0,.3,0,.3.1Z" fill="#cf94a0"/>
    <path id="Path_65182" data-name="Path 65182" d="M958.6,1310.6a1.185,1.185,0,0,1-.8.1H881.6c-.3,0-.6.1-.8-.1a37.724,37.724,0,0,1,4.6-9.2,34.572,34.572,0,0,1,3.4-4.4,2.537,2.537,0,0,1,1.2-.2h59.4a2.537,2.537,0,0,1,1.2.2,35.787,35.787,0,0,1,6.4,9.6A27.811,27.811,0,0,1,958.6,1310.6Z" fill="#fa8a31"/>
    <path id="Path_65183" data-name="Path 65183" d="M888.9,1352.1a33.45,33.45,0,0,1-4.8-6.4,39.208,39.208,0,0,1-3.2-6.5c-.1-.3-.3-.5-.2-.8h77.9a13.342,13.342,0,0,1-1.3,3.3,39.653,39.653,0,0,1-6.5,10.1l-.4.4c-.3,0-.6-.1-1-.1H889.8A2.72,2.72,0,0,0,888.9,1352.1Z" fill="#0852f4"/>
    <path id="Path_65184" data-name="Path 65184" d="M888.9,1296.9a41.355,41.355,0,0,1,32.8-13.7,40.488,40.488,0,0,1,28.5,13.4c.1.1.1.2.2.3-.2.2-.5.1-.8.1H889.7A2.49,2.49,0,0,1,888.9,1296.9Z" fill="#f91016"/>
    <path id="Path_65185" data-name="Path 65185" d="M888.9,1296.9h61.5l.2.2H888.8A.349.349,0,0,1,888.9,1296.9Z" fill="#fa9235"/>
  </g>
</svg>
