<svg xmlns="http://www.w3.org/2000/svg" xmlns:xlink="http://www.w3.org/1999/xlink" width="121.461" height="80.909" viewBox="0 0 121.461 80.909">
  <defs>
    <clipPath id="clip-path">
      <path id="Path_64320" data-name="Path 64320" d="M268.778,176a11.221,11.221,0,1,0-.039,22.442,2.254,2.254,0,1,1,.039,4.508h-5.886a5.492,5.492,0,1,0,0,10.985,4.776,4.776,0,0,1,4.764,4.744,8.691,8.691,0,0,0,8.681,8.662h50.809a11.3,11.3,0,1,0-.02-22.6h-1a2.264,2.264,0,1,1-.039-4.528h7.3a5.512,5.512,0,1,0,0-11.024H327.4a4.692,4.692,0,0,1-4.685-4.666A8.553,8.553,0,0,0,314.193,176Z" transform="translate(-257.4 -176)"/>
    </clipPath>
    <clipPath id="clip-path-9">
      <path id="Path_64356" data-name="Path 64356" d="M611.255,164.564c-2.756,2.382-7.481,1.457-7.481,1.457s-.256-4.8,2.5-7.185,7.481-1.457,7.481-1.457.256,4.784-2.5,7.185Z" transform="translate(-603.768 -157.202)"/>
    </clipPath>
    <clipPath id="clip-path-12">
      <path id="Path_64361" data-name="Path 64361" d="M7.487,7.362C4.731,9.744.006,8.819.006,8.819s-.256-4.8,2.5-7.185S9.987.177,9.987.177s.256,4.784-2.5,7.185Z" transform="translate(0 0)"/>
    </clipPath>
  </defs>
  <g id="addaf" transform="translate(-147 -85)">
    <g id="Group_57089" data-name="Group 57089" transform="translate(147 85)">
      <path id="Path_64318" data-name="Path 64318" d="M147,85H268.461v80.909H147Z" transform="translate(-147 -85)" fill="none"/>
    </g>
    <g id="Group_57099" data-name="Group 57099" transform="translate(168.733 102.914)">
      <g id="Group_57098" data-name="Group 57098">
        <g id="Group_57090" data-name="Group 57090" clip-path="url(#clip-path)">
          <path id="Path_64319" data-name="Path 64319" d="M257.3,419.791l81.538-.591v3.5H257.3Z" transform="translate(-257.32 -371.324)" fill="#fcfcfc" fill-rule="evenodd"/>
        </g>
        <g id="Group_57091" data-name="Group 57091" clip-path="url(#clip-path)">
          <path id="Path_64321" data-name="Path 64321" d="M257.3,379.11l81.538-.61v8.012L257.3,387.1Z" transform="translate(-257.32 -338.636)" fill="#fbfbfb" fill-rule="evenodd"/>
        </g>
        <g id="Group_57092" data-name="Group 57092" clip-path="url(#clip-path)">
          <path id="Path_64323" data-name="Path 64323" d="M257.3,338.491l81.538-.591v7.992l-81.538.61Z" transform="translate(-257.32 -306.029)" fill="#fafafa" fill-rule="evenodd"/>
        </g>
        <g id="Group_57093" data-name="Group 57093" clip-path="url(#clip-path)">
          <path id="Path_64325" data-name="Path 64325" d="M257.3,297.791l81.538-.591v8.012L257.3,305.8Z" transform="translate(-257.32 -273.341)" fill="#f9f9f9" fill-rule="evenodd"/>
        </g>
        <g id="Group_57094" data-name="Group 57094" clip-path="url(#clip-path)">
          <path id="Path_64327" data-name="Path 64327" d="M257.3,257.11l81.538-.61v8.012L257.3,265.1Z" transform="translate(-257.32 -240.653)" fill="#f8f8f8" fill-rule="evenodd"/>
        </g>
        <g id="Group_57095" data-name="Group 57095" clip-path="url(#clip-path)">
          <path id="Path_64329" data-name="Path 64329" d="M257.3,216.491l81.538-.591v7.992l-81.538.61Z" transform="translate(-257.32 -208.045)" fill="#f7f7f7" fill-rule="evenodd"/>
        </g>
        <g id="Group_57096" data-name="Group 57096" clip-path="url(#clip-path)">
          <path id="Path_64331" data-name="Path 64331" d="M257.3,176.433,317.4,176h21.438v7.855l-81.538.591Z" transform="translate(-257.32 -176)" fill="#f5f5f5" fill-rule="evenodd"/>
        </g>
        <g id="Group_57097" data-name="Group 57097" clip-path="url(#clip-path)">
          <path id="Path_64333" data-name="Path 64333" d="M317.4,176l-60.1.433V176Z" transform="translate(-257.32 -176)" fill="#f4f4f4" fill-rule="evenodd"/>
        </g>
      </g>
    </g>
    <g id="Group_57100" data-name="Group 57100" transform="translate(190.697 115.429)">
      <path id="Path_64335" data-name="Path 64335" d="M400.91,245.053a18.708,18.708,0,1,1-26.458,0A18.713,18.713,0,0,1,400.91,245.053Z" transform="translate(-368.975 -239.575)" fill="#ff5733" fill-rule="evenodd"/>
    </g>
    <g id="Group_57101" data-name="Group 57101" transform="translate(187.558 112.284)">
      <path id="Path_64336" data-name="Path 64336" d="M374.871,267.322A21.861,21.861,0,1,1,390.325,230h0a21.861,21.861,0,0,1-15.453,37.324Zm0-37.423a15.408,15.408,0,0,0-11,4.567,15.562,15.562,0,1,0,22.009,0h0A15.408,15.408,0,0,0,374.871,229.9Z" transform="translate(-353.025 -223.6)" fill="#ff5733"/>
    </g>
    <g id="Group_57102" data-name="Group 57102" transform="translate(204.089 125.041)">
      <path id="Path_64337" data-name="Path 64337" d="M442.315,306.432a3.159,3.159,0,0,1-3.15-3.15v-5.3A5.376,5.376,0,0,1,437,293.735a5.305,5.305,0,1,1,8.445,4.252v5.3A3.13,3.13,0,0,1,442.315,306.432Zm0-13.583a2.675,2.675,0,0,1,.571.059,1.008,1.008,0,0,0-1.142,0A2.675,2.675,0,0,1,442.315,292.849Z" transform="translate(-437 -288.4)" fill="#fff"/>
    </g>
    <g id="Group_57103" data-name="Group 57103" transform="translate(195.602 97.88)">
      <path id="Path_64338" data-name="Path 64338" d="M418.518,174.558a3.159,3.159,0,0,1-3.15-3.15v-6.752a7.76,7.76,0,0,0-15.276-2.087,3.151,3.151,0,0,1-6.1-1.575,14.078,14.078,0,0,1,27.7,3.642v6.772A3.189,3.189,0,0,1,418.518,174.558Z" transform="translate(-393.889 -150.43)" fill="#ff5733"/>
    </g>
    <g id="Group_57104" data-name="Group 57104" transform="translate(232.633 111.522)">
      <path id="Path_64339" data-name="Path 64339" d="M593.615,225.39a5.929,5.929,0,1,1-11.615,0v-2.6a1.432,1.432,0,0,1,.906-1.339l3.622-1.476a3.387,3.387,0,0,1,2.559,0l3.622,1.476a1.432,1.432,0,0,1,.906,1.339v2.6Z" transform="translate(-582 -219.725)" fill="#ff5733" fill-rule="evenodd"/>
    </g>
    <g id="Group_57105" data-name="Group 57105" transform="translate(235.468 115.415)">
      <path id="Path_64340" data-name="Path 64340" d="M599.018,244.225a.923.923,0,0,1-.689-.3L596.7,242.3a.988.988,0,0,1,1.4-1.4l.945.945,2.008-2.047a.988.988,0,1,1,1.4,1.4l-2.736,2.736A.989.989,0,0,1,599.018,244.225Z" transform="translate(-596.4 -239.5)" fill="#fff"/>
    </g>
    <g id="Group_57106" data-name="Group 57106" transform="translate(166.686 117.275)">
      <path id="Path_64341" data-name="Path 64341" d="M264.52,257.5a11.313,11.313,0,0,1-8.76,10.748A11.33,11.33,0,0,1,247,257.5v-3.9a2.184,2.184,0,0,1,1.358-2.028l5.473-2.244a4.99,4.99,0,0,1,3.839,0l5.473,2.244a2.184,2.184,0,0,1,1.358,2.028l.02,3.9Z" transform="translate(-247 -248.95)" fill="#ff5733" fill-rule="evenodd"/>
    </g>
    <g id="Group_57107" data-name="Group 57107" transform="translate(170.923 123.176)">
      <path id="Path_64342" data-name="Path 64342" d="M272.477,286.027a1.428,1.428,0,0,1-1.043-.433l-2.48-2.48a1.489,1.489,0,0,1,2.106-2.106l1.417,1.417,3.071-3.071a1.489,1.489,0,0,1,2.106,2.106l-4.134,4.134A1.4,1.4,0,0,1,272.477,286.027Z" transform="translate(-268.525 -278.925)" fill="#fff"/>
    </g>
    <g id="Group_57108" data-name="Group 57108" transform="translate(180.663 100.453)">
      <path id="Path_64343" data-name="Path 64343" d="M329.024,168.894a5.629,5.629,0,1,1-11.024,0v-2.461a1.385,1.385,0,0,1,.866-1.28l3.445-1.417a3.22,3.22,0,0,1,2.421,0l3.445,1.417a1.377,1.377,0,0,1,.846,1.28v2.461Z" transform="translate(-318 -163.5)" fill="#ff5733" fill-rule="evenodd"/>
    </g>
    <g id="Group_57109" data-name="Group 57109" transform="translate(183.31 104.164)">
      <path id="Path_64344" data-name="Path 64344" d="M333.921,186.809a.926.926,0,0,1-.65-.276l-1.555-1.555a.933.933,0,1,1,1.319-1.319l.886.886,1.929-1.929a.933.933,0,0,1,1.319,1.319l-2.579,2.579A.945.945,0,0,1,333.921,186.809Z" transform="translate(-331.45 -182.35)" fill="#fff"/>
    </g>
    <g id="Group_57110" data-name="Group 57110" transform="translate(243.559 130.927)">
      <path id="Path_64345" data-name="Path 64345" d="M637.618,322.847l4.429-4.429a.428.428,0,0,1,.591,0h0a.428.428,0,0,1,0,.591l-4.429,4.429a.428.428,0,0,1-.591,0h0A.428.428,0,0,1,637.618,322.847Z" transform="translate(-637.5 -318.3)" fill="#e1e4e5"/>
    </g>
    <g id="Group_57111" data-name="Group 57111" transform="translate(246.275 134.096)">
      <path id="Path_64346" data-name="Path 64346" d="M651.418,335.8l1.28-1.28a.428.428,0,0,1,.59,0h0a.428.428,0,0,1,0,.591l-1.28,1.28a.428.428,0,0,1-.59,0h0A.428.428,0,0,1,651.418,335.8Z" transform="translate(-651.3 -334.4)" fill="#e1e4e5"/>
    </g>
    <g id="Group_57112" data-name="Group 57112" transform="translate(172.395 107.717)">
      <path id="Path_64347" data-name="Path 64347" d="M281.138,201.109l-4.429,4.429a.428.428,0,0,1-.591,0h0a.428.428,0,0,1,0-.591l4.429-4.429a.428.428,0,0,1,.591,0h0A.428.428,0,0,1,281.138,201.109Z" transform="translate(-276 -200.4)" fill="#e1e4e5"/>
    </g>
    <g id="Group_57113" data-name="Group 57113" transform="translate(172.828 107.698)">
      <path id="Path_64348" data-name="Path 64348" d="M280.188,201.009l-1.28,1.28a.428.428,0,0,1-.591,0h0a.428.428,0,0,1,0-.591l1.28-1.28a.428.428,0,0,1,.591,0h0A.428.428,0,0,1,280.188,201.009Z" transform="translate(-278.2 -200.3)" fill="#e1e4e5"/>
    </g>
    <g id="Group_57114" data-name="Group 57114" transform="translate(182.749 149.845)">
      <path id="Path_64349" data-name="Path 64349" d="M333.738,415.109l-4.429,4.429a.428.428,0,0,1-.591,0h0a.428.428,0,0,1,0-.591l4.429-4.429a.428.428,0,0,1,.591,0h0A.428.428,0,0,1,333.738,415.109Z" transform="translate(-328.6 -414.4)" fill="#e1e4e5"/>
    </g>
    <g id="Group_57115" data-name="Group 57115" transform="translate(183.182 149.825)">
      <path id="Path_64350" data-name="Path 64350" d="M332.788,415.009l-1.28,1.28a.428.428,0,0,1-.591,0h0a.428.428,0,0,1,0-.591l1.28-1.28a.428.428,0,0,1,.591,0h0A.428.428,0,0,1,332.788,415.009Z" transform="translate(-330.8 -414.3)" fill="#e1e4e5"/>
    </g>
    <g id="Group_57116" data-name="Group 57116" transform="translate(228.657 99.489)">
      <path id="Path_64351" data-name="Path 64351" d="M566.938,159.309l-4.429,4.429a.428.428,0,0,1-.591,0h0a.428.428,0,0,1,0-.591l4.429-4.429a.428.428,0,0,1,.591,0h0A.428.428,0,0,1,566.938,159.309Z" transform="translate(-561.8 -158.6)" fill="#e1e4e5"/>
    </g>
    <g id="Group_57117" data-name="Group 57117" transform="translate(229.09 99.469)">
      <path id="Path_64352" data-name="Path 64352" d="M565.988,159.209l-1.28,1.28a.428.428,0,0,1-.591,0h0a.428.428,0,0,1,0-.591l1.28-1.28a.428.428,0,0,1,.591,0h0A.428.428,0,0,1,565.988,159.209Z" transform="translate(-564 -158.5)" fill="#e1e4e5"/>
    </g>
    <g id="Group_57118" data-name="Group 57118" transform="translate(241.32 142.918)">
      <circle id="Ellipse_3174" data-name="Ellipse 3174" cx="1.516" cy="1.516" r="1.516" transform="matrix(0.5, -0.866, 0.866, 0.5, 0, 2.625)" fill="#ff5733"/>
    </g>
    <g id="Group_57119" data-name="Group 57119" transform="translate(252.122 124.746)">
      <circle id="Ellipse_3175" data-name="Ellipse 3175" cx="1.161" cy="1.161" r="1.161" transform="translate(0 0)" fill="#e1e4e5"/>
    </g>
    <g id="Group_57120" data-name="Group 57120" transform="translate(236.688 136.951)">
      <circle id="Ellipse_3176" data-name="Ellipse 3176" cx="1.26" cy="1.26" r="1.26" transform="translate(0)" fill="#fff"/>
    </g>
    <g id="Group_57121" data-name="Group 57121" transform="translate(168.162 95.099)">
      <path id="Path_64353" data-name="Path 64353" d="M256.823,187.66a2.323,2.323,0,1,1,2.323-2.323A2.3,2.3,0,0,1,256.823,187.66Zm.02-3.445a1.122,1.122,0,1,0,1.122,1.122A1.134,1.134,0,0,0,256.843,184.215Zm51.321-43.269a2.323,2.323,0,1,1,2.323-2.323A2.327,2.327,0,0,1,308.163,140.946Zm0-3.465a1.122,1.122,0,0,0-1.122,1.122,1.134,1.134,0,0,0,1.122,1.122,1.122,1.122,0,1,0,0-2.244Z" transform="translate(-254.5 -136.3)" fill="#e1e4e5"/>
    </g>
    <g id="Group_57122" data-name="Group 57122" transform="translate(180.623 114.939)">
      <path id="Path_64354" data-name="Path 64354" d="M366.66,273.5s5.1-2.638,7.087-6.516a.51.51,0,0,0-.2-.669.758.758,0,0,0-.709.039c-.906.374-3.662,4.764-6.181,7.146ZM317.8,261.772a9.66,9.66,0,0,1,3.583-3.445.26.26,0,0,1,.335.118.441.441,0,0,1-.039.374c-.236.453-2.579,1.732-3.878,2.953Zm8.051-21.221a9.66,9.66,0,0,1,3.583-3.445.26.26,0,0,1,.335.118.441.441,0,0,1-.039.374c-.217.453-2.559,1.732-3.878,2.953Z" transform="translate(-317.8 -237.082)" fill="#e1e4e5"/>
    </g>
    <g id="Group_57132" data-name="Group 57132" transform="translate(234.767 96.913)">
      <g id="Group_57131" data-name="Group 57131" transform="translate(0 0)">
        <g id="Group_57123" data-name="Group 57123" transform="translate(2.151 2.3)" clip-path="url(#clip-path-9)">
          <path id="Path_64355" data-name="Path 64355" d="M602.6,196l2.756,2.106H602.6Z" transform="translate(-602.83 -188.362)" fill="#fcfcfc" fill-rule="evenodd"/>
        </g>
        <g id="Group_57124" data-name="Group 57124" transform="translate(2.151 2.3)" clip-path="url(#clip-path-9)">
          <path id="Path_64357" data-name="Path 64357" d="M602.6,183.1l6.1,4.646h-3.347l-2.756-2.106Z" transform="translate(-602.83 -178.002)" fill="#fbfbfb" fill-rule="evenodd"/>
        </g>
        <g id="Group_57125" data-name="Group 57125" transform="translate(2.151 2.3)" clip-path="url(#clip-path-9)">
          <path id="Path_64359" data-name="Path 64359" d="M602.6,172.212l.374-.512,7.736,5.866-.768,1.024H608.7l-6.1-4.646Z" transform="translate(-602.83 -168.846)" fill="#fafafa" fill-rule="evenodd"/>
        </g>
        <g id="Group_57126" data-name="Group 57126" transform="translate(0 7.967) rotate(-52.869)" clip-path="url(#clip-path-12)">
          <rect id="Rectangle_6532" data-name="Rectangle 6532" width="2.028" height="9.725" transform="translate(3.609 0.137)" fill="#f9f9f9"/>
        </g>
        <g id="Group_57127" data-name="Group 57127" transform="translate(2.151 2.3)" clip-path="url(#clip-path-9)">
          <path id="Path_64362" data-name="Path 64362" d="M610.7,156.995l1.221-1.595,7.658,5.788v.177l-1.142,1.5Z" transform="translate(-609.335 -155.755)" fill="#f8f8f8" fill-rule="evenodd"/>
        </g>
        <g id="Group_57128" data-name="Group 57128" transform="translate(2.151 2.3)" clip-path="url(#clip-path-9)">
          <path id="Path_64364" data-name="Path 64364" d="M616.9,153.713l.3-.413h2.52l4.843,3.681v2.52Z" transform="translate(-614.315 -154.068)" fill="#f7f7f7" fill-rule="evenodd"/>
        </g>
        <g id="Group_57129" data-name="Group 57129" transform="translate(2.151 2.3)" clip-path="url(#clip-path-9)">
          <path id="Path_64366" data-name="Path 64366" d="M634.547,153.3l1.5,1.142v2.539L631.2,153.3Z" transform="translate(-625.8 -154.068)" fill="#f5f5f5" fill-rule="evenodd"/>
        </g>
        <g id="Group_57130" data-name="Group 57130" transform="translate(2.151 2.3)" clip-path="url(#clip-path-9)">
          <path id="Path_64368" data-name="Path 64368" d="M649.7,154.442l-1.5-1.142h1.5Z" transform="translate(-639.453 -154.068)" fill="#f4f4f4" fill-rule="evenodd"/>
        </g>
      </g>
    </g>
  </g>
</svg>
