<svg xmlns="http://www.w3.org/2000/svg" width="99.846" height="55.537" viewBox="0 0 99.846 55.537">
  <g id="_3303214" data-name="3303214" transform="translate(-11.859 -12.15)">
    <g id="BACKGROUND" transform="translate(11.859 13.906)">
      <g id="Group_57383" data-name="Group 57383">
        <g id="Group_57381" data-name="Group 57381">
          <path id="Path_65629" data-name="Path 65629" d="M605.808,228.971a3.8,3.8,0,0,0,2.618.855,2.367,2.367,0,0,0,1.725-1.665,4.09,4.09,0,0,0-.125-2.477,6.5,6.5,0,0,0-9.017-3.779C596.293,224.214,603.751,227.651,605.808,228.971Z" transform="translate(-510.445 -200.287)" fill="#e5f7f9"/>
          <g id="Group_57380" data-name="Group 57380">
            <path id="Path_65630" data-name="Path 65630" d="M164.4,193.887c5.533,3.806,11.255,7.74,17.574,10.224,8.609,3.383,18.759,4.273,30.167,2.648a130.883,130.883,0,0,0,18.879-4.369,14.909,14.909,0,0,0-.6-4.371,45.715,45.715,0,0,1-14.25,2.273,44.412,44.412,0,0,1-14.822-2.516c-7.094-2.512-13.463-6.8-19.623-10.945-2.23-1.5-4.535-3.052-6.839-4.5-7.77-4.867-14.741-7.636-21.107-8.365a16.8,16.8,0,0,1-3.064,4.366c-2.1,2.033-4.794,3-7.406,4.132,6.353,1.876,12.194,5.411,17.253,8.8C161.847,192.131,163.145,193.025,164.4,193.887Z" transform="translate(-133.748 -161.241)" fill="#e5f7f9"/>
            <path id="Path_65631" data-name="Path 65631" d="M225.513,121.7c2.31,1.446,4.617,3,6.848,4.5,6.141,4.134,12.491,8.407,19.544,10.905a44.986,44.986,0,0,0,28.849.235,10.816,10.816,0,0,0-2.312-4.028c-2.5-2.679-6.273-3.651-8.421-6.684-1.888-2.665-2.113-6.369-3.676-9.287-1.951-3.643-5.777-5.6-9.547-6.129s-7.581.145-11.36.6-7.7.667-11.287-.728c-3.848-1.5-6.939-4.686-10.383-7.118s-7.824-4.134-11.545-2.282c-4.061,2.019-5.58,7.177-7.834,11.614C210.775,114.06,217.752,116.84,225.513,121.7Z" transform="translate(-184.188 -100.902)" fill="#e5f7f9"/>
            <path id="Path_65632" data-name="Path 65632" d="M166.865,248.419a76.073,76.073,0,0,1-10.715.791,53.366,53.366,0,0,1-19.628-3.462c-6.355-2.5-12.093-6.444-17.644-10.261-1.254-.862-2.55-1.754-3.833-2.615-5.141-3.449-11.093-7.041-17.558-8.872a17.332,17.332,0,0,0-4.38,2.61c-4.31,3.723-5.6,10.731-4.061,16.567a26.922,26.922,0,0,0,8.522,13.036h83.109a22.539,22.539,0,0,0,4.714-9.522,15.814,15.814,0,0,0,.3-2.62A130.883,130.883,0,0,1,166.865,248.419Z" transform="translate(-88.423 -202.555)" fill="#e5f7f9"/>
          </g>
        </g>
        <g id="Group_57382" data-name="Group 57382" transform="translate(83.56 32.545)">
          <circle id="Ellipse_3385" data-name="Ellipse 3385" cx="0.631" cy="0.631" r="0.631" fill="#fff"/>
          <circle id="Ellipse_3386" data-name="Ellipse 3386" cx="0.631" cy="0.631" r="0.631" transform="translate(2.831)" fill="#fff"/>
          <circle id="Ellipse_3387" data-name="Ellipse 3387" cx="0.631" cy="0.631" r="0.631" transform="translate(5.662)" fill="#fff"/>
        </g>
      </g>
      <g id="Group_57385" data-name="Group 57385" transform="translate(2.017 53.607)">
        <g id="Group_57384" data-name="Group 57384">
          <rect id="Rectangle_6636" data-name="Rectangle 6636" width="95.814" height="0.174" fill="#2a72ba"/>
        </g>
      </g>
    </g>
    <g id="OBJECTS" transform="translate(13.544 12.15)">
      <g id="Group_57394" data-name="Group 57394" transform="translate(0 3.306)">
        <g id="Group_57387" data-name="Group 57387" transform="translate(58.922 16.919)">
          <g id="Group_57386" data-name="Group 57386" transform="translate(2.011)">
            <path id="Path_65633" data-name="Path 65633" d="M526.762,218.453a9.69,9.69,0,0,1,1.4-6.486c2.024-3.075,5.627-5.522,6-4.974S529.617,217.709,526.762,218.453Z" transform="translate(-512.943 -206.916)" fill="#b4efff"/>
            <path id="Path_65634" data-name="Path 65634" d="M479.88,318.469a8.056,8.056,0,0,1,5.5-.329c2.911.934,5.674,3.273,5.319,3.7S481.112,320.589,479.88,318.469Z" transform="translate(-474.304 -298.479)" fill="#b4efff"/>
            <path id="Path_65635" data-name="Path 65635" d="M501.408,237.538a8.049,8.049,0,0,0,.488-5.489c-.85-2.937-3.108-5.766-3.542-5.423S499.324,236.245,501.408,237.538Z" transform="translate(-489.495 -223.169)" fill="#b4efff"/>
            <path id="Path_65636" data-name="Path 65636" d="M516.05,274.593a7.672,7.672,0,0,0,5.249.124c2.74-.99,3.787-2.874,3.434-3.265S517.151,272.534,516.05,274.593Z" transform="translate(-504.173 -260.157)" fill="#b4efff"/>
            <path id="Path_65637" data-name="Path 65637" d="M486.583,264.711a7.665,7.665,0,0,1-2.646-4.535c-.458-2.878.685-4.7,1.2-4.583S487.855,262.753,486.583,264.711Z" transform="translate(-477.567 -247.109)" fill="#b4efff"/>
            <path id="Path_65638" data-name="Path 65638" d="M468.818,278.711a7.662,7.662,0,0,1-2.475-4.63c-.35-2.892.859-4.676,1.368-4.536S470.162,276.8,468.818,278.711Z" transform="translate(-463.074 -258.627)" fill="#b4efff"/>
            <path id="Path_65639" data-name="Path 65639" d="M450.232,289.18a7.661,7.661,0,0,1-2.324-4.707c-.258-2.9,1.01-4.646,1.514-4.489S451.636,287.314,450.232,289.18Z" transform="translate(-447.874 -267.247)" fill="#b4efff"/>
            <path id="Path_65640" data-name="Path 65640" d="M498.91,303.067a7.668,7.668,0,0,0,4.949,1.753c2.913-.087,4.495-1.55,4.28-2.033S500.6,301.454,498.91,303.067Z" transform="translate(-490.019 -285.542)" fill="#b4efff"/>
            <path id="Path_65641" data-name="Path 65641" d="M460.31,331.625a7.664,7.664,0,0,0,4.094,3.287c2.779.878,4.754.019,4.711-.507S462.434,330.656,460.31,331.625Z" transform="translate(-458.144 -309.751)" fill="#b4efff"/>
          </g>
          <path id="Path_65642" data-name="Path 65642" d="M454.858,216.469l4.216-6.287a.087.087,0,0,0-.145-.1l-4.216,6.287a22.642,22.642,0,0,0-1.585,2.8,24.835,24.835,0,0,1-2.777,4.474,36.927,36.927,0,0,1-1.294-4.909,35.337,35.337,0,0,0-1.4-5.195.088.088,0,1,0-.164.063,35.2,35.2,0,0,1,1.39,5.17,36.239,36.239,0,0,0,1.338,5.036,25.389,25.389,0,0,1-2.826,3.026,16.538,16.538,0,0,1-1.591-8.527.086.086,0,0,0-.08-.094.086.086,0,0,0-.094.08,16.718,16.718,0,0,0,1.629,8.665,25.27,25.27,0,0,1-3.04,2.336,10.681,10.681,0,0,1-.92-2.873,13.3,13.3,0,0,1-.408-5.566.086.086,0,1,0-.169-.037,13.436,13.436,0,0,0,.408,5.641,10.8,10.8,0,0,0,.944,2.932,24.746,24.746,0,0,1-3.306,1.8,20.139,20.139,0,0,1-1.043-8.4.086.086,0,0,0-.078-.094.087.087,0,0,0-.094.078,20.313,20.313,0,0,0,1.057,8.484,24.285,24.285,0,0,1-4.219,1.422.087.087,0,0,0,.042.169,24.493,24.493,0,0,0,4.2-1.408,11.679,11.679,0,0,0,3.787,1.833,35.489,35.489,0,0,0,4.157.888l.016,0a.086.086,0,0,0,.085-.073.088.088,0,0,0-.071-.1,35.28,35.28,0,0,1-4.137-.883,11.662,11.662,0,0,1-3.653-1.747h0a25.1,25.1,0,0,0,3.352-1.819,9.478,9.478,0,0,0,3.181.74l.178.021a20.87,20.87,0,0,1,3.482.631,8.489,8.489,0,0,1,3.115,1.591.085.085,0,0,0,.122-.01.088.088,0,0,0-.01-.124,8.678,8.678,0,0,0-3.179-1.624,20.935,20.935,0,0,0-3.512-.638l-.178-.021a9.62,9.62,0,0,1-3.028-.679,25.69,25.69,0,0,0,3.124-2.413s0,0,.005,0a13.834,13.834,0,0,0,8.731.15.088.088,0,0,0-.052-.167,13.67,13.67,0,0,1-8.54-.12,25.594,25.594,0,0,0,2.773-2.988,18.676,18.676,0,0,0,8.116-2.742.088.088,0,0,0,.028-.12.086.086,0,0,0-.12-.028,18.471,18.471,0,0,1-7.876,2.7,24.862,24.862,0,0,0,2.758-4.456A22.517,22.517,0,0,1,454.858,216.469Z" transform="translate(-436.327 -209.502)" fill="#7ec5d9"/>
        </g>
        <g id="Group_57390" data-name="Group 57390" transform="translate(0 19.368)">
          <g id="Group_57389" data-name="Group 57389">
            <g id="Group_57388" data-name="Group 57388">
              <path id="Path_65643" data-name="Path 65643" d="M113.755,232.771a9.7,9.7,0,0,1-5.146-4.186c-1.822-3.2-2.367-7.521-1.707-7.608S114.387,229.888,113.755,232.771Z" transform="translate(-105.144 -220.976)" fill="#b4efff"/>
              <path id="Path_65644" data-name="Path 65644" d="M109.981,291.768a9.694,9.694,0,0,1-6.632.115c-3.455-1.273-5.644-3.822-5.195-4.315S108.606,289.158,109.981,291.768Z" transform="translate(-98.095 -275.907)" fill="#b4efff"/>
              <path id="Path_65645" data-name="Path 65645" d="M153.774,253.875a9.687,9.687,0,0,0,1-6.557c-.8-3.594-3.029-6.108-3.578-5.728S151.371,252.165,153.774,253.875Z" transform="translate(-141.805 -237.968)" fill="#b4efff"/>
              <path id="Path_65646" data-name="Path 65646" d="M175.749,270.455a9.684,9.684,0,0,0,1.885-6.36c-.3-3.669-2.172-6.461-2.766-6.16S173.6,268.432,175.749,270.455Z" transform="translate(-161.007 -251.478)" fill="#b4efff"/>
              <path id="Path_65647" data-name="Path 65647" d="M202.339,290.465a9.684,9.684,0,0,0,1.885-6.36c-.3-3.669-2.172-6.461-2.766-6.16S200.191,288.442,202.339,290.465Z" transform="translate(-182.965 -268.002)" fill="#b4efff"/>
              <path id="Path_65648" data-name="Path 65648" d="M127.785,324.025a8.99,8.99,0,0,1-5.9,2.167c-3.414-.132-6.028-1.866-5.752-2.47S125.884,321.982,127.785,324.025Z" transform="translate(-112.976 -305.109)" fill="#b4efff"/>
              <path id="Path_65649" data-name="Path 65649" d="M155.945,347.317a8.989,8.989,0,0,1-5.322,3.338c-3.367.577-6.282-.58-6.137-1.228S153.664,345.709,155.945,347.317Z" transform="translate(-136.4 -324.927)" fill="#b4efff"/>
            </g>
            <path id="Path_65650" data-name="Path 65650" d="M130.652,249.292a16.615,16.615,0,0,1-4.39-.146,20.509,20.509,0,0,1-7.324-2.829l.005-.01a36.247,36.247,0,0,0-.322-11.526.087.087,0,0,0-.1-.07.086.086,0,0,0-.07.1,35.993,35.993,0,0,1,.329,11.4,27.969,27.969,0,0,1-3.857-2.9q-.3-.269-.594-.547a21.13,21.13,0,0,0-.359-11.336.088.088,0,0,0-.167.052,20.94,20.94,0,0,1,.38,11.142,40.851,40.851,0,0,1-2.9-3.082,10.185,10.185,0,0,0-.132-5.449c-.2-.78-.441-1.563-.676-2.319-.3-.965-.611-1.963-.827-2.967a.086.086,0,1,0-.169.037c.216,1.01.528,2.012.831,2.981.235.754.477,1.533.674,2.31a10.142,10.142,0,0,1,.166,5.247c-1.42-1.676-2.686-3.387-3.813-4.965a23.362,23.362,0,0,1-1.282-2.007l-4.3-7.531a.086.086,0,0,0-.118-.033.088.088,0,0,0-.033.118l4.3,7.531a23.734,23.734,0,0,0,1.293,2.023c1.124,1.577,2.388,3.282,3.8,4.956a46.47,46.47,0,0,1-10.871-2.944.087.087,0,0,0-.066.16,46.645,46.645,0,0,0,11.1,2.984l.01,0a41.336,41.336,0,0,0,2.975,3.146,5.252,5.252,0,0,1-1.693.822,9.711,9.711,0,0,1-2.885.225,46.974,46.974,0,0,1-6.423-.665.088.088,0,0,0-.03.172,47.089,47.089,0,0,0,6.447.669,9.746,9.746,0,0,0,2.937-.232c.1-.028.2-.057.293-.091a5.455,5.455,0,0,0,1.483-.777c.179.167.361.334.544.5a28.1,28.1,0,0,0,3.833,2.892,14.778,14.778,0,0,1-4.244,1.631,32.8,32.8,0,0,1-4.637.648c-.665.054-1.223.091-1.784.091a.087.087,0,0,0-.087.087.086.086,0,0,0,.087.087c.568,0,1.129-.037,1.8-.091a32.725,32.725,0,0,0,4.662-.653,17.939,17.939,0,0,0,1.728-.488,13.57,13.57,0,0,0,2.644-1.209,20.683,20.683,0,0,0,7.428,2.88,16.806,16.806,0,0,0,4.435.146.062.062,0,0,0,.019,0,.087.087,0,0,0,.059-.091A.1.1,0,0,0,130.652,249.292Z" transform="translate(-99.672 -224.162)" fill="#7ec5d9"/>
          </g>
        </g>
        <g id="Group_57393" data-name="Group 57393" transform="translate(54.764)">
          <g id="Group_57392" data-name="Group 57392">
            <g id="Group_57391" data-name="Group 57391" transform="translate(1.705)">
              <path id="Path_65651" data-name="Path 65651" d="M512.237,122.682a9.681,9.681,0,0,1-.119-6.632c1.27-3.455,4.221-6.66,4.712-6.21S514.849,121.306,512.237,122.682Z" transform="translate(-496.02 -109.797)" fill="#8ee4fd"/>
              <path id="Path_65652" data-name="Path 65652" d="M509.05,168.049a9.689,9.689,0,0,0,6.242-2.247c2.777-2.416,3.92-5.578,3.326-5.878S509.407,165.12,509.05,168.049Z" transform="translate(-493.928 -151.181)" fill="#8ee4fd"/>
              <path id="Path_65653" data-name="Path 65653" d="M459.81,192.009a9.691,9.691,0,0,1-5.817-3.188c-2.369-2.817-3.009-6.118-2.374-6.322S459.909,189.059,459.81,192.009Z" transform="translate(-446.312 -169.83)" fill="#8ee4fd"/>
              <path id="Path_65654" data-name="Path 65654" d="M427.078,262.11a9.7,9.7,0,0,1-4.2-5.132c-1.143-3.5-.5-6.8.164-6.751S428.275,259.413,427.078,262.11Z" transform="translate(-422.247 -225.763)" fill="#8ee4fd"/>
              <path id="Path_65655" data-name="Path 65655" d="M468.78,276.3a9.7,9.7,0,0,0,6.634.071c3.446-1.3,5.62-3.86,5.167-4.348S470.135,273.685,468.78,276.3Z" transform="translate(-460.673 -243.709)" fill="#8ee4fd"/>
              <path id="Path_65656" data-name="Path 65656" d="M499.1,215.288a7.667,7.667,0,0,0,5.186-.815c2.519-1.463,3.214-3.5,2.8-3.826S499.814,213.065,499.1,215.288Z" transform="translate(-485.712 -193.057)" fill="#8ee4fd"/>
              <path id="Path_65657" data-name="Path 65657" d="M486.82,167.182a7.666,7.666,0,0,1-3.935-3.475c-1.338-2.589-.826-4.681-.3-4.728S487.413,164.923,486.82,167.182Z" transform="translate(-471.618 -150.411)" fill="#8ee4fd"/>
              <path id="Path_65658" data-name="Path 65658" d="M461.8,233.892a7.666,7.666,0,0,1-3.935-3.475c-1.338-2.589-.826-4.681-.3-4.728S462.392,231.633,461.8,233.892Z" transform="translate(-450.957 -205.499)" fill="#8ee4fd"/>
              <path id="Path_65659" data-name="Path 65659" d="M447.63,257.892a7.666,7.666,0,0,1-3.935-3.475c-1.338-2.589-.826-4.681-.3-4.728S448.222,255.633,447.63,257.892Z" transform="translate(-439.255 -225.318)" fill="#8ee4fd"/>
              <path id="Path_65660" data-name="Path 65660" d="M483.44,250.3a8.474,8.474,0,0,0,5.569-.777c2.822-1.484,3.779-3.594,3.373-3.934S484.44,248.007,483.44,250.3Z" transform="translate(-472.78 -221.914)" fill="#8ee4fd"/>
              <path id="Path_65661" data-name="Path 65661" d="M449.68,312.163a8.469,8.469,0,0,0,5.463,1.338c3.171-.336,4.839-1.941,4.587-2.407S451.457,310.4,449.68,312.163Z" transform="translate(-444.901 -275.751)" fill="#8ee4fd"/>
            </g>
            <path id="Path_65662" data-name="Path 65662" d="M438.5,122.553a.087.087,0,0,0-.122.017,22.913,22.913,0,0,1-8.888,7.1s0-.007,0-.01a.085.085,0,0,0,.017-.063c.439-1.575.852-3.169,1.258-4.777a24.7,24.7,0,0,1,.8-2.559L434.641,114a.087.087,0,0,0-.162-.061L431.4,122.2a25.02,25.02,0,0,0-.8,2.577c-.4,1.568-.8,3.122-1.225,4.658a15.5,15.5,0,0,1-4.056-6.878.088.088,0,0,0-.169.047,15.658,15.658,0,0,0,4.171,7.022c-.509,1.817-1.056,3.608-1.676,5.36a13.426,13.426,0,0,1-4.2-3.16,23.114,23.114,0,0,1-2.083-2.848c-.427-.66-.852-1.336-1.261-2.009a.088.088,0,0,0-.15.091c.411.672.836,1.35,1.263,2.012a23.682,23.682,0,0,0,2.1,2.869,13.612,13.612,0,0,0,4.252,3.2.087.087,0,0,0,0,.056,48.978,48.978,0,0,1-2.458,5.759c-.044.085-.089.172-.134.26a8.551,8.551,0,0,1-2.855-3.3,16.364,16.364,0,0,1-1.4-4.287.088.088,0,0,0-.1-.068.087.087,0,0,0-.068.1A16.5,16.5,0,0,0,421.963,138a8.749,8.749,0,0,0,2.928,3.378,35.625,35.625,0,0,1-2.319,3.819A16.292,16.292,0,0,1,418.3,137.9a.087.087,0,0,0-.167.045,16.458,16.458,0,0,0,4.338,7.39,29.385,29.385,0,0,1-3.392,4.01,64.806,64.806,0,0,1-3.456-8.141,9.933,9.933,0,0,1-.664-2.913.091.091,0,0,0-.089-.085.089.089,0,0,0-.085.089,10.143,10.143,0,0,0,.672,2.965,64.8,64.8,0,0,0,3.489,8.21,22.639,22.639,0,0,1-6.439,4.434.087.087,0,0,0-.044.115.085.085,0,0,0,.08.051.091.091,0,0,0,.037-.007,22.819,22.819,0,0,0,6.432-4.411,13.291,13.291,0,0,0,3.651.507,13.488,13.488,0,0,0,6.191-1.5.087.087,0,1,0-.08-.153,13.335,13.335,0,0,1-9.616,1,29.49,29.49,0,0,0,3.378-3.968,1.73,1.73,0,0,0,.531.078,4.049,4.049,0,0,0,.963-.15,54.973,54.973,0,0,0,9.723-3.768.087.087,0,0,0-.073-.157,54.8,54.8,0,0,1-9.691,3.758,2.735,2.735,0,0,1-1.345.089,35.505,35.505,0,0,0,2.383-3.907l.019,0a19.526,19.526,0,0,0,8.388-4.324.088.088,0,1,0-.119-.129,19.232,19.232,0,0,1-8.181,4.245l.125-.242a49.24,49.24,0,0,0,2.481-5.82,63.4,63.4,0,0,0,7.491-4.056.087.087,0,1,0-.092-.148,63.266,63.266,0,0,1-7.317,3.974c.591-1.671,1.113-3.376,1.6-5.1a.062.062,0,0,0,.03-.007,23.067,23.067,0,0,0,9.057-7.2A.081.081,0,0,0,438.5,122.553Z" transform="translate(-412.457 -113.175)" fill="#76d3ed"/>
          </g>
        </g>
      </g>
      <g id="Group_57397" data-name="Group 57397" transform="translate(35.287)">
        <g id="Group_57395" data-name="Group 57395" transform="translate(11.773 3.963)">
          <path id="Path_65663" data-name="Path 65663" d="M382.388,115.941l-11.656-2.354a.761.761,0,0,0-.9.6l-1.587,7.86a.761.761,0,0,0,.6.9l4.413.892,1.179,1.453,1.651-.881,4.413.892a.761.761,0,0,0,.9-.6l1.587-7.86A.764.764,0,0,0,382.388,115.941Z" transform="translate(-368.232 -113.572)" fill="#fd6e74"/>
          <path id="Path_65664" data-name="Path 65664" d="M398.5,134.06s.012-1.164-1.408-1.192a1.277,1.277,0,0,0-1.261.852,2.019,2.019,0,0,0-.037,1.46,6.657,6.657,0,0,0,1.772,2.634.3.3,0,0,0,.3.066A5.753,5.753,0,0,0,401,135.638a1.528,1.528,0,0,0-.857-2.172S398.9,133.1,398.5,134.06Z" transform="translate(-390.897 -129.507)" fill="#fff"/>
        </g>
        <g id="Group_57396" data-name="Group 57396">
          <path id="Path_65665" data-name="Path 65665" d="M308.163,90.839,301,92.809a.477.477,0,0,0-.333.585L302,98.224a.477.477,0,0,0,.585.333l2.711-.746,1.066.477.672-.956,2.711-.746a.476.476,0,0,0,.333-.585l-1.329-4.829A.475.475,0,0,0,308.163,90.839Z" transform="translate(-300.652 -90.822)" fill="#fd6e74"/>
          <path id="Path_65666" data-name="Path 65666" d="M318.822,104.7a.78.78,0,0,0-1.12-.268.8.8,0,0,0-.463.829,1.256,1.256,0,0,0,.39.824,4.156,4.156,0,0,0,1.73.97.186.186,0,0,0,.186-.049,3.585,3.585,0,0,0,1.111-2.131.955.955,0,0,0-1.091-.97S318.773,104.054,318.822,104.7Z" transform="translate(-314.346 -101.619)" fill="#fff"/>
        </g>
      </g>
      <g id="Group_57431" data-name="Group 57431" transform="translate(8.753 13.979)">
        <g id="Group_57409" data-name="Group 57409" transform="translate(10.805 24.129)">
          <g id="Group_57399" data-name="Group 57399" transform="translate(8.281 3.652)">
            <path id="Path_65667" data-name="Path 65667" d="M487.74,336.27l-3.05,5.181c-2.195-.368-9.226-1.54-17.28-2.829-.768,2.5-1.7,4.958-2.46,7.447l20.3-.5v0l.617.012a2.057,2.057,0,0,0,2.1-1.984l.263-7.313Z" transform="translate(-428.88 -335.272)" fill="#ffa68c"/>
            <path id="Path_65668" data-name="Path 65668" d="M585.274,343.978a9.188,9.188,0,0,1-1.394-.193c.345-.857.617-1.791.953-2.65a12.493,12.493,0,0,0,.634-1.935,4.423,4.423,0,0,0,.007-2.021,1.367,1.367,0,0,1-.387-1.268,3.526,3.526,0,0,1,.561-1.249,1.128,1.128,0,0,1,.383-.42.408.408,0,0,1,.519.08l-.23,8.681A1,1,0,0,1,585.274,343.978Z" transform="translate(-527.092 -333.55)" fill="#ffa430"/>
            <g id="Group_57398" data-name="Group 57398">
              <path id="Path_65669" data-name="Path 65669" d="M262.992,342.548l36.139-.827,2.092-7.54-37.016-3.641-6.308,2.714Z" transform="translate(-257.9 -330.54)" fill="#24629f"/>
              <path id="Path_65670" data-name="Path 65670" d="M343.622,369.334l-.739,2.66-1.165,1.6-7.757.178-11.114-2.448L316,374.184l-5.649.129c.066-.026.132-.054.2-.082L322.8,369.12l17.689,3.9,2.789-3.831C343.4,369.237,343.514,369.287,343.622,369.334Z" transform="translate(-301.213 -362.399)" fill="#2e2044"/>
            </g>
            <path id="Path_65671" data-name="Path 65671" d="M579.6,381.65a.4.4,0,0,1,.125.343.4.4,0,0,1-.186.314,3.257,3.257,0,0,1,.061-.657Z" transform="translate(-523.51 -372.746)" fill="#ffa68c" opacity="0.5"/>
          </g>
          <g id="Group_57408" data-name="Group 57408">
            <g id="Group_57402" data-name="Group 57402" transform="translate(40.354 5.875)">
              <g id="Group_57401" data-name="Group 57401">
                <path id="Path_65672" data-name="Path 65672" d="M467.421,352l-.073-.392-5.719-1.8-16.7-6.508c-.444.949-.88,1.9-1.3,2.862-.537,1.225-1.068,2.453-1.62,3.672,7.32,1.611,13.912,2.547,16.041,2.847.1.57.2,1.136.228,1.275Z" transform="translate(-442.01 -343.3)" fill="#ffae96"/>
                <g id="Group_57400" data-name="Group 57400" transform="translate(11.093 3.12)" opacity="0.5">
                  <path id="Path_65673" data-name="Path 65673" d="M505.69,361.21c1.051.35,2.094.719,3.137,1.092s2.08.758,3.122,1.136,2.073.775,3.106,1.172l1.549.6c.514.206,1.03.406,1.542.617-.526-.174-1.047-.359-1.571-.537l-1.566-.554c-1.043-.371-2.08-.758-3.12-1.136s-2.073-.775-3.106-1.172S506.714,361.628,505.69,361.21Z" transform="translate(-505.69 -361.21)" fill="#ffa68c"/>
                  <path id="Path_65674" data-name="Path 65674" d="M533.758,393.35c.1.117.162.218.237.319s.148.2.23.324a.514.514,0,0,1-.371-.221A.521.521,0,0,1,533.758,393.35Z" transform="translate(-528.858 -387.751)" fill="#ffa68c"/>
                </g>
              </g>
              <path id="Path_65675" data-name="Path 65675" d="M533.21,391.082a9.078,9.078,0,0,1-.281-1.378c.922.04,1.894-.014,2.817.017a12.408,12.408,0,0,0,2.036-.047,4.419,4.419,0,0,0,1.909-.665,1.366,1.366,0,0,1,1.066-.787,3.517,3.517,0,0,1,1.364.113,1.146,1.146,0,0,1,.524.221.406.406,0,0,1,.1.516l-8.263,2.672A1,1,0,0,1,533.21,391.082Z" transform="translate(-517.091 -380.372)" fill="#ffa430"/>
            </g>
            <g id="Group_57407" data-name="Group 57407">
              <path id="Path_65676" data-name="Path 65676" d="M212.873,312.385a17.9,17.9,0,0,0-2.428,10.684c.378,3.813,6.083,4.083,10.29,3.752a23.6,23.6,0,0,0,7.247-1.761l12.247-5.111,17.689,3.894,4-5.493s-19.889-8.665-22.795-8.773-13.7,2.956-13.7,2.956Z" transform="translate(-210.365 -309.574)" fill="#24629f"/>
              <g id="Group_57406" data-name="Group 57406" transform="translate(2.894 0.729)" opacity="0.5">
                <g id="Group_57405" data-name="Group 57405">
                  <g id="Group_57404" data-name="Group 57404" opacity="0.5">
                    <g id="Group_57403" data-name="Group 57403">
                      <path id="Path_65677" data-name="Path 65677" d="M226.98,342.69a25.162,25.162,0,0,0,.418,3.353,8.118,8.118,0,0,0,1.3,3.085,5.675,5.675,0,0,0,1.155,1.209,4.906,4.906,0,0,0,.707.444,4.5,4.5,0,0,0,.779.3,5.371,5.371,0,0,0,1.657.192,8.5,8.5,0,0,0,1.66-.242,21.755,21.755,0,0,0,3.185-1.108c1.04-.432,2.061-.911,3.061-1.427s1.977-1.078,2.928-1.681,1.878-1.247,2.845-1.836a13.462,13.462,0,0,1,3.076-1.439,8.007,8.007,0,0,1,3.38-.263,16.148,16.148,0,0,1,3.289.835c1.066.375,2.117.782,3.183,1.151q3.191,1.121,6.458,2.01t6.582,1.568q-3.326-.624-6.6-1.486t-6.474-1.984c-1.068-.366-2.124-.77-3.188-1.138a15.975,15.975,0,0,0-3.263-.814,7.823,7.823,0,0,0-3.317.272,13.346,13.346,0,0,0-3.033,1.436c-.963.58-1.892,1.223-2.85,1.822s-1.942,1.157-2.948,1.674-2.033.991-3.078,1.42a21.852,21.852,0,0,1-3.207,1.1,8.709,8.709,0,0,1-1.685.237,5.49,5.49,0,0,1-1.69-.2,4.509,4.509,0,0,1-.794-.314,4.935,4.935,0,0,1-.721-.458,5.653,5.653,0,0,1-1.167-1.235,8.193,8.193,0,0,1-1.27-3.125A25.8,25.8,0,0,1,226.98,342.69Z" transform="translate(-226.98 -337.65)" fill="#24629f"/>
                      <path id="Path_65678" data-name="Path 65678" d="M232.93,339.11c-.058.441-.141.876-.235,1.31s-.2.864-.319,1.293-.249.852-.4,1.27l-.226.625c-.084.206-.162.413-.253.617.054-.216.117-.429.172-.643l.179-.639.357-1.277.357-1.277C232.686,339.962,232.8,339.535,232.93,339.11Z" transform="translate(-230.713 -334.694)" fill="#24629f"/>
                      <path id="Path_65679" data-name="Path 65679" d="M381.01,313.76a.9.9,0,0,1-.118.4.211.211,0,1,1,.118-.4Z" transform="translate(-353.855 -313.76)" fill="#24629f"/>
                      <path id="Path_65680" data-name="Path 65680" d="M381.023,363.83a1.633,1.633,0,0,1-.462.9.086.086,0,0,1-.122,0,.108.108,0,0,1-.024-.04c-.04-.157-.092-.314-.134-.476a2.4,2.4,0,0,1-.091-.5c.078.152.15.3.218.453a3.367,3.367,0,0,1,.174.476l-.146-.038A4,4,0,0,0,381.023,363.83Z" transform="translate(-353.5 -355.017)" fill="#24629f"/>
                    </g>
                  </g>
                  <path id="Path_65681" data-name="Path 65681" d="M482.03,349.25c.659.213,1.294.476,1.927.749s1.254.568,1.857.908c-.659-.213-1.3-.474-1.927-.749S482.634,349.588,482.03,349.25Z" transform="translate(-437.598 -343.067)" fill="#24629f"/>
                </g>
              </g>
            </g>
          </g>
        </g>
        <g id="Group_57418" data-name="Group 57418">
          <g id="Group_57415" data-name="Group 57415" transform="translate(19.13 0.469)">
            <path id="Path_65682" data-name="Path 65682" d="M265.976,175.179l-.186-.2s-2.536-2.43-4.972-.434a8.513,8.513,0,0,0-1.033,1,.631.631,0,0,0-.338-.228c-.481-.134-1.367,1.32-.927,2.237a3.7,3.7,0,0,0,.188,3.569,5.351,5.351,0,0,0,2.489,2.34,3.026,3.026,0,0,0,1.4-.587s.007,0,.01-.007c.054-.033.1-.068.16-.1.416-.26.845-.556,1.214-.824.092-.066.181-.132.267-.2l.054-.04a19.747,19.747,0,0,0,1.807-1.543C268.248,177.851,265.976,175.179,265.976,175.179Z" transform="translate(-258.156 -173.761)" fill="#ffae96"/>
            <g id="Group_57414" data-name="Group 57414" transform="translate(0.73 2.104)">
              <path id="Path_65683" data-name="Path 65683" d="M282.211,207.352a.523.523,0,0,1-.1.474c-.185.179-.308.054-.308.054a1.116,1.116,0,0,1-.233-.206.638.638,0,0,1-.03-.188S281.817,206.868,282.211,207.352Z" transform="translate(-278.197 -203.452)" fill="#ffc0ad"/>
              <g id="Group_57410" data-name="Group 57410" transform="translate(3.286 3.526)">
                <path id="Path_65684" data-name="Path 65684" d="M282.81,206.954a.237.237,0,0,0,.28-.08.492.492,0,0,0,.087-.287c.005-.056,0-.11.005-.176a.292.292,0,0,1,.106-.2.588.588,0,0,1,.357-.129,1.164,1.164,0,0,0-.263.219.168.168,0,0,0-.042.115c0,.052.005.12,0,.183a.519.519,0,0,1-.164.369A.256.256,0,0,1,282.81,206.954Z" transform="translate(-282.531 -206.08)" fill="#2e2044"/>
                <path id="Path_65685" data-name="Path 65685" d="M281.232,208.687a.064.064,0,0,1,.087.047.063.063,0,0,1-.064.075c-.03-.04-.044-.044-.045-.054S281.218,208.734,281.232,208.687Z" transform="translate(-281.209 -208.229)" fill="#2e2044"/>
              </g>
              <path id="Path_65686" data-name="Path 65686" d="M264.4,198.3a1,1,0,1,1,.042-1.42A1.006,1.006,0,0,1,264.4,198.3Z" transform="translate(-262.647 -194.696)" fill="#ffc0ad"/>
              <path id="Path_65687" data-name="Path 65687" d="M282.135,216.042c-.371.268-.8.564-1.214.824-.056.035-.106.07-.16.1,0,0-.007,0-.01.007a.962.962,0,0,1-.347-.237,1,1,0,1,1,1.46-1.376A.988.988,0,0,1,282.135,216.042Z" transform="translate(-277.032 -209.958)" fill="#ffc0ad"/>
              <path id="Path_65688" data-name="Path 65688" d="M282.026,193.978a.674.674,0,0,1,.251-.028.81.81,0,0,1,.254.061.748.748,0,0,1,.221.145.711.711,0,0,1,.153.214.129.129,0,0,1-.066.171.125.125,0,0,1-.15-.035l0-.005a1.442,1.442,0,0,0-.129-.143.976.976,0,0,0-.146-.12.818.818,0,0,0-.174-.089,1.372,1.372,0,0,0-.2-.054h0a.06.06,0,0,1-.007-.117Z" transform="translate(-278.562 -192.536)" fill="#2e2044"/>
              <path id="Path_65689" data-name="Path 65689" d="M294.638,205.6a.7.7,0,0,0,.044-.249.764.764,0,0,0-.047-.256.725.725,0,0,0-.336-.4.129.129,0,0,0-.148.207l0,0a1.662,1.662,0,0,1,.134.136.988.988,0,0,1,.111.153.834.834,0,0,1,.078.179,1.242,1.242,0,0,1,.042.2v0a.06.06,0,0,0,.068.052A.055.055,0,0,0,294.638,205.6Z" transform="translate(-288.577 -201.404)" fill="#2e2044"/>
              <path id="Path_65690" data-name="Path 65690" d="M274.34,211.9a1.4,1.4,0,0,1,.071.16,1.593,1.593,0,0,1,.051.169.2.2,0,0,1-.122-.329Z" transform="translate(-272.213 -207.36)" fill="#2e2044"/>
              <g id="Group_57411" data-name="Group 57411" transform="translate(2.83 2.246)">
                <path id="Path_65691" data-name="Path 65691" d="M279.166,199.305c-.2.186-.436.253-.533.15s-.017-.338.181-.524.435-.253.533-.15S279.363,199.119,279.166,199.305Z" transform="translate(-278.592 -198.732)" fill="#2e2044"/>
                <path id="Path_65692" data-name="Path 65692" d="M282.335,199.01a.9.9,0,0,0,.435.2.6.6,0,0,1-.561.1Z" transform="translate(-281.58 -198.962)" fill="#2e2044"/>
              </g>
              <g id="Group_57412" data-name="Group 57412" transform="translate(4.368 3.878)">
                <path id="Path_65693" data-name="Path 65693" d="M288,208.675c-.2.186-.436.253-.533.15s-.017-.338.181-.524.436-.253.533-.15S288.193,208.49,288,208.675Z" transform="translate(-287.422 -208.102)" fill="#2e2044"/>
                <path id="Path_65694" data-name="Path 65694" d="M291.165,208.39a.9.9,0,0,0,.435.2.6.6,0,0,1-.561.1Z" transform="translate(-290.41 -208.34)" fill="#2e2044"/>
              </g>
              <path id="Path_65695" data-name="Path 65695" d="M275.685,205.84a4.025,4.025,0,0,0,.162.834,1.722,1.722,0,0,0,.169.369,3.231,3.231,0,0,0,.251.352.882.882,0,0,1-.39-.246,1.07,1.07,0,0,1-.242-.406,1.271,1.271,0,0,1-.063-.462A1.054,1.054,0,0,1,275.685,205.84Z" transform="translate(-273.266 -202.356)" fill="#2e2044"/>
              <g id="Group_57413" data-name="Group 57413">
                <path id="Path_65696" data-name="Path 65696" d="M263.988,186.1a.2.2,0,0,1,.124-.237.3.3,0,0,1,.3.051.458.458,0,0,1,.159.261.948.948,0,0,1,.016.277,1.36,1.36,0,0,1-.43.923,3.835,3.835,0,0,0,.2-.939.538.538,0,0,0-.068-.39.185.185,0,0,0-.152-.075A.169.169,0,0,0,263.988,186.1Z" transform="translate(-263.694 -185.841)" fill="#2e2044"/>
                <path id="Path_65697" data-name="Path 65697" d="M262.386,190.169a.286.286,0,0,1-.007-.275.375.375,0,0,1,.225-.2.379.379,0,0,1,.3.035.279.279,0,0,1,.15.23.584.584,0,0,0-.213-.063.461.461,0,0,0-.167.016.436.436,0,0,0-.148.082A.57.57,0,0,0,262.386,190.169Z" transform="translate(-262.347 -189.011)" fill="#2e2044"/>
              </g>
            </g>
          </g>
          <g id="Group_57417" data-name="Group 57417">
            <path id="Path_65698" data-name="Path 65698" d="M176.823,174.19a5.87,5.87,0,0,0-3.58-2.867,6.077,6.077,0,0,0-4.643.453,3.334,3.334,0,0,0-2.61.934c-.73.613-1.34,1.369-2.115,1.921a6.475,6.475,0,0,1-3.716,1.1,13.2,13.2,0,0,1-3.866-.65,16.214,16.214,0,0,0-3.611-.866,3.926,3.926,0,0,0-3.345,1.268,6.116,6.116,0,0,0-.97,4.148,5.145,5.145,0,0,0,1.831,3.7,7.2,7.2,0,0,0,4.031,1.164,8.525,8.525,0,0,1,3.174,1.641c.314-.315.625-.6.913-.848l0-.007.143-.113c.024-.021.054-.044.082-.066.443-.369.815-.638,1.03-.787.082-.059.153-.108.2-.138a.153.153,0,0,0,.009-.016.178.178,0,0,0,.017-.024c.007-.01.016-.021.024-.035s.023-.026.035-.042.028-.033.042-.049a1.374,1.374,0,0,1,1.158-.458c.854-.514,1.749-.97,2.491-1.326a5.125,5.125,0,0,0,2.293-1.888,25.45,25.45,0,0,1,1.455-2.576l.218-.329a4.416,4.416,0,0,1,.354-2.091c-.439-.918.453-2.369.934-2.237a.618.618,0,0,1,.258.143,4.086,4.086,0,0,1,.136,1.742,3.115,3.115,0,0,0,.664-.69,8.971,8.971,0,0,0,.713.6,5.543,5.543,0,0,0,1.9,1.11,2.8,2.8,0,0,0,2.589-.653,8.715,8.715,0,0,0-.925,2.526.942.942,0,0,0,.279.965,35.474,35.474,0,0,1-3.883,2.4,1.891,1.891,0,0,1-.643-.314,1.244,1.244,0,0,0-.376.725c.01.537,1.049.62,1.969.974a12.588,12.588,0,0,1,.8-1.573,4.139,4.139,0,0,1,2.287-1.859,3.618,3.618,0,0,0,1.833-1.042,3.439,3.439,0,0,0,.84-1.432A3.574,3.574,0,0,0,176.823,174.19Z" transform="translate(-148.342 -171.067)" fill="#2e2044"/>
            <g id="Group_57416" data-name="Group 57416" transform="translate(3.099 0.594)" opacity="0.5">
              <path id="Path_65699" data-name="Path 65699" d="M169.648,189.78a8.535,8.535,0,0,0,2.536,3.676,6.089,6.089,0,0,0,1.969,1.059,4.918,4.918,0,0,0,4.292-.556,15.283,15.283,0,0,0,1.8-1.35,17.907,17.907,0,0,1,1.8-1.383,5.733,5.733,0,0,1,2.106-.878.083.083,0,0,1,.1.068.082.082,0,0,1-.035.082,13.6,13.6,0,0,0-2.115,1.89c-.65.692-1.253,1.432-1.906,2.131a11.717,11.717,0,0,1-2.162,1.89,6.16,6.16,0,0,1-2.685,1.012,5.122,5.122,0,0,1-2.8-.547,7.506,7.506,0,0,1-2.259-1.756,8.087,8.087,0,0,1-1.5-2.434,5.724,5.724,0,0,1-.373-2.81,5.715,5.715,0,0,0,.416,2.793,8.155,8.155,0,0,0,1.521,2.39,7.419,7.419,0,0,0,2.244,1.711,5,5,0,0,0,2.739.509,6.033,6.033,0,0,0,2.615-1,11.736,11.736,0,0,0,2.127-1.873c.646-.7,1.246-1.437,1.9-2.138a13.562,13.562,0,0,1,2.146-1.909l.061.15a5.6,5.6,0,0,0-2.049.847,17.952,17.952,0,0,0-1.791,1.368,15.34,15.34,0,0,1-1.826,1.355,5.368,5.368,0,0,1-2.139.775,5.3,5.3,0,0,1-2.258-.244,6.059,6.059,0,0,1-1.984-1.1A8.535,8.535,0,0,1,169.648,189.78Z" transform="translate(-167.983 -187.114)" fill="#2e2044"/>
              <path id="Path_65700" data-name="Path 65700" d="M166.13,223.491a6.192,6.192,0,0,1,1.516-.934,6.433,6.433,0,0,1,1.726-.467,6.711,6.711,0,0,1,1.793.035c.592.08,1.174.2,1.756.3a7.713,7.713,0,0,0,1.753.129,4.109,4.109,0,0,0,.861-.139,3.845,3.845,0,0,0,.8-.336,3.762,3.762,0,0,0,1.258-1.2,3.651,3.651,0,0,0,.6-1.648,3.579,3.579,0,0,1-.523,1.693,3.849,3.849,0,0,1-1.261,1.268,3.709,3.709,0,0,1-1.719.519,7.994,7.994,0,0,1-1.791-.115c-.587-.1-1.167-.228-1.751-.314a8.224,8.224,0,0,0-.878-.085,7.02,7.02,0,0,0-.878.026,6.362,6.362,0,0,0-1.709.413A6.6,6.6,0,0,0,166.13,223.491Z" transform="translate(-166.13 -211.434)" fill="#2e2044"/>
              <path id="Path_65701" data-name="Path 65701" d="M274.467,176.707a7.4,7.4,0,0,0-1.975-.357c-.669-.049-1.341-.051-2.016-.1a6.648,6.648,0,0,1-1.989-.416,3.6,3.6,0,0,1-1.632-1.219l.155-.068a3.652,3.652,0,0,0,2.458,2.709,3.758,3.758,0,0,0,1.906.091,3.854,3.854,0,0,0,1.735-.834,3.854,3.854,0,0,1-3.679.871,3.686,3.686,0,0,1-1.672-1.045,3.841,3.841,0,0,1-.916-1.753.086.086,0,0,1,.066-.1.088.088,0,0,1,.091.035,3.454,3.454,0,0,0,1.55,1.172,6.919,6.919,0,0,0,1.942.429c.665.068,1.34.085,2.012.15A6.965,6.965,0,0,1,274.467,176.707Z" transform="translate(-249.294 -174.476)" fill="#2e2044"/>
              <path id="Path_65702" data-name="Path 65702" d="M301.767,194.75a7.79,7.79,0,0,0-.247,1.733,2.316,2.316,0,0,0,.179.831,1.675,1.675,0,0,0,.519.685,1.372,1.372,0,0,1-.643-.625,2.013,2.013,0,0,1-.23-.885,3.1,3.1,0,0,1,.115-.9A5.682,5.682,0,0,1,301.767,194.75Z" transform="translate(-277.789 -191.218)" fill="#2e2044"/>
            </g>
          </g>
        </g>
        <g id="Group_57430" data-name="Group 57430" transform="translate(3.976 4.417)">
          <g id="Group_57426" data-name="Group 57426" transform="translate(0.199 1.427)">
            <path id="Path_65703" data-name="Path 65703" d="M319.611,209.393a.312.312,0,0,0-.227.073c-.334.214-.606.523-.942.737.315-.429.568-.949.885-1.378a.658.658,0,0,0,.127-.232.188.188,0,0,0-.08-.216c-.1-.047-.23.045-.322.131q-.617.575-1.235,1.148a4.106,4.106,0,0,0,.993-1.733c.023-.12.021-.263-.078-.322a.245.245,0,0,0-.253.031.8.8,0,0,0-.186.2l-1.056,1.472c.183-.382.368-.763.55-1.143a.906.906,0,0,0,.1-.291.25.25,0,0,0-.11-.253.293.293,0,0,0-.293.042.963.963,0,0,0-.214.237q-.473.669-.9,1.364c-.068.11-.164.235-.286.228-.148-.009-.186-.2-.2-.341a.779.779,0,0,0-.108-.368.339.339,0,0,0-.333-.153.449.449,0,0,0-.312.314,1.405,1.405,0,0,0-.04.442,4.274,4.274,0,0,1-.293,1.533c-.028.073-.059.146-.089.22l0,0c-1.359,1.319-5.432,5.211-10.149,9.083-2.676-1.519-5.2-3.207-7.277-4.66-.183.294-.364.591-.545.885q-.844,1.7-1.55,3.453c-.268.669-.523,1.343-.773,2.021,1.584.819,3.259,1.6,4.874,2.347.476.221,1.312.613,2.221,1.04a6.237,6.237,0,0,0,6.991-1.159c.46-.446.883-.869,1.2-1.209,3.408-3.664,6.327-7.782,7.2-9.919.064-.084.124-.174.183-.247.232-.284.474-.563.721-.835.287-.314.587-.618.9-.913a3.312,3.312,0,0,0,1-1.3C319.738,209.6,319.734,209.425,319.611,209.393Z" transform="translate(-273.139 -207.061)" fill="#ffae96"/>
            <g id="Group_57425" data-name="Group 57425">
              <g id="Group_57420" data-name="Group 57420" transform="translate(6.935)">
                <g id="Group_57419" data-name="Group 57419">
                  <path id="Path_65704" data-name="Path 65704" d="M213.122,214a15.321,15.321,0,0,1,.873,1.958,24.614,24.614,0,0,0,6.663,1.014,27.307,27.307,0,0,0,7.406-1.15l.6-.167c.066-.443.111-.819.131-1.1,0-.049.049-.451.092-.909-.044-.024-.089-.047-.129-.071.012-.148.024-.3.033-.449l1.005-.023-.08-.044c-.876-1.132-3.651-1.883-5.336-2.644-.976-.439-2.162-.481-2.176-1.063a1.188,1.188,0,0,1,.357-.714l.07-.08-1.606-3.944-.636.172-.446.674a25.831,25.831,0,0,0-1.448,2.582,5.138,5.138,0,0,1-2.286,1.9,22.79,22.79,0,0,0-4.087,2.428A13.854,13.854,0,0,0,213.122,214Z" transform="translate(-212.12 -204.61)" fill="#ffae96"/>
                  <path id="Path_65705" data-name="Path 65705" d="M246.39,246.56a1.977,1.977,0,0,1,.6.138,1.94,1.94,0,0,1,.538.3,2.169,2.169,0,0,1-1.139-.439Z" transform="translate(-240.42 -239.252)" fill="#ffae96" opacity="0.5"/>
                </g>
                <path id="Path_65706" data-name="Path 65706" d="M260.757,212.464a1.182,1.182,0,0,0-.357.714,7.673,7.673,0,0,1-1.472-1.679,3.257,3.257,0,0,1-.528-2.249,3.04,3.04,0,0,0,.493,1.185A6.238,6.238,0,0,0,260.757,212.464Z" transform="translate(-250.318 -208.442)" fill="#2e2044"/>
              </g>
              <g id="Group_57424" data-name="Group 57424" transform="translate(0 6.289)">
                <path id="Path_65707" data-name="Path 65707" d="M196.925,242.825a10.873,10.873,0,0,0-2.582-1.578c-.209-.125-.331-.2-.331-.2a3.337,3.337,0,0,0-1.388-.341l.768.3a5.99,5.99,0,0,1-4.941,3.5c-3.7.335-8.409-2.962-8.409-2.962l.812-.479h0a1.374,1.374,0,0,0-1.158.458.347.347,0,0,0-.042.049c-.012.016-.024.03-.035.042s-.017.024-.024.035a.181.181,0,0,1-.017.024.161.161,0,0,1-.009.016c-.052.031-.122.078-.2.138-.214.148-.587.418-1.03.787-.03.023-.059.045-.082.066l-.143.113,0,.007c-.287.247-.6.533-.913.848a11.151,11.151,0,0,0-1.784,2.293,53.478,53.478,0,0,0-3.1,8.294s5.958-.51,8.207-1.34l.056-.089.758,3.078c7.522,2.93,12.8-.254,12.8-.254.253-.913.749-2.874,1.275-4.977l3.069,1.493,3.425-5.876A55.14,55.14,0,0,0,196.925,242.825Z" transform="translate(-172.31 -240.71)" fill="#ffa430"/>
                <g id="Group_57423" data-name="Group 57423" transform="translate(1.219 1.282)">
                  <path id="Path_65708" data-name="Path 65708" d="M219.94,292.256c.2-.632.439-1.246.676-1.861s.484-1.225.763-1.826a14.271,14.271,0,0,1-.6,1.89A14.125,14.125,0,0,1,219.94,292.256Z" transform="translate(-212.862 -281.515)" fill="#ffa430" opacity="0.5"/>
                  <g id="Group_57422" data-name="Group 57422" opacity="0.5">
                    <g id="Group_57421" data-name="Group 57421">
                      <path id="Path_65709" data-name="Path 65709" d="M214.54,248.07a15.239,15.239,0,0,0,1.881,1.449,14.933,14.933,0,0,0,4.312,1.918l.577.141.582.115.587.1.591.073c-.2-.007-.4-.016-.6-.028l-.594-.057-.591-.092-.587-.118a12.474,12.474,0,0,1-4.353-1.939A11.185,11.185,0,0,1,214.54,248.07Z" transform="translate(-208.403 -248.07)" fill="#ffa430"/>
                      <path id="Path_65710" data-name="Path 65710" d="M199.76,253.883a2.71,2.71,0,0,1,1.425.023,4.583,4.583,0,0,1,1.3.615,22.259,22.259,0,0,1,2.148,1.913,6.8,6.8,0,0,0,1.139.847,5.635,5.635,0,0,0,1.3.549,5,5,0,0,0,2.789,0,9.511,9.511,0,0,0,2.455-1.42,4.562,4.562,0,0,1,1.315-.622,4.384,4.384,0,0,1,1.451-.066,4.287,4.287,0,0,0,1.409-.057,2.6,2.6,0,0,0,1.178-.742,4.249,4.249,0,0,0,.772-1.19c.2-.436.347-.89.5-1.345a12.281,12.281,0,0,1-.456,1.364,4.274,4.274,0,0,1-.751,1.23,2.659,2.659,0,0,1-1.211.791,4.354,4.354,0,0,1-1.446.085,4.456,4.456,0,0,0-1.406.077,4.359,4.359,0,0,0-1.266.61c-.4.261-.779.552-1.183.817a5.007,5.007,0,0,1-1.308.638,5.146,5.146,0,0,1-2.881-.017,5.949,5.949,0,0,1-2.488-1.448,22.557,22.557,0,0,0-2.106-1.942,4.5,4.5,0,0,0-1.268-.641A2.773,2.773,0,0,0,199.76,253.883Z" transform="translate(-196.197 -251.637)" fill="#ffa430"/>
                      <path id="Path_65711" data-name="Path 65711" d="M192.56,265.364a2.337,2.337,0,0,1,1.449-.148,3.482,3.482,0,0,1,1.352.6,9.618,9.618,0,0,1,1.958,2.209,12.659,12.659,0,0,0,.92,1.141,4.572,4.572,0,0,0,1.125.906,4.448,4.448,0,0,0,2.812.423,9.072,9.072,0,0,0,2.739-.984,12.656,12.656,0,0,1,2.737-1.124c.483-.113.969-.185,1.444-.3a4.255,4.255,0,0,0,1.35-.533,3.947,3.947,0,0,0,1.716-2.294,3.926,3.926,0,0,1-1.671,2.366,4.324,4.324,0,0,1-1.371.568c-.479.122-.967.2-1.439.321a13.333,13.333,0,0,0-2.7,1.136,9.239,9.239,0,0,1-2.784,1.014,4.607,4.607,0,0,1-2.914-.456,4.807,4.807,0,0,1-1.158-.942,11.337,11.337,0,0,1-.918-1.165,9.579,9.579,0,0,0-1.9-2.219,3.4,3.4,0,0,0-1.31-.62A2.364,2.364,0,0,0,192.56,265.364Z" transform="translate(-190.252 -262.186)" fill="#ffa430"/>
                      <path id="Path_65712" data-name="Path 65712" d="M187.42,277.866a2.286,2.286,0,0,1,.493-.233,2.672,2.672,0,0,1,.538-.1,3.158,3.158,0,0,1,1.089.125,4.781,4.781,0,0,1,1.852,1.155c.538.5,1.005,1.057,1.521,1.561a5.409,5.409,0,0,0,1.742,1.228,4.24,4.24,0,0,0,2.1.223,12.639,12.639,0,0,0,2.1-.5,16.6,16.6,0,0,1,2.115-.545,4.744,4.744,0,0,1,2.167.092,4.848,4.848,0,0,0-2.151-.007,16.634,16.634,0,0,0-2.089.591,11.591,11.591,0,0,1-2.125.526,4.391,4.391,0,0,1-2.186-.218,5.594,5.594,0,0,1-1.789-1.277c-.517-.517-.984-1.073-1.5-1.577a4.712,4.712,0,0,0-1.786-1.171,3.084,3.084,0,0,0-1.061-.162,2.514,2.514,0,0,0-.533.082A2.1,2.1,0,0,0,187.42,277.866Z" transform="translate(-186.007 -272.393)" fill="#ffa430"/>
                      <path id="Path_65713" data-name="Path 65713" d="M179.31,294.782a2.443,2.443,0,0,1,1.746-1.124,2.33,2.33,0,0,1,1.077.092,3.531,3.531,0,0,1,.949.507,18.882,18.882,0,0,0,1.662,1.286,2.381,2.381,0,0,0,.969.334,1.6,1.6,0,0,0,1.007-.193,1.567,1.567,0,0,1-1.012.277,2.481,2.481,0,0,1-1.028-.3,15.935,15.935,0,0,1-1.7-1.263,3.4,3.4,0,0,0-.9-.5,2.4,2.4,0,0,0-1.009-.11,2.494,2.494,0,0,0-.977.312A2.446,2.446,0,0,0,179.31,294.782Z" transform="translate(-179.31 -285.695)" fill="#ffa430"/>
                      <path id="Path_65714" data-name="Path 65714" d="M221.62,307.816a2.372,2.372,0,0,1,1.8-.324,4.448,4.448,0,0,1,1.7.768c.517.352.984.763,1.481,1.125a5.091,5.091,0,0,0,1.611.847A3.19,3.19,0,0,0,230,310.2a16.393,16.393,0,0,0,1.728-.655,5.466,5.466,0,0,1,1.81-.46,2.378,2.378,0,0,1,1.732.582,2.377,2.377,0,0,0-1.728-.5,5.422,5.422,0,0,0-1.763.5,14.083,14.083,0,0,1-1.739.685,4.015,4.015,0,0,1-.934.155,3,3,0,0,1-.946-.113,5.3,5.3,0,0,1-1.657-.887c-.5-.375-.967-.782-1.465-1.145a4.343,4.343,0,0,0-1.641-.794A2.379,2.379,0,0,0,221.62,307.816Z" transform="translate(-214.249 -297.101)" fill="#ffa430"/>
                      <path id="Path_65715" data-name="Path 65715" d="M225.45,319.926a1.531,1.531,0,0,1,.766-.28,2.357,2.357,0,0,1,.824.084,3.4,3.4,0,0,1,.765.322,7.745,7.745,0,0,1,.688.458,9.159,9.159,0,0,0,1.352.9,3.136,3.136,0,0,0,.758.247,3.6,3.6,0,0,0,.8.052,6.585,6.585,0,0,0,1.592-.277c.524-.146,1.035-.34,1.563-.495a8.2,8.2,0,0,1,1.613-.34,3.591,3.591,0,0,1,1.624.206,3.721,3.721,0,0,0-1.613-.122,8.31,8.31,0,0,0-1.582.383,11.764,11.764,0,0,1-3.188.819,3.73,3.73,0,0,1-.834-.063,3.259,3.259,0,0,1-.794-.268,8.161,8.161,0,0,1-1.362-.935,7.516,7.516,0,0,0-.664-.47,3.44,3.44,0,0,0-.733-.334,2.247,2.247,0,0,0-.8-.118A1.569,1.569,0,0,0,225.45,319.926Z" transform="translate(-217.412 -307.171)" fill="#ffa430"/>
                    </g>
                  </g>
                </g>
              </g>
            </g>
          </g>
          <g id="Group_57427" data-name="Group 57427" transform="translate(15.605)">
            <path id="Path_65716" data-name="Path 65716" d="M289.856,196.463l-27.688,6.116a1.815,1.815,0,0,0-1.382,2.164l4.124,18.673a1.815,1.815,0,0,0,2.164,1.381l10.482-2.315,3.974,2.03L284.278,221l10.482-2.315a1.815,1.815,0,0,0,1.381-2.164l-4.123-18.673A1.81,1.81,0,0,0,289.856,196.463Z" transform="translate(-260.743 -196.42)" fill="#fd6e74"/>
            <path id="Path_65717" data-name="Path 65717" d="M328.827,246.614s-1.1-2.55-4.218-1.24a3.054,3.054,0,0,0-1.93,3.075,4.8,4.8,0,0,0,1.329,3.218,15.861,15.861,0,0,0,6.407,4.035.717.717,0,0,0,.723-.146c1.068-.977,4.468-4.357,4.655-7.907,0,0,.155-4.111-3.967-3.911C331.827,243.736,328.769,244.146,328.827,246.614Z" transform="translate(-311.889 -235.488)" fill="#fff"/>
          </g>
          <g id="Group_57429" data-name="Group 57429" transform="translate(0 15.541)">
            <path id="Path_65718" data-name="Path 65718" d="M195.1,288.059c-.232.139-.463.277-.7.388.371-.028.73-.155,1.1-.2l.352.171a.427.427,0,0,1-.117.2,3.315,3.315,0,0,1-1.5.674l-.172.049c-.354.1-.7.211-1.049.333s-.69.253-1.03.394l-.132.061a33.99,33.99,0,0,1-7.261,3.947c-5.841,2.442-12.458,3.974-13.219,1.972-.388-1.024-.2-2.772.31-4.747a50.256,50.256,0,0,0,7.456-1.167l-.176.275.747-.181,10.841-2.62c.1-.085.2-.167.3-.251a4.264,4.264,0,0,0,.981-1.213,1.427,1.427,0,0,1,.244-.371.453.453,0,0,1,.422-.131.337.337,0,0,1,.221.293.8.8,0,0,1-.077.375c-.056.136-.111.319.014.4.106.064.249,0,.361-.066q.708-.408,1.441-.775a.881.881,0,0,1,.3-.106.291.291,0,0,1,.277.1.25.25,0,0,1-.021.273.894.894,0,0,1-.226.209c-.341.251-.683.5-1.024.749l1.625-.8a.778.778,0,0,1,.261-.091.242.242,0,0,1,.237.091c.059.1-.009.226-.084.322a4.115,4.115,0,0,1-1.7,1.057l1.632-.429c.122-.033.275-.054.347.037a.187.187,0,0,1-.03.228.682.682,0,0,1-.221.143C195.585,287.77,195.341,287.914,195.1,288.059Z" transform="translate(-171.167 -285.63)" fill="#ffae96"/>
            <g id="Group_57428" data-name="Group 57428" transform="translate(1.831 4.774)" opacity="0.5">
              <path id="Path_65719" data-name="Path 65719" d="M181.68,338.76c.181.111.333.225.5.327s.328.2.505.315a1.067,1.067,0,0,1-1-.643Z" transform="translate(-181.68 -334.278)" fill="#ffae96"/>
              <path id="Path_65720" data-name="Path 65720" d="M207.28,313.369a2.051,2.051,0,0,1,.733-.289,2.029,2.029,0,0,1,.787-.014,6.8,6.8,0,0,1-.754.185A7.046,7.046,0,0,1,207.28,313.369Z" transform="translate(-202.82 -313.033)" fill="#ffae96"/>
            </g>
          </g>
        </g>
      </g>
      <g id="Group_57433" data-name="Group 57433" transform="translate(10.721 2.064)">
        <g id="Group_57432" data-name="Group 57432">
          <path id="Path_65721" data-name="Path 65721" d="M161.763,145.38a1.021,1.021,0,0,0-1.437-.458,1.048,1.048,0,0,0-.686,1.04,1.655,1.655,0,0,0,.43,1.115,5.461,5.461,0,0,0,2.167,1.435.245.245,0,0,0,.249-.045,4.7,4.7,0,0,0,1.658-2.678,1.252,1.252,0,0,0-1.331-1.373S161.763,144.532,161.763,145.38Z" transform="translate(-159.639 -137.143)" fill="#e5f7f9"/>
          <path id="Path_65722" data-name="Path 65722" d="M195.636,128.824s.057-.58-.648-.657a.642.642,0,0,0-.667.368,1.009,1.009,0,0,0-.084.726,3.328,3.328,0,0,0,.767,1.392.152.152,0,0,0,.148.047,2.873,2.873,0,0,0,1.658-.979.766.766,0,0,0-.331-1.122S195.877,128.366,195.636,128.824Z" transform="translate(-188.184 -123.721)" fill="#e5f7f9"/>
          <path id="Path_65723" data-name="Path 65723" d="M167.6,103.308a.625.625,0,0,0-.9-.221.643.643,0,0,0-.376.662,1.013,1.013,0,0,0,.308.662,3.318,3.318,0,0,0,1.381.786.149.149,0,0,0,.15-.038,2.882,2.882,0,0,0,.9-1.7.764.764,0,0,0-.868-.782S167.561,102.791,167.6,103.308Z" transform="translate(-165.158 -102.669)" fill="#e5f7f9"/>
        </g>
        <path id="Path_65724" data-name="Path 65724" d="M578.043,180.439s.077-.578-.627-.676a.641.641,0,0,0-.678.347,1,1,0,0,0-.106.723,3.349,3.349,0,0,0,.721,1.416.151.151,0,0,0,.146.051,2.873,2.873,0,0,0,1.688-.927.764.764,0,0,0-.294-1.131S578.3,179.988,578.043,180.439Z" transform="translate(-503.968 -166.327)" fill="#e5f7f9"/>
      </g>
    </g>
  </g>
</svg>
