<svg xmlns="http://www.w3.org/2000/svg" width="73.062" height="66.651" viewBox="0 0 73.062 66.651">
  <g id="Untitled-2" transform="translate(-33.304 -48.263)">
    <path id="Path_65725" data-name="Path 65725" d="M108.72,390.606l-2.712,3.941a2.669,2.669,0,0,1-4.4-3.026l2.691-3.911A35.572,35.572,0,0,0,108.72,390.606Z" transform="translate(-56.399 -282.139)" fill="#c92d4b"/>
    <path id="Path_65726" data-name="Path 65726" d="M360.885,395.233a2.67,2.67,0,0,1-3.712-.686l-2.712-3.941a35.418,35.418,0,0,0,4.418-3l2.691,3.911A2.668,2.668,0,0,1,360.885,395.233Z" transform="translate(-267.015 -282.139)" fill="#c92d4b"/>
    <rect id="Rectangle_6637" data-name="Rectangle 6637" width="3.769" height="5.853" transform="translate(43.291 59.662) rotate(-45)" fill="#c92d4b"/>
    <rect id="Rectangle_6638" data-name="Rectangle 6638" width="3.769" height="5.853" transform="translate(92.335 63.801) rotate(-135)" fill="#c92d4b"/>
    <circle id="Ellipse_3388" data-name="Ellipse 3388" cx="31.326" cy="31.326" r="31.326" transform="translate(38.558 52.263)" fill="#e53851"/>
    <path id="Path_65727" data-name="Path 65727" d="M54.244,53.093A34.392,34.392,0,0,0,38.536,69.732a1.763,1.763,0,0,1-3.107.216A14.209,14.209,0,0,1,54.278,49.976,1.764,1.764,0,0,1,54.244,53.093Z" fill="#efcf48"/>
    <g id="Group_57434" data-name="Group 57434" transform="translate(84.471 48.263)">
      <path id="Path_65728" data-name="Path 65728" d="M337.772,53.093a34.391,34.391,0,0,1,15.708,16.639,1.763,1.763,0,0,0,3.107.216,14.209,14.209,0,0,0-18.849-19.972A1.764,1.764,0,0,0,337.772,53.093Z" transform="translate(-336.818 -48.263)" fill="#efcf48"/>
    </g>
    <path id="Path_65729" data-name="Path 65729" d="M116.706,151.3a27.007,27.007,0,1,1,10.543-2.129A26.912,26.912,0,0,1,116.706,151.3Z" transform="translate(-46.822 -40.629)" fill="#fff"/>
    <path id="Path_65730" data-name="Path 65730" d="M248.384,165.589h-.964V147.952a.482.482,0,0,1,.482-.482h0a.482.482,0,0,1,.482.482Z" transform="translate(-178.02 -82.482)" fill="#32325e"/>
    <path id="Path_65731" data-name="Path 65731" d="M251.58,259.168l.457-.848,12.389,6.674a.481.481,0,0,1,.2.652h0a.481.481,0,0,1-.652.2Z" transform="translate(-181.479 -174.645)" fill="#32325e"/>
    <path id="Path_65732" data-name="Path 65732" d="M247.912,107.569h0a.482.482,0,0,1-.482-.482v-2.025a.482.482,0,0,1,.482-.482h0a.482.482,0,0,1,.482.482v2.025A.484.484,0,0,1,247.912,107.569Z" transform="translate(-178.029 -46.823)" fill="#1f1f35"/>
    <path id="Path_65733" data-name="Path 65733" d="M143.354,150.874h0a.48.48,0,0,1-.681,0l-1.431-1.431a.48.48,0,0,1,0-.681h0a.48.48,0,0,1,.681,0l1.431,1.431A.48.48,0,0,1,143.354,150.874Z" transform="translate(-89.624 -83.438)" fill="#1f1f35"/>
    <path id="Path_65734" data-name="Path 65734" d="M100.047,255.432h0a.482.482,0,0,1-.482.482H97.542a.482.482,0,0,1-.482-.482h0a.482.482,0,0,1,.482-.482h2.025A.482.482,0,0,1,100.047,255.432Z" transform="translate(-53.008 -171.843)" fill="#1f1f35"/>
    <path id="Path_65735" data-name="Path 65735" d="M143.354,352.932h0a.48.48,0,0,1,0,.681l-1.431,1.431a.48.48,0,0,1-.681,0h0a.48.48,0,0,1,0-.681l1.431-1.431A.48.48,0,0,1,143.354,352.932Z" transform="translate(-89.624 -253.189)" fill="#1f1f35"/>
    <path id="Path_65736" data-name="Path 65736" d="M247.912,393.31h0a.482.482,0,0,1,.482.482v2.025a.482.482,0,0,1-.482.482h0a.482.482,0,0,1-.482-.482v-2.025A.482.482,0,0,1,247.912,393.31Z" transform="translate(-178.029 -286.878)" fill="#1f1f35"/>
    <path id="Path_65737" data-name="Path 65737" d="M345.408,352.932h0a.48.48,0,0,1,.681,0l1.431,1.431a.48.48,0,0,1,0,.681h0a.481.481,0,0,1-.681,0l-1.431-1.431A.483.483,0,0,1,345.408,352.932Z" transform="translate(-259.372 -253.189)" fill="#1f1f35"/>
    <path id="Path_65738" data-name="Path 65738" d="M385.79,255.432h0a.482.482,0,0,1,.482-.482H388.3a.482.482,0,0,1,.482.482h0a.482.482,0,0,1-.482.482h-2.025A.482.482,0,0,1,385.79,255.432Z" transform="translate(-293.064 -171.843)" fill="#1f1f35"/>
    <path id="Path_65739" data-name="Path 65739" d="M345.4,150.874h0a.48.48,0,0,1,0-.681l1.431-1.431a.48.48,0,0,1,.681,0h0a.48.48,0,0,1,0,.681l-1.431,1.431A.48.48,0,0,1,345.4,150.874Z" transform="translate(-259.366 -83.438)" fill="#1f1f35"/>
    <path id="Path_65740" data-name="Path 65740" d="M213.455,257.81l.681.681-6.527,6.527a.408.408,0,0,1-.578,0l-.1-.1a.408.408,0,0,1,0-.578Z" transform="translate(-144.254 -174.221)" fill="#c92d4b"/>
    <circle id="Ellipse_3389" data-name="Ellipse 3389" cx="2.554" cy="2.554" r="2.554" transform="translate(67.33 81.035)" fill="#1f1f35"/>
  </g>
</svg>
