<svg id="_154" data-name="154" xmlns="http://www.w3.org/2000/svg" xmlns:xlink="http://www.w3.org/1999/xlink" width="154.519" height="103.013" viewBox="0 0 154.519 103.013">
  <defs>
    <linearGradient id="linear-gradient" x1="-0.237" y1="-4.529" x2="1.605" y2="-1.523" gradientUnits="objectBoundingBox">
      <stop offset="0" stop-color="#fff"/>
      <stop offset="1" stop-color="#eee"/>
    </linearGradient>
    <linearGradient id="linear-gradient-2" x1="1.669" y1="-15.055" x2="-1.247" y2="-16.602" xlink:href="#linear-gradient"/>
    <linearGradient id="linear-gradient-3" x1="1.289" y1="-3.183" x2="-0.679" y2="-0.139" xlink:href="#linear-gradient"/>
    <linearGradient id="linear-gradient-4" x1="1.468" y1="3.843" x2="-0.95" y2="1.931" xlink:href="#linear-gradient"/>
  </defs>
  <path id="Path_65249" data-name="Path 65249" d="M0,0H154.519V103.013H0Z" fill="none"/>
  <path id="Path_65250" data-name="Path 65250" d="M312.318,169.5c11.555,0,19.315,10.8,19.315,20.86,0,20.414-32.174,37.119-32.758,37.119S266.1,210.757,266.1,190.36c0-10.061,7.743-20.86,19.315-20.86a17.335,17.335,0,0,1,13.46,6.2,17.267,17.267,0,0,1,13.443-6.2Z" transform="translate(-220.414 -140.399)" fill="#ffc300" fill-rule="evenodd"/>
  <path id="Path_65251" data-name="Path 65251" d="M380.465,249c6.112,0,10.215,5.717,10.215,11.057,0,10.816-17.031,19.675-17.34,19.675S356,270.873,356,260.057c0-5.322,4.1-11.057,10.215-11.057a9.189,9.189,0,0,1,7.125,3.279A9.161,9.161,0,0,1,380.465,249Z" transform="translate(-294.879 -206.25)" fill="#fff" fill-rule="evenodd"/>
  <path id="Path_65252" data-name="Path 65252" d="M216.992,460.464h.687a.289.289,0,0,1,.292.292v.687a.289.289,0,0,1-.292.292h-.687a.3.3,0,0,1-.292-.292v-.687a.289.289,0,0,1,.292-.292Zm2.352,0h.687a.3.3,0,0,1,.292.292v.687a.289.289,0,0,1-.292.292h-.687a.3.3,0,0,1-.292-.292v-.687A.3.3,0,0,1,219.344,460.464Zm2.369,0h.687a.3.3,0,0,1,.292.292v.687a.289.289,0,0,1-.292.292h-.687a.3.3,0,0,1-.292-.292v-.687a.279.279,0,0,1,.292-.292Zm2.352,0h.687a.289.289,0,0,1,.292.292v.687a.289.289,0,0,1-.292.292h-.687a.289.289,0,0,1-.292-.292v-.687a.289.289,0,0,1,.292-.292Zm2.352,0h.687a.289.289,0,0,1,.292.292v.687a.289.289,0,0,1-.292.292h-.687a.289.289,0,0,1-.292-.292v-.687A.3.3,0,0,1,226.418,460.464Zm-6.988,2.575h.687a.3.3,0,0,1,.292.292v.687a.3.3,0,0,1-.292.292h-.687a.289.289,0,0,1-.292-.292v-.687a.289.289,0,0,1,.292-.292Zm2.369,0h.687a.3.3,0,0,1,.292.292v.687a.3.3,0,0,1-.292.292H221.8a.3.3,0,0,1-.292-.292v-.687a.271.271,0,0,1,.292-.292Zm2.352,0h.687a.289.289,0,0,1,.292.292v.687a.3.3,0,0,1-.292.292h-.687a.289.289,0,0,1-.292-.292v-.687A.279.279,0,0,1,224.151,463.039Zm-2.438-5.339h.687a.3.3,0,0,1,.292.292v.687a.289.289,0,0,1-.292.292h-.687a.3.3,0,0,1-.292-.292v-.687a.279.279,0,0,1,.292-.292Zm2.352,0h.687a.289.289,0,0,1,.292.292v.687a.289.289,0,0,1-.292.292h-.687a.289.289,0,0,1-.292-.292v-.687a.289.289,0,0,1,.292-.292Zm75.234,3.279h-.618a.271.271,0,0,0-.275.275v.618a.271.271,0,0,0,.275.275h.618a.271.271,0,0,0,.275-.275v-.618a.271.271,0,0,0-.275-.275Zm-2.163,0h-.618a.271.271,0,0,0-.275.275v.618a.271.271,0,0,0,.275.275h.618a.271.271,0,0,0,.275-.275v-.618A.271.271,0,0,0,297.136,460.979Zm-2.163,0h-.618a.271.271,0,0,0-.275.275v.618a.271.271,0,0,0,.275.275h.618a.271.271,0,0,0,.275-.275v-.618a.271.271,0,0,0-.275-.275Zm-2.146,0h-.618a.271.271,0,0,0-.275.275v.618a.271.271,0,0,0,.275.275h.618a.271.271,0,0,0,.275-.275v-.618A.3.3,0,0,0,292.826,460.979Zm-2.163,0h-.618a.271.271,0,0,0-.275.275v.618a.271.271,0,0,0,.275.275h.618a.271.271,0,0,0,.275-.275v-.618A.271.271,0,0,0,290.663,460.979Zm6.4,2.352h-.618a.271.271,0,0,0-.275.275v.618a.271.271,0,0,0,.275.275h.618a.271.271,0,0,0,.275-.275v-.618a.282.282,0,0,0-.275-.275Zm-2.163,0h-.618a.271.271,0,0,0-.275.275v.618a.271.271,0,0,0,.275.275h.618a.271.271,0,0,0,.275-.275v-.618a.282.282,0,0,0-.275-.275Zm-2.163,0h-.618a.271.271,0,0,0-.275.275v.618a.271.271,0,0,0,.275.275h.618a.271.271,0,0,0,.275-.275v-.618A.282.282,0,0,0,292.741,463.331Zm2.232-4.876h-.618a.271.271,0,0,0-.275.275v.618a.271.271,0,0,0,.275.275h.618a.271.271,0,0,0,.275-.275v-.618a.271.271,0,0,0-.275-.275Zm-2.146,0h-.618a.271.271,0,0,0-.275.275v.618a.271.271,0,0,0,.275.275h.618a.271.271,0,0,0,.275-.275v-.618A.3.3,0,0,0,292.826,458.455Z" transform="translate(-179.495 -379.118)" fill="#e1e4e5" fill-rule="evenodd"/>
  <path id="Path_65253" data-name="Path 65253" d="M671.638,371.334c-1.871,2.163-5.631,1.974-5.631,1.974s-.738-3.691,1.133-5.855,5.631-1.974,5.631-1.974.738,3.691-1.133,5.855Z" transform="translate(-551.543 -302.728)" fill="url(#linear-gradient)"/>
  <path id="Path_65254" data-name="Path 65254" d="M566.991,487.083c1.459-1,1.614-3.348,1.614-3.348s-2.232-.7-3.691.292-1.614,3.348-1.614,3.348,2.232.721,3.691-.292Z" transform="translate(-466.588 -400.484)" fill="url(#linear-gradient-2)"/>
  <path id="Path_65255" data-name="Path 65255" d="M177.877,345.056c2.352,2.386,6.73,1.889,6.73,1.889s.584-4.378-1.768-6.765-6.73-1.889-6.73-1.889-.567,4.378,1.768,6.764Z" transform="translate(-145.822 -280.175)" fill="url(#linear-gradient-3)"/>
  <circle id="Ellipse_3287" data-name="Ellipse 3287" cx="1.37" cy="1.37" r="1.37" transform="translate(77.103 56.046)" fill="#ffc300"/>
  <circle id="Ellipse_3288" data-name="Ellipse 3288" cx="1.889" cy="1.889" r="1.889" transform="translate(52.863 24.757)" fill="#ffc300"/>
  <circle id="Ellipse_3289" data-name="Ellipse 3289" cx="2.163" cy="2.163" r="2.163" transform="translate(108.593 29.118)" fill="#ffc300"/>
  <circle id="Ellipse_3290" data-name="Ellipse 3290" cx="1.236" cy="1.236" r="1.236" transform="translate(82.685 24.5)" fill="#ffc300"/>
  <circle id="Ellipse_3291" data-name="Ellipse 3291" cx="0.944" cy="0.944" r="0.944" transform="translate(125.572 47.369)" fill="#e1e4e5"/>
  <circle id="Ellipse_3292" data-name="Ellipse 3292" cx="1.597" cy="1.597" r="1.597" transform="translate(29.359 46.476)" fill="#e1e4e5"/>
  <circle id="Ellipse_3293" data-name="Ellipse 3293" cx="0.944" cy="0.944" r="0.944" transform="translate(119.151 27.35)" fill="#e1e4e5"/>
  <circle id="Ellipse_3294" data-name="Ellipse 3294" cx="1.597" cy="1.597" r="1.597" transform="translate(19.418 66.048)" fill="#fff"/>
  <circle id="Ellipse_3295" data-name="Ellipse 3295" cx="2.129" cy="2.129" r="2.129" transform="translate(74.564 20.362)" fill="#e1e4e5"/>
  <ellipse id="Ellipse_3296" data-name="Ellipse 3296" cx="1.631" cy="1.305" rx="1.631" ry="1.305" transform="translate(122.894 70.461)" fill="#fff"/>
  <circle id="Ellipse_3297" data-name="Ellipse 3297" cx="1.305" cy="1.305" r="1.305" transform="translate(104.163 17.89)" fill="#e1e4e5"/>
  <path id="Path_65256" data-name="Path 65256" d="M198.719,93.4h.034c.258,3.588,2.919,3.64,2.919,3.64s-2.936.051-2.936,4.206c0-4.138-2.936-4.206-2.936-4.206s2.661-.051,2.919-3.64ZM223.373,79h.034c.189,2.627,2.112,2.661,2.112,2.661s-2.129.034-2.129,3.073c0-3.039-2.129-3.073-2.129-3.073S223.2,81.627,223.373,79Z" transform="translate(-162.184 -65.437)" fill="#e1e4e5"/>
  <path id="Path_65257" data-name="Path 65257" d="M710.72,217.26c3.726-.876,7.657,2.283,7.657,2.283s-2.094,4.584-5.82,5.46-7.657-2.266-7.657-2.266S706.995,218.153,710.72,217.26Z" transform="translate(-583.877 -179.832)" fill="url(#linear-gradient-4)"/>
  <circle id="Ellipse_3298" data-name="Ellipse 3298" cx="2.009" cy="2.009" r="2.009" transform="translate(24.912 34.904)" fill="#ffc300"/>
  <circle id="Ellipse_3299" data-name="Ellipse 3299" cx="1.511" cy="1.511" r="1.511" transform="translate(124.062 55.867)" fill="#ffc300"/>
  <circle id="Ellipse_3300" data-name="Ellipse 3300" cx="2.884" cy="2.884" r="2.884" transform="translate(28.947 72.538)" fill="#ffc300"/>
  <circle id="Ellipse_3301" data-name="Ellipse 3301" cx="1.614" cy="1.614" r="1.614" transform="translate(103.081 73.98)" fill="#e1e4e5"/>
  <circle id="Ellipse_3302" data-name="Ellipse 3302" cx="1.374" cy="1.374" r="1.374" transform="translate(62.924 84.247)" fill="#e1e4e5"/>
  <circle id="Ellipse_3303" data-name="Ellipse 3303" cx="1.339" cy="1.339" r="1.339" transform="translate(113.675 52.811)" fill="#e1e4e5"/>
  <circle id="Ellipse_3304" data-name="Ellipse 3304" cx="1.786" cy="1.786" r="1.786" transform="translate(118.104 73.585)" fill="#e1e4e5"/>
  <ellipse id="Ellipse_3305" data-name="Ellipse 3305" cx="1.374" cy="1.099" rx="1.374" ry="1.099" transform="translate(20.242 48.399)" fill="#e1e4e5"/>
  <circle id="Ellipse_3306" data-name="Ellipse 3306" cx="2.799" cy="2.799" r="2.799" transform="translate(42.905 17.203)" fill="#e1e4e5"/>
  <path id="Path_65258" data-name="Path 65258" d="M217.289,301.393h-.034c-.206-3.022-2.455-3.056-2.455-3.056s2.472-.052,2.472-3.537c0,3.485,2.472,3.537,2.472,3.537s-2.249.051-2.455,3.056Zm48.347,32.277H265.6c-.155-2.249-1.786-2.283-1.786-2.283s1.786-.034,1.786-2.627c0,2.592,1.8,2.627,1.8,2.627S265.791,331.421,265.637,333.67Z" transform="translate(-177.921 -244.186)" fill="#e1e4e5"/>
</svg>
