<svg xmlns="http://www.w3.org/2000/svg" width="124.36" height="79.571" viewBox="0 0 124.36 79.571">
  <g id="papercup_telephone_Converted_" data-name="papercup_telephone [Converted]" transform="translate(-7.509 -6.331)">
    <g id="Group_57480" data-name="Group 57480" transform="translate(30.505 6.331)">
      <g id="Group_57479" data-name="Group 57479">
        <g id="Group_57478" data-name="Group 57478">
          <g id="Group_57477" data-name="Group 57477">
            <g id="Group_57476" data-name="Group 57476">
              <g id="Group_57475" data-name="Group 57475">
                <g id="Group_57474" data-name="Group 57474">
                  <g id="Group_57473" data-name="Group 57473">
                    <path id="Path_65802" data-name="Path 65802" d="M617.8,175.871a5.1,5.1,0,0,1-.039-.662,5.977,5.977,0,0,1,7.206-5.858,7.911,7.911,0,0,1,14.785,1.868c.037,0,.074-.015.112-.015a5.374,5.374,0,0,1,5.273,4.667H617.8Z" transform="translate(-617.76 -165.01)" fill="#f5f5f5"/>
                  </g>
                </g>
              </g>
            </g>
          </g>
        </g>
      </g>
    </g>
    <g id="Group_57489" data-name="Group 57489" transform="translate(61.042 13.319)">
      <g id="Group_57488" data-name="Group 57488">
        <g id="Group_57487" data-name="Group 57487">
          <g id="Group_57486" data-name="Group 57486">
            <g id="Group_57485" data-name="Group 57485">
              <g id="Group_57484" data-name="Group 57484">
                <g id="Group_57483" data-name="Group 57483">
                  <g id="Group_57482" data-name="Group 57482">
                    <g id="Group_57481" data-name="Group 57481">
                      <path id="Path_65803" data-name="Path 65803" d="M1412.22,312.314a4.811,4.811,0,0,1,6.4-4.372,6.508,6.508,0,0,1,7.016-3.967c0-.025,0-.05,0-.076a9.2,9.2,0,0,1,18.4,0,6.572,6.572,0,0,1,6.314,8.414Z" transform="translate(-1412.22 -294.7)" fill="#f5f5f5"/>
                    </g>
                  </g>
                </g>
              </g>
            </g>
          </g>
        </g>
      </g>
    </g>
    <rect id="Rectangle_6641" data-name="Rectangle 6641" width="113.719" height="0.162" transform="translate(13.907 85.74)" fill="#263238"/>
    <g id="Group_57523" data-name="Group 57523" transform="translate(74.953 20.019)">
      <g id="Group_57499" data-name="Group 57499">
        <g id="Group_57491" data-name="Group 57491" transform="translate(2.736)">
          <g id="Group_57490" data-name="Group 57490">
            <path id="Path_65804" data-name="Path 65804" d="M1721.219,481.234l6.094-58.624a4.034,4.034,0,0,1,3.919-3.55h25.437a3.141,3.141,0,0,1,3.181,3.55l-6.094,58.624a4.034,4.034,0,0,1-3.919,3.55H1724.4A3.14,3.14,0,0,1,1721.219,481.234Z" transform="translate(-1721.2 -419.06)" fill="#465a63"/>
          </g>
        </g>
        <g id="Group_57493" data-name="Group 57493">
          <g id="Group_57492" data-name="Group 57492">
            <path id="Path_65805" data-name="Path 65805" d="M1670.439,481.234l6.094-58.624a4.034,4.034,0,0,1,3.919-3.55h25.437a3.141,3.141,0,0,1,3.181,3.55l-6.094,58.624a4.033,4.033,0,0,1-3.918,3.55H1673.62A3.141,3.141,0,0,1,1670.439,481.234Z" transform="translate(-1670.42 -419.06)" fill="#263238"/>
          </g>
        </g>
        <g id="Group_57495" data-name="Group 57495" transform="translate(2.092 5.345)">
          <g id="Group_57494" data-name="Group 57494">
            <path id="Path_65806" data-name="Path 65806" d="M1716.784,518.27h25.143a1.727,1.727,0,0,1,1.749,1.952l-5.366,51.616a2.218,2.218,0,0,1-2.155,1.952h-25.143a1.727,1.727,0,0,1-1.749-1.952l5.366-51.616A2.219,2.219,0,0,1,1716.784,518.27Z" transform="translate(-1709.252 -518.27)" fill="#fff"/>
          </g>
        </g>
        <g id="Group_57498" data-name="Group 57498" transform="translate(17.5 2.073)">
          <g id="Group_57497" data-name="Group 57497">
            <g id="Group_57496" data-name="Group 57496">
              <path id="Path_65807" data-name="Path 65807" d="M1995.224,458.007h0a.542.542,0,0,1,.527-.477h7.43a.423.423,0,0,1,.428.477h0a.543.543,0,0,1-.527.477h-7.43A.422.422,0,0,1,1995.224,458.007Z" transform="translate(-1995.221 -457.53)" fill="#465a63"/>
            </g>
          </g>
          <path id="Path_65808" data-name="Path 65808" d="M2163.428,458.007a.543.543,0,0,1-.527.477.422.422,0,0,1-.427-.477.543.543,0,0,1,.527-.477A.422.422,0,0,1,2163.428,458.007Z" transform="translate(-2153.46 -457.53)" fill="#465a63"/>
        </g>
      </g>
      <g id="Group_57522" data-name="Group 57522" transform="translate(4.005 8.968)">
        <g id="Group_57519" data-name="Group 57519">
          <g id="Group_57516" data-name="Group 57516" transform="translate(5.285)">
            <g id="Group_57508" data-name="Group 57508" transform="translate(0 18.51)">
              <g id="Group_57500" data-name="Group 57500" transform="translate(7.13)">
                <path id="Path_65809" data-name="Path 65809" d="M1979.776,929.419l-.357,3.906-2.552,4.55-1.688-4.909.358-3.906Z" transform="translate(-1975.18 -929.06)" fill="#ffd3c9"/>
              </g>
              <path id="Path_65810" data-name="Path 65810" d="M1977.449,929.06l4.24.359-.264,2.889a8.752,8.752,0,0,1-2.424-.037,8.441,8.441,0,0,1-1.8-.488Z" transform="translate(-1969.961 -929.06)" fill="#f4f4f4"/>
              <g id="Group_57501" data-name="Group 57501" transform="translate(0 3.906)">
                <path id="Path_65811" data-name="Path 65811" d="M1854.22,1001.919l4.943,1.905-1.923,11.1.9,5.663-15.288-1.322,2.1-5.382.17-11.354,4.86-.974,1.688,4.909Z" transform="translate(-1842.85 -1001.56)" fill="#5e84fb"/>
              </g>
              <g id="Group_57502" data-name="Group 57502" transform="translate(7.477 16.769)" opacity="0.07">
                <path id="Path_65812" data-name="Path 65812" d="M1988.529,1240.8l.088-.506a13.255,13.255,0,0,1-4.893.231l-.015.188c-1.234-.33-2.14-.321-2.091,1.04.025.7,1.37.767,1.937.864l-.024.291a21.742,21.742,0,0,0,5.293-.258Z" transform="translate(-1981.615 -1240.29)"/>
              </g>
              <g id="Group_57503" data-name="Group 57503" transform="translate(6.181 3.906)">
                <path id="Path_65813" data-name="Path 65813" d="M1958.509,1001.56l-.949.19,2.456,6.7,3.646-6.154-.913-.377-2.552,4.55Z" transform="translate(-1957.56 -1001.56)" fill="#f4f4f4"/>
              </g>
              <g id="Group_57504" data-name="Group 57504" transform="translate(9.559 4.265)">
                <path id="Path_65814" data-name="Path 65814" d="M2022.08,1008.22l.913.352.053,3.5-1.25-.739-1.526.118Z" transform="translate(-2020.27 -1008.22)" fill="#f4f4f4"/>
              </g>
              <g id="Group_57505" data-name="Group 57505" transform="translate(5.481 3.906)">
                <path id="Path_65815" data-name="Path 65815" d="M1946.219,1001.56l-.949.19-.7,3.438,1.365-.518,1.481.372Z" transform="translate(-1944.57 -1001.56)" fill="#f4f4f4"/>
              </g>
              <g id="Group_57507" data-name="Group 57507" transform="translate(0.115 21.705)">
                <g id="Group_57506" data-name="Group 57506">
                  <path id="Path_65816" data-name="Path 65816" d="M1844.99,1337.5l14.131,1.533.113-6.016-13.314-1.128Z" transform="translate(-1844.99 -1331.89)" fill="#263238"/>
                </g>
              </g>
            </g>
            <g id="Group_57515" data-name="Group 57515" transform="translate(2.598)">
              <g id="Group_57509" data-name="Group 57509" transform="translate(13.389 4.428)">
                <path id="Path_65817" data-name="Path 65817" d="M2139.56,670.716s4.544-5.186,8.866-1.989c5.723,4.233-4.431,13.4,3.187,15.047-3.971,4.669-10.782.354-7.192-6.3C2147.983,670.88,2143.856,667.213,2139.56,670.716Z" transform="translate(-2139.56 -667.686)" fill="#263238"/>
              </g>
              <g id="Group_57510" data-name="Group 57510" transform="translate(0 2.571)">
                <path id="Path_65818" data-name="Path 65818" d="M1891.281,640.693c-.928,5.092,1.1,9.636,5.556,10.658s9.2-2.072,10.371-6.965-1.493-9.69-5.946-10.712C1893.54,631.9,1892.183,635.745,1891.281,640.693Z" transform="translate(-1891.061 -633.234)" fill="#ffd3c9"/>
              </g>
              <g id="Group_57513" data-name="Group 57513" transform="translate(3.104 15.305)">
                <g id="Group_57512" data-name="Group 57512">
                  <g id="Group_57511" data-name="Group 57511">
                    <path id="Path_65819" data-name="Path 65819" d="M1948.964,869.578a18.033,18.033,0,0,1,4.02.772.217.217,0,0,1,.138.236c-.075.516-.476,2.011-2.59,1.643a1.957,1.957,0,0,1-1.8-2.48A.217.217,0,0,1,1948.964,869.578Z" transform="translate(-1948.679 -869.577)" fill="#e87e86"/>
                  </g>
                </g>
              </g>
              <g id="Group_57514" data-name="Group 57514" transform="translate(0.111)">
                <path id="Path_65820" data-name="Path 65820" d="M1906.562,593.91a41.479,41.479,0,0,1-13.433-1.7c1.368-5.7,7.689-9.025,14.676-4.766,7.741,4.719,2.206,14.49-1.77,17.2a18.565,18.565,0,0,1-.45-5.424s1.64,1.086,1.729-.717c.064-1.29-1.523-.817-1.523-.817Z" transform="translate(-1893.129 -585.512)" fill="#263238"/>
              </g>
            </g>
          </g>
          <g id="Group_57517" data-name="Group 57517" transform="translate(12.854 24.681)">
            <path id="Path_65821" data-name="Path 65821" d="M1985.683,1233.8c-1.3-.477-2.3-.614-2.35.817-.028.725,1.4.876,1.92,1.017Z" transform="translate(-1983.333 -1223.237)" fill="#ffd3c9"/>
            <path id="Path_65822" data-name="Path 65822" d="M2024.09,1043.58c7.447,10.529,2.394,13.9-6.92,12.671l.368-2.363c4.444.848,11.735.521,4.253-8.969Z" transform="translate(-2015.347 -1043.58)" fill="#5e84fb"/>
          </g>
          <g id="Group_57518" data-name="Group 57518" transform="translate(0 15.618)">
            <path id="Path_65823" data-name="Path 65823" d="M1759.765,877.614c.3-1.351.307-2.357-1.118-2.223-.723.068-.685,1.5-.757,2.037Z" transform="translate(-1757.182 -875.379)" fill="#ffd3c9"/>
            <path id="Path_65824" data-name="Path 65824" d="M1753.942,918.332c-10.031,10.5-9.726.367-8.7-7.992l2.391.19c-.575,7.7-1.977,13.232,4.677,5.7Z" transform="translate(-1744.759 -908.456)" fill="#5e84fb"/>
          </g>
        </g>
        <g id="Group_57520" data-name="Group 57520" transform="translate(9.656 9.87)">
          <path id="Path_65825" data-name="Path 65825" d="M1925.4,770.153c-.1.749-.5,1.314-.885,1.261s-.619-.7-.518-1.451.5-1.314.885-1.261S1925.5,769.4,1925.4,770.153Z" transform="translate(-1923.974 -768.698)" fill="#263238"/>
        </g>
        <g id="Group_57521" data-name="Group 57521" transform="translate(16.046 10.736)">
          <path id="Path_65826" data-name="Path 65826" d="M2043.991,786.233c-.1.749-.5,1.314-.885,1.261s-.619-.7-.517-1.452.5-1.313.885-1.261S2044.093,785.484,2043.991,786.233Z" transform="translate(-2042.565 -784.778)" fill="#263238"/>
        </g>
      </g>
      <path id="Path_65827" data-name="Path 65827" d="M1710.2,1345.66l-.934,8.989a1.727,1.727,0,0,0,1.749,1.952h25.143a2.218,2.218,0,0,0,2.155-1.952l.934-8.989Z" transform="translate(-1707.16 -1295.735)" fill="#afc1fd"/>
      <ellipse id="Ellipse_3390" data-name="Ellipse 3390" cx="4.244" cy="3.824" rx="4.244" ry="3.824" transform="translate(11.278 55.543) rotate(-43.513)" fill="#7e9cfc"/>
      <path id="Path_65828" data-name="Path 65828" d="M1942.935,1423.823l-.794.453.028-.269a.493.493,0,0,0-.5-.557h-2.784a.634.634,0,0,0-.615.557l-.193,1.855a.493.493,0,0,0,.5.557h2.784a.634.634,0,0,0,.615-.557l.028-.269.7.452a.183.183,0,0,0,.269-.143l.2-1.936A.154.154,0,0,0,1942.935,1423.823Z" transform="translate(-1923.653 -1369.333)" fill="#afc1fd"/>
      <path id="Path_65829" data-name="Path 65829" d="M1943.335,1420.013l-.794.453.028-.269a.494.494,0,0,0-.5-.557h-2.784a.633.633,0,0,0-.615.557l-.193,1.854a.493.493,0,0,0,.5.557h2.784a.634.634,0,0,0,.615-.557l.028-.269.7.452a.183.183,0,0,0,.269-.143l.2-1.936A.153.153,0,0,0,1943.335,1420.013Z" transform="translate(-1924.031 -1365.729)" fill="#dfe6fe"/>
    </g>
    <g id="Group_57580" data-name="Group 57580" transform="translate(12.635 20.019)">
      <g id="Group_57533" data-name="Group 57533">
        <g id="Group_57525" data-name="Group 57525">
          <g id="Group_57524" data-name="Group 57524">
            <path id="Path_65830" data-name="Path 65830" d="M324.75,481.234l-6.094-58.624a4.034,4.034,0,0,0-3.919-3.55H289.3a3.141,3.141,0,0,0-3.181,3.55l6.094,58.624a4.034,4.034,0,0,0,3.919,3.55H321.57A3.141,3.141,0,0,0,324.75,481.234Z" transform="translate(-286.1 -419.06)" fill="#465a63"/>
          </g>
        </g>
        <g id="Group_57527" data-name="Group 57527" transform="translate(2.736)">
          <g id="Group_57526" data-name="Group 57526">
            <path id="Path_65831" data-name="Path 65831" d="M375.53,481.234l-6.094-58.624a4.034,4.034,0,0,0-3.919-3.55H340.08a3.141,3.141,0,0,0-3.181,3.55l6.094,58.624a4.034,4.034,0,0,0,3.919,3.55H372.35A3.141,3.141,0,0,0,375.53,481.234Z" transform="translate(-336.88 -419.06)" fill="#263238"/>
          </g>
        </g>
        <g id="Group_57529" data-name="Group 57529" transform="translate(4.879 5.345)">
          <g id="Group_57528" data-name="Group 57528">
            <path id="Path_65832" data-name="Path 65832" d="M403.555,518.27H378.412a1.727,1.727,0,0,0-1.749,1.952l5.366,51.616a2.218,2.218,0,0,0,2.155,1.952h25.143a1.727,1.727,0,0,0,1.749-1.952l-5.366-51.616A2.218,2.218,0,0,0,403.555,518.27Z" transform="translate(-376.652 -518.27)" fill="#fff"/>
          </g>
        </g>
        <g id="Group_57532" data-name="Group 57532" transform="translate(13.934 2.073)">
          <g id="Group_57531" data-name="Group 57531" transform="translate(1.581)">
            <g id="Group_57530" data-name="Group 57530">
              <path id="Path_65833" data-name="Path 65833" d="M582.449,458.007h0a.543.543,0,0,0-.527-.477h-7.43a.422.422,0,0,0-.428.477h0a.543.543,0,0,0,.527.477h7.43A.422.422,0,0,0,582.449,458.007Z" transform="translate(-574.061 -457.53)" fill="#465a63"/>
            </g>
          </g>
          <path id="Path_65834" data-name="Path 65834" d="M544.714,458.007a.543.543,0,0,0,.527.477.423.423,0,0,0,.428-.477.543.543,0,0,0-.527-.477A.422.422,0,0,0,544.714,458.007Z" transform="translate(-544.711 -457.53)" fill="#465a63"/>
        </g>
      </g>
      <g id="Group_57579" data-name="Group 57579" transform="translate(8.893 8.453)">
        <g id="Group_57578" data-name="Group 57578">
          <g id="Group_57577" data-name="Group 57577">
            <g id="Group_57562" data-name="Group 57562">
              <g id="Group_57542" data-name="Group 57542" transform="translate(3.826 7.633)">
                <g id="Group_57541" data-name="Group 57541">
                  <g id="Group_57540" data-name="Group 57540">
                    <g id="Group_57539" data-name="Group 57539">
                      <g id="Group_57538" data-name="Group 57538">
                        <g id="Group_57537" data-name="Group 57537">
                          <g id="Group_57536" data-name="Group 57536">
                            <g id="Group_57535" data-name="Group 57535">
                              <g id="Group_57534" data-name="Group 57534">
                                <path id="Path_65835" data-name="Path 65835" d="M522.966,737.657s-4.073-16.693,6.2-19.6c12.9-3.647,13.412,15.963,13.412,15.963Z" transform="translate(-522.169 -717.609)" fill="#ffd3c9"/>
                              </g>
                            </g>
                          </g>
                        </g>
                      </g>
                    </g>
                  </g>
                </g>
              </g>
              <g id="Group_57553" data-name="Group 57553">
                <g id="Group_57552" data-name="Group 57552">
                  <g id="Group_57551" data-name="Group 57551">
                    <g id="Group_57550" data-name="Group 57550">
                      <g id="Group_57549" data-name="Group 57549">
                        <g id="Group_57548" data-name="Group 57548">
                          <g id="Group_57547" data-name="Group 57547">
                            <g id="Group_57546" data-name="Group 57546">
                              <g id="Group_57545" data-name="Group 57545">
                                <g id="Group_57544" data-name="Group 57544">
                                  <g id="Group_57543" data-name="Group 57543">
                                    <path id="Path_65836" data-name="Path 65836" d="M472.995,575.95s5.53,12.575-14.539,13.672l.267,4.323s-1.961-1.342-2.136.634c-.2,2.275,1.855,1,1.855,1s-1.073,5.355-2.787,7.528c-.308-.285-9.516-18.617-.673-18.853,0-.524.553-4.125,5.416-5.67C467.752,576.243,468.795,582.209,472.995,575.95Z" transform="translate(-451.153 -575.95)" fill="#263238"/>
                                  </g>
                                </g>
                              </g>
                            </g>
                          </g>
                        </g>
                      </g>
                    </g>
                  </g>
                </g>
              </g>
              <g id="Group_57555" data-name="Group 57555" transform="translate(10.886 16.236)">
                <g id="Group_57554" data-name="Group 57554">
                  <path id="Path_65837" data-name="Path 65837" d="M654.658,878.473c.189.743.031,1.424-.353,1.522s-.849-.425-1.038-1.168-.031-1.424.353-1.522S654.47,877.73,654.658,878.473Z" transform="translate(-653.188 -877.293)" fill="#263238"/>
                </g>
              </g>
              <g id="Group_57557" data-name="Group 57557" transform="translate(18.999 14.091)">
                <g id="Group_57556" data-name="Group 57556">
                  <path id="Path_65838" data-name="Path 65838" d="M805.239,838.653c.189.743.031,1.424-.353,1.522s-.849-.425-1.038-1.168-.031-1.424.353-1.522S805.05,837.91,805.239,838.653Z" transform="translate(-803.768 -837.473)" fill="#263238"/>
                </g>
              </g>
              <g id="Group_57561" data-name="Group 57561" transform="translate(13.418 19.385)">
                <g id="Group_57560" data-name="Group 57560">
                  <g id="Group_57559" data-name="Group 57559">
                    <g id="Group_57558" data-name="Group 57558">
                      <path id="Path_65839" data-name="Path 65839" d="M705.963,935.733a23.159,23.159,0,0,0-5.6,1.388.308.308,0,0,0-.177.342c.143.721.815,2.768,3.769,2.117,2.915-.642,2.556-2.871,2.343-3.627A.3.3,0,0,0,705.963,935.733Z" transform="translate(-700.18 -935.73)" fill="#e87e86"/>
                    </g>
                  </g>
                </g>
              </g>
            </g>
            <g id="Group_57567" data-name="Group 57567" transform="translate(4.5 24.048)">
              <g id="Group_57566" data-name="Group 57566">
                <g id="Group_57565" data-name="Group 57565">
                  <g id="Group_57564" data-name="Group 57564">
                    <path id="Path_65840" data-name="Path 65840" d="M568.809,1314.608l-.309,1.611,1.843-.043.49-1.15.759-3.765a67.692,67.692,0,0,0,12.653-.1l-.087,3.933-.173.765,1.935-.045.269-.609c.333-2.064.63-4.3.854-6.174a165.734,165.734,0,0,1-18.411.205A52.409,52.409,0,0,1,568.809,1314.608Z" transform="translate(-566.678 -1293.58)" fill="#263238"/>
                    <g id="Group_57563" data-name="Group 57563">
                      <path id="Path_65841" data-name="Path 65841" d="M555.046,1037.731a51.585,51.585,0,0,0-.633-15.451l-19.733,3.106c.787,3.852,1.286,6.887,1.954,12.55A88.216,88.216,0,0,0,555.046,1037.731Z" transform="translate(-534.68 -1022.28)" fill="#5e84fb"/>
                    </g>
                  </g>
                </g>
              </g>
            </g>
            <g id="Group_57571" data-name="Group 57571" transform="translate(0.117 27.153)">
              <g id="Group_57568" data-name="Group 57568" transform="translate(0 1.679)">
                <path id="Path_65842" data-name="Path 65842" d="M457.188,1112.592c-5.2,5.061,4.233,7.844,4.315,7.875a.464.464,0,0,1,.273.661.315.315,0,0,0-.373.506.315.315,0,0,0-.373.506.316.316,0,0,0-.373.506c-.121.164-.713-.063-.713-.063-9.466-4.242-6.73-9.045-4.271-11.523l1.349.174Z" transform="translate(-453.316 -1111.06)" fill="#ffd3c9"/>
              </g>
              <g id="Group_57570" data-name="Group 57570" transform="translate(2.356)">
                <g id="Group_57569" data-name="Group 57569">
                  <path id="Path_65843" data-name="Path 65843" d="M499.743,1082.117l-.665-2.217a13.285,13.285,0,0,0-2.028,1.678l.865.873.652.659A11.926,11.926,0,0,1,499.743,1082.117Z" transform="translate(-497.05 -1079.9)" fill="#5e84fb"/>
                </g>
              </g>
            </g>
            <g id="Group_57576" data-name="Group 57576" transform="translate(24.191 14.763)">
              <g id="Group_57573" data-name="Group 57573" transform="translate(1.318)">
                <g id="Group_57572" data-name="Group 57572">
                  <path id="Path_65844" data-name="Path 65844" d="M924.6,861.326l.836-.957c5.961,2.893,3.119-4.142,2.488-9.691-.038-.336.039-.561.367-.586a.291.291,0,0,1,.3.227c.056-.177.165-.3.3-.307s.255.1.33.273c.055-.177.165-.3.3-.307s.255.1.33.273c.055-.177.165-.3.3-.307.2-.011.384.253.4.59h0c2.733,15.625-1.039,14.385-5.743,12.212Z" transform="translate(-924.6 -849.943)" fill="#ffd3c9"/>
                </g>
              </g>
              <g id="Group_57575" data-name="Group 57575" transform="translate(0 9.285)">
                <g id="Group_57574" data-name="Group 57574">
                  <path id="Path_65845" data-name="Path 65845" d="M900.172,1022.27l-.042,2.629a12.846,12.846,0,0,0,1.524.886l.631-2.375A18.7,18.7,0,0,1,900.172,1022.27Z" transform="translate(-900.13 -1022.27)" fill="#5e84fb"/>
                </g>
              </g>
            </g>
          </g>
        </g>
      </g>
      <path id="Path_65846" data-name="Path 65846" d="M488.147,1345.66l.934,8.989a1.727,1.727,0,0,1-1.75,1.952H462.189a2.218,2.218,0,0,1-2.155-1.952l-.934-8.989Z" transform="translate(-449.779 -1295.735)" fill="#afc1fd"/>
      <ellipse id="Ellipse_3391" data-name="Ellipse 3391" cx="3.824" cy="4.244" rx="3.824" ry="4.244" transform="translate(18.7 55.248) rotate(-46.487)" fill="#7e9cfc"/>
      <path id="Path_65847" data-name="Path 65847" d="M696.914,1423.823l-.7.453-.028-.269a.634.634,0,0,0-.615-.557h-2.784a.493.493,0,0,0-.5.557l.193,1.855a.633.633,0,0,0,.615.557h2.784a.493.493,0,0,0,.5-.557l-.028-.269.794.452a.154.154,0,0,0,.239-.143l-.2-1.936A.183.183,0,0,0,696.914,1423.823Z" transform="translate(-670.399 -1369.333)" fill="#afc1fd"/>
      <path id="Path_65848" data-name="Path 65848" d="M696.514,1420.013l-.7.453-.028-.269a.633.633,0,0,0-.615-.557h-2.784a.493.493,0,0,0-.5.557l.193,1.854a.633.633,0,0,0,.615.557h2.784a.493.493,0,0,0,.5-.557l-.028-.269.794.452a.153.153,0,0,0,.239-.143l-.2-1.936A.183.183,0,0,0,696.514,1420.013Z" transform="translate(-670.02 -1365.729)" fill="#dfe6fe"/>
    </g>
    <g id="Group_57607" data-name="Group 57607" transform="translate(120.322 67.972)">
      <g id="Group_57591" data-name="Group 57591">
        <g id="Group_57582" data-name="Group 57582" transform="translate(5.946 6.139)">
          <g id="Group_57581" data-name="Group 57581">
            <path id="Path_65849" data-name="Path 65849" d="M2400.679,1423.721c-.11-.418-.586-.615-1.011-.686a4.675,4.675,0,0,0-4.568,2.18,6.069,6.069,0,0,0,4.71-.289,1.964,1.964,0,0,0,.659-.457A.855.855,0,0,0,2400.679,1423.721Z" transform="translate(-2395.099 -1422.983)" fill="#ebebeb"/>
          </g>
        </g>
        <g id="Group_57584" data-name="Group 57584" transform="translate(1.088 2.675)">
          <g id="Group_57583" data-name="Group 57583">
            <path id="Path_65850" data-name="Path 65850" d="M2308.653,1363.347l.025-.019a4.7,4.7,0,0,0-.7-2.92,3.731,3.731,0,0,0-2.1-1.645c-.306-.093-.708-.111-.876.161a.766.766,0,0,0-.018.592A5.749,5.749,0,0,0,2308.653,1363.347Z" transform="translate(-2304.933 -1358.702)" fill="#ebebeb"/>
          </g>
        </g>
        <g id="Group_57586" data-name="Group 57586" transform="translate(3.96 10.998)">
          <g id="Group_57585" data-name="Group 57585">
            <path id="Path_65851" data-name="Path 65851" d="M2363.31,1513.528a1.573,1.573,0,0,0-.793-.328,3.421,3.421,0,0,0-2.271.557,12.56,12.56,0,0,0-2.006,1.9,12.308,12.308,0,0,1,3.673-.487,3.468,3.468,0,0,0,1.044-.138,1,1,0,0,0,.681-.741A.891.891,0,0,0,2363.31,1513.528Z" transform="translate(-2358.24 -1513.171)" fill="#ebebeb"/>
          </g>
        </g>
        <g id="Group_57588" data-name="Group 57588" transform="translate(0 7.54)">
          <g id="Group_57587" data-name="Group 57587">
            <path id="Path_65852" data-name="Path 65852" d="M2286.287,1449.188a1.069,1.069,0,0,0-.923-.158,1.007,1.007,0,0,0-.62.915,1.657,1.657,0,0,0,.4,1.074,4.889,4.889,0,0,0,.87.783l2.158,1.65a8.536,8.536,0,0,0-1.239-3.552A2.46,2.46,0,0,0,2286.287,1449.188Z" transform="translate(-2284.743 -1448.983)" fill="#ebebeb"/>
          </g>
        </g>
        <g id="Group_57590" data-name="Group 57590" transform="translate(6.067)">
          <g id="Group_57589" data-name="Group 57589">
            <path id="Path_65853" data-name="Path 65853" d="M2398.791,1313.666a9.311,9.311,0,0,0,1.649-3.086,2.232,2.232,0,0,0,.157-.713.848.848,0,0,0-.267-.658.838.838,0,0,0-.842-.089,1.924,1.924,0,0,0-.692.547,6.152,6.152,0,0,0-1.362,5A4.79,4.79,0,0,0,2398.791,1313.666Z" transform="translate(-2397.348 -1309.048)" fill="#ebebeb"/>
          </g>
        </g>
      </g>
      <g id="Group_57594" data-name="Group 57594" transform="translate(2.572 1.686)">
        <g id="Group_57593" data-name="Group 57593">
          <g id="Group_57592" data-name="Group 57592">
            <path id="Path_65854" data-name="Path 65854" d="M2332.671,1356.506a25.121,25.121,0,0,1,.492-2.909c.25-1.129.55-2.247.879-3.355q.523-1.757,1.146-3.482c.4-1.1.821-2.186,1.282-3.257.4-.93.827-1.851,1.308-2.743q.078-.144.158-.287c.057-.1-.108-.184-.166-.081-.483.865-.908,1.761-1.307,2.667-.467,1.06-.9,2.138-1.3,3.225q-.633,1.721-1.171,3.477c-.343,1.12-.654,2.249-.92,3.388a27.829,27.829,0,0,0-.55,3c-.013.108-.036.251-.046.359h.191Z" transform="translate(-2332.479 -1340.343)" fill="#263238"/>
          </g>
        </g>
      </g>
      <g id="Group_57597" data-name="Group 57597" transform="translate(4.822 7.021)">
        <g id="Group_57596" data-name="Group 57596">
          <g id="Group_57595" data-name="Group 57595">
            <path id="Path_65855" data-name="Path 65855" d="M2374.386,1441.406a12.134,12.134,0,0,1,3.6-1.634c.333-.09.671-.166,1.011-.227.115-.021.1-.205-.015-.184a12.488,12.488,0,0,0-3.672,1.276q-.528.283-1.026.618a.092.092,0,0,0,.1.152Z" transform="translate(-2374.242 -1439.359)" fill="#263238"/>
          </g>
        </g>
      </g>
      <g id="Group_57600" data-name="Group 57600" transform="translate(2.955 4.724)">
        <g id="Group_57599" data-name="Group 57599">
          <g id="Group_57598" data-name="Group 57598">
            <path id="Path_65856" data-name="Path 65856" d="M2341.93,1399.836a30.234,30.234,0,0,0-2.177-3.078c-.074-.092-.227.011-.153.1a30.375,30.375,0,0,1,2.177,3.078c.062.1.214,0,.152-.1Z" transform="translate(-2339.581 -1396.721)" fill="#263238"/>
          </g>
        </g>
      </g>
      <g id="Group_57603" data-name="Group 57603" transform="translate(1.315 8.624)">
        <g id="Group_57602" data-name="Group 57602">
          <g id="Group_57601" data-name="Group 57601">
            <path id="Path_65857" data-name="Path 65857" d="M2311.628,1473.014a14.647,14.647,0,0,0-1.76-3.143q-.265-.374-.547-.734c-.073-.093-.226.01-.153.1a17.4,17.4,0,0,1,1.882,2.927c.148.3.285.6.4.908.043.11.216.049.174-.062Z" transform="translate(-2309.15 -1469.101)" fill="#263238"/>
          </g>
        </g>
      </g>
      <g id="Group_57606" data-name="Group 57606" transform="translate(3.335 11.92)">
        <g id="Group_57605" data-name="Group 57605">
          <g id="Group_57604" data-name="Group 57604">
            <path id="Path_65858" data-name="Path 65858" d="M2346.773,1532.38a10.877,10.877,0,0,1,3.651-1.928c.113-.035.052-.208-.062-.173a11.007,11.007,0,0,0-3.692,1.949c-.092.074.011.227.1.152Z" transform="translate(-2346.633 -1530.274)" fill="#263238"/>
          </g>
        </g>
      </g>
    </g>
    <g id="Group_57634" data-name="Group 57634" transform="translate(7.509 64.176)">
      <g id="Group_57618" data-name="Group 57618">
        <g id="Group_57609" data-name="Group 57609" transform="translate(0 7.445)">
          <g id="Group_57608" data-name="Group 57608">
            <path id="Path_65859" data-name="Path 65859" d="M190.98,1377.663c.133-.506.711-.745,1.227-.832a5.668,5.668,0,0,1,5.538,2.644,7.362,7.362,0,0,1-5.711-.351,2.4,2.4,0,0,1-.8-.555A1.032,1.032,0,0,1,190.98,1377.663Z" transform="translate(-190.955 -1376.768)" fill="#5e84fb"/>
          </g>
        </g>
        <g id="Group_57611" data-name="Group 57611" transform="translate(8.086 3.245)">
          <g id="Group_57610" data-name="Group 57610">
            <path id="Path_65860" data-name="Path 65860" d="M341.11,1304.448l-.031-.022a5.7,5.7,0,0,1,.847-3.541,4.526,4.526,0,0,1,2.549-1.994c.372-.113.859-.135,1.062.195a.932.932,0,0,1,.023.718A6.975,6.975,0,0,1,341.11,1304.448Z" transform="translate(-341.026 -1298.816)" fill="#5e84fb"/>
          </g>
        </g>
        <g id="Group_57613" data-name="Group 57613" transform="translate(2.647 13.338)">
          <g id="Group_57612" data-name="Group 57612">
            <path id="Path_65861" data-name="Path 65861" d="M240.48,1486.569a1.9,1.9,0,0,1,.962-.4,4.149,4.149,0,0,1,2.753.676,15.223,15.223,0,0,1,2.433,2.308,14.936,14.936,0,0,0-4.453-.59,4.192,4.192,0,0,1-1.266-.168,1.206,1.206,0,0,1-.825-.9A1.081,1.081,0,0,1,240.48,1486.569Z" transform="translate(-240.075 -1486.136)" fill="#5e84fb"/>
          </g>
        </g>
        <g id="Group_57615" data-name="Group 57615" transform="translate(9.837 9.144)">
          <g id="Group_57614" data-name="Group 57614">
            <path id="Path_65862" data-name="Path 65862" d="M375.812,1408.543a1.3,1.3,0,0,1,1.119-.192,1.221,1.221,0,0,1,.752,1.109,2,2,0,0,1-.491,1.3,5.958,5.958,0,0,1-1.055.949l-2.617,2a10.362,10.362,0,0,1,1.5-4.308A2.986,2.986,0,0,1,375.812,1408.543Z" transform="translate(-373.52 -1408.295)" fill="#5e84fb"/>
          </g>
        </g>
        <g id="Group_57617" data-name="Group 57617" transform="translate(2.704)">
          <g id="Group_57616" data-name="Group 57616">
            <path id="Path_65863" data-name="Path 65863" d="M243.34,1244.195a11.307,11.307,0,0,1-2-3.743,2.692,2.692,0,0,1-.191-.865,1.028,1.028,0,0,1,.324-.8,1.015,1.015,0,0,1,1.022-.107,2.349,2.349,0,0,1,.84.664,7.461,7.461,0,0,1,1.65,6.059A5.823,5.823,0,0,1,243.34,1244.195Z" transform="translate(-241.149 -1238.594)" fill="#5e84fb"/>
          </g>
        </g>
      </g>
      <g id="Group_57621" data-name="Group 57621" transform="translate(4.252 2.046)">
        <g id="Group_57620" data-name="Group 57620">
          <g id="Group_57619" data-name="Group 57619">
            <path id="Path_65864" data-name="Path 65864" d="M276.267,1296.172a30.5,30.5,0,0,0-.6-3.527c-.3-1.369-.666-2.725-1.066-4.069q-.634-2.131-1.39-4.222-.72-2-1.554-3.95c-.485-1.128-1-2.245-1.586-3.326-.063-.116-.127-.233-.191-.348s.131-.224.2-.1c.585,1.049,1.1,2.136,1.585,3.235.566,1.286,1.086,2.593,1.572,3.911q.769,2.088,1.42,4.217c.415,1.357.793,2.727,1.115,4.11a33.745,33.745,0,0,1,.666,3.633c.016.131.043.3.057.436h-.233Z" transform="translate(-269.869 -1276.573)" fill="#263238"/>
          </g>
        </g>
      </g>
      <g id="Group_57624" data-name="Group 57624" transform="translate(2.293 8.514)">
        <g id="Group_57623" data-name="Group 57623">
          <g id="Group_57622" data-name="Group 57622">
            <path id="Path_65865" data-name="Path 65865" d="M239.2,1399.1a14.737,14.737,0,0,0-4.363-1.982q-.607-.164-1.226-.276c-.14-.025-.123-.248.018-.223a15.151,15.151,0,0,1,4.453,1.547c.427.229.841.479,1.244.748a.112.112,0,0,1-.126.186Z" transform="translate(-233.511 -1396.613)" fill="#263238"/>
          </g>
        </g>
      </g>
      <g id="Group_57627" data-name="Group 57627" transform="translate(7.552 5.729)">
        <g id="Group_57626" data-name="Group 57626">
          <g id="Group_57625" data-name="Group 57625">
            <path id="Path_65866" data-name="Path 65866" d="M331.128,1348.7a36.609,36.609,0,0,1,2.64-3.733c.089-.112.275.014.185.126a36.658,36.658,0,0,0-2.64,3.733c-.075.123-.26,0-.185-.126Z" transform="translate(-331.111 -1344.922)" fill="#263238"/>
          </g>
        </g>
      </g>
      <g id="Group_57630" data-name="Group 57630" transform="translate(9.393 10.458)">
        <g id="Group_57629" data-name="Group 57629">
          <g id="Group_57628" data-name="Group 57628">
            <path id="Path_65867" data-name="Path 65867" d="M365.3,1437.435a17.687,17.687,0,0,1,2.134-3.811q.321-.453.662-.89c.088-.113.274.012.185.126a21.2,21.2,0,0,0-2.281,3.549c-.18.36-.345.726-.489,1.1-.052.134-.262.06-.211-.075Z" transform="translate(-365.29 -1432.69)" fill="#263238"/>
          </g>
        </g>
      </g>
      <g id="Group_57633" data-name="Group 57633" transform="translate(5.289 14.455)">
        <g id="Group_57632" data-name="Group 57632">
          <g id="Group_57631" data-name="Group 57631">
            <path id="Path_65868" data-name="Path 65868" d="M293.616,1509.421a13.2,13.2,0,0,0-4.426-2.338c-.137-.042-.063-.252.075-.211a13.362,13.362,0,0,1,4.477,2.364c.11.091-.015.276-.126.185Z" transform="translate(-289.117 -1506.867)" fill="#263238"/>
          </g>
        </g>
      </g>
    </g>
    <g id="Group_57637" data-name="Group 57637" transform="translate(46.824 40.808)">
      <path id="Path_65869" data-name="Path 65869" d="M1068.925,842.787a13.383,13.383,0,0,0-6.7,2.125,9.632,9.632,0,0,0-1.385-.551c-2.982-.938-5.289-.411-8.3.1-1.1.185-1.689.377-2.807.5-4.466.484-6.968.386-10.9-1.475l-.062.131c3.944,1.864,6.575,1.966,10.982,1.488,1.122-.122,1.718-.314,2.815-.5,3.135-.531,5.287-1.032,8.235-.1a9.575,9.575,0,0,1,1.285.5,11.153,11.153,0,0,0-.969.7,5,5,0,0,0-2.133,3.62,3.251,3.251,0,0,0,2.379,3.094,3,3,0,0,0,.749.094,3.267,3.267,0,0,0,2.832-1.648,3.952,3.952,0,0,0-.478-4.157,6.043,6.043,0,0,0-2.084-1.713,13.261,13.261,0,0,1,6.561-2.057,38.611,38.611,0,0,1,8.35.666l.021-.144A38.748,38.748,0,0,0,1068.925,842.787Zm-4.584,4a3.8,3.8,0,0,1,.467,4,3.028,3.028,0,0,1-5.687-1.47,4.863,4.863,0,0,1,2.079-3.508,11,11,0,0,1,1.03-.734A5.95,5.95,0,0,1,1064.341,846.789Z" transform="translate(-1032.396 -840.704)" fill="#263238"/>
      <g id="Group_57635" data-name="Group 57635">
        <path id="Path_65870" data-name="Path 65870" d="M934.035,809.344l-.227,3.313-6.218.219.315-4.6Z" transform="translate(-927.216 -808.098)" fill="#5e84fb"/>
        <path id="Path_65871" data-name="Path 65871" d="M920.954,805.076l-.312,4.558a.188.188,0,0,0,.175.2h0a.188.188,0,0,0,.2-.175l.312-4.558a.188.188,0,0,0-.175-.2h0A.187.187,0,0,0,920.954,805.076Z" transform="translate(-920.642 -804.901)" fill="#dfe6fe"/>
      </g>
      <g id="Group_57636" data-name="Group 57636" transform="translate(44.365 0.848)">
        <path id="Path_65872" data-name="Path 65872" d="M1744.366,823.472l-.326,3.3,6.1,1.247.452-4.583Z" transform="translate(-1744.04 -823.289)" fill="#5e84fb"/>
        <path id="Path_65873" data-name="Path 65873" d="M1858.007,820.839l-.448,4.546a.188.188,0,0,1-.206.169h0a.188.188,0,0,1-.169-.206l.448-4.546a.188.188,0,0,1,.206-.169h0A.188.188,0,0,1,1858.007,820.839Z" transform="translate(-1851.087 -820.633)" fill="#dfe6fe"/>
      </g>
    </g>
  </g>
</svg>
