<svg xmlns="http://www.w3.org/2000/svg" xmlns:xlink="http://www.w3.org/1999/xlink" width="40.748" height="40.748" viewBox="0 0 40.748 40.748">
  <defs>
    <linearGradient id="linear-gradient" x1="1.45" y1="1.064" x2="0.156" y2="0.08" gradientUnits="objectBoundingBox">
      <stop offset="0" stop-color="#7a50a0"/>
      <stop offset="1" stop-color="#eb579f"/>
    </linearGradient>
  </defs>
  <g id="Group_57268" data-name="Group 57268" transform="translate(-167.126 -502.882)">
    <path id="Shape" d="M18.8,0h3.149a18.8,18.8,0,0,1,18.8,18.8v3.149a18.8,18.8,0,0,1-18.8,18.8H18.8A18.8,18.8,0,0,1,0,21.948V18.8A18.8,18.8,0,0,1,18.8,0Z" transform="translate(167.126 502.882)" fill="url(#linear-gradient)"/>
    <g id="_Icons_7_Credit_card_Copy" data-name="_Icons / 7 Credit card Copy" transform="translate(177.761 514.58)">
      <path id="_10_Crown" data-name="10 Crown" d="M16.433,14.893H3.459a2.07,2.07,0,0,1-2.07-1.8L.01,2.734A1.242,1.242,0,0,1,2.08,1.658L4.4,3.806A1.242,1.242,0,0,0,6.22,3.715L8.994.445a1.242,1.242,0,0,1,1.9,0l2.774,3.271a1.242,1.242,0,0,0,1.8.108l2.318-2.178a1.242,1.242,0,0,1,2.07,1.076l-1.379,10.35A2.07,2.07,0,0,1,16.433,14.893Z" transform="translate(0 0)" fill="#fff"/>
    </g>
  </g>
</svg>
