<svg xmlns="http://www.w3.org/2000/svg" width="72" height="57.6" viewBox="0 0 72 57.6">
  <path id="Icon_awesome-crown" data-name="Icon awesome-crown" d="M59.4,50.4H12.6a1.805,1.805,0,0,0-1.8,1.8v3.6a1.805,1.805,0,0,0,1.8,1.8H59.4a1.805,1.805,0,0,0,1.8-1.8V52.2A1.805,1.805,0,0,0,59.4,50.4Zm7.2-36a5.4,5.4,0,0,0-5.4,5.4,5.29,5.29,0,0,0,.5,2.227L53.55,26.91a3.6,3.6,0,0,1-4.972-1.305L39.409,9.563a5.4,5.4,0,1,0-6.817,0L23.423,25.6a3.6,3.6,0,0,1-4.972,1.3l-8.134-4.882A5.4,5.4,0,1,0,5.4,25.2a5.514,5.514,0,0,0,.866-.09L14.4,46.8H57.6l8.134-21.69a5.514,5.514,0,0,0,.866.09,5.4,5.4,0,1,0,0-10.8Z" fill="#fafafa"/>
</svg>
