<svg width="24" height="24" viewBox="0 0 24 24" fill="none" xmlns="http://www.w3.org/2000/svg">
<path d="M16.1593 3.00027C15.3235 3.00667 14.4989 3.19217 13.7409 3.54424C12.9829 3.89632 12.3093 4.4068 11.7653 5.04127C11.2213 4.4068 10.5476 3.89632 9.78961 3.54424C9.03164 3.19217 8.207 3.00667 7.37127 3.00027C6.66397 2.99318 5.96236 3.12727 5.30752 3.39468C4.65268 3.66209 4.05777 4.05744 3.55761 4.55761C3.05744 5.05777 2.66209 5.65268 2.39468 6.30752C2.12727 6.96236 1.99318 7.66397 2.00027 8.37127C2.00027 12.0623 5.32027 15.0713 10.3493 19.6393L11.7653 20.9183L13.1813 19.6293C18.2103 15.0693 21.5303 12.0613 21.5303 8.37027C21.5372 7.66305 21.403 6.96155 21.1356 6.30683C20.8681 5.65211 20.4727 5.05731 19.9726 4.55726C19.4724 4.0572 18.8776 3.66193 18.2228 3.39459C17.568 3.12724 16.8665 2.99318 16.1593 3.00027V3.00027ZM11.8593 18.1843L11.7593 18.2843L11.6593 18.1843C7.01127 13.9753 3.94527 11.1933 3.94527 8.37127C3.93411 7.91869 4.01517 7.46857 4.18349 7.04831C4.35182 6.62804 4.6039 6.24643 4.9244 5.92668C5.24489 5.60693 5.6271 5.35575 6.04775 5.1884C6.46841 5.02106 6.91871 4.94106 7.37127 4.95327C8.11296 4.9565 8.83764 5.17574 9.45673 5.58421C10.0758 5.99267 10.5625 6.57266 10.8573 7.25327H12.6833C12.9748 6.57238 13.4593 5.99174 14.077 5.58302C14.6947 5.1743 15.4186 4.95538 16.1593 4.95327C16.6112 4.94216 17.0606 5.02297 17.4803 5.19081C17.9 5.35865 18.2813 5.61001 18.6009 5.92964C18.9205 6.24927 19.1719 6.63051 19.3397 7.05023C19.5076 7.46994 19.5884 7.91938 19.5773 8.37127C19.5763 11.1933 16.5103 13.9753 11.8623 18.1843H11.8593Z" fill="black"/>
</svg>
