<svg width="24" height="24" viewBox="0 0 24 24" fill="none" xmlns="http://www.w3.org/2000/svg">
<path d="M20 6H14.388L15.511 2.633C15.713 2.025 15.611 1.351 15.236 0.831C14.861 0.311 14.253 0 13.612 0H12C11.703 0 11.422 0.132 11.231 0.36L6.531 6H4C2.897 6 2 6.897 2 8V17C2 18.103 2.897 19 4 19H17.307C17.7139 18.9986 18.1108 18.8738 18.4452 18.6421C18.7797 18.4103 19.0359 18.0825 19.18 17.702L21.937 10.351C21.9789 10.2387 22.0002 10.1198 22 10V8C22 6.897 21.103 6 20 6ZM4 8H6V17H4V8ZM20 9.819L17.307 17H8V7.362L12.468 2H13.614L12.052 6.683C12.0013 6.83332 11.9871 6.99355 12.0107 7.15043C12.0343 7.3073 12.095 7.45629 12.1877 7.58504C12.2803 7.71379 12.4024 7.8186 12.5436 7.89076C12.6849 7.96293 12.8414 8.00037 13 8H20V9.819Z" fill="black"/>
</svg>
