<svg width="24" height="24" viewBox="0 0 24 24" fill="none" xmlns="http://www.w3.org/2000/svg">
<path d="M20.443 3.889H13.064L16.264 0.689L15.582 0L11.694 3.889L7.805 0L7.115 0.69L10.323 3.89H2.944C2.42859 3.89 1.93428 4.09468 1.56974 4.45903C1.2052 4.82339 1.00027 5.31759 1 5.833V17.5C1.00158 18.0151 1.2069 18.5086 1.57113 18.8729C1.93536 19.2371 2.42891 19.4424 2.944 19.444H20.444C20.9589 19.4422 21.4522 19.2367 21.8162 18.8725C22.1802 18.5083 22.3854 18.0149 22.387 17.5V5.833C22.387 5.31742 22.1822 4.82296 21.8176 4.45838C21.453 4.09381 20.9586 3.889 20.443 3.889ZM20.443 17.499H2.944V5.833H20.444L20.443 17.499ZM8.777 7.777V15.554L15.582 11.665L8.777 7.777Z" fill="black"/>
</svg>
