<svg xmlns="http://www.w3.org/2000/svg" width="53" height="53" viewBox="0 0 53 53">
  <g id="love-birds-bird-svgrepo-com" transform="translate(-0.102 -0.806)">
    <circle id="Ellipse_3385" data-name="Ellipse 3385" cx="26.5" cy="26.5" r="26.5" transform="translate(0.102 0.806)" fill="#ff80aa"/>
    <path id="Path_65408" data-name="Path 65408" d="M126.18,162.784l-3.531-3.531-1.508.609-16.37-16.37-2.886,1.7-2.031-2.031-.388.932,1.588,1.588-1.58.93L97.725,147.7l15.4,15.4L110.63,164.1,99.475,152.946l-7.185,5.761-9.908,5.172,17.875,17.875c.1,0,.2,0,.294,0A26.8,26.8,0,0,0,126.18,162.784Z" transform="translate(-73.762 -127.951)" fill="#fd5790"/>
    <path id="Path_65409" data-name="Path 65409" d="M65.845,215.674s-2.633-3.568-6.307-2.1-5.288,10.511-14.716,8.409c0,0,4.5,8.77,12.614,6.307S62.49,218.435,65.845,215.674Z" transform="translate(-40.132 -190.679)" fill="#e6f3ff"/>
    <path id="Path_65410" data-name="Path 65410" d="M120.8,283.834s-3.367,4.9-8.772,2.924l3.739-3.739a2.983,2.983,0,0,1,4.218,0Z" transform="translate(-100.306 -252.393)" fill="#cfdbe6"/>
    <circle id="Ellipse_3386" data-name="Ellipse 3386" cx="0.454" cy="0.454" r="0.454" transform="translate(20.986 24.38)" fill="#324a5e"/>
    <path id="Path_65411" data-name="Path 65411" d="M266.281,215.674s2.633-3.568,6.307-2.1,5.288,10.512,14.716,8.409c0,0-4.5,8.77-12.614,6.307S269.636,218.435,266.281,215.674Z" transform="translate(-238.417 -190.679)" fill="#cfdbe6"/>
    <path id="Path_65412" data-name="Path 65412" d="M316.144,283.834s3.367,4.9,8.772,2.924l-3.739-3.739a2.983,2.983,0,0,0-4.218,0Z" transform="translate(-283.062 -252.393)" fill="#b8c9d9"/>
    <circle id="Ellipse_3387" data-name="Ellipse 3387" cx="0.454" cy="0.454" r="0.454" transform="translate(31.684 24.38)" fill="#324a5e"/>
    <path id="Path_65413" data-name="Path 65413" d="M211.708,139.137a2.317,2.317,0,0,1,4.635,0,2.317,2.317,0,0,1,4.635,0c0,2.216-4.635,4.867-4.635,4.867S211.708,141.478,211.708,139.137Z" transform="translate(-189.555 -122.275)" fill="#c1321f"/>
    <path id="Path_65414" data-name="Path 65414" d="M256,139.137a2.317,2.317,0,1,1,4.635,0C260.633,141.353,256,144,256,144Z" transform="translate(-229.21 -122.275)" fill="#a82116"/>
  </g>
</svg>
