<svg xmlns="http://www.w3.org/2000/svg" width="53" height="53" viewBox="0 0 53 53">
  <g id="meeting-group-svgrepo-com" transform="translate(0 -0.127)">
    <circle id="Ellipse_3390" data-name="Ellipse 3390" cx="26.5" cy="26.5" r="26.5" transform="translate(0 0.127)" fill="#324a5e"/>
    <path id="Path_65431" data-name="Path 65431" d="M108.778,187.275a26.632,26.632,0,0,0,22.92-17.37l-16.3-16.342-4.594,4.522-8.394-8.394-3.69,3.655-2.925,3.023,5.958,6.044-12.362,5.468Z" transform="translate(-80.093 -134.228)" fill="#2b3b4e"/>
    <circle id="Ellipse_3391" data-name="Ellipse 3391" cx="4.71" cy="4.71" r="4.71" transform="translate(14.295 14.082)" fill="#ffd300"/>
    <path id="Path_65432" data-name="Path 65432" d="M182.228,136.406l-.068,0v9.415l.068,0a4.709,4.709,0,0,0,0-9.418Z" transform="translate(-163.224 -122.323)" fill="#f4a200"/>
    <path id="Path_65433" data-name="Path 65433" d="M89.385,240.962a9.712,9.712,0,0,1,19.425,0Z" transform="translate(-80.093 -207.307)" fill="#fc6f58"/>
    <path id="Path_65434" data-name="Path 65434" d="M182.228,231.25l-.068,0v9.711h9.78A9.712,9.712,0,0,0,182.228,231.25Z" transform="translate(-163.224 -207.307)" fill="#f1543f"/>
    <circle id="Ellipse_3392" data-name="Ellipse 3392" cx="4.71" cy="4.71" r="4.71" transform="translate(26.974 17.645)" fill="#ffd15d"/>
    <path id="Path_65435" data-name="Path 65435" d="M304.582,170.667h-.025v9.417h.025a4.709,4.709,0,1,0,0-9.418Z" transform="translate(-272.897 -153.022)" fill="#f9b54c"/>
    <path id="Path_65436" data-name="Path 65436" d="M211.365,275.223a9.712,9.712,0,0,1,19.425,0Z" transform="translate(-189.393 -238.007)" fill="#31bafd"/>
    <path id="Path_65437" data-name="Path 65437" d="M304.582,265.511h-.025v9.712h9.737A9.712,9.712,0,0,0,304.582,265.511Z" transform="translate(-272.897 -238.007)" fill="#2b9ed8"/>
  </g>
</svg>
