<svg xmlns="http://www.w3.org/2000/svg" width="53.852" height="53.851" viewBox="0 0 53.852 53.851">
  <g id="question-svgrepo-com" transform="translate(0 -0.003)">
    <path id="Path_65438" data-name="Path 65438" d="M53.852,26.929A26.926,26.926,0,1,0,26.926,53.854,26.925,26.925,0,0,0,53.852,26.929Z" transform="translate(0 0)" fill="#25b7d3"/>
    <path id="Path_65439" data-name="Path 65439" d="M138.216,91.716a8.621,8.621,0,0,1,1.455-4.591,11.2,11.2,0,0,1,4.245-3.852,13.358,13.358,0,0,1,6.511-1.526,13.906,13.906,0,0,1,6.105,1.276,9.9,9.9,0,0,1,4.09,3.47,8.512,8.512,0,0,1,1.443,4.77,7.374,7.374,0,0,1-.823,3.553,10.876,10.876,0,0,1-1.956,2.635q-1.133,1.109-4.066,3.732a16.536,16.536,0,0,0-1.3,1.3,5.272,5.272,0,0,0-.727,1.025,5.006,5.006,0,0,0-.37.93q-.131.465-.393,1.634a2.655,2.655,0,0,1-2.838,2.48,2.9,2.9,0,0,1-2.087-.811,3.184,3.184,0,0,1-.847-2.409,8.456,8.456,0,0,1,2.266-6.046,37.687,37.687,0,0,1,2.766-2.635q1.526-1.335,2.206-2.015a6.835,6.835,0,0,0,1.145-1.514,3.662,3.662,0,0,0,.465-1.812,4.215,4.215,0,0,0-1.419-3.22,5.182,5.182,0,0,0-3.661-1.312,5.064,5.064,0,0,0-3.864,1.324,10.554,10.554,0,0,0-2.1,3.9q-.811,2.7-3.077,2.695a3.023,3.023,0,0,1-2.254-.942A2.881,2.881,0,0,1,138.216,91.716Zm11.638,26.138a3.753,3.753,0,0,1-2.54-.942,3.3,3.3,0,0,1-1.085-2.635,3.394,3.394,0,0,1,1.049-2.528,3.544,3.544,0,0,1,2.576-1.025,3.5,3.5,0,0,1,3.553,3.553,3.329,3.329,0,0,1-1.073,2.623A3.622,3.622,0,0,1,149.854,117.854Z" transform="translate(-123.214 -72.872)" fill="#fff"/>
  </g>
</svg>
