<svg xmlns="http://www.w3.org/2000/svg" width="53.685" height="53.492" viewBox="0 0 53.685 53.492">
  <g id="cocktail-svgrepo-com" transform="translate(0 -0.478)">
    <circle id="Ellipse_3389" data-name="Ellipse 3389" cx="26.746" cy="26.746" r="26.746" transform="translate(0 0.478)" fill="#fc6f58"/>
    <path id="Path_65422" data-name="Path 65422" d="M216.152,109.276,197.886,91.01,194.5,93.489l-1.433.748,8.267,8.267-3.855,3.2L186.449,94.675l-2.427,2.257L184,96.913l-2.5.9,11.565,11.565-3.441,2.86v6.7l.353,10.571-6.63.42,5.233,5.233q.366.01.734.01A26.851,26.851,0,0,0,216.152,109.276Z" transform="translate(-162.467 -81.197)" fill="#f1543f"/>
    <path id="Path_65423" data-name="Path 65423" d="M152.746,211.668l11.3-12.557H139.636l11.3,12.557V225.42h-5.063v1.266h11.934V225.42h-5.063Z" transform="translate(-124.99 -177.96)" fill="#e6f3ff"/>
    <path id="Path_65424" data-name="Path 65424" d="M256.9,211.668l11.3-12.557H256v27.575h5.967V225.42H256.9Z" transform="translate(-229.148 -177.96)" fill="#cfdbe6"/>
    <path id="Path_65425" data-name="Path 65425" d="M170.667,123.429a1.654,1.654,0,0,1,3.309,0,1.654,1.654,0,1,1,3.309,0c0,1.582-3.308,3.474-3.308,3.474S170.667,125.1,170.667,123.429Z" transform="translate(-152.766 -108.735)" fill="#e6f3ff"/>
    <path id="Path_65426" data-name="Path 65426" d="M202.211,123.429a1.654,1.654,0,1,1,3.309,0c0,1.582-3.308,3.474-3.308,3.474Z" transform="translate(-181.001 -108.735)" fill="#cfdbe6"/>
    <path id="Path_65427" data-name="Path 65427" d="M278.247,86.987a1.654,1.654,0,1,1,3.309,0,1.654,1.654,0,1,1,3.308,0c0,1.582-3.308,3.474-3.308,3.474S278.247,88.658,278.247,86.987Z" transform="translate(-249.062 -76.116)" fill="#ffd15d"/>
    <path id="Path_65428" data-name="Path 65428" d="M309.791,86.987a1.654,1.654,0,1,1,3.308,0c0,1.582-3.308,3.474-3.308,3.474Z" transform="translate(-277.297 -76.116)" fill="#f9b54c"/>
    <path id="Path_65429" data-name="Path 65429" d="M203.38,240.143a8.123,8.123,0,0,1-3.338.465l5.869,6.522,6.506-7.229a19.268,19.268,0,0,0-2.348-.842C207.72,238.335,205.55,239.6,203.38,240.143Z" transform="translate(-179.06 -213.522)" fill="#ffd15d"/>
    <path id="Path_65430" data-name="Path 65430" d="M260.159,239.059a6.792,6.792,0,0,0-4.159.287v7.785l6.506-7.229A19.23,19.23,0,0,0,260.159,239.059Z" transform="translate(-229.148 -213.523)" fill="#f9b54c"/>
  </g>
</svg>
