<svg xmlns="http://www.w3.org/2000/svg" width="53" height="53" viewBox="0 0 53 53">
  <g id="love-infinity-svgrepo-com" transform="translate(0 0.258)">
    <circle id="Ellipse_3384" data-name="Ellipse 3384" cx="26.5" cy="26.5" r="26.5" transform="translate(0 -0.258)" fill="#c1321f"/>
    <path id="Path_65403" data-name="Path 65403" d="M134.491,159.809l-8.581-8.544-.36,1.135-10.766-10.766-4.472,2.73-2.174-2.174-.971,1.241-3.453,4.608,6.777,6.893-3.18,1.007-4.695-4.695H92.661L91.907,161.6l18.125,18.229A26.435,26.435,0,0,0,134.491,159.809Z" transform="translate(-82.421 -127.118)" fill="#a82116"/>
    <path id="Path_65404" data-name="Path 65404" d="M186.623,136.6a3.58,3.58,0,0,1,7.161,0,3.58,3.58,0,0,1,7.161,0c0,3.423-7.161,7.518-7.161,7.518S186.623,140.218,186.623,136.6Z" transform="translate(-167.361 -119.396)" fill="#f4e3c3"/>
    <path id="Path_65405" data-name="Path 65405" d="M263.162,136.6a3.58,3.58,0,0,0-7.161,0v7.519S263.162,140.025,263.162,136.6Z" transform="translate(-229.578 -119.396)" fill="#fed8b2"/>
    <path id="Path_65406" data-name="Path 65406" d="M101.551,212.9c-3.079,0-9.227,3.878-11.743,5.557-2.517-1.679-8.664-5.557-11.743-5.557a7.384,7.384,0,1,0,0,14.768c3.079,0,9.227-3.878,11.743-5.557,2.517,1.679,8.664,5.557,11.743,5.557a7.384,7.384,0,0,0,0-14.768ZM78.064,224.645a4.359,4.359,0,1,1,0-8.719c1.586,0,5.721,2.26,9.007,4.359C83.785,222.385,79.652,224.645,78.064,224.645Zm23.487,0c-1.586,0-5.721-2.26-9.007-4.359,3.286-2.1,7.42-4.359,9.007-4.359a4.359,4.359,0,1,1,0,8.719Z" transform="translate(-63.385 -191.031)" fill="#ffd15d"/>
    <path id="Path_65407" data-name="Path 65407" d="M267.743,212.9c-3.079,0-9.226,3.878-11.743,5.557v3.654c2.517,1.679,8.665,5.557,11.743,5.557a7.384,7.384,0,0,0,0-14.768Zm0,11.743c-1.586,0-5.721-2.26-9.007-4.359,3.286-2.1,7.42-4.359,9.007-4.359a4.359,4.359,0,1,1,0,8.719Z" transform="translate(-229.577 -191.031)" fill="#f9b54c"/>
  </g>
</svg>
