<svg xmlns="http://www.w3.org/2000/svg" width="55" height="55" viewBox="0 0 55 55">
  <g id="balloons-heart-svgrepo-com" transform="translate(0 0.282)">
    <circle id="Ellipse_3388" data-name="Ellipse 3388" cx="27.5" cy="27.5" r="27.5" transform="translate(0 -0.282)" fill="#e6f3ff"/>
    <path id="Path_65415" data-name="Path 65415" d="M165.078,140.293,154.11,129.326l-2.178,2.9L141.7,121.989l-7.181,4.215-3.625-3.625-.483,1.692,2.738,2.738-8.03,4.713c-.606.164-1.041.289-1.041.289l8.872,8.872-.594,1.966-1.129,2.335-1.239,4.2.22,5.05.648,1.883,7.21,7.2a27.258,27.258,0,0,0,27.017-23.221Z" transform="translate(-110.862 -108.797)" fill="#cfdbe6"/>
    <g id="Group_57321" data-name="Group 57321" transform="translate(18.378 25.864)">
      <path id="Path_65416" data-name="Path 65416" d="M174.585,262.807a.55.55,0,0,1-.463-.252,10.739,10.739,0,0,1-.012-10.928,9.634,9.634,0,0,0,.011-9.773.551.551,0,0,1,.926-.6,10.738,10.738,0,0,1,.012,10.928,9.634,9.634,0,0,0-.011,9.773.551.551,0,0,1-.463.848Z" transform="translate(-172.606 -241.006)" fill="#324a5e"/>
      <path id="Path_65417" data-name="Path 65417" d="M291.1,318.493a.55.55,0,0,1-.463-.252,7.48,7.48,0,0,1-.012-7.611,6.376,6.376,0,0,0,.011-6.455.551.551,0,0,1,.926-.6,7.48,7.48,0,0,1,.012,7.611,6.448,6.448,0,0,0-.012,6.454.551.551,0,0,1-.462.849Z" transform="translate(-277.128 -296.691)" fill="#324a5e"/>
    </g>
    <path id="Path_65418" data-name="Path 65418" d="M92.229,111.542a5.653,5.653,0,1,1,11.306,0,5.653,5.653,0,1,1,11.306,0c0,5.406-11.306,11.872-11.306,11.872S92.229,117.252,92.229,111.542Z" transform="translate(-82.409 -94.411)" fill="#ff6472"/>
    <path id="Path_65419" data-name="Path 65419" d="M198.415,111.542a5.653,5.653,0,1,1,11.306,0c0,5.406-11.306,11.872-11.306,11.872V111.542Z" transform="translate(-177.289 -94.411)" fill="#c75163"/>
    <path id="Path_65420" data-name="Path 65420" d="M207.4,178.924a5.653,5.653,0,1,1,11.306,0,5.653,5.653,0,0,1,11.306,0c0,5.406-11.306,11.872-11.306,11.872S207.4,184.634,207.4,178.924Z" transform="translate(-185.313 -154.619)" fill="#ffbbd5"/>
    <path id="Path_65421" data-name="Path 65421" d="M313.584,178.924a5.653,5.653,0,0,1,11.306,0c0,5.406-11.306,11.872-11.306,11.872V178.924Z" transform="translate(-280.195 -154.619)" fill="#ff9cc2"/>
  </g>
</svg>
