<svg id="Glyph_Copy" data-name="Glyph Copy" xmlns="http://www.w3.org/2000/svg" width="21" height="23" viewBox="0 0 21 23">
  <path id="Rectangle_3" data-name="Rectangle 3" d="M6,23a6.007,6.007,0,0,1-6-6V7A6.007,6.007,0,0,1,6,1h6.007c0,.069-.007.142-.007.22V2.61H6.214a4.505,4.505,0,0,0-4.5,4.5v9.78a4.505,4.505,0,0,0,4.5,4.5h7.571a4.505,4.505,0,0,0,4.5-4.5V9H19.78c.072,0,.147,0,.22-.007V17a6.007,6.007,0,0,1-6,6ZM3,18a2,2,0,1,1,2,2A2,2,0,0,1,3,18ZM14,3.5A3.5,3.5,0,1,1,17.5,7,3.5,3.5,0,0,1,14,3.5Z" fill="#fff"/>
</svg>
