<svg id="Layer_1" data-name="Layer 1" xmlns="http://www.w3.org/2000/svg" width="22.718" height="22.718" viewBox="0 0 371 340"><defs><style>.cls-1{fill:#c45957;}.cls-2{fill:#6faa88;}</style></defs><path class="cls-1" d="M229.13,102c-.49,2.72-.76,4.82-1.25,6.87-3.24,13.44,9,27.85,21.32,27.85,20.05,0,27.51,16.52,21.93,32.75-5.09,14.82-9,30-13.26,45.09-2.58,9.15-7,16.65-17.71,18.66-14.11,2.68-27.72-9.22-25.35-23,2-11.42,5.65-22.58,8.77-33.81,2.5-9,5.35-17.89,7.92-26.87,4.48-15.62-3.81-27.31-20.79-29.46-8.57-1.09-14.53-6.76-15.23-14.5A17,17,0,0,1,207.81,87.3a16.56,16.56,0,0,1,19.19,8C228.19,97.48,228.54,100.06,229.13,102Z"/><path class="cls-1" d="M156.52,185c0-8.69-.59-17.42.22-26a33.81,33.81,0,0,1,5.06-14.84c7.2-11.06,4.95-28.83-12.12-34.51-10-3.32-13.28-11-10.54-20.52,2.08-7.2,10.17-12.21,18.08-11.19,11.18,1.43,17.35,11.72,13.57,21.78-2,5.28-4.06,10.94-4,16.41.06,10.64,7.38,17.16,17.43,20.2C194.85,139.5,199.73,147,200,156.18c.58,19.24.23,38.54-.85,57.76-.71,12.62-10.47,20.32-22.48,19.76-11.57-.54-20.23-9.65-20.55-22-.24-8.89,0-17.79,0-26.69Z"/><path class="cls-2" d="M126.28,233.55h0c-11.58,3.06-23.59-3.33-26.83-14.27l-17.4-58.74c-3.24-10.94,3.52-22.28,15.1-25.34h0c11.58-3.06,23.59,3.32,26.83,14.26l17.4,58.74C144.62,219.14,137.86,230.49,126.28,233.55Z"/></svg>