<?xml version="1.0" encoding="UTF-8"?>
<svg xmlns="http://www.w3.org/2000/svg" xmlns:xlink="http://www.w3.org/1999/xlink" width="23px" height="23px" viewBox="0 0 23 23" version="1.1">
<g id="surface1">
<path style=" stroke:none;fill-rule:nonzero;fill:rgb(76.862746%,34.901962%,34.117648%);fill-opacity:1;" d="M 14.203125 6.898438 C 14.175781 7.085938 14.15625 7.226562 14.128906 7.363281 C 13.925781 8.273438 14.683594 9.25 15.449219 9.25 C 16.691406 9.25 17.15625 10.367188 16.808594 11.464844 C 16.492188 12.464844 16.25 13.492188 15.988281 14.515625 C 15.828125 15.132812 15.550781 15.640625 14.886719 15.777344 C 14.015625 15.957031 13.171875 15.152344 13.316406 14.222656 C 13.441406 13.449219 13.667969 12.691406 13.859375 11.933594 C 14.015625 11.324219 14.191406 10.722656 14.351562 10.117188 C 14.628906 9.058594 14.117188 8.269531 13.0625 8.125 C 12.53125 8.050781 12.160156 7.664062 12.117188 7.140625 C 12.0625 6.582031 12.382812 6.058594 12.882812 5.90625 C 13.347656 5.757812 13.84375 5.984375 14.074219 6.445312 C 14.148438 6.59375 14.167969 6.769531 14.203125 6.898438 Z M 14.203125 6.898438 "/>
<path style=" stroke:none;fill-rule:nonzero;fill:rgb(76.862746%,34.901962%,34.117648%);fill-opacity:1;" d="M 9.703125 12.515625 C 9.703125 11.925781 9.667969 11.335938 9.71875 10.757812 C 9.75 10.398438 9.855469 10.054688 10.03125 9.753906 C 10.476562 9.003906 10.335938 7.800781 9.28125 7.417969 C 8.660156 7.191406 8.457031 6.671875 8.625 6.03125 C 8.753906 5.542969 9.257812 5.203125 9.746094 5.273438 C 10.441406 5.371094 10.824219 6.066406 10.589844 6.746094 C 10.464844 7.101562 10.335938 7.484375 10.339844 7.855469 C 10.34375 8.574219 10.796875 9.015625 11.421875 9.222656 C 12.078125 9.4375 12.382812 9.945312 12.398438 10.566406 C 12.433594 11.867188 12.414062 13.171875 12.347656 14.472656 C 12.300781 15.324219 11.695312 15.847656 10.953125 15.808594 C 10.234375 15.773438 9.699219 15.15625 9.679688 14.320312 C 9.664062 13.71875 9.679688 13.117188 9.679688 12.515625 Z M 9.703125 12.515625 "/>
<path style=" stroke:none;fill-rule:nonzero;fill:rgb(43.529412%,66.666669%,53.333336%);fill-opacity:1;" d="M 7.828125 15.800781 C 7.109375 16.007812 6.367188 15.574219 6.164062 14.832031 L 5.085938 10.859375 C 4.886719 10.121094 5.304688 9.351562 6.023438 9.144531 C 6.742188 8.9375 7.484375 9.371094 7.6875 10.109375 L 8.765625 14.085938 C 8.964844 14.824219 8.546875 15.59375 7.828125 15.800781 Z M 7.828125 15.800781 "/>
</g>
</svg>
