<svg xmlns="http://www.w3.org/2000/svg" xmlns:xlink="http://www.w3.org/1999/xlink" width="20.676" height="21.058" viewBox="0 0 20.676 21.058">
  <defs>
    <radialGradient id="radial-gradient" cx="0.5" cy="0.5" r="0.5" gradientUnits="objectBoundingBox">
      <stop offset="0" stop-color="#c4c5ce"/>
      <stop offset="1" stop-color="#626367"/>
    </radialGradient>
  </defs>
  <path id="user-gear" d="M2.632,5.265A5.265,5.265,0,1,1,7.9,10.529,5.27,5.27,0,0,1,2.632,5.265ZM19.061,16.291l1.615.93L19.8,18.742l-1.614-.93a4.369,4.369,0,0,1-2.392,1.4v1.843H14.04V19.214a4.366,4.366,0,0,1-2.392-1.4l-1.614.93-.876-1.521,1.615-.93a4.024,4.024,0,0,1,0-2.75l-1.615-.93.876-1.521,1.614.93a4.369,4.369,0,0,1,2.392-1.4V8.775h1.755v1.843a4.366,4.366,0,0,1,2.392,1.4l1.614-.93.876,1.521-1.615.93a4.024,4.024,0,0,1,0,2.75Zm-2.829-1.375a1.316,1.316,0,1,0-1.316,1.316A1.318,1.318,0,0,0,16.232,14.916Zm-9.213,0a7.858,7.858,0,0,1,.459-2.632H4.387A4.392,4.392,0,0,0,0,16.671v4.387H9.958A7.879,7.879,0,0,1,7.019,14.916Z" fill="url(#radial-gradient)"/>
</svg>
