<svg id="Group_57639" data-name="Group 57639" xmlns="http://www.w3.org/2000/svg" xmlns:xlink="http://www.w3.org/1999/xlink" width="23" height="23" viewBox="0 0 23 23">
  <defs>
    <radialGradient id="radial-gradient" cx="0.5" cy="0.5" r="0.5" gradientUnits="objectBoundingBox">
      <stop offset="0" stop-color="#c4c5ce"/>
      <stop offset="1" stop-color="#626367"/>
    </radialGradient>
  </defs>
  <path id="Path_65741" data-name="Path 65741" d="M10,23a1,1,0,0,1-1,1H1a1,1,0,0,1,0-2H9A1,1,0,0,1,10,23Z" transform="translate(0 -1)" fill="url(#radial-gradient)"/>
  <path id="Path_65742" data-name="Path 65742" d="M1,20H7a1,1,0,0,0,0-2H1a1,1,0,0,0,0,2Z" transform="translate(0 -0.818)" fill="url(#radial-gradient)"/>
  <path id="Path_65743" data-name="Path 65743" d="M1,16H5a1,1,0,0,0,0-2H1a1,1,0,0,0,0,2Z" transform="translate(0 -0.636)" fill="url(#radial-gradient)"/>
  <path id="Path_65744" data-name="Path 65744" d="M11.5,0A11.5,11.5,0,0,0,0,11.5c0,.058.008.115.009.173a2.842,2.842,0,0,1,.95-.173H4.792a2.865,2.865,0,0,1,2.664,3.945,2.851,2.851,0,0,1,1.917,3.833,2.826,2.826,0,0,1,1.954,3.714c.058,0,.115.009.173.009a11.5,11.5,0,1,0,0-23Zm3.553,15.053a.958.958,0,0,1-1.355,0l-2.875-2.875a.958.958,0,0,1-.281-.678V6.708a.958.958,0,0,1,1.917,0V11.1L15.053,13.7a.958.958,0,0,1,0,1.355Z" fill="url(#radial-gradient)"/>
</svg>
