<svg xmlns="http://www.w3.org/2000/svg" xmlns:xlink="http://www.w3.org/1999/xlink" width="251.43" height="221.476" viewBox="0 0 251.43 221.476">
  <defs>
    <filter id="Path" x="48.279" y="19.834" width="154.872" height="155.142" filterUnits="userSpaceOnUse">
      <feOffset dy="3" input="SourceAlpha"/>
      <feGaussianBlur stdDeviation="3" result="blur"/>
      <feFlood flood-opacity="0.161"/>
      <feComposite operator="in" in2="blur"/>
      <feComposite in="SourceGraphic"/>
    </filter>
    <linearGradient id="linear-gradient" x1="0.421" x2="0.5" y2="1" gradientUnits="objectBoundingBox">
      <stop offset="0" stop-color="#9fdeff"/>
      <stop offset="1" stop-color="#28bcf3"/>
    </linearGradient>
    <linearGradient id="linear-gradient-2" x1="0.5" x2="0.5" y2="1" gradientUnits="objectBoundingBox">
      <stop offset="0" stop-color="#fac47f"/>
      <stop offset="1" stop-color="#f8a946"/>
    </linearGradient>
    <linearGradient id="linear-gradient-3" y1="0.5" x2="1" y2="0.5" gradientUnits="objectBoundingBox">
      <stop offset="0" stop-color="#f75400"/>
      <stop offset="1" stop-color="#feab36"/>
    </linearGradient>
    <filter id="Path-2" x="19.162" y="0" width="213.107" height="221.476" filterUnits="userSpaceOnUse">
      <feOffset input="SourceAlpha"/>
      <feGaussianBlur stdDeviation="19.5" result="blur-2"/>
      <feFlood flood-color="#70eae3" flood-opacity="0.149"/>
      <feComposite operator="in" in2="blur-2"/>
      <feComposite in="SourceGraphic"/>
    </filter>
    <linearGradient id="linear-gradient-5" x1="0.5" x2="0.5" y2="1" gradientUnits="objectBoundingBox">
      <stop offset="0" stop-color="#23d2c3" stop-opacity="0.6"/>
      <stop offset="1" stop-color="#01bcad"/>
    </linearGradient>
  </defs>
  <g id="Group_57287" data-name="Group 57287" transform="translate(77.834 -106.211)">
    <g id="Group_57286" data-name="Group 57286">
      <g id="illustration" transform="translate(-77.834 141.32)">
        <path id="BG" d="M235.133,73.334a8.148,8.148,0,1,1,8.148,8.148A8.149,8.149,0,0,1,235.133,73.334ZM53.545,81.482a8.148,8.148,0,1,1,0-16.3H8.148a8.148,8.148,0,1,1,0-16.3H54.709a8.148,8.148,0,1,0,0-16.3h-29.1a8.148,8.148,0,0,1,0-16.3H72.17a8.148,8.148,0,1,1,0-16.3h66.349a8.148,8.148,0,0,1,0,16.3h74.5a8.148,8.148,0,1,1,0,16.3h25.609a8.148,8.148,0,1,1,0,16.3H216.509a8.148,8.148,0,1,0,0,16.3h6.983a8.148,8.148,0,1,1,0,16.3Z" transform="translate(0 22.116)" fill="#b6b6b6" opacity="0.2"/>
        <g id="bling" transform="translate(205.022 7)">
          <path id="Line" d="M.5,0V6.984" transform="translate(11.14)" fill="none" stroke="#a4c3fe" stroke-linecap="round" stroke-linejoin="round" stroke-width="2.5"/>
          <path id="Line-2" data-name="Line" d="M.5,0V6.984" transform="translate(11.14 16.296)" fill="none" stroke="#a4c3fe" stroke-linecap="round" stroke-linejoin="round" stroke-width="2.5"/>
          <path id="Line-3" data-name="Line" d="M0,0V6.984" transform="translate(0 11.64) rotate(-90)" fill="none" stroke="#a4c3fe" stroke-linecap="round" stroke-linejoin="round" stroke-width="2.5"/>
          <path id="Line-4" data-name="Line" d="M0,0V6.984" transform="translate(16.296 11.64) rotate(-90)" fill="none" stroke="#a4c3fe" stroke-linecap="round" stroke-linejoin="round" stroke-width="2.5"/>
        </g>
        <g id="bling-2" data-name="bling" transform="translate(24.736 119.244)">
          <path id="Line-5" data-name="Line" d="M.5,0V4.656" transform="translate(8.812)" fill="none" stroke="#a4c3fe" stroke-linecap="round" stroke-linejoin="round" stroke-width="2.5"/>
          <path id="Line-6" data-name="Line" d="M.5,0V4.656" transform="translate(8.812 13.968)" fill="none" stroke="#a4c3fe" stroke-linecap="round" stroke-linejoin="round" stroke-width="2.5"/>
          <path id="Line-7" data-name="Line" d="M0,0V4.656" transform="translate(0 9.312) rotate(-90)" fill="none" stroke="#a4c3fe" stroke-linecap="round" stroke-linejoin="round" stroke-width="2.5"/>
          <path id="Line-8" data-name="Line" d="M0,0V4.656" transform="translate(13.968 9.312) rotate(-90)" fill="none" stroke="#a4c3fe" stroke-linecap="round" stroke-linejoin="round" stroke-width="2.5"/>
        </g>
      </g>
      <g id="illustration-2" data-name="illustration" transform="translate(-43.71 118.511)">
        <g transform="matrix(1, 0, 0, 1, -34.12, -12.3)" filter="url(#Path)">
          <path id="Path-3" data-name="Path" d="M136.872,68.571a68.51,68.51,0,0,1-20.382,48.864,67.618,67.618,0,0,1-48.054,19.707,68.571,68.571,0,1,1,68.436-68.571Z" transform="translate(57.28 25.83)" fill="#fff"/>
        </g>
        <path id="Path-4" data-name="Path" d="M5.534,11.069A5.534,5.534,0,1,0,0,5.534,5.538,5.538,0,0,0,5.534,11.069Z" transform="translate(153.34 18.088)" fill="url(#linear-gradient)"/>
        <path id="Path-5" data-name="Path" d="M3.78,7.559A3.78,3.78,0,1,0,0,3.78,3.785,3.785,0,0,0,3.78,7.559Z" transform="translate(163.194)" fill="url(#linear-gradient-2)"/>
        <path id="Path-6" data-name="Path" d="M3.78,7.559A3.78,3.78,0,1,0,0,3.78,3.785,3.785,0,0,0,3.78,7.559Z" transform="translate(26.322 21.462)" fill="url(#linear-gradient-3)"/>
        <path id="Path-7" data-name="Path" d="M7.019,14.038A7.019,7.019,0,1,0,0,7.019,7.021,7.021,0,0,0,7.019,14.038Z" transform="translate(0 87.873)" fill="url(#linear-gradient)"/>
        <g transform="matrix(1, 0, 0, 1, -34.12, -12.3)" filter="url(#Path-2)">
          <path id="Path-8" data-name="Path" d="M96.107,0V84.769a67.618,67.618,0,0,1-48.054,19.707A68.669,68.669,0,0,1,0,84.769V0Z" transform="translate(77.66 58.5)" fill="#fff"/>
        </g>
        <path id="Path-9" data-name="Path" d="M25.2,18.8,6.4,0,0,6.4,18.8,25.2Z" transform="translate(68.092 70.659)" fill="url(#linear-gradient-5)"/>
        <path id="Path-10" data-name="Path" d="M28.061,0,0,28.063l6.4,6.385L34.457,6.385Z" transform="translate(80.651 61.318)" fill="url(#linear-gradient-5)"/>
        <path id="Path-11" data-name="Path" d="M49.134,0H0V6.209H49.134Z" transform="translate(67.024 107.347)" fill="url(#linear-gradient-5)"/>
        <path id="Path-12" data-name="Path" d="M49.134,0H0V6.209H49.134Z" transform="translate(67.024 120.98)" fill="url(#linear-gradient-5)"/>
        <path id="Path-13" data-name="Path" d="M25.107,0H0V6.209H25.107Z" transform="translate(79.039 134.748)" fill="url(#linear-gradient-5)"/>
      </g>
    </g>
  </g>
</svg>
