<svg width="237" height="195" viewBox="0 0 237 195" fill="none" xmlns="http://www.w3.org/2000/svg">
<g clip-path="url(#clip0_212_24)">
<path d="M129.982 184.078C127.156 185.811 123.921 186.762 120.607 186.832C117.174 186.785 113.816 185.824 110.879 184.049C34.6016 136.738 27.4356 88.91 27.8996 70.535C27.9325 66.5683 28.2389 62.6086 28.8166 58.684C32.1286 33.096 54.5586 13.552 80.9406 13.552C98.2496 13.552 112.434 24.724 120.455 32.846C128.471 24.724 142.656 13.552 159.968 13.552C186.347 13.552 208.778 33.096 212.142 59.019C212.696 62.8742 212.986 66.7631 213.007 70.658C213.471 88.911 206.309 136.761 129.982 184.078Z" fill="url(#paint0_linear_212_24)"/>
<path d="M26.8584 29.347C26.5015 29.5625 26.0943 29.6804 25.6775 29.6891C25.2459 29.6831 24.8234 29.5637 24.4524 29.3431C14.8464 23.4721 13.9444 17.5381 14.0024 15.2571C14.0069 14.765 14.0456 14.2737 14.1184 13.787C14.3537 12.2191 15.1476 10.789 16.3538 9.75999C17.5599 8.73098 19.097 8.17239 20.6824 8.18705C21.2789 8.93402 22.0361 9.5371 22.8975 9.95158C23.7589 10.366 24.7025 10.5813 25.6585 10.5813C26.6144 10.5813 27.558 10.366 28.4194 9.95158C29.2808 9.5371 30.038 8.93402 30.6345 8.18705C32.2267 8.17466 33.7693 8.73931 34.9773 9.77653C36.1853 10.8137 36.977 12.2533 37.2056 13.829C37.2753 14.3072 37.3116 14.7898 37.3145 15.273C37.3725 17.538 36.4704 23.475 26.8584 29.347Z" fill="url(#paint1_linear_212_24)"/>
<path d="M40.7845 8.97601C40.6371 9.06755 40.4676 9.1176 40.2942 9.12097C40.1149 9.11831 39.9398 9.06792 39.7864 8.97498C35.7994 6.48398 35.4253 3.967 35.4493 3C35.4514 2.79117 35.4675 2.58268 35.4973 2.37598C35.5875 1.71758 35.9131 1.11419 36.4139 0.677368C36.9147 0.240548 37.5567 -0.000102207 38.2212 3.25639e-08C38.4647 0.316214 38.7777 0.572324 39.1358 0.748535C39.4939 0.924746 39.8878 1.01636 40.2869 1.01636C40.686 1.01636 41.0797 0.924746 41.4378 0.748535C41.7959 0.572324 42.1088 0.316214 42.3523 3.25639e-08C43.0195 0.000814549 43.6637 0.243916 44.1651 0.684082C44.6665 1.12425 44.9912 1.73153 45.0784 2.39301C45.1075 2.59608 45.1227 2.80085 45.1243 3.00598C45.1483 3.96698 44.7745 6.48601 40.7845 8.97601Z" fill="url(#paint2_linear_212_24)"/>
<path d="M229.787 180.146C229.551 180.292 229.281 180.372 229.004 180.378C228.717 180.374 228.436 180.293 228.192 180.144C221.821 176.157 221.221 172.125 221.26 170.577C221.263 170.242 221.289 169.908 221.338 169.577C221.481 168.524 222.002 167.559 222.802 166.861C223.603 166.162 224.629 165.777 225.692 165.777C226.08 166.283 226.58 166.692 227.152 166.974C227.724 167.256 228.354 167.403 228.991 167.403C229.629 167.403 230.259 167.256 230.831 166.974C231.403 166.692 231.903 166.283 232.291 165.777C233.359 165.778 234.39 166.168 235.192 166.873C235.994 167.578 236.512 168.55 236.65 169.609C236.696 169.934 236.72 170.262 236.723 170.59C236.755 172.122 236.162 176.157 229.787 180.146Z" fill="url(#paint3_linear_212_24)"/>
<path d="M217.326 194.829C217.164 194.927 216.98 194.98 216.79 194.984C216.595 194.982 216.403 194.928 216.235 194.828C211.876 192.17 211.466 189.482 211.493 188.45C211.495 188.227 211.513 188.004 211.546 187.784C211.654 187.073 212.014 186.425 212.562 185.959C213.109 185.492 213.806 185.24 214.525 185.247C214.796 185.585 215.14 185.859 215.531 186.046C215.922 186.234 216.35 186.331 216.783 186.331C217.217 186.331 217.645 186.234 218.036 186.046C218.427 185.859 218.77 185.585 219.041 185.247C219.763 185.241 220.463 185.496 221.011 185.966C221.559 186.436 221.919 187.088 222.023 187.802C222.055 188.019 222.072 188.237 222.073 188.456C222.097 189.482 221.689 192.17 217.326 194.829Z" fill="url(#paint4_linear_212_24)"/>
</g>
<defs>
<linearGradient id="paint0_linear_212_24" x1="27.8799" y1="100.192" x2="213.027" y2="100.192" gradientUnits="userSpaceOnUse">
<stop stop-color="#F75400"/>
<stop offset="1" stop-color="#FEAB36"/>
</linearGradient>
<linearGradient id="paint1_linear_212_24" x1="14" y1="18.9379" x2="37.3169" y2="18.9379" gradientUnits="userSpaceOnUse">
<stop stop-color="#F75400"/>
<stop offset="1" stop-color="#FEAB36"/>
</linearGradient>
<linearGradient id="paint2_linear_212_24" x1="35.4482" y1="4.56049" x2="45.1253" y2="4.56049" gradientUnits="userSpaceOnUse">
<stop stop-color="#F75400"/>
<stop offset="1" stop-color="#FEAB36"/>
</linearGradient>
<linearGradient id="paint3_linear_212_24" x1="221.259" y1="173.078" x2="236.724" y2="173.078" gradientUnits="userSpaceOnUse">
<stop stop-color="#F75400"/>
<stop offset="1" stop-color="#FEAB36"/>
</linearGradient>
<linearGradient id="paint4_linear_212_24" x1="211.492" y1="190.115" x2="222.074" y2="190.115" gradientUnits="userSpaceOnUse">
<stop stop-color="#F75400"/>
<stop offset="1" stop-color="#FEAB36"/>
</linearGradient>
<clipPath id="clip0_212_24">
<rect width="237" height="194.98" fill="white"/>
</clipPath>
</defs>
</svg>
