<svg xmlns="http://www.w3.org/2000/svg" width="251.43" height="141.019" viewBox="0 0 251.43 141.019">
  <g id="illustration" transform="translate(0 1.25)">
    <g id="Group_57279" data-name="Group 57279">
      <g id="Group_57277" data-name="Group 57277">
        <path id="BG" d="M235.133,73.334a8.148,8.148,0,1,1,8.148,8.148A8.149,8.149,0,0,1,235.133,73.334ZM53.545,81.482a8.148,8.148,0,1,1,0-16.3H8.148a8.148,8.148,0,1,1,0-16.3H54.709a8.148,8.148,0,1,0,0-16.3h-29.1a8.148,8.148,0,0,1,0-16.3H72.17a8.148,8.148,0,1,1,0-16.3h66.349a8.148,8.148,0,0,1,0,16.3h74.5a8.148,8.148,0,1,1,0,16.3h25.609a8.148,8.148,0,1,1,0,16.3H216.509a8.148,8.148,0,1,0,0,16.3h6.983a8.148,8.148,0,1,1,0,16.3Z" transform="translate(0 22.116)" fill="#eaeaea"/>
        <g id="bling" transform="translate(174.022)">
          <path id="Line" d="M.5,0V6.984" transform="translate(11.14)" fill="none" stroke="#a4c3fe" stroke-linecap="round" stroke-linejoin="round" stroke-width="2.5"/>
          <path id="Line-2" data-name="Line" d="M.5,0V6.984" transform="translate(11.14 16.296)" fill="none" stroke="#a4c3fe" stroke-linecap="round" stroke-linejoin="round" stroke-width="2.5"/>
          <path id="Line-3" data-name="Line" d="M0,0V6.984" transform="translate(0 11.64) rotate(-90)" fill="none" stroke="#a4c3fe" stroke-linecap="round" stroke-linejoin="round" stroke-width="2.5"/>
          <path id="Line-4" data-name="Line" d="M0,0V6.984" transform="translate(16.296 11.64) rotate(-90)" fill="none" stroke="#a4c3fe" stroke-linecap="round" stroke-linejoin="round" stroke-width="2.5"/>
        </g>
        <g id="bling-2" data-name="bling" transform="translate(79.736 119.895)">
          <path id="Line-5" data-name="Line" d="M.5,0V4.656" transform="translate(8.812)" fill="none" stroke="#a4c3fe" stroke-linecap="round" stroke-linejoin="round" stroke-width="2.5"/>
          <path id="Line-6" data-name="Line" d="M.5,0V4.656" transform="translate(8.812 13.968)" fill="none" stroke="#a4c3fe" stroke-linecap="round" stroke-linejoin="round" stroke-width="2.5"/>
          <path id="Line-7" data-name="Line" d="M0,0V4.656" transform="translate(0 9.312) rotate(-90)" fill="none" stroke="#a4c3fe" stroke-linecap="round" stroke-linejoin="round" stroke-width="2.5"/>
          <path id="Line-8" data-name="Line" d="M0,0V4.656" transform="translate(13.968 9.312) rotate(-90)" fill="none" stroke="#a4c3fe" stroke-linecap="round" stroke-linejoin="round" stroke-width="2.5"/>
        </g>
      </g>
      <g id="undraw_security_on_re_e491" transform="translate(-200.828 -140.169)">
        <path id="Path_65240" data-name="Path 65240" d="M327,269.1a20.75,20.75,0,0,1-5.5-.7l-.4-.1-.3-.2a91.612,91.612,0,0,1-29.7-23.3,87.4,87.4,0,0,1-15-26.6,103.1,103.1,0,0,1-5.8-36.1v-.6a14.09,14.09,0,0,1,8.4-13.3c3.9-1.6,39.5-16.3,42.1-17.3,4.8-2.4,10-.4,10.8,0,1.9.8,34.8,14.2,41.9,17.6,7.3,3.5,9.3,9.8,9.3,12.9a105.06,105.06,0,0,1-7.4,39.7,89.235,89.235,0,0,1-16.5,26.6c-13.5,15.2-27,20.6-27.1,20.6A10.8,10.8,0,0,1,327,269.1Zm-3.2-7.8c1.2.3,3.9.7,5.6,0,2.2-.8,13.5-6.7,24.1-18.5,14.6-16.4,22-37,22-61.3,0-.5-.4-4-5-6.2-7-3.3-41.2-17.3-41.5-17.5h-.1a6.394,6.394,0,0,0-4.6-.1l-.3.1c-.4.2-38.2,15.7-42.2,17.4a6.764,6.764,0,0,0-3.8,6.4v.7C277.6,198.9,281.4,239.8,323.8,261.3Z" fill="#3f3d56"/>
        <path id="Path_65241" data-name="Path 65241" d="M322.5,154.3s-38.2,15.7-42.2,17.4a10.538,10.538,0,0,0-6.1,9.9c0,4.1-3.1,57.4,48.4,83.2,0,0,4.7,1.3,8.2,0s48.5-23.1,48.5-83.4c0,0,0-6.1-7.2-9.5s-41.7-17.5-41.7-17.5S326.1,152.5,322.5,154.3Z" fill="#ff0009"/>
        <path id="Path_65242" data-name="Path 65242" d="M326.6,166.6v83.6s-38.5-18.5-38.2-67.2Z" opacity="0.1"/>
        <path id="Path_65243" data-name="Path 65243" d="M327.1,226.7l-12.2-15.8,7.1-5.5,5.8,7.4,19.6-20.7,6.6,6.3Z" transform="translate(-7.907 0.029)" fill="#fff"/>
      </g>
    </g>
  </g>
</svg>
