<svg xmlns="http://www.w3.org/2000/svg" xmlns:xlink="http://www.w3.org/1999/xlink" width="146.239" height="139.007" viewBox="0 0 146.239 139.007">
  <defs>
    <clipPath id="clip-path">
      <path id="Path_65453" data-name="Path 65453" d="M750.888,270.18l-4.213,0v.8a2.691,2.691,0,0,1-2.688,2.694l-21.511.021a2.691,2.691,0,0,1-2.694-2.688V270.2l-5.178,0a4,4,0,0,0-3.995,4l.042,79.991a4,4,0,0,0,4,3.994l36.283-.022a4,4,0,0,0,3.994-4l-.042-79.991A4,4,0,0,0,750.888,270.18Z" transform="translate(-710.61 -270.18)"/>
    </clipPath>
  </defs>
  <g id="_6823" data-name="6823" transform="translate(0 -0.48)">
    <rect id="Rectangle_6632" data-name="Rectangle 6632" width="145.627" height="139.007" transform="translate(0 0.48)" fill="#fff"/>
    <g id="Group_57321" data-name="Group 57321" transform="translate(6.568 48.567)">
      <path id="Path_65403" data-name="Path 65403" d="M109.278,694.729l3.56,7.945a.6.6,0,0,1-.3.793l-13.808,6.187a.6.6,0,0,1-.793-.3l-3.56-7.944a.6.6,0,0,1,.3-.793l13.808-6.187A.6.6,0,0,1,109.278,694.729Z" transform="translate(-94.322 -694.373)" fill="#fbd5b7"/>
      <path id="Path_65404" data-name="Path 65404" d="M109.279,694.737l.2.44-4.267,7.338a1.912,1.912,0,0,1-2.058.944l-8.663-1.792-.112-.251a.6.6,0,0,1,.3-.793l13.808-6.187A.6.6,0,0,1,109.279,694.737Z" transform="translate(-94.323 -694.381)" fill="#fbe9db"/>
    </g>
    <g id="Group_57325" data-name="Group 57325" transform="translate(50.137 2.175)">
      <g id="Group_57324" data-name="Group 57324">
        <g id="Group_57322" data-name="Group 57322" transform="translate(0 0.001)">
          <path id="Path_65405" data-name="Path 65405" d="M731.073,41.152a.78.78,0,0,1-.361-.09L720.381,35.61a.777.777,0,0,1-.325-1.049l3.137-5.944a.778.778,0,0,1,1.049-.325l10.331,5.452a.778.778,0,0,1,.325,1.049h0l-3.137,5.944a.77.77,0,0,1-.458.38A.794.794,0,0,1,731.073,41.152Zm-7.192-12.323a.151.151,0,0,0-.133.08l-3.137,5.944a.15.15,0,0,0,.063.2L731,40.508a.151.151,0,0,0,.2-.063l3.137-5.944h0a.15.15,0,0,0-.063-.2l-10.331-5.452A.147.147,0,0,0,723.881,28.829Z" transform="translate(-719.967 -28.202)" fill="#aee1f4"/>
        </g>
        <g id="Group_57323" data-name="Group 57323" transform="translate(3.092)">
          <path id="Path_65406" data-name="Path 65406" d="M769.024,36.2a1.781,1.781,0,0,1-1.6-1L764.4,29.08a.315.315,0,0,1,0-.286l.1-.188a.778.778,0,0,1,1.049-.325l10.33,5.451a.778.778,0,0,1,.325,1.049h0l-.173.329a.314.314,0,0,1-.234.164l-6.491.9A1.726,1.726,0,0,1,769.024,36.2Zm-4-7.249,2.96,5.976a1.157,1.157,0,0,0,1.224.632l6.338-.875.1-.187h0a.15.15,0,0,0-.063-.2l-10.33-5.452a.15.15,0,0,0-.2.063Z" transform="translate(-764.363 -28.192)" fill="#aee1f4"/>
        </g>
      </g>
    </g>
    <path id="Path_65407" data-name="Path 65407" d="M1167.589,1838.642l-1.8-2.49-3.071.071,1.813-2.48-1.015-2.9,2.918.957,2.443-1.861-.008,3.071,2.525,1.748-2.923.941Z" transform="translate(-1081.751 -1702.295)" fill="#aee1f4"/>
    <g id="Group_57346" data-name="Group 57346" transform="translate(29.693 12.406)">
      <g id="Group_57326" data-name="Group 57326" transform="translate(0 22.784)">
        <path id="Path_65408" data-name="Path 65408" d="M445.245,519.5s-2.687-.939-6.548-2.533c-1.129-.466-2.358-.988-3.65-1.559-5.712-2.523-10.351-4.4-8.049-10.235,1.449-3.675,5.356-3.234,8.71-2.027a31.252,31.252,0,0,1,4.735,2.242Z" transform="translate(-426.395 -502.282)" fill="#ffa07a"/>
        <path id="Path_65409" data-name="Path 65409" d="M563.119,528.562a30,30,0,0,0-2.989-13.822,37.855,37.855,0,0,1,5.191,2.444l4.347,13.911S566.981,530.156,563.119,528.562Z" transform="translate(-550.817 -513.873)" fill="#e88861"/>
      </g>
      <g id="Group_57327" data-name="Group 57327" transform="translate(50.261 27.358)">
        <path id="Path_65410" data-name="Path 65410" d="M1214.428,658.768v8.924h-38.777l-5.526-18.3c-3.32-1.748-6.4-2.233-10.827-5.707-4.539-3.561-9.844-5.117-10.064-5.7-5.2-13.765,9.718-26.3,12.472-32.109.1-.2.184-.4.27-.608,2.365-5.7,2.176-14.719,1.7-19.107a32.041,32.041,0,0,1-.195-5.606c1.173-9.183,9.039-15.582,13.848-11.154,2.592,2.387-3.418,11.923,1.208,21.221,4.913,9.871,9.76,20.492,11.327,35.471C1193.494,630.531,1205.546,646.91,1214.428,658.768Z" transform="translate(-1148.143 -567.968)" fill="#ffa07a"/>
        <path id="Path_65411" data-name="Path 65411" d="M1504.509,637.247c-5.347,1-4.009-7.17-3.552-10.327.054,1.564.067,3.116.14,4.673C1501.135,633.983,1501.533,637.07,1504.509,637.247Z" transform="translate(-1475.934 -622.815)" fill="#e88861"/>
      </g>
      <path id="Path_65412" data-name="Path 65412" d="M1263.046,818.888s13.821-8.387,11.8-16.189c-6.64-6.334-4.009-17.536-3.829-22.9s-1.894-24.763-1.894-24.763l-11.164,60.192Z" transform="translate(-1200.052 -714.654)" fill="#e88861"/>
      <g id="Group_57339" data-name="Group 57339" transform="translate(14.493)">
        <g id="Group_57338" data-name="Group 57338">
          <path id="Path_65413" data-name="Path 65413" d="M679.875,276.218l-35.739.021a9.567,9.567,0,0,1-9.574-9.561l-.052-81.983a9.569,9.569,0,0,1,9.562-9.574l35.739-.021a9.568,9.568,0,0,1,9.574,9.561l.052,81.983A9.567,9.567,0,0,1,679.875,276.218Z" transform="translate(-634.51 -175.1)" fill="#000644"/>
          <path id="Path_65414" data-name="Path 65414" d="M720.729,318.914l-35.615.021a6.568,6.568,0,0,1-6.572-6.563l-.052-81.779a6.567,6.567,0,0,1,6.563-6.572L720.668,224a6.567,6.567,0,0,1,6.572,6.563l.052,81.779A6.567,6.567,0,0,1,720.729,318.914Z" transform="translate(-675.427 -220.595)" fill="#fff"/>
          <g id="Group_57328" data-name="Group 57328" transform="translate(5.3 6.621)">
            <path id="Path_65415" data-name="Path 65415" d="M754.94,354.165a4,4,0,0,1-3.994,4l-36.283.022a4,4,0,0,1-4-4l0-9.166L710.62,274.2a4,4,0,0,1,3.994-4l5.178,0v.809a2.69,2.69,0,0,0,2.693,2.687L744,273.673a2.69,2.69,0,0,0,2.687-2.694v-.8l4.213,0a4,4,0,0,1,4,3.994l.037,70.851Z" transform="translate(-710.62 -270.18)" fill="#aee1f4"/>
          </g>
          <path id="Path_65416" data-name="Path 65416" d="M901.872,272.637H883.379a.949.949,0,0,1-.949-.948h0a.949.949,0,0,1,.949-.949h18.494a.949.949,0,0,1,.948.949h0A.949.949,0,0,1,901.872,272.637Z" transform="translate(-865.165 -264.08)" fill="#aee1f4"/>
          <g id="Group_57335" data-name="Group 57335" transform="translate(5.299 6.621)">
            <g id="Group_57334" data-name="Group 57334" clip-path="url(#clip-path)">
              <path id="Path_65417" data-name="Path 65417" d="M662.042,454.287c1.007-2.276,1.978-3.04,2.45-4.018.7-1.46,1.61-4.02,2.471-5.392,1.748-2.786,5-.983,6.5-2.056,2.605-1.86.385-2.891,4.627-4.767,3.08-1.362,4.215,1.186,5.495,1.014s3-2.884,6.22-2.345c2.171.363,2.685,2.519,4.038,3.51s3.409-1.142,5.651.259c3.464,2.165,1.62,4.139,2.8,4.76,1.637.863,2.687-.944,4.744,1.6,2.357,2.91.369,3.885,2.523,6.327,2.577,2.921.127,4.866.029,6.816-.136,2.72,2.69,2.83,1.139,8.806-.388,1.494-3.855,1.8-4.817,3-1.206,1.513,1.331,5.086-1.216,7.053-2.7,2.082-5.278.306-6.383,2.332-2.459,4.51-4.332,1.891-9.136,3.788-5.192,2.049-3.239-2.452-9.189-1.4-2.946.15-4.46-1.948-4.73-4.836-1.5-1.87-4.113-.515-6.219-1.566-1.882-.79-3.983-3.845-3.769-5.873.547-2.351-.8-1.165-2.061-4.215s1.74-4.31,1.512-4.967C664.067,460.228,661.16,456.28,662.042,454.287Z" transform="translate(-665.271 -425.061)" fill="#000644"/>
              <path id="Path_65418" data-name="Path 65418" d="M714.808,1136.3s13.463,1.036,18.042,12.651c2.426,6.154,2.085,14.934,1.519,20.022s-8.293,8.66-8.293,8.66l-27.343,0s-9.306-8.521-10.354-12.577-1.474-11.251,2.011-17.582c5.118-9.3,14.76-10.772,17.381-11.016A51.892,51.892,0,0,1,714.808,1136.3Z" transform="translate(-689.231 -1075.937)" fill="#f5e34c"/>
              <rect id="Rectangle_6633" data-name="Rectangle 6633" width="7.677" height="10.725" transform="translate(18.54 53.793)" fill="#ffa07a"/>
              <path id="Path_65419" data-name="Path 65419" d="M878.77,616.168h0c-6.239.1-11.388-5.486-11.5-12.476l-.136-8.524c-.111-6.99,4.857-12.737,11.1-12.836h0c6.239-.1,11.388,5.486,11.5,12.476l.136,8.523C889.978,610.322,885.01,616.068,878.77,616.168Z" transform="translate(-856.234 -560.594)" fill="#ffa07a"/>
              <path id="Path_65420" data-name="Path 65420" d="M985.36,957a.433.433,0,0,0-.481.5,3.764,3.764,0,0,0,6.586.2.434.434,0,0,0-.45-.533Z" transform="translate(-965.768 -909.168)" fill="#fff"/>
              <path id="Path_65421" data-name="Path 65421" d="M806.761,786.7c.724,2.295,0,4.568-1.616,5.079s-3.514-.937-4.238-3.232,0-4.569,1.616-5.079S806.036,784.4,806.761,786.7Z" transform="translate(-794.357 -747.626)" fill="#ffa07a"/>
              <path id="Path_65422" data-name="Path 65422" d="M1161.856,786.7c-.724,2.295,0,4.568,1.616,5.079s3.514-.937,4.238-3.232,0-4.569-1.616-5.079S1162.58,784.4,1161.856,786.7Z" transform="translate(-1130.171 -747.626)" fill="#ffa07a"/>
              <g id="Group_57329" data-name="Group 57329" transform="translate(15.081 37.654)">
                <path id="Path_65423" data-name="Path 65423" d="M938.47,812.1a1.316,1.316,0,1,1-1.421-1.2A1.316,1.316,0,0,1,938.47,812.1Z" transform="translate(-935.24 -810.892)" fill="#000644"/>
                <path id="Path_65424" data-name="Path 65424" d="M928.99,810.95l-1.81.258.607.978Z" transform="translate(-927.18 -810.946)" fill="#000644"/>
              </g>
              <g id="Group_57330" data-name="Group 57330" transform="translate(27.295 37.653)">
                <path id="Path_65425" data-name="Path 65425" d="M1105.2,812.1a1.316,1.316,0,1,1-1.421-1.2A1.316,1.316,0,0,1,1105.2,812.1Z" transform="translate(-1102.573 -810.891)" fill="#000644"/>
                <path id="Path_65426" data-name="Path 65426" d="M1122.91,810.885l1.58,0-.369,1.207Z" transform="translate(-1121.494 -810.88)" fill="#000644"/>
              </g>
              <path id="Path_65427" data-name="Path 65427" d="M849.328,593.558s5.532-2.343,7.46-7.458c3.462,3.495,15.138,7.274,15.138,7.274s1.962-15.412-11.291-14.937C848.293,578.879,846.216,589.337,849.328,593.558Z" transform="translate(-838.471 -556.96)" fill="#000644"/>
              <ellipse id="Ellipse_3384" data-name="Ellipse 3384" cx="6.308" cy="3.479" rx="6.308" ry="3.479" transform="translate(15.96 59.849)" fill="#ffa07a"/>
              <g id="Group_57331" data-name="Group 57331" transform="translate(1.005 65.029)">
                <path id="Path_65428" data-name="Path 65428" d="M826.28,1228.24a1.393,1.393,0,1,1,0-1.97A1.393,1.393,0,0,1,826.28,1228.24Z" transform="translate(-817.018 -1224.34)" fill="#e5c83c"/>
                <path id="Path_65429" data-name="Path 65429" d="M932.767,1285.4a1.244,1.244,0,1,1-1.244-1.244A1.244,1.244,0,0,1,932.767,1285.4Z" transform="translate(-915.988 -1278.578)" fill="#e5c83c"/>
                <path id="Path_65430" data-name="Path 65430" d="M1143.328,1389.264a1.244,1.244,0,1,1-1.244-1.244A1.244,1.244,0,0,1,1143.328,1389.264Z" transform="translate(-1111.885 -1375.205)" fill="#e5c83c"/>
                <path id="Path_65431" data-name="Path 65431" d="M1071.727,1445.644a1.244,1.244,0,1,1-1.244-1.244A1.243,1.243,0,0,1,1071.727,1445.644Z" transform="translate(-1045.271 -1427.659)" fill="#e5c83c"/>
                <path id="Path_65432" data-name="Path 65432" d="M1171.037,1503.154a1.244,1.244,0,1,1-1.244-1.244A1.244,1.244,0,0,1,1171.037,1503.154Z" transform="translate(-1137.665 -1481.164)" fill="#e5c83c"/>
                <path id="Path_65433" data-name="Path 65433" d="M856.127,1527.333a1.244,1.244,0,1,1-1.244-1.244A1.244,1.244,0,0,1,856.127,1527.333Z" transform="translate(-844.685 -1503.66)" fill="#e5c83c"/>
                <path id="Path_65434" data-name="Path 65434" d="M812.96,1335.58a1.264,1.264,0,1,1,0-1.788A1.264,1.264,0,0,1,812.96,1335.58Z" transform="translate(-804.83 -1324.41)" fill="#e5c83c"/>
                <path id="Path_65435" data-name="Path 65435" d="M727.145,1380a1.233,1.233,0,1,1,0-1.744A1.233,1.233,0,0,1,727.145,1380Z" transform="translate(-725.04 -1365.787)" fill="#e5c83c"/>
                <path id="Path_65436" data-name="Path 65436" d="M752.192,1486.305a1.233,1.233,0,1,1,0-1.744A1.233,1.233,0,0,1,752.192,1486.305Z" transform="translate(-748.343 -1464.687)" fill="#e5c83c"/>
                <path id="Path_65437" data-name="Path 65437" d="M899.145,1437.175a1.233,1.233,0,1,1,0-1.744A1.234,1.234,0,0,1,899.145,1437.175Z" transform="translate(-885.062 -1418.979)" fill="#e5c83c"/>
                <path id="Path_65438" data-name="Path 65438" d="M985.512,1384.222a1.233,1.233,0,1,1,0-1.744A1.232,1.232,0,0,1,985.512,1384.222Z" transform="translate(-965.416 -1369.713)" fill="#e5c83c"/>
                <path id="Path_65439" data-name="Path 65439" d="M986.3,1499.292a1.233,1.233,0,1,1,0-1.744A1.234,1.234,0,0,1,986.3,1499.292Z" transform="translate(-966.143 -1476.77)" fill="#e5c83c"/>
                <path id="Path_65440" data-name="Path 65440" d="M1057.092,1304.275a1.233,1.233,0,1,1,0-1.744A1.232,1.232,0,0,1,1057.092,1304.275Z" transform="translate(-1032.011 -1295.333)" fill="#e5c83c"/>
                <path id="Path_65441" data-name="Path 65441" d="M1098.165,1231.312a1.233,1.233,0,1,1,0-1.744A1.233,1.233,0,0,1,1098.165,1231.312Z" transform="translate(-1070.223 -1227.452)" fill="#e5c83c"/>
                <path id="Path_65442" data-name="Path 65442" d="M1188.672,1206.1a1.233,1.233,0,1,1,0-1.744A1.234,1.234,0,0,1,1188.672,1206.1Z" transform="translate(-1154.428 -1203.998)" fill="#e5c83c"/>
                <path id="Path_65443" data-name="Path 65443" d="M1194.635,1297.522a1.233,1.233,0,1,1,0-1.744A1.232,1.232,0,0,1,1194.635,1297.522Z" transform="translate(-1159.975 -1289.051)" fill="#e5c83c"/>
                <path id="Path_65444" data-name="Path 65444" d="M1292.915,1327.635a1.233,1.233,0,1,1,0-1.744A1.232,1.232,0,0,1,1292.915,1327.635Z" transform="translate(-1251.411 -1317.067)" fill="#e5c83c"/>
                <path id="Path_65445" data-name="Path 65445" d="M1249.425,1410.5a1.233,1.233,0,1,1,0-1.744A1.234,1.234,0,0,1,1249.425,1410.5Z" transform="translate(-1210.95 -1394.164)" fill="#e5c83c"/>
                <path id="Path_65446" data-name="Path 65446" d="M1300.2,1486.305a1.233,1.233,0,1,1,0-1.744A1.233,1.233,0,0,1,1300.2,1486.305Z" transform="translate(-1258.193 -1464.687)" fill="#e5c83c"/>
              </g>
              <path id="Path_65447" data-name="Path 65447" d="M860.045,598.847c-1.508-5.241.526-11.5,5.873-13.589,4.2-1.733,9.444-1.658,13.082,1.295a11.337,11.337,0,0,1,3.644,12.11c.467-8.055-5.656-13.981-13.728-12.262C862.527,587.383,859.876,592.846,860.045,598.847Z" transform="translate(-849.188 -562.249)" fill="#ff4747"/>
              <path id="Path_65448" data-name="Path 65448" d="M1000.49,852.53a12.484,12.484,0,0,1-.354,3.765,6.506,6.506,0,0,0,2.964.392,3.64,3.64,0,0,1-3.77-.083A39.722,39.722,0,0,1,1000.49,852.53Z" transform="translate(-979.224 -811.976)" fill="#f08459"/>
              <g id="Group_57332" data-name="Group 57332" transform="translate(26.652 35.202)">
                <path id="Path_65449" data-name="Path 65449" d="M1097.379,777.465a.382.382,0,0,1-.255-.1,3.531,3.531,0,0,0-3.287-.791.383.383,0,1,1-.244-.726,4.266,4.266,0,0,1,4.042.946.383.383,0,0,1,.029.541A.379.379,0,0,1,1097.379,777.465Z" transform="translate(-1093.331 -775.686)" fill="#000644"/>
              </g>
              <g id="Group_57333" data-name="Group 57333" transform="translate(13.676 35.103)">
                <path id="Path_65450" data-name="Path 65450" d="M907.382,776.134a.383.383,0,0,1-.262-.661,4.131,4.131,0,0,1,4.416-.939.383.383,0,0,1-.31.7,3.375,3.375,0,0,0-3.581.8A.382.382,0,0,1,907.382,776.134Z" transform="translate(-906.999 -774.256)" fill="#000644"/>
              </g>
              <path id="Path_65451" data-name="Path 65451" d="M1112.857,853.486c.108.457-.78,1.058-1.983,1.341s-2.265.144-2.373-.314.78-1.058,1.982-1.341S1112.749,853.029,1112.857,853.486Z" transform="translate(-1080.785 -812.438)" fill="#f08459"/>
              <path id="Path_65452" data-name="Path 65452" d="M900.775,856.965c-.038.468-1.068.765-2.3.664s-2.2-.563-2.16-1.031,1.068-.765,2.3-.664S900.813,856.5,900.775,856.965Z" transform="translate(-883.382 -815.125)" fill="#f08459"/>
            </g>
          </g>
          <path id="Path_65454" data-name="Path 65454" d="M755.433,1354.109a4,4,0,0,1-3.994,4l-36.283.021a4,4,0,0,1-4-4l0-9.166h44.278Z" transform="translate(-705.813 -1263.503)" fill="#b9e4f4"/>
          <path id="Path_65455" data-name="Path 65455" d="M956.155,1367.922a5.352,5.352,0,1,1-5.352-5.352A5.353,5.353,0,0,1,956.155,1367.922Z" transform="translate(-923.797 -1279.877)" fill="#ff4747"/>
          <path id="Path_65456" data-name="Path 65456" d="M753.455,1367.922a5.352,5.352,0,1,1-5.352-5.352A5.353,5.353,0,0,1,753.455,1367.922Z" transform="translate(-735.212 -1279.877)" fill="#fff"/>
          <path id="Path_65457" data-name="Path 65457" d="M1158.855,1367.922a5.352,5.352,0,1,1-5.352-5.352A5.352,5.352,0,0,1,1158.855,1367.922Z" transform="translate(-1112.381 -1279.877)" fill="#fff"/>
          <path id="Path_65458" data-name="Path 65458" d="M982.04,1397.229a1.789,1.789,0,0,0-.653-.386h0l-.006,0-.008,0a.59.59,0,0,1-.318-.974l1.576-1.7a.591.591,0,0,1,1,.242l0,.007a.026.026,0,0,1,0,.006h0a1.773,1.773,0,0,0,.435.62l1.926-2.079a3.372,3.372,0,0,0-4.666.389l-1.4,1.514a3.077,3.077,0,0,0,.188,4.448Z" transform="translate(-955.068 -1307.44)" fill="#fff"/>
          <g id="Group_57336" data-name="Group 57336" transform="translate(9.662 85.003)">
            <path id="Path_65459" data-name="Path 65459" d="M779.966,1407.282l-6.446-.022a.257.257,0,0,0-.257.256l-.013,3.943a.257.257,0,0,0,.255.258l6.445.021a.256.256,0,0,0,.257-.255l.013-3.944A.254.254,0,0,0,779.966,1407.282Zm-3.237,4.224a2.007,2.007,0,1,1,2.014-2A2.007,2.007,0,0,1,776.729,1411.506Z" transform="translate(-773.25 -1406.458)" fill="#b9e4f4"/>
            <path id="Path_65460" data-name="Path 65460" d="M805.44,1396.717l-2.92-.008.08-.46a.635.635,0,0,1,.623-.5l1.516.006a.634.634,0,0,1,.619.5Z" transform="translate(-800.482 -1395.75)" fill="#b9e4f4"/>
            <path id="Path_65461" data-name="Path 65461" d="M784.126,1401.155l-.827,0,0-.8a.216.216,0,0,1,.216-.215h.4a.217.217,0,0,1,.215.216Z" transform="translate(-782.6 -1399.834)" fill="#b9e4f4"/>
            <path id="Path_65462" data-name="Path 65462" d="M806.155,1420.892a1.388,1.388,0,1,1-1.383-1.392A1.388,1.388,0,0,1,806.155,1420.892Z" transform="translate(-801.282 -1417.846)" fill="#b9e4f4"/>
          </g>
          <g id="Group_57337" data-name="Group 57337" transform="translate(38.826 83.951)">
            <path id="Path_65463" data-name="Path 65463" d="M1206.991,1383.252c0,.375,0,.75,0,1.125a1.46,1.46,0,0,1-2.755.7,1.368,1.368,0,0,1-.162-.629c0-.809-.01-1.619,0-2.428a1.457,1.457,0,0,1,2.881-.232,1.7,1.7,0,0,1,.032.355C1206.993,1382.514,1206.991,1382.882,1206.991,1383.252Z" transform="translate(-1203.233 -1380.634)" fill="#b9e4f4"/>
            <path id="Path_65464" data-name="Path 65464" d="M1194.58,1422.049h1a.239.239,0,0,1,.26.233.233.233,0,0,1-.26.224h-2.462a.233.233,0,0,1-.259-.225.24.24,0,0,1,.262-.232h.994v-.792l-.179-.029a2.3,2.3,0,0,1-1.839-1.83,5.109,5.109,0,0,1-.041-.687c-.006-.236,0-.472,0-.707a.228.228,0,0,1,.3-.233.224.224,0,0,1,.156.22c0,.119,0,.238,0,.358.006.292-.007.587.027.876a1.728,1.728,0,0,0,.96,1.373,1.833,1.833,0,0,0,2.536-.884,1.943,1.943,0,0,0,.157-.8c0-.3,0-.608,0-.911a.224.224,0,0,1,.3-.234.208.208,0,0,1,.15.207c-.006.454.006.91-.037,1.36a2.029,2.029,0,0,1-.587,1.2,2.254,2.254,0,0,1-1.358.7c-.071.01-.086.036-.085.1C1194.583,1421.576,1194.58,1421.808,1194.58,1422.049Z" transform="translate(-1192.056 -1415.172)" fill="#b9e4f4"/>
          </g>
        </g>
      </g>
      <g id="Group_57340" data-name="Group 57340" transform="translate(4.652 40.386)">
        <path id="Path_65465" data-name="Path 65465" d="M501.147,755.368a5.662,5.662,0,0,0-7.283,3.811c-2.076,5.835,1.076,6.275,4.662,8.606s7.531,3.407,10.219-.359a6.021,6.021,0,0,0-1.793-8.964A55.534,55.534,0,0,0,501.147,755.368Z" transform="translate(-493.202 -755.046)" fill="#ffa07a"/>
        <path id="Path_65466" data-name="Path 65466" d="M574.865,805.785c-2.839-1.179-4.713-1.4-6.345,1.576-1.621,2.719.537,4.569,2.579,6.133-2.685-1.221-4.936-3.428-3.192-6.464C569.659,803.873,572.087,803.85,574.865,805.785Z" transform="translate(-562.133 -801.026)" fill="#e88861"/>
      </g>
      <g id="Group_57341" data-name="Group 57341" transform="translate(4.816 57.344)">
        <path id="Path_65467" data-name="Path 65467" d="M496.782,1001.186c-2.242,2.663-1.63,7.141,3.57,9.83s9.861,3.407,11.654-1.255-1.076-7.172-5.02-9.5S499.651,997.779,496.782,1001.186Z" transform="translate(-495.551 -998.561)" fill="#ffa07a"/>
        <path id="Path_65468" data-name="Path 65468" d="M587.055,1059.5c-1.663-.891-3.694-2.333-5.63-1.7-3.772,2.929-1.969,7.439,2.445,8.33-5-.122-7.036-5.612-3.015-8.746C582.971,1056.242,585.477,1058.187,587.055,1059.5Z" transform="translate(-572.93 -1052.966)" fill="#e88861"/>
      </g>
      <g id="Group_57342" data-name="Group 57342" transform="translate(6.697 75.819)">
        <path id="Path_65469" data-name="Path 65469" d="M522.8,1267.167c-.925,3.04.921,6.585,5.762,7.481s8.609,1.19,9.3-4.074c.538-4.1-4.26-5.81-6.935-6.337C528.476,1263.755,524.056,1263.043,522.8,1267.167Z" transform="translate(-522.571 -1263.864)" fill="#ffa07a"/>
        <path id="Path_65470" data-name="Path 65470" d="M607.058,1309.667c-1.218-.112-4.632-.684-5.54.018a3.31,3.31,0,0,0-.416,3.32c.763,1.7,2.958,2.505,4.742,2.348a4.619,4.619,0,0,1-5.338-2.074,3.727,3.727,0,0,1,.559-4.065C602.284,1308.215,605.665,1309.195,607.058,1309.667Z" transform="translate(-594.742 -1305.653)" fill="#e88861"/>
      </g>
      <g id="Group_57345" data-name="Group 57345" transform="translate(60.861 2.348)">
        <g id="Group_57343" data-name="Group 57343" transform="translate(13.426)">
          <path id="Path_65471" data-name="Path 65471" d="M1500.016,212.074c5.167-2.252,6.485,2.833,4.469,5.2-2.022,2.746-9.049,4.329-8.951,3.89C1488.508,207.9,1499.221,206.1,1500.016,212.074Z" transform="translate(-1493.157 -208.815)" fill="#ff4747"/>
        </g>
        <g id="Group_57344" data-name="Group 57344" transform="translate(0 10.655)">
          <path id="Path_65472" data-name="Path 65472" d="M1316.078,362.128c-.322,1.379-.834,3.549-1.436,3.558-.348-.016-.152.024-.474-.119-2.7-2.357-4.308.847-5.084,2.874.148-.186-.182.216-.236.226.2-.124-.421.242-.229.133a2.573,2.573,0,0,1-1.38.119c-1.5-.27-4.463-1.7-5.721.44-1.666,1.8-1.385,7.863-.065,2.173,1.363-6.29,7.362,2.233,9.192-4.565a2.438,2.438,0,0,1,1.167-1.265c.052-.05.622-.155.364-.113a1.827,1.827,0,0,1,.338,0c-.269-.04.249.048.289.093C1316.416,369.262,1317.739,360.068,1316.078,362.128Z" transform="translate(-1300.364 -361.824)" fill="#ff4747"/>
        </g>
      </g>
    </g>
    <g id="Group_57347" data-name="Group 57347" transform="translate(126.3 22.106)">
      <path id="Path_65473" data-name="Path 65473" d="M1816.588,315.99c1.029-2.773,3.431-1.421,3.591.2.3,1.764-1.656,5-1.787,4.8C1810.823,318.823,1814.039,314.115,1816.588,315.99Z" transform="translate(-1813.678 -314.394)" fill="#aee1f4"/>
    </g>
    <g id="Group_57348" data-name="Group 57348" transform="translate(131.594 97.412)">
      <path id="Path_65474" data-name="Path 65474" d="M1893.663,1397.184c2.62-2.252,4.309.489,3.555,2.237-.689,1.973-4.518,4.168-4.541,3.894C1886.17,1396.819,1892.118,1393.826,1893.663,1397.184Z" transform="translate(-1889.697 -1395.795)" fill="#aee1f4"/>
    </g>
    <g id="Group_57350" data-name="Group 57350" transform="translate(121.816 61.6)">
      <g id="Group_57349" data-name="Group 57349">
        <path id="Path_65475" data-name="Path 65475" d="M1753.393,883.586c3.135-1.153,3.737,1.9,2.463,3.228-1.291,1.554-5.5,2.247-5.43,1.991C1746.731,880.719,1753.131,880.021,1753.393,883.586Z" transform="translate(-1749.28 -881.538)" fill="#fbe9db"/>
      </g>
    </g>
    <g id="Group_57352" data-name="Group 57352" transform="translate(18.355 87.24)">
      <g id="Group_57351" data-name="Group 57351">
        <path id="Path_65476" data-name="Path 65476" d="M264.178,1257.582a.331.331,0,0,1-.04-.13c-1.347-4.863.084-6.659.763-7.206a2.269,2.269,0,0,1,2.517-.262,2.483,2.483,0,0,1,1.274,2.143c1.882-.24,2.552.747,2.757,1.2a2.758,2.758,0,0,1-.857,3.149,7.272,7.272,0,0,1-3.583,1.251,7.163,7.163,0,0,1-2.731-.035A.36.36,0,0,1,264.178,1257.582Zm3.643-6.354a1.694,1.694,0,0,0-.7-.691,1.647,1.647,0,0,0-1.829.2c-.579.467-1.785,2.025-.577,6.46.751.117,4.177-.057,5.469-1.193l.017-.015a2.13,2.13,0,0,0,.674-2.4c-.339-.752-1.207-1.031-2.445-.784a.314.314,0,0,1-.373-.334A2.194,2.194,0,0,0,267.821,1251.228Z" transform="translate(-263.579 -1249.719)" fill="#aee1f4"/>
      </g>
    </g>
    <g id="Group_57353" data-name="Group 57353" transform="translate(55.431 119.384)">
      <path id="Path_65477" data-name="Path 65477" d="M799.422,1713.345c1.07-3.393,4.037-1.913,4.327.027.469,2.1-1.69,6.1-1.859,5.875C792.665,1717.095,796.246,1711.245,799.422,1713.345Z" transform="translate(-795.996 -1711.32)" fill="#aee1f4"/>
    </g>
    <g id="Group_57354" data-name="Group 57354" transform="translate(116.208 40.379)">
      <path id="Path_65478" data-name="Path 65478" d="M1672.5,588a.365.365,0,0,1-.365-.342l-.222-3.464-2.979-1.782a.366.366,0,0,1,.052-.654l3.226-1.281.774-3.384a.365.365,0,0,1,.638-.152l2.216,2.673,3.458-.31a.365.365,0,0,1,.341.559l-1.857,2.933,1.363,3.193a.365.365,0,0,1-.426.5l-3.364-.86-2.615,2.283A.361.361,0,0,1,1672.5,588Zm-2.555-5.836,2.509,1.5a.367.367,0,0,1,.177.29l.187,2.918,2.2-1.923a.365.365,0,0,1,.331-.079l2.832.724-1.148-2.689a.365.365,0,0,1,.027-.339l1.564-2.47-2.911.261a.367.367,0,0,1-.314-.131l-1.866-2.251-.651,2.85a.367.367,0,0,1-.221.258Z" transform="translate(-1668.753 -576.804)" fill="#aee1f4"/>
    </g>
    <g id="Group_57355" data-name="Group 57355" transform="translate(130.873 72.649)">
      <path id="Path_65479" data-name="Path 65479" d="M1882.275,1048.983a.278.278,0,0,1-.11-.022.288.288,0,0,1-.177-.247l-.174-2.72-2.339-1.4a.285.285,0,0,1-.139-.269.288.288,0,0,1,.181-.244l2.533-1.006.607-2.657a.287.287,0,0,1,.5-.119l1.739,2.1,2.715-.244a.287.287,0,0,1,.268.439l-1.458,2.3,1.07,2.507a.286.286,0,0,1-.335.391l-2.641-.675-2.053,1.793A.288.288,0,0,1,1882.275,1048.983Zm-2.006-4.581,1.97,1.178a.289.289,0,0,1,.14.228l.146,2.291,1.729-1.51a.287.287,0,0,1,.26-.062l2.223.568-.9-2.111a.285.285,0,0,1,.021-.266l1.227-1.939-2.286.2a.285.285,0,0,1-.246-.1l-1.464-1.767-.512,2.237a.287.287,0,0,1-.174.2Z" transform="translate(-1879.336 -1040.195)" fill="#fbd5b7"/>
    </g>
    <path id="Path_65480" data-name="Path 65480" d="M150.105,157.118l-3.62-.522L144,159.282l-.623-3.6-3.321-1.531,3.235-1.705.429-3.632,2.622,2.55,3.586-.714-1.615,3.281Z" transform="translate(-130.307 -138.235)" fill="#aee1f4"/>
    <g id="Group_57359" data-name="Group 57359" transform="translate(2.131 111.474)">
      <g id="Group_57357" data-name="Group 57357">
        <g id="Group_57356" data-name="Group 57356">
          <path id="Path_65481" data-name="Path 65481" d="M55.706,1609a14.719,14.719,0,0,0-.858-2.076.544.544,0,1,1,.973-.487,15.773,15.773,0,0,1,.921,2.231.544.544,0,0,1-1.036.332Zm-2-4.031a18.1,18.1,0,0,0-1.372-1.8.544.544,0,0,1,.822-.713,19.113,19.113,0,0,1,1.455,1.906.544.544,0,1,1-.9.6Zm-23.113-4.27a.545.545,0,0,1,.508-.577c.734-.047,1.5-.122,2.283-.225a.544.544,0,1,1,.143,1.079c-.806.106-1.6.185-2.358.233a.663.663,0,0,1-.07,0A.543.543,0,0,1,30.6,1600.695Zm20.15.875a13.283,13.283,0,0,0-1.8-1.325.544.544,0,1,1,.565-.929,14.442,14.442,0,0,1,1.951,1.433.544.544,0,1,1-.714.821Zm-15.519-1.41a.544.544,0,0,1,.432-.636c.742-.142,1.5-.307,2.25-.491a.544.544,0,1,1,.26,1.056c-.769.189-1.545.358-2.3.5a.514.514,0,0,1-.137.008A.542.542,0,0,1,35.226,1600.16Zm4.54-1.055a.544.544,0,0,1,.365-.677q.415-.124.813-.252a10.353,10.353,0,0,1,1.506-.363.544.544,0,1,1,.174,1.074,9.351,9.351,0,0,0-1.347.325c-.272.087-.551.173-.834.258a.543.543,0,0,1-.677-.365Zm7.181.185a9,9,0,0,0-2.138-.477.544.544,0,0,1,.1-1.083,10.119,10.119,0,0,1,2.4.534.544.544,0,0,1-.215,1.056A.555.555,0,0,1,46.947,1599.289Z" transform="translate(-30.594 -1597.726)" fill="#fbe9db"/>
        </g>
      </g>
      <g id="Group_57358" data-name="Group 57358" transform="translate(17.076 8.179)">
        <path id="Path_65482" data-name="Path 65482" d="M393.02,1736.85l-1.5,2.119,11.08,8.714Z" transform="translate(-383.462 -1735.341)" fill="#fbd5b7"/>
        <path id="Path_65483" data-name="Path 65483" d="M371.74,1804.21l.531,2.582,11.434,3.16Z" transform="translate(-365.059 -1798.01)" fill="#fbd5b7"/>
        <path id="Path_65484" data-name="Path 65484" d="M294.938,1759.75l-19.139-8.007,6.938-1.923Z" transform="translate(-275.8 -1747.408)" fill="#fbe9db"/>
        <path id="Path_65485" data-name="Path 65485" d="M413.06,1716.689l9.58,10.833-5.2-12.343Z" transform="translate(-403.502 -1715.18)" fill="#fbe9db"/>
      </g>
    </g>
  </g>
</svg>
