<svg xmlns="http://www.w3.org/2000/svg" width="235" height="157" viewBox="0 0 235 157">
  <g id="_8057539" data-name="8057539" transform="translate(0 0.144)">
    <g id="BACKGROUND" transform="translate(0 -0.144)">
      <rect id="Rectangle_6634" data-name="Rectangle 6634" width="235" height="157" transform="translate(0 0)" fill="#fff"/>
    </g>
    <g id="OBJECTS" transform="translate(8.769 13.947)">
      <g id="Group_57368" data-name="Group 57368" transform="translate(116.577)">
        <path id="Path_65486" data-name="Path 65486" d="M488.433,107.529c6.391,5.114,9.233,13.748,8.894,21.927s-3.473,15.988-7.263,23.245c-5.268,10.08-11.978,19.552-20.716,26.828s-19.634,12.261-31,12.753-23.116-3.85-30.5-12.5c-7.53-8.829-9.892-21.438-7.345-32.757S410.143,125.7,419.16,118.4a72.625,72.625,0,0,1,27.609-14.021c7.382-1.795,16.054-1.817,23.6-2.086C476.724,102.061,483.378,103.485,488.433,107.529Z" transform="translate(-399.524 -84.144)" fill="#f3e7de"/>
        <g id="Group_57367" data-name="Group 57367" transform="translate(11.47)">
          <path id="Path_65487" data-name="Path 65487" d="M510.351,120.683a.807.807,0,0,1,.919-.449c.307.088.43.458.477.775a12.108,12.108,0,0,1-.2,3.194,4.082,4.082,0,0,1-1.3,2.6,1.143,1.143,0,0,1-1.283.21c-.753-.486-.414-1.315-.185-1.973l.932-2.676A8.042,8.042,0,0,1,510.351,120.683Z" transform="translate(-485.784 -96.451)" fill="#b88d7d"/>
          <path id="Path_65488" data-name="Path 65488" d="M503.354,163.636a29.5,29.5,0,0,0-2.776,7,42.707,42.707,0,0,0-6.184-1.38c.835-2.8-.367-5.879-.267-8.8a10.481,10.481,0,0,1,1.606-5.221A34.744,34.744,0,0,0,503.354,163.636Z" transform="translate(-475.913 -120.494)" fill="#b88d7d"/>
          <path id="Path_65489" data-name="Path 65489" d="M496.389,129.395c.056-.138,7.169-16.5,7.169-16.5s.5-1.506,1.732-.935c.232.107,7.392,2.918,8.079,3.238.515.242,1.211.653.756,1.713-.169.392-6.73,15.335-7.511,17.086s-2.341,1.013-5.707-.267S495.256,132.124,496.389,129.395Z" transform="translate(-477.268 -90.702)" fill="#4b3d4c"/>
          <g id="Group_57361" data-name="Group 57361" transform="translate(19.253 27.407)">
            <path id="Path_65490" data-name="Path 65490" d="M505.569,132.716a1.236,1.236,0,0,1,1.051-.866,1.214,1.214,0,0,1,1.079.856,7.154,7.154,0,0,1-.016,3.388,3.947,3.947,0,0,1-.345,1.133c-.213.414-.985,1.459-1.443.766a1.456,1.456,0,0,1-.179-.59C505.487,135.909,505.011,134.2,505.569,132.716Z" transform="translate(-502.844 -131.849)" fill="#b88d7d"/>
            <path id="Path_65491" data-name="Path 65491" d="M499,147.718a1.442,1.442,0,0,1,.75.831,8.235,8.235,0,0,1,.336,2.968,3.879,3.879,0,0,1-.493,1.87c-.991,1.666-1.848-1.233-1.951-1.958a12.9,12.9,0,0,1-.157-2.846A1.133,1.133,0,0,1,499,147.718Z" transform="translate(-497.453 -142.689)" fill="#b88d7d"/>
          </g>
          <path id="Path_65492" data-name="Path 65492" d="M503.312,183.172a9.021,9.021,0,0,0-2.149-2.946c-.3-.27-.743.173-.442.442a8.614,8.614,0,0,1,2.052,2.821.318.318,0,0,0,.43.113A.325.325,0,0,0,503.312,183.172Z" transform="translate(-480.373 -137.584)" fill="#8f6353"/>
          <path id="Path_65493" data-name="Path 65493" d="M498.371,156.654a3.007,3.007,0,0,1-.709-1.663c-.1-.69-.1-1.4-.135-2.093-.019-.4-.646-.4-.628,0,.069,1.418-.025,3.09,1.026,4.2C498.2,157.391,498.65,156.949,498.371,156.654Z" transform="translate(-477.819 -118.68)" fill="#8f6353"/>
          <path id="Path_65494" data-name="Path 65494" d="M506.037,138.853a6.326,6.326,0,0,1-.38-5.114.314.314,0,0,0-.606-.166,6.946,6.946,0,0,0,.442,5.6C505.714,139.508,506.257,139.191,506.037,138.853Z" transform="translate(-483.158 -105.472)" fill="#8f6353"/>
          <path id="Path_65495" data-name="Path 65495" d="M498.666,409.306a1.109,1.109,0,0,0,.257-.709,24.882,24.882,0,0,0-.445-3.586q-.527-3.779-1.374-7.5a145.582,145.582,0,0,1-44.7.163c-.3-.047-1.12,5.312-1.183,5.823-.122.995-.207,1.992-.267,2.993a8.281,8.281,0,0,0,.044,2.824c.326,1.107,1.095,1.377,2.036,1.807a11.864,11.864,0,0,0,3.514,1.035,121.144,121.144,0,0,0,18.959.813,109.7,109.7,0,0,0,18.871-2.287c.985-.21,1.964-.433,2.943-.674A2.538,2.538,0,0,0,498.666,409.306Z" transform="translate(-446.218 -286.756)" fill="#4b3d4c"/>
          <path id="Path_65496" data-name="Path 65496" d="M516.91,68.373a2.9,2.9,0,0,1-1.233-5.092,2.319,2.319,0,0,1,1.409-3.141,3.275,3.275,0,0,1,1.967-4.715,3.417,3.417,0,0,1,1.93-3.9,4.093,4.093,0,0,1,4.659-3.1,5.189,5.189,0,0,1,3.009-2.118,4.358,4.358,0,0,1,3.288.687,5.85,5.85,0,0,1,3.994-2.488,5.79,5.79,0,0,1,4.4,1.6,4.041,4.041,0,0,1,3.793-.147,3.579,3.579,0,0,1,2.036,2.924,5.49,5.49,0,0,1,4.813,1.086,4.8,4.8,0,0,1,1.741,4.248,5.32,5.32,0,0,1,3.869,3.059A4.98,4.98,0,0,1,556,62a4.294,4.294,0,0,1,1.443,2.955,4.048,4.048,0,0,1-1.544,2.811,3.151,3.151,0,0,1,.85,2.557,3.078,3.078,0,0,1-1.578,2.137,3.542,3.542,0,0,1-.22,3.693,3.149,3.149,0,0,1-2.08,1.2c.144-.019.075,1.443.041,1.578a3.264,3.264,0,0,1-.63,1.22,2.847,2.847,0,0,1-2.221,1,4.115,4.115,0,0,1-3.793,3.2,5.819,5.819,0,0,1-1.631-.2,2.823,2.823,0,0,1-1.424,1.707,3.14,3.14,0,0,1-3.671-.734,4.885,4.885,0,0,1-2.438,1.123,2.5,2.5,0,0,1-1.832-.505,4.051,4.051,0,0,1-2.761,1.484,4.444,4.444,0,0,1-3.112-1.07,8.476,8.476,0,0,1-4.411-2.391,18.137,18.137,0,0,1-3.118-3.934A45.1,45.1,0,0,1,516.91,68.373Z" transform="translate(-489.971 -44.492)" fill="#4b3d4c"/>
          <path id="Path_65497" data-name="Path 65497" d="M554.982,170.14a76.8,76.8,0,0,0-8.242,1.751q.169-3.082.336-6.165c.013-.213,1.553-.922,1.782-1.057q1-.584,2-1.151,1.981-1.115,3.994-2.171a15.5,15.5,0,0,1,1.989-1.026c.709-.242.762-.141.577.546-.389,1.44-.947,2.836-1.336,4.282C555.644,166.792,555.274,168.461,554.982,170.14Z" transform="translate(-512.024 -123.899)" fill="#b88d7d"/>
          <path id="Path_65498" data-name="Path 65498" d="M532.926,127.957a9.8,9.8,0,0,1-4.995,1.785,7.482,7.482,0,0,1-6.353-4.245,14.309,14.309,0,0,1-1.183-7.843,26.984,26.984,0,0,1,3.6-11.241c1.089-1.851,3.071-2.428,5.158-2.924a12.729,12.729,0,0,1,6.363.279,8.922,8.922,0,0,1,4.292,2.413,9.951,9.951,0,0,1,2.071,4.879c.195,1.02.2,2.077.427,3.087a5.816,5.816,0,0,1,.317,1.936c-.279,2.711-1.848,4.731-3.577,6.686A27.932,27.932,0,0,1,532.926,127.957Z" transform="translate(-493.883 -84.785)" fill="#b88d7d"/>
          <path id="Path_65499" data-name="Path 65499" d="M531.763,101.128a4.016,4.016,0,0,0-.455,1.613,2.019,2.019,0,0,0,.581,1.531,2.1,2.1,0,0,0,1.879.4,5.236,5.236,0,0,0,1.776-.894.994.994,0,0,0,.728.869,2.071,2.071,0,0,0,1.38-.088,4.319,4.319,0,0,0,1.18-.762c-.022.264.1.37.289.552a1.648,1.648,0,0,0,.693.367,2.98,2.98,0,0,0,2.952-.816,1.028,1.028,0,0,0,.326.847,2.078,2.078,0,0,0,.825.461,4.218,4.218,0,0,0,2.689-.019,1.113,1.113,0,0,0-.373,1.493,1.594,1.594,0,0,0,1.459.728c-.386.615-1.026,1.337-.853,2.039a1.606,1.606,0,0,0,1.264,1.129,2.322,2.322,0,0,0,1.7-.4,4.367,4.367,0,0,0,1.2-1.308,16.242,16.242,0,0,0-.778-5.839,8.609,8.609,0,0,0-3.6-4.355,13.61,13.61,0,0,0-5.926-1.327,11.689,11.689,0,0,0-4.531.32A7.865,7.865,0,0,0,531.763,101.128Z" transform="translate(-501.432 -80.72)" fill="#4b3d4c"/>
          <path id="Path_65500" data-name="Path 65500" d="M586.752,136.737a2.783,2.783,0,0,1-.022,2.767,5.619,5.619,0,0,1-3.329,3.454c-.675.185-1.559.069-1.823-.577a1.739,1.739,0,0,1-.022-.957,18.035,18.035,0,0,1,.728-2.682,4.552,4.552,0,0,1,.606-1.462C583.725,136.25,585.773,135.5,586.752,136.737Z" transform="translate(-535.879 -107.356)" fill="#b88d7d"/>
          <path id="Path_65501" data-name="Path 65501" d="M461.465,197.295a1.681,1.681,0,0,1,.041-.944,14.884,14.884,0,0,0,.64-2.093q-3.675-1.567-7.479-2.8a1.136,1.136,0,0,0-.925-.025,1.077,1.077,0,0,0-.383.549,17.805,17.805,0,0,0-.932,2.905,2.551,2.551,0,0,0-2.513.1,7.014,7.014,0,0,0-1.644,1.942c-3.922,5.992-7.781,12.12-10.1,18.9s-3,14.341-.514,21.058c.734,1.986,2.021,4.094,4.11,4.436a4.634,4.634,0,0,0,3.724-1.286,12.83,12.83,0,0,0,2.4-3.272,130.621,130.621,0,0,0,8.86-18.658q1.506-3.962,2.736-8.019a63.971,63.971,0,0,0,2.337-8.16,8.129,8.129,0,0,0-.05-3.627C461.662,197.944,461.534,197.621,461.465,197.295Z" transform="translate(-436.085 -145.269)" fill="#828bc0"/>
          <path id="Path_65502" data-name="Path 65502" d="M467.647,189.975q2.358-1.247,4.612-2.676c.006-1.619-.063-3.319-.056-4.938a2.252,2.252,0,0,1,.323-1.409,2.282,2.282,0,0,1,2.1-.474,45.5,45.5,0,0,0,6.156.452,14.174,14.174,0,0,0,5.989-1.3c.436-.213.979-.452,1.368-.163.336.248.336.74.307,1.158q-.221,3.017-.442,6.036c.025-.348,2.99.86,3.181.941a50.76,50.76,0,0,1,8.552,4.1c-2.089,14.055-4.245,29.2-4.991,43.4-.163,3.1-.213,6.469,1.635,8.957.784,1.057,1.933,2.03,1.933,3.348,0,1.791-2.052,2.77-3.777,3.253a72.12,72.12,0,0,1-14.222,2.974c-2.391.166-4.675.05-7.047.276a24.6,24.6,0,0,1-7.156-.511c-3.391-.675-6.883-.653-10.3-1.456-3.988-.941-9.848-2.4-9.136-7.7a18.789,18.789,0,0,1,1.907-5.1c3.379-7.479,3.762-15.841,6.156-23.649a86.1,86.1,0,0,1,11.053-23.1C466.5,191.331,466.527,190.568,467.647,189.975Z" transform="translate(-443.316 -137.03)" fill="#828bc0"/>
          <path id="Path_65503" data-name="Path 65503" d="M462.254,274.02a14.8,14.8,0,0,1-.954-2.8,6,6,0,0,1-.119-1.34c.009-.276-.066-.982.169-1.177.37-.3,1.2,1.424,1.365,1.616a9.985,9.985,0,0,1,.822,1.412,11.415,11.415,0,0,0,1.161,1.578c.75.875,1.578,1.682,2.322,2.563A35.631,35.631,0,0,1,469.881,280a31.978,31.978,0,0,1-3.784,5.675,83.442,83.442,0,0,1-8.3-2.852,25.916,25.916,0,0,1-7.175-4.4,1.555,1.555,0,0,1-.458-.574.567.567,0,0,1,.16-.668.821.821,0,0,1,.618-.041,15.461,15.461,0,0,1,4.763,1.829c.044-.132.091-.264.135-.4-.991-.53-2.077-1.167-3.031-1.763a11.807,11.807,0,0,1-3.034-2.457c-.163-.2-.32-.464-.21-.7.122-.267.489-.282.781-.245,2.322.3,4.38,1.6,6.35,2.868a35.933,35.933,0,0,1-4.8-3.413,6.77,6.77,0,0,1-1.635-1.763.634.634,0,0,1-.094-.6c.135-.251.5-.235.775-.173a12.3,12.3,0,0,1,3.73,1.622,36.343,36.343,0,0,1,3.294,2.416.608.608,0,0,1,.2-.377,46.281,46.281,0,0,1-3.589-4.248,4.493,4.493,0,0,1-.925-1.873.6.6,0,0,1,.119-.543.465.465,0,0,1,.461-.063,1.329,1.329,0,0,1,.4.27C457.153,269.693,459.735,271.852,462.254,274.02Z" transform="translate(-445.314 -197.347)" fill="#b88d7d"/>
          <path id="Path_65504" data-name="Path 65504" d="M529.517,249.752c-.245-.593-.442-1.208-.634-1.82a56.05,56.05,0,0,1-2.052-10.862,66.305,66.305,0,0,1-.48-11.668,21.582,21.582,0,0,1,2.7-9.516c.665-1.123,1.5-1.807,2.789-1.355a13.612,13.612,0,0,1,2.613,1.208,10.651,10.651,0,0,1,4.38,5.478,165.986,165.986,0,0,1,6.221,25.566c.6,5.174,1.465,15.169-2.127,18.413s-13.092,4.5-29.89-4.239-14.262-9.76-14.262-9.76l-2.814-1.785a31.788,31.788,0,0,1,5.076-8.505s2.127.891,3.363,1.578,1.647-1.854,13.588,2.814S529.517,249.752,529.517,249.752Z" transform="translate(-477.175 -161.088)" fill="#828bc0"/>
          <path id="Path_65505" data-name="Path 65505" d="M557.435,131.093a.629.629,0,0,0-.075.445c.078.226.361.282.6.314a11.72,11.72,0,0,1,3.815,1.173c.16.082.4.144.483-.019.063-.129-.053-.27-.16-.367a17.6,17.6,0,0,0-3.294-2.315c-.251-.138-.64-.323-.913-.129C557.652,130.365,557.548,130.839,557.435,131.093Z" transform="translate(-519.299 -103.25)" fill="#4b3d4c"/>
          <path id="Path_65506" data-name="Path 65506" d="M532.24,125.995a.627.627,0,0,1-.223.392c-.2.125-.458-.006-.662-.132a11.7,11.7,0,0,0-3.7-1.493c-.176-.038-.4-.144-.364-.32.031-.141.213-.179.355-.185a17.59,17.59,0,0,1,4.016.276c.282.05.7.154.791.477C532.529,125.292,532.313,125.728,532.24,125.995Z" transform="translate(-498.672 -99.218)" fill="#4b3d4c"/>
          <path id="Path_65507" data-name="Path 65507" d="M544.391,63.119a1.811,1.811,0,0,0-2.259,1.12,1.988,1.988,0,0,0-2.253,1.9c-.016.4.612.4.627,0a1.353,1.353,0,0,1,1.77-1.233.314.314,0,0,0,.386-.22,1.184,1.184,0,0,1,1.562-.966C544.611,63.85,544.774,63.244,544.391,63.119Z" transform="translate(-507.315 -57.215)" fill="#332b35"/>
          <path id="Path_65508" data-name="Path 65508" d="M577.084,54.716a1.686,1.686,0,0,0-1.393-.257,2.3,2.3,0,0,0-1.39,1.18c-.191.355.348.671.543.317a1.716,1.716,0,0,1,.947-.875,1.014,1.014,0,0,1,1.108.32.316.316,0,0,0,.493-.063.88.88,0,0,1,.8-.455c.232-.009.819.038.86.351a.325.325,0,0,0,.314.314.315.315,0,0,0,.314-.314C579.528,54.073,577.822,54,577.084,54.716Z" transform="translate(-530.91 -51.19)" fill="#332b35"/>
          <path id="Path_65509" data-name="Path 65509" d="M630.74,95.358a3.1,3.1,0,0,0-.844-2.036.313.313,0,0,0-.442.442,2.445,2.445,0,0,1,.662,1.544,1.454,1.454,0,0,1-.433,1.057.349.349,0,0,0-.273.213.318.318,0,0,0,.16.524,1.863,1.863,0,0,1-.063,1.531,1.923,1.923,0,0,1-1.359.985.314.314,0,0,0,.166.606,2.467,2.467,0,0,0,1.81-3.417A2.107,2.107,0,0,0,630.74,95.358Z" transform="translate(-567.734 -77.94)" fill="#332b35"/>
          <path id="Path_65510" data-name="Path 65510" d="M619.329,137.629a.318.318,0,0,0-.386-.22.323.323,0,0,0-.22.386,1.71,1.71,0,0,1-1.609,2.039.321.321,0,0,0-.314.314.317.317,0,0,0,.314.314,2.342,2.342,0,0,0,2.215-2.833Z" transform="translate(-560.103 -108.251)" fill="#332b35"/>
          <path id="Path_65511" data-name="Path 65511" d="M594.833,160.943c-.122-.383-.728-.22-.605.166.169.53-.577.737-.957.806a1.688,1.688,0,0,1-1.374-.257.318.318,0,0,0-.442,0,1.611,1.611,0,0,1-2.507-.022c-.242-.314-.787,0-.543.317a2.249,2.249,0,0,0,3.316.329,2.523,2.523,0,0,0,1.9.2C594.31,162.308,595.1,161.768,594.833,160.943Z" transform="translate(-540.574 -124.259)" fill="#332b35"/>
          <path id="Path_65512" data-name="Path 65512" d="M543.636,109.747a.965.965,0,0,1-1.177-.339.319.319,0,0,0-.493-.063,1.565,1.565,0,0,1-2.171-.264.322.322,0,0,0-.38-.05,1.983,1.983,0,0,1-1.428.044c-.414-.144-1.02-.54-.929-1.057.069-.4-.537-.565-.606-.166a1.657,1.657,0,0,0,1.1,1.719,2.609,2.609,0,0,0,1.926.094,2.2,2.2,0,0,0,2.651.311,1.605,1.605,0,0,0,1.82.307C544.32,110.124,544,109.581,543.636,109.747Z" transform="translate(-504.95 -87.818)" fill="#332b35"/>
          <path id="Path_65513" data-name="Path 65513" d="M572.516,104.142a.874.874,0,0,1-.784-1.07.316.316,0,0,0-.386-.386c-.8.27-1.164-.634-1.133-1.271a.318.318,0,0,0-.536-.223,1.568,1.568,0,0,1-1.977.157,2.171,2.171,0,0,1-.813-2.061c.053-.4-.552-.565-.605-.166a2.823,2.823,0,0,0,1.1,2.77,2.237,2.237,0,0,0,2.24.11,1.757,1.757,0,0,0,.464.932,1.448,1.448,0,0,0,1,.427,1.519,1.519,0,0,0,1.431,1.415A.317.317,0,0,0,572.516,104.142Z" transform="translate(-525.413 -81.827)" fill="#332b35"/>
          <path id="Path_65514" data-name="Path 65514" d="M589.575,122.443a.91.91,0,0,1-.16.006l-.053,0-.05-.009c-.05-.013-.1-.028-.151-.044a.081.081,0,0,0-.022-.006.051.051,0,0,0-.019-.009l-.056-.028a.976.976,0,0,1-.4-.386,1.3,1.3,0,0,1,.025-1.2.314.314,0,1,0-.543-.317,1.959,1.959,0,0,0-.025,1.835,1.548,1.548,0,0,0,1.449.794.321.321,0,0,0,.314-.314A.317.317,0,0,0,589.575,122.443Z" transform="translate(-540.277 -96.51)" fill="#332b35"/>
          <g id="Group_57362" data-name="Group 57362" transform="translate(28.61 27.52)">
            <path id="Path_65515" data-name="Path 65515" d="M531.508,135.65a.862.862,0,0,1-.668-.1.95.95,0,0,1-.21-.838,3.1,3.1,0,0,1,.135-.8.972.972,0,0,1,1.377-.624,3.24,3.24,0,0,1,.772.48c.351.267.957.819.449,1.233A4,4,0,0,1,531.508,135.65Z" transform="translate(-529.571 -132.888)" fill="#fff"/>
            <path id="Path_65516" data-name="Path 65516" d="M531.159,134.072a2.331,2.331,0,0,0-1.3-1.264c-.082-.034-.169-.072-.26-.107a1.58,1.58,0,0,1-.329,1.823,1.189,1.189,0,0,1-1.8-.085,1.555,1.555,0,0,1,.37-1.923,2.046,2.046,0,0,1,2.152.009,2.636,2.636,0,0,1,1.468,1.462C531.532,134.179,531.228,134.26,531.159,134.072Z" transform="translate(-527.277 -132.208)" fill="#4b3d4c"/>
          </g>
          <g id="Group_57363" data-name="Group 57363" transform="translate(37.297 29.578)">
            <path id="Path_65517" data-name="Path 65517" d="M559.195,142.22a.862.862,0,0,1-.668-.1.941.941,0,0,1-.21-.838,3.092,3.092,0,0,1,.135-.8.972.972,0,0,1,1.377-.624,3.238,3.238,0,0,1,.772.48c.351.267.957.819.449,1.233A4.031,4.031,0,0,1,559.195,142.22Z" transform="translate(-557.258 -139.455)" fill="#fff"/>
            <path id="Path_65518" data-name="Path 65518" d="M558.849,140.632a2.33,2.33,0,0,0-1.3-1.264c-.081-.035-.169-.072-.26-.107a1.58,1.58,0,0,1-.33,1.823,1.188,1.188,0,0,1-1.8-.085,1.555,1.555,0,0,1,.37-1.923,2.046,2.046,0,0,1,2.152.009,2.636,2.636,0,0,1,1.468,1.462C559.222,140.739,558.918,140.82,558.849,140.632Z" transform="translate(-554.967 -138.768)" fill="#4b3d4c"/>
          </g>
          <g id="Group_57364" data-name="Group 57364" transform="translate(30.49 29.606)">
            <path id="Path_65519" data-name="Path 65519" d="M536.525,139.075a6.61,6.61,0,0,1-1.5,2.491c-.668.69-1.7,1.2-1.754,2.278-.022.4.605.4.627,0a1.694,1.694,0,0,1,.759-1.111,9.031,9.031,0,0,0,1.07-1.007,7.321,7.321,0,0,0,1.409-2.485C537.256,138.859,536.651,138.692,536.525,139.075Z" transform="translate(-533.268 -138.858)" fill="#8f6353"/>
            <path id="Path_65520" data-name="Path 65520" d="M543.1,154.639a.7.7,0,0,0-.157-.282.578.578,0,0,0-.063-.063.737.737,0,0,0-.129-.091.719.719,0,0,0-.562-.063.346.346,0,0,0-.188.144.309.309,0,0,0-.031.242.323.323,0,0,0,.144.188.311.311,0,0,0,.242.031c.009,0,.019,0,.025-.006h.022l.031.009.031.019.016.016.013.022h0a.32.32,0,0,0,.144.188.31.31,0,0,0,.242.031.323.323,0,0,0,.188-.144A.342.342,0,0,0,543.1,154.639Z" transform="translate(-539.234 -149.324)" fill="#8f6353"/>
            <path id="Path_65521" data-name="Path 65521" d="M550.047,152.778a.314.314,0,0,0-.543.317.544.544,0,0,1,.044.085,1.029,1.029,0,0,1,.038.132,1.269,1.269,0,0,1,0,.157.963.963,0,0,1-.034.129.717.717,0,0,1-.078.135l.028-.038a.337.337,0,0,0-.091.22.311.311,0,0,0,.314.314.311.311,0,0,0,.223-.091,1.3,1.3,0,0,0,.207-.355,1.141,1.141,0,0,0,.066-.342A1.1,1.1,0,0,0,550.047,152.778Z" transform="translate(-544.346 -148.304)" fill="#8f6353"/>
            <path id="Path_65522" data-name="Path 65522" d="M589.181,140.343a2.016,2.016,0,0,0-1.691-.082,2.774,2.774,0,0,0-1.318,1.007.317.317,0,0,0,.113.43.323.323,0,0,0,.43-.113,2.046,2.046,0,0,1,.941-.718c.082-.028.169-.053.257-.075a.324.324,0,0,0,.075.151c.571.681-.035,1.471-.505,2.017a.321.321,0,0,0,0,.442.315.315,0,0,0,.442,0,3.712,3.712,0,0,0,.847-1.34,1.672,1.672,0,0,0-.147-1.283.836.836,0,0,1,.238.1.317.317,0,0,0,.43-.113A.314.314,0,0,0,589.181,140.343Z" transform="translate(-569.543 -139.722)" fill="#8f6353"/>
          </g>
          <path id="Path_65523" data-name="Path 65523" d="M560.522,156.646c.056.991-1.151,1.481-1.961,1.5a5.257,5.257,0,0,1-1.541-.248,3.976,3.976,0,0,1-1.315-.546,1.021,1.021,0,0,1,.163-1.851.259.259,0,0,1,.144-.151,3.984,3.984,0,0,1,2.7-.257,3.261,3.261,0,0,1,1.092.527A1.513,1.513,0,0,1,560.522,156.646Z" transform="translate(-517.824 -120.303)" fill="#b0745d"/>
          <path id="Path_65524" data-name="Path 65524" d="M521.68,147.5a2.454,2.454,0,0,1-2.086.4,1.833,1.833,0,0,1-.769-.207,1.563,1.563,0,0,1-.436-.988,1.83,1.83,0,0,1,.345-1.261c.615-.828,1.989-.075,2.679.326a1.179,1.179,0,0,1,.681.775A1.067,1.067,0,0,1,521.68,147.5Z" transform="translate(-492.561 -113.516)" fill="#b0745d"/>
          <g id="Group_57365" data-name="Group 57365" transform="translate(30.264 37.095)">
            <path id="Path_65525" data-name="Path 65525" d="M538.328,164.374a4.88,4.88,0,0,1-1.518,1.748,2.8,2.8,0,0,1-2.29.618,3.016,3.016,0,0,1-1.97-3.009,3.356,3.356,0,0,1,.075-.618.261.261,0,0,1,.138-.191.3.3,0,0,1,.254-.166,9.142,9.142,0,0,1,5.136,1.145.357.357,0,0,1,.107.1v0A.3.3,0,0,1,538.328,164.374Z" transform="translate(-532.548 -162.729)" fill="#8f6353"/>
            <path id="Path_65526" data-name="Path 65526" d="M538.26,164a5.38,5.38,0,0,1-5.71-.267,3.351,3.351,0,0,1,.075-.618.261.261,0,0,1,.138-.191.3.3,0,0,1,.254-.166,9.141,9.141,0,0,1,5.136,1.145A.358.358,0,0,1,538.26,164Z" transform="translate(-532.549 -162.729)" fill="#fff"/>
          </g>
          <path id="Path_65527" data-name="Path 65527" d="M562.477,171.2a17.069,17.069,0,0,1-4.625,3.448c-.361.182-.044.725.317.543a17.6,17.6,0,0,0,4.75-3.545C563.2,171.349,562.756,170.9,562.477,171.2Z" transform="translate(-519.54 -131.38)" fill="#8f6353"/>
          <path id="Path_65528" data-name="Path 65528" d="M547.681,280.823A99.156,99.156,0,0,1,545,264.816a19.182,19.182,0,0,1,.122-4.628c.066-.4-.536-.565-.605-.166a28.386,28.386,0,0,0,.213,8.214q.508,4.094,1.315,8.138c.26,1.3.549,2.585.853,3.872-1.355-.7-2.717-1.387-4.107-2.014-1.6-.722-3.235-1.324-4.885-1.911q-2.541-.9-5.083-1.81a36.919,36.919,0,0,0-5.023-1.525,12.637,12.637,0,0,0-5.672.022.314.314,0,0,0,.166.605c3.369-.872,6.773.226,9.939,1.349l4.926,1.754c1.625.58,3.257,1.145,4.838,1.842,1.735.762,3.423,1.628,5.108,2.494A.313.313,0,0,0,547.681,280.823Z" transform="translate(-494.981 -192.247)" fill="#6570a4"/>
          <path id="Path_65529" data-name="Path 65529" d="M606.281,335.729a13.157,13.157,0,0,0-1.65-3.768c-.216-.339-.762-.025-.543.317a12.544,12.544,0,0,1,1.588,3.617A.314.314,0,0,0,606.281,335.729Z" transform="translate(-551.345 -241.672)" fill="#6570a4"/>
          <path id="Path_65530" data-name="Path 65530" d="M610.184,332.4a5.44,5.44,0,0,0-3.084-2.228.316.316,0,0,0-.386.22.321.321,0,0,0,.22.386,4.8,4.8,0,0,1,2.711,1.939.319.319,0,0,0,.43.113A.328.328,0,0,0,610.184,332.4Z" transform="translate(-553.173 -240.535)" fill="#6570a4"/>
          <path id="Path_65531" data-name="Path 65531" d="M608.2,325.105a.323.323,0,0,0-.188-.144.358.358,0,0,0-.242.031c-.075.038-.154.072-.232.107-.2.082-.4.157-.612.22a.314.314,0,0,0,.166.605,6.719,6.719,0,0,0,.995-.389.3.3,0,0,0,.144-.188A.311.311,0,0,0,608.2,325.105Z" transform="translate(-553.171 -236.962)" fill="#6570a4"/>
          <path id="Path_65532" data-name="Path 65532" d="M509.983,306.539a40.7,40.7,0,0,1-4.543,7.2c-.248.314.195.759.442.442a41.478,41.478,0,0,0,4.643-7.329C510.7,306.495,510.162,306.175,509.983,306.539Z" transform="translate(-483.631 -224.215)" fill="#6570a4"/>
          <path id="Path_65533" data-name="Path 65533" d="M500.542,325.194a.388.388,0,0,0-.144-.188l-1.092-.838a.31.31,0,0,0-.242-.031.32.32,0,0,0-.188.144.323.323,0,0,0-.031.242.387.387,0,0,0,.144.188l1.092.838a.31.31,0,0,0,.242.031.32.32,0,0,0,.188-.144A.311.311,0,0,0,500.542,325.194Z" transform="translate(-479.147 -236.395)" fill="#6570a4"/>
          <path id="Path_65534" data-name="Path 65534" d="M502.877,321.835a.214.214,0,0,1-.006-.044.3.3,0,0,0-.238-.22c-.376-.273-.753-.549-1.129-.822a.324.324,0,0,0-.242-.031.32.32,0,0,0-.188.144.326.326,0,0,0,.113.43q.616.447,1.233.9a.314.314,0,0,0,.348-.025A.325.325,0,0,0,502.877,321.835Z" transform="translate(-480.657 -234.049)" fill="#6570a4"/>
          <path id="Path_65535" data-name="Path 65535" d="M504.89,318.746q-.8-.6-1.619-1.164a.314.314,0,0,0-.43.113.323.323,0,0,0,.113.43q.824.56,1.619,1.164a.314.314,0,0,0,.43-.113A.323.323,0,0,0,504.89,318.746Z" transform="translate(-481.87 -231.874)" fill="#6570a4"/>
          <path id="Path_65536" data-name="Path 65536" d="M507.143,315.725a7.285,7.285,0,0,0-1.518-1.079.314.314,0,1,0-.317.543,6.736,6.736,0,0,1,.75.458c.056.041.113.082.166.122l.047.038h0l.081.066c.116.094.232.195.342.3a.315.315,0,0,0,.445-.446Z" transform="translate(-483.486 -229.863)" fill="#6570a4"/>
          <path id="Path_65537" data-name="Path 65537" d="M508.743,312.31c-.254-.16-.505-.329-.75-.5-.122-.088-.245-.176-.364-.267-.006-.006-.057-.044-.063-.047-.025-.019-.05-.038-.075-.06-.06-.047-.119-.094-.176-.141a.313.313,0,0,0-.442.442,16.5,16.5,0,0,0,1.553,1.117.317.317,0,0,0,.43-.113A.323.323,0,0,0,508.743,312.31Z" transform="translate(-484.603 -227.527)" fill="#6570a4"/>
          <path id="Path_65538" data-name="Path 65538" d="M510.568,308.949q-.828-.518-1.657-1.032a.314.314,0,0,0-.317.543q.828.518,1.657,1.032a.317.317,0,0,0,.43-.113A.326.326,0,0,0,510.568,308.949Z" transform="translate(-485.74 -225.242)" fill="#6570a4"/>
          <path id="Path_65539" data-name="Path 65539" d="M512.686,305.476c-.549-.37-1.1-.734-1.663-1.089a.317.317,0,0,0-.43.113.322.322,0,0,0,.113.43q.838.532,1.663,1.089a.317.317,0,0,0,.43-.113A.322.322,0,0,0,512.686,305.476Z" transform="translate(-487.19 -222.819)" fill="#6570a4"/>
          <path id="Path_65540" data-name="Path 65540" d="M514.208,301.835a10.294,10.294,0,0,0-1.493-.9.314.314,0,0,0-.317.543,9.857,9.857,0,0,1,1.493.9.314.314,0,0,0,.43-.113A.326.326,0,0,0,514.208,301.835Z" transform="translate(-488.351 -220.456)" fill="#6570a4"/>
          <path id="Path_65541" data-name="Path 65541" d="M500.281,297.494a59.7,59.7,0,0,0-5.083,8.813c-.169.364.37.684.543.317a59.677,59.677,0,0,1,5.083-8.813C501.056,297.479,500.51,297.165,500.281,297.494Z" transform="translate(-476.63 -218.023)" fill="#6570a4"/>
          <path id="Path_65542" data-name="Path 65542" d="M534.6,347.681c-8.493-2.877-17.07-5.785-24.81-10.394-1.045-.621-2.093-1.258-3.075-1.97a5.7,5.7,0,0,1-2.14-2.5c-.138-.376-.747-.213-.606.166.715,1.923,2.585,3.034,4.239,4.075a69.336,69.336,0,0,0,6.1,3.4,120.59,120.59,0,0,0,12.753,5.29c2.447.878,4.91,1.713,7.373,2.547C534.82,348.415,534.984,347.81,534.6,347.681Z" transform="translate(-482.66 -242.21)" fill="#6570a4"/>
          <path id="Path_65543" data-name="Path 65543" d="M501.208,211.38c-.119-.386-.725-.22-.606.166.43,1.4-.06,2.871-.42,4.226q-.55,2.08-1.208,4.135c-.872,2.733-1.876,5.424-3.015,8.057q-.969,2.245-2.068,4.433c-.179.361.361.678.543.317a88.053,88.053,0,0,0,6.3-16.562C501.142,214.624,501.694,212.955,501.208,211.38Z" transform="translate(-475.731 -158.871)" fill="#6570a4"/>
          <path id="Path_65544" data-name="Path 65544" d="M466.516,321.646a28.316,28.316,0,0,1-2.438,4.678,8.729,8.729,0,0,1-3.3,3.432c-.364.173-.047.715.317.543a9.163,9.163,0,0,0,3.448-3.539,29.041,29.041,0,0,0,2.579-4.945C467.275,321.439,466.667,321.279,466.516,321.646Z" transform="translate(-452.92 -234.551)" fill="#6570a4"/>
          <path id="Path_65545" data-name="Path 65545" d="M532.482,208.319a12.4,12.4,0,0,1-2.221-.43q-.536-.155-1.054-.358a2.824,2.824,0,0,1-.919-.489c-.295-.273-.74.169-.442.442a3.1,3.1,0,0,0,.966.558,12.77,12.77,0,0,0,1.2.427,13.465,13.465,0,0,0,2.469.477C532.883,208.985,532.88,208.357,532.482,208.319Z" transform="translate(-498.989 -155.986)" fill="#6570a4"/>
          <path id="Path_65546" data-name="Path 65546" d="M559.045,204.173c-2.187,1.719-5.076,1.942-7.746,2.13-.4.028-.4.656,0,.628,2.861-.2,5.851-.477,8.189-2.315C559.807,204.367,559.358,203.928,559.045,204.173Z" transform="translate(-514.944 -154.026)" fill="#6570a4"/>
          <path id="Path_65547" data-name="Path 65547" d="M531.5,188.136a.314.314,0,0,0-.628,0q.038,2.4-.138,4.785c-.028.4.6.4.628,0Q531.539,190.535,531.5,188.136Z" transform="translate(-501.041 -142.862)" fill="#6570a4"/>
          <path id="Path_65548" data-name="Path 65548" d="M536.659,188.049a.314.314,0,0,0-.628,0,55.569,55.569,0,0,1-.154,5.738c-.031.4.6.4.627,0A56.438,56.438,0,0,0,536.659,188.049Z" transform="translate(-504.568 -142.802)" fill="#6570a4"/>
          <path id="Path_65549" data-name="Path 65549" d="M542.3,188.519c-.025-.4-.653-.4-.627,0a28.41,28.41,0,0,1-.232,5.773c-.057.4.549.565.605.166A29.355,29.355,0,0,0,542.3,188.519Z" transform="translate(-508.385 -143.125)" fill="#6570a4"/>
          <path id="Path_65550" data-name="Path 65550" d="M547.492,189.191q-.113,2.9-.223,5.8c-.016.4.612.4.627,0q.113-2.9.223-5.8C548.135,188.79,547.508,188.79,547.492,189.191Z" transform="translate(-512.387 -143.587)" fill="#6570a4"/>
          <path id="Path_65551" data-name="Path 65551" d="M553.667,189.189q-.188,2.791-.163,5.591a.314.314,0,0,0,.627,0q-.028-2.8.163-5.591C554.32,188.784,553.692,188.787,553.667,189.189Z" transform="translate(-516.664 -143.585)" fill="#6570a4"/>
          <path id="Path_65552" data-name="Path 65552" d="M559.191,188.244q-.282,2.7-.351,5.412a.314.314,0,0,0,.628,0q.066-2.711.351-5.412C559.859,187.842,559.232,187.845,559.191,188.244Z" transform="translate(-520.327 -142.938)" fill="#6570a4"/>
          <path id="Path_65553" data-name="Path 65553" d="M564.876,187.194q-.268,2.711-.276,5.44a.314.314,0,0,0,.628,0q.009-2.725.276-5.44C565.544,186.792,564.917,186.8,564.876,187.194Z" transform="translate(-524.28 -142.217)" fill="#6570a4"/>
          <path id="Path_65554" data-name="Path 65554" d="M570.513,185.289a42.941,42.941,0,0,0-.345,5.713.314.314,0,0,0,.628,0,42.952,42.952,0,0,1,.345-5.713C571.191,184.89,570.563,184.894,570.513,185.289Z" transform="translate(-528.101 -140.912)" fill="#6570a4"/>
          <path id="Path_65555" data-name="Path 65555" d="M575.383,183.477a27.261,27.261,0,0,0-.524,5.462.314.314,0,0,0,.627,0,26.323,26.323,0,0,1,.5-5.3C576.067,183.252,575.462,183.082,575.383,183.477Z" transform="translate(-531.32 -139.718)" fill="#6570a4"/>
          <path id="Path_65556" data-name="Path 65556" d="M496.425,204.374a15.434,15.434,0,0,1-4.126-.568,9.45,9.45,0,0,1-3.4-1.4c-.329-.235-.64.307-.317.543a9.9,9.9,0,0,0,3.552,1.468,16.05,16.05,0,0,0,4.295.593C496.827,204.985,496.83,204.358,496.425,204.374Z" transform="translate(-472.018 -152.821)" fill="#6570a4"/>
          <path id="Path_65557" data-name="Path 65557" d="M492.063,193.826a.318.318,0,0,0-.43.113q-.4.866-.747,1.747a.315.315,0,0,0,.22.386.324.324,0,0,0,.386-.22c.223-.558.427-1.038.684-1.6A.318.318,0,0,0,492.063,193.826Z" transform="translate(-473.683 -146.948)" fill="#6570a4"/>
          <path id="Path_65558" data-name="Path 65558" d="M495.351,195.31a.324.324,0,0,0-.386.22l-.718,1.826a.315.315,0,0,0,.22.386.324.324,0,0,0,.386-.22l.718-1.826A.315.315,0,0,0,495.351,195.31Z" transform="translate(-475.989 -147.987)" fill="#6570a4"/>
          <path id="Path_65559" data-name="Path 65559" d="M499.337,195.944a.321.321,0,0,0-.386.22q-.433,1.082-.813,2.184a.316.316,0,0,0,.22.386.321.321,0,0,0,.386-.22c.251-.734.521-1.465.813-2.184A.316.316,0,0,0,499.337,195.944Z" transform="translate(-478.661 -148.42)" fill="#6570a4"/>
          <path id="Path_65560" data-name="Path 65560" d="M502.683,198.13a.324.324,0,0,0-.386.22c-.251.618-.5,1.239-.753,1.857a.312.312,0,0,0,.22.386.324.324,0,0,0,.386-.22c.251-.618.5-1.239.753-1.857A.312.312,0,0,0,502.683,198.13Z" transform="translate(-480.996 -149.922)" fill="#6570a4"/>
          <path id="Path_65561" data-name="Path 65561" d="M506.335,198.629a.32.32,0,0,0-.386.22c-.242.7-.477,1.4-.706,2.1a.317.317,0,0,0,.22.386.322.322,0,0,0,.386-.22q.344-1.054.706-2.1A.319.319,0,0,0,506.335,198.629Z" transform="translate(-483.537 -150.264)" fill="#6570a4"/>
          <path id="Path_65562" data-name="Path 65562" d="M510.586,199.94a.324.324,0,0,0-.386.22c-.232.571-.455,1.145-.659,1.726a.317.317,0,0,0,.22.386.321.321,0,0,0,.386-.22c.207-.58.427-1.158.659-1.726A.317.317,0,0,0,510.586,199.94Z" transform="translate(-486.486 -151.164)" fill="#6570a4"/>
          <path id="Path_65563" data-name="Path 65563" d="M514.165,200.721a.32.32,0,0,0-.386.22c-.182.568-.364,1.139-.546,1.707a.314.314,0,0,0,.605.166c.182-.568.364-1.139.546-1.707A.319.319,0,0,0,514.165,200.721Z" transform="translate(-489.021 -151.701)" fill="#6570a4"/>
          <path id="Path_65564" data-name="Path 65564" d="M596.531,216.09c-1.983,2.987-2.588,6.579-3.141,10.052-.063.4.543.565.605.166.543-3.42,1.126-6.962,3.078-9.9C597.3,216.071,596.753,215.758,596.531,216.09Z" transform="translate(-544.035 -162.156)" fill="#6570a4"/>
          <path id="Path_65565" data-name="Path 65565" d="M597.862,390.229c-.3-.891-1.082-1.434-1.584-2.193-.223-.336-.766-.022-.543.317.42.634,1.048,1.111,1.409,1.785.235.439.329,1.255-.264,1.484a.324.324,0,0,0-.22.386.317.317,0,0,0,.386.22A1.562,1.562,0,0,0,597.862,390.229Z" transform="translate(-545.611 -280.155)" fill="#6570a4"/>
          <path id="Path_65566" data-name="Path 65566" d="M592.444,396.144a.313.313,0,0,0-.442.442,1.214,1.214,0,0,1,.091.088c.016.016.025.034.041.047h0s0,0,0,.006a1.825,1.825,0,0,1,.122.216.4.4,0,0,0,.022.056c.012.041.025.082.035.122a.448.448,0,0,1,.012.063.161.161,0,0,1,0,.025c0,.013.006.041.006.044a.423.423,0,0,1,0,.063,1.4,1.4,0,0,1-.009.229.129.129,0,0,1,0,.016c0,.022-.01.041-.012.063-.01.041-.022.082-.035.122-.006.019-.016.041-.022.06v0s0,0,0,0c-.019.038-.038.075-.06.113s-.044.063-.063.094v0s0,0,0,0c-.016.019-.035.038-.05.057a.313.313,0,0,0,.442.442A1.705,1.705,0,0,0,592.444,396.144Z" transform="translate(-543.022 -285.757)" fill="#6570a4"/>
          <path id="Path_65567" data-name="Path 65567" d="M454.784,358.964c.034-.4-.593-.4-.628,0-.317,3.708-4.223,6.792-2.874,10.714.132.38.737.216.605-.166-.643-1.873.138-3.809.992-5.475A14.017,14.017,0,0,0,454.784,358.964Z" transform="translate(-446.321 -260.097)" fill="#6570a4"/>
          <path id="Path_65568" data-name="Path 65568" d="M472.418,206.884c-2.488,1.2-3.95,3.686-5.261,6a.314.314,0,0,0,.543.317c1.258-2.224,2.642-4.618,5.035-5.773C473.1,207.251,472.779,206.709,472.418,206.884Z" transform="translate(-457.379 -155.912)" fill="#6570a4"/>
          <path id="Path_65569" data-name="Path 65569" d="M477.077,214.835a32.833,32.833,0,0,0-1.732,3.608.316.316,0,0,0,.22.386.321.321,0,0,0,.386-.22,31.306,31.306,0,0,1,1.669-3.457A.315.315,0,0,0,477.077,214.835Z" transform="translate(-463.017 -161.288)" fill="#6570a4"/>
          <g id="Group_57366" data-name="Group 57366" transform="translate(4.146 69.977)">
            <path id="Path_65570" data-name="Path 65570" d="M480.66,285.314a.323.323,0,0,0-.188-.144.339.339,0,0,0-.242.031,2.2,2.2,0,0,0-.348.238,1.866,1.866,0,0,0-.248.251.235.235,0,0,0-.066.1.27.27,0,0,0-.028.122.311.311,0,0,0,.314.314.31.31,0,0,0,.223-.091,2.022,2.022,0,0,1,.26-.257,2.319,2.319,0,0,1,.207-.135.311.311,0,0,0,.144-.188A.326.326,0,0,0,480.66,285.314Z" transform="translate(-470.053 -279.631)" fill="#8f6353"/>
            <path id="Path_65571" data-name="Path 65571" d="M473.592,291.721a.233.233,0,0,0-.066-.1.324.324,0,0,0-.223-.091.812.812,0,0,0-.085.013.3.3,0,0,0-.138.082l-.308.376a.235.235,0,0,0-.066.1.27.27,0,0,0-.028.122.209.209,0,0,0,.028.122.236.236,0,0,0,.066.1.311.311,0,0,0,.223.091l.085-.013a.294.294,0,0,0,.138-.082c.1-.126.2-.251.307-.376a.234.234,0,0,0,.066-.1.279.279,0,0,0,0-.245Z" transform="translate(-465.344 -284.002)" fill="#8f6353"/>
            <path id="Path_65572" data-name="Path 65572" d="M471.3,297.925a.319.319,0,0,0-.144-.188.324.324,0,0,0-.242-.031.31.31,0,0,0-.188.144l-.282.637a.254.254,0,0,0-.038.116.245.245,0,0,0,.006.125.32.32,0,0,0,.144.188.315.315,0,0,0,.43-.113c.094-.21.188-.424.282-.637a.254.254,0,0,0,.038-.116A.246.246,0,0,0,471.3,297.925Z" transform="translate(-463.782 -288.232)" fill="#8f6353"/>
            <path id="Path_65573" data-name="Path 65573" d="M468.412,307a.315.315,0,0,0-.43-.113.322.322,0,0,0-.144.188c-.038.16-.072.323-.11.483a.324.324,0,0,0,.031.242.315.315,0,0,0,.43.113.323.323,0,0,0,.144-.188c.037-.16.072-.323.11-.483A.326.326,0,0,0,468.412,307Z" transform="translate(-461.94 -294.513)" fill="#8f6353"/>
            <path id="Path_65574" data-name="Path 65574" d="M466.852,273.655a25.05,25.05,0,0,1-2.413-2.745,5.915,5.915,0,0,1-1.572-3.071c-.013-.4-.64-.4-.627,0a6.118,6.118,0,0,0,1.591,3.3,25.99,25.99,0,0,0,2.579,2.962A.314.314,0,0,0,466.852,273.655Z" transform="translate(-458.18 -267.536)" fill="#8f6353"/>
            <path id="Path_65575" data-name="Path 65575" d="M457.7,283.165a28.667,28.667,0,0,1-3.269-2.306q-.758-.621-1.475-1.293a4.858,4.858,0,0,1-1.2-1.5c-.163-.367-.706-.05-.543.317a4.968,4.968,0,0,0,1.183,1.519c.511.489,1.045.957,1.594,1.406a29.509,29.509,0,0,0,3.395,2.406A.317.317,0,0,0,457.7,283.165Z" transform="translate(-450.586 -274.649)" fill="#8f6353"/>
            <path id="Path_65576" data-name="Path 65576" d="M455.525,292.313c-1.967-1.34-4.308-2.378-5.632-4.452-.216-.339-.759-.025-.543.317,1.39,2.18,3.79,3.272,5.858,4.678C455.541,293.085,455.857,292.539,455.525,292.313Z" transform="translate(-449.3 -281.385)" fill="#8f6353"/>
            <path id="Path_65577" data-name="Path 65577" d="M465.024,307.342q-3.845-1.412-7.545-3.175c-2.014-.96-4.314-1.961-5.472-3.981a.314.314,0,0,0-.543.317c1.2,2.086,3.483,3.147,5.563,4.141q3.835,1.835,7.831,3.3C465.237,308.085,465.4,307.48,465.024,307.342Z" transform="translate(-450.755 -289.837)" fill="#8f6353"/>
          </g>
        </g>
      </g>
      <g id="Group_57379" data-name="Group 57379" transform="translate(0 4.45)">
        <path id="Path_65578" data-name="Path 65578" d="M100.209,196.715A70.349,70.349,0,0,1,76.318,199.4c-9.8-.467-19.618-3.476-27.421-9.425-9.164-6.984-15.05-17.594-18.256-28.66-4.512-15.568-3.68-32.214,5-46.119,4.722-7.564,10.667-12.763,19.571-12.3,6.306-.7,12.458,2.7,16.926,7.2s7.655,10.093,11.373,15.235,8.251,10.052,14.206,12.248c7.172,2.645,15.58,1.045,22.341,4.612,6.419,3.385,9.88,10.965,9.814,18.222s-3.162,14.184-7.172,20.236C117.257,188.871,109.213,193.935,100.209,196.715Z" transform="translate(-27.949 -88.961)" fill="#f3e7de"/>
        <g id="Group_57378" data-name="Group 57378" transform="translate(14.216)">
          <path id="Path_65579" data-name="Path 65579" d="M147.021,407.634a1.389,1.389,0,0,0,.276-.838,31.851,31.851,0,0,0-.48-4.245q-.565-4.475-1.475-8.882a141.721,141.721,0,0,1-47.961.195c-.32-.053-1.2,6.287-1.271,6.893q-.193,1.765-.286,3.542a10.745,10.745,0,0,0,.047,3.341c.351,1.311,1.176,1.631,2.184,2.14a11.882,11.882,0,0,0,3.768,1.227,117.94,117.94,0,0,0,20.34.963,107.225,107.225,0,0,0,20.249-2.708q1.586-.372,3.156-.8A2.677,2.677,0,0,0,147.021,407.634Z" transform="translate(-88.67 -288.57)" fill="#4b3d4c"/>
          <path id="Path_65580" data-name="Path 65580" d="M127.587,79.826a3.842,3.842,0,0,0,3.755-1.475,4.041,4.041,0,0,0,.273-4.135,5.1,5.1,0,0,0,1.735.414,1.728,1.728,0,0,0,1.525-.775,2.138,2.138,0,0,0,.151-1.352,6.213,6.213,0,0,0-3.9-4.59.748.748,0,0,0,.991-.355,1.21,1.21,0,0,0-.1-1.129,3.427,3.427,0,0,0-.813-.85,7.261,7.261,0,0,0-2.751-1.515,1.184,1.184,0,0,0,1.591-.427A1.791,1.791,0,0,0,130,61.88,3.831,3.831,0,0,0,128.7,60.6c-2.824-1.876-6.73-1.933-9.949-.875a.642.642,0,0,0-.229-.856,1.566,1.566,0,0,0-.957-.185,6.766,6.766,0,0,0-5.384,3.219,1.116,1.116,0,0,0-1.158-.5,2.4,2.4,0,0,0-1.17.627,5.908,5.908,0,0,0-1.785,2.849,20.213,20.213,0,0,0-3.2.273A5.427,5.427,0,0,0,102.3,66.3a1.277,1.277,0,0,0-.477.712.556.556,0,0,0,.424.656A9.322,9.322,0,0,0,96.624,71.3a3.312,3.312,0,0,0-.8,2.253,1.478,1.478,0,0,0,1.682,1.343,10.9,10.9,0,0,1-.973,1.045,3.593,3.593,0,0,0-.712,1.111,1.509,1.509,0,0,0,.082,1.28.972.972,0,0,0,1.142.427,7.671,7.671,0,0,0-.737,1.371,2.027,2.027,0,0,0-.235,1.352,1.235,1.235,0,0,0,.91.96,8.561,8.561,0,0,0-.615,3.238A3.726,3.726,0,0,0,97.5,88.526a3.91,3.91,0,0,0,2.632.86,11.558,11.558,0,0,0,2.783-.486,6.083,6.083,0,0,0,3.909,1.641,13.923,13.923,0,0,0,4.311-.662,37.113,37.113,0,0,0,15.69-9.1A6.938,6.938,0,0,0,127.587,79.826Z" transform="translate(-88.674 -58.675)" fill="#4b3d4c"/>
          <path id="Path_65581" data-name="Path 65581" d="M160.287,169.97a8.633,8.633,0,0,0,.555,4.9,6.023,6.023,0,0,0,3.034,2.551,18.085,18.085,0,0,0,3.909.988,21.322,21.322,0,0,1-13.531,5.239,31.6,31.6,0,0,1-14.234-3.514A11.253,11.253,0,0,0,147.23,171,33.412,33.412,0,0,0,160.287,169.97Z" transform="translate(-119.075 -135.053)" fill="#d2a492"/>
          <path id="Path_65582" data-name="Path 65582" d="M247.521,190.486c4.988-10.256,11.16-18.024,16.9-27.882.681-1.17,1.534-2.014,1.817-3.42a24.265,24.265,0,0,0,.27-3.476,18.741,18.741,0,0,1,.355-2.77,27.405,27.405,0,0,0,.718-3.636,13.474,13.474,0,0,0-.257-3.887,1.571,1.571,0,0,1-.053-.637.5.5,0,0,1,.427-.417.668.668,0,0,1,.42.2,7.19,7.19,0,0,1,2.115,4.226,2.286,2.286,0,0,0,.643,1.465c1.148.894,2.319-.715,2.943-1.5a39.5,39.5,0,0,0,2.224-3.291,11.5,11.5,0,0,1,4.248-4.367.561.561,0,0,1,.54-.057c.2.129.173.433.1.665-.866,2.849-3.573,4.781-4.734,7.52a36.968,36.968,0,0,1,3.674-5.02,11.476,11.476,0,0,1,4.866-3.357.975.975,0,0,1,.963.06c.295.279.157.775-.047,1.126a12.078,12.078,0,0,1-2.62,2.792,30.549,30.549,0,0,0-5.061,5.873,27.5,27.5,0,0,1,6.359-4.9,3.511,3.511,0,0,1,1.766-.5.734.734,0,0,1,.665.355c.125.292-.088.612-.3.853-.693.8-1.456,1.54-2.218,2.275q-2.447,2.362-4.894,4.728a18.522,18.522,0,0,1,6.472-4.148c.314-.094,1.186-.286,1.308.185.223.863-1.23,2-1.707,2.5-2.494,2.62-5.591,4.559-7.928,7.37a19.339,19.339,0,0,1-3.774,4.066,135.636,135.636,0,0,0-4.515,13.422,182.766,182.766,0,0,1-9.352,26.909,23.391,23.391,0,0,1-2.557,4.81,8.539,8.539,0,0,1-4.3,3.213,5.272,5.272,0,0,1-5.1-1.086c-1.3-.292-1.54-.791-2.3-1.886a12.526,12.526,0,0,1-1.581-3.642,36.4,36.4,0,0,1-1.258-13.93C244.431,191.038,245.862,190.734,247.521,190.486Z" transform="translate(-189.452 -115.003)" fill="#d2a492"/>
          <path id="Path_65583" data-name="Path 65583" d="M162.412,105.022c.646,2.6.944,5.443-.151,7.89-1.227,2.742-4.038,4.512-6.952,5.243-4.239,1.057-9.1.05-12.116-3.1a15.61,15.61,0,0,1-3.429-6.378,20.788,20.788,0,0,1-.916-8.27,13.506,13.506,0,0,1,3.241-7.577,10.023,10.023,0,0,1,7.388-3.391c5.688.069,9.268,6.008,11.254,10.6A32.158,32.158,0,0,1,162.412,105.022Z" transform="translate(-118.201 -79.787)" fill="#d2a492"/>
          <g id="Group_57369" data-name="Group 57369" transform="translate(10.38 22.092)">
            <path id="Path_65584" data-name="Path 65584" d="M118.351,151.074c-.1-.113-11.492-13.845-11.492-13.845s-1.117-1.126-.053-1.967c.2-.157,5.939-5.28,6.538-5.748a1.175,1.175,0,0,1,1.87.1c.273.326,10.648,12.926,11.856,14.416s-.154,2.548-2.814,4.973S120.274,153.317,118.351,151.074Z" transform="translate(-106.346 -129.091)" fill="#83707c"/>
            <path id="Path_65585" data-name="Path 65585" d="M111.645,149.515a.76.76,0,0,0-.223-.213,1.093,1.093,0,0,0-.138-.063.475.475,0,0,0-.088-.028.76.76,0,0,0-.536.075.7.7,0,0,0-.314.417.765.765,0,0,0,.053.527.637.637,0,0,0,.4.32.731.731,0,0,0,.521-.053.411.411,0,0,0,.085-.06.55.55,0,0,0,.075-.035.588.588,0,0,0,.232-.27A.619.619,0,0,0,111.645,149.515Z" transform="translate(-109.074 -142.886)" fill="#4b3d4c"/>
            <path id="Path_65586" data-name="Path 65586" d="M116.185,146.534a.626.626,0,0,0-.207-.307l0,0a.316.316,0,0,0-.041-.05.467.467,0,0,0-.144-.091.476.476,0,0,0-.163-.038.231.231,0,0,0-.066,0,.563.563,0,0,0-.389.188,1.2,1.2,0,0,0-.075.1.956.956,0,0,0-.053.116.722.722,0,0,0-.038.182.608.608,0,0,0,.016.185.55.55,0,0,0,.069.166.6.6,0,0,0,.176.179.2.2,0,0,0,.044.025.554.554,0,0,0,.119.047.642.642,0,0,0,.361-.013.691.691,0,0,0,.16-.078.6.6,0,0,0,.176-.179.517.517,0,0,0,.05-.113.342.342,0,0,0,.016-.053A.5.5,0,0,0,116.185,146.534Z" transform="translate(-112.287 -140.724)" fill="#4b3d4c"/>
          </g>
          <path id="Path_65587" data-name="Path 65587" d="M153.907,88.607a7.766,7.766,0,0,1-3.078-.772,1.309,1.309,0,0,1-.74,1.023,3.126,3.126,0,0,1-1.28.286,10.911,10.911,0,0,1-4.841-.715,2.144,2.144,0,0,1,.436.471.727.727,0,0,1,.088.615.9.9,0,0,1-.552.458,2.621,2.621,0,0,1-2.165-.1,2.712,2.712,0,0,1-.072.656.888.888,0,0,1-.37.527.908.908,0,0,1-.809-.129,8.164,8.164,0,0,1-.991,3.677.935.935,0,0,1-.376.43.626.626,0,0,1-.687-.157,1.113,1.113,0,0,1-.27-.684,8.433,8.433,0,0,1-1.007,3.7c-.242.373-.631.74-1.067.659a1.01,1.01,0,0,1-.621-.493,2.056,2.056,0,0,1-.242-1.581c.913-3.517,1.835-7.561,4.756-9.723a11.67,11.67,0,0,1,10.356-1.688,7.193,7.193,0,0,1,2.334,1.2A4.35,4.35,0,0,1,153.907,88.607Z" transform="translate(-115.766 -76.417)" fill="#4b3d4c"/>
          <path id="Path_65588" data-name="Path 65588" d="M137.209,249.446A115.01,115.01,0,0,1,143.6,288a9.687,9.687,0,0,1-.424,3.307,3.463,3.463,0,0,1-2.293,2.256c-16.484,3.859-33.272,5.663-49.391.486-1.666-.537-1.923-3.053-2.042-4.8A36.815,36.815,0,0,1,91,275.954c2.24-7.272,3.865-14.928,8.869-20.663a27.768,27.768,0,0,1,11.326-7.589C119.339,244.684,129.319,245.8,137.209,249.446Z" transform="translate(-84.313 -187.203)" fill="#e3bb89"/>
          <path id="Path_65589" data-name="Path 65589" d="M139.088,209.9a49.285,49.285,0,0,0-2.664-5.324c-.985-1.691-1.553-3.4-3.075-4.75a14.576,14.576,0,0,0-6.08-2.751q-3.591-.955-7.238-1.666c-7.012,3.661-16.5,3.674-23.806.649-2.353,1.791-5.177,2.83-7.887,4.019a18.289,18.289,0,0,0-7.25,4.96,29.621,29.621,0,0,0-4.2,8.5,79.915,79.915,0,0,0-3.63,14.746c6.962,3.6,15.084,3.941,22.915,4.207,1.49.05,2.98.1,4.471.141a105.641,105.641,0,0,0,14.88-.445,53.889,53.889,0,0,0,7.272-1.324c2.381-.615,3.962-1.239,6.347-1.87,1.148-.3,1.779-.558,2.9-.954,1.594-5.283,5.126-10.664,8.226-15.2C139.844,211.677,139.578,211.034,139.088,209.9Z" transform="translate(-73.26 -152.511)" fill="#e3bb89"/>
          <path id="Path_65590" data-name="Path 65590" d="M101.335,171.531a23.648,23.648,0,0,0,2.711-5.443,8.5,8.5,0,0,0-.439-5.967c-1.164-2.438-3.21-4.314-5.017-6.319s-3.677-3.712-3.812-6.41c.009.2.885.7,1.054.816.392.27.8.518,1.2.766.606.37,2.162,1.566,2.165.035,0-.756-.185-1.531-.229-2.29a16.3,16.3,0,0,1,.019-2.381,8.763,8.763,0,0,1,2.5-5.688,1.138,1.138,0,0,1,.947-.4.849.849,0,0,1,.58.813,2.743,2.743,0,0,1-.242,1.038,15.126,15.126,0,0,0-.333,9.145,28.886,28.886,0,0,1,.072-4.747,8.9,8.9,0,0,1,1.537-4.207c.185-.251.474-.515.766-.408a.663.663,0,0,1,.351.552,4.816,4.816,0,0,1-.075,1.512,33.877,33.877,0,0,0-.119,8.979,50.922,50.922,0,0,1,.4-5.487,3.794,3.794,0,0,1,.568-1.788c.154-.207.414-.4.656-.3s.307.424.32.7q.071,1.539.025,3.078a17.9,17.9,0,0,0,.091,3.759,12.1,12.1,0,0,0,1.07,3,34.135,34.135,0,0,0,2.651,4.581c2.287,3.329.718,7.348.078,11.335a95.839,95.839,0,0,1-4.364,17.045c-2.94,8.245-3.391,13.924-8.866,20.757a12.78,12.78,0,0,1-4.1,3.614,5.877,5.877,0,0,1-5.3.151c-2.413-1.3-3.3-4.4-3.69-6.883-.718-4.6-.458-9.177-.276-13.8a22.417,22.417,0,0,1,4.982,1.139c.373.132,1.064.427,1.428.129.245-.2.333-.784.461-1.067q.767-1.671,1.566-3.322,1.6-3.308,3.313-6.557Q98.529,176.188,101.335,171.531Z" transform="translate(-80.654 -113.272)" fill="#d2a492"/>
          <g id="Group_57370" data-name="Group 57370" transform="translate(81.663 34.665)">
            <path id="Path_65591" data-name="Path 65591" d="M334.179,175.683c-.138-.376-.747-.213-.605.166a6.1,6.1,0,0,1,.154,3.793.314.314,0,0,0,.605.166A6.65,6.65,0,0,0,334.179,175.683Z" transform="translate(-333.553 -173.492)" fill="#b17d69"/>
            <path id="Path_65592" data-name="Path 65592" d="M350.83,173.391a9.942,9.942,0,0,0-3.087-4.138c-.3-.273-.743.169-.442.442a9.367,9.367,0,0,1,2.927,3.862C350.347,173.94,350.953,173.777,350.83,173.391Z" transform="translate(-342.919 -169.167)" fill="#b17d69"/>
          </g>
          <g id="Group_57373" data-name="Group 57373" transform="translate(23.669 13.376)">
            <path id="Path_65593" data-name="Path 65593" d="M153.515,119.244c-.056.22-.285.339-.489.436a11.832,11.832,0,0,0-3.5,2.582c-.188.2-.493.427-.706.248-.151-.125-.122-.361-.069-.546a7.74,7.74,0,0,1,2.78-3.451c.326-.273.822-.653,1.255-.38C153.06,118.313,153.609,118.89,153.515,119.244Z" transform="translate(-148.704 -112.791)" fill="#4b3d4c"/>
            <path id="Path_65594" data-name="Path 65594" d="M178.035,103.814c.063-.038.122-.072.182-.1.885-.458,1.732-.916,2.648-1.315a2.622,2.622,0,0,0,.706-.292.482.482,0,0,0,.107-.656.681.681,0,0,0-.621-.116,20.458,20.458,0,0,0-3.78,1.082c-.364.129-1.067.373-1.123.835-.056.477.59,1.01,1.029.966A2.232,2.232,0,0,0,178.035,103.814Z" transform="translate(-167.538 -101.311)" fill="#4b3d4c"/>
            <g id="Group_57371" data-name="Group 57371" transform="translate(10.604 2.519)">
              <path id="Path_65595" data-name="Path 65595" d="M185.836,113.341a1.3,1.3,0,0,0,.718-.433,1.136,1.136,0,0,0,.173-.838,3.327,3.327,0,0,0-.279-.831,1.508,1.508,0,0,0-.722-.9,1.253,1.253,0,0,0-1.2.354,3.435,3.435,0,0,0-.787.976c-.132.242-.489.894-.373,1.177.119.3.828.471,1.1.53A2.856,2.856,0,0,0,185.836,113.341Z" transform="translate(-183.083 -109.99)" fill="#fff"/>
              <path id="Path_65596" data-name="Path 65596" d="M187.036,111.987a1.378,1.378,0,0,1-2.061.066,1.84,1.84,0,0,1-.364-1.914,3.516,3.516,0,0,0-1.528,1.8.319.319,0,0,1-.43.113.325.325,0,0,1-.113-.43,3.87,3.87,0,0,1,1.97-2.14,2.434,2.434,0,0,1,2.221.295,1.531,1.531,0,0,1,.693,1.013A1.647,1.647,0,0,1,187.036,111.987Z" transform="translate(-182.504 -109.339)" fill="#4b3d4c"/>
            </g>
            <g id="Group_57372" data-name="Group 57372" transform="translate(2.176 8.024)">
              <path id="Path_65597" data-name="Path 65597" d="M159.085,130.987a1.316,1.316,0,0,0,.678-.493,1.126,1.126,0,0,0,.1-.85,3.321,3.321,0,0,0-.351-.8,1.52,1.52,0,0,0-.8-.835,1.253,1.253,0,0,0-1.161.461,3.5,3.5,0,0,0-.7,1.042c-.11.254-.408.932-.27,1.2s.866.4,1.148.43A2.84,2.84,0,0,0,159.085,130.987Z" transform="translate(-156.262 -127.636)" fill="#fff"/>
              <path id="Path_65598" data-name="Path 65598" d="M160.173,129.383a1.379,1.379,0,0,1-2.049.248,1.838,1.838,0,0,1-.533-1.873,3.5,3.5,0,0,0-1.362,1.929.318.318,0,0,1-.417.151.327.327,0,0,1-.151-.417,3.873,3.873,0,0,1,1.773-2.306,2.436,2.436,0,0,1,2.24.1,1.524,1.524,0,0,1,.781.947A1.639,1.639,0,0,1,160.173,129.383Z" transform="translate(-155.64 -126.888)" fill="#4b3d4c"/>
            </g>
            <path id="Path_65599" data-name="Path 65599" d="M188.126,128.633a2.943,2.943,0,0,0-.675-.424c-.248-.138-.493-.279-.734-.43a15.9,15.9,0,0,1-1.446-1.01.324.324,0,0,0-.442,0,.312.312,0,0,0,0,.442,17.018,17.018,0,0,0,2.494,1.641c.151.082.361.157.43.326a.829.829,0,0,1-.028.543,1.661,1.661,0,0,1-.737.913.314.314,0,0,0,.317.543,2.337,2.337,0,0,0,.963-1.123A1.305,1.305,0,0,0,188.126,128.633Z" transform="translate(-173.432 -118.722)" fill="#b17d69"/>
            <path id="Path_65600" data-name="Path 65600" d="M177.525,140.976a1.878,1.878,0,0,1-.207-.11.937.937,0,0,1-.091-.063l-.041-.028s-.009-.009-.013-.009a1.467,1.467,0,0,1-.16-.154.928.928,0,0,1-.072-.085s0,0-.006-.006a.386.386,0,0,1-.031-.044,1.443,1.443,0,0,1-.116-.188,1.193,1.193,0,0,1-.053-.11.307.307,0,0,0-.016-.035c0-.006,0-.013-.006-.013-.025-.069-.047-.141-.066-.21-.009-.041-.019-.078-.025-.119,0-.006,0-.016,0-.022,0-.025,0-.016,0,.028a.153.153,0,0,1-.006-.066.321.321,0,0,0-.314-.314.317.317,0,0,0-.314.314,2.157,2.157,0,0,0,1.22,1.773.321.321,0,0,0,.43-.113A.315.315,0,0,0,177.525,140.976Z" transform="translate(-167.427 -127.47)" fill="#b17d69"/>
            <path id="Path_65601" data-name="Path 65601" d="M187.674,150.219a2.8,2.8,0,0,1-2.9,2.262,3.485,3.485,0,0,1-3.043-1.983,1.15,1.15,0,0,1,.072-.656,24.47,24.47,0,0,1,5.158-2.579.316.316,0,0,1,.386.22A9.985,9.985,0,0,1,187.674,150.219Z" transform="translate(-171.323 -132.838)" fill="#b17d69"/>
            <path id="Path_65602" data-name="Path 65602" d="M183.751,175.3a12.856,12.856,0,0,1-3.862,1.374,6.712,6.712,0,0,1-4.044-.226c-.364-.173-.681.367-.317.543a7.187,7.187,0,0,0,4.254.336,13.385,13.385,0,0,0,4.289-1.487C184.422,175.648,184.105,175.1,183.751,175.3Z" transform="translate(-167.001 -152.058)" fill="#b17d69"/>
            <path id="Path_65603" data-name="Path 65603" d="M200.328,122.53a1.824,1.824,0,0,1,1.481-.085,1.8,1.8,0,0,1,.948,1.657,1.353,1.353,0,0,1-.345.985,1.576,1.576,0,0,1-.913.358,2.63,2.63,0,0,1-1.779-.264,1.515,1.515,0,0,1-.653-1.537C199.2,123.129,199.882,122.737,200.328,122.53Z" transform="translate(-183.243 -115.732)" fill="#c5846c"/>
            <path id="Path_65604" data-name="Path 65604" d="M159.473,143.059a1.52,1.52,0,0,1,1.324,1.5,1.856,1.856,0,0,1-.618,1.092,3.284,3.284,0,0,1-1.446.86,2.137,2.137,0,0,1-1.641-.21,1.6,1.6,0,0,1-.778-1.418C156.392,143.655,158.453,142.889,159.473,143.059Z" transform="translate(-153.924 -129.945)" fill="#c5846c"/>
          </g>
          <path id="Path_65605" data-name="Path 65605" d="M258.638,299.729a.321.321,0,0,0-.386.22c-.195.546-.386,1.092-.58,1.638a.317.317,0,0,0,.22.386.321.321,0,0,0,.386-.22c.195-.546.386-1.092.58-1.638A.317.317,0,0,0,258.638,299.729Z" transform="translate(-199.806 -224.095)" fill="#b17d69"/>
          <g id="Group_57374" data-name="Group 57374" transform="translate(9.848 2.226)">
            <path id="Path_65606" data-name="Path 65606" d="M186.537,82.845a6.723,6.723,0,0,0-3.137-2.093c-.386-.125-.549.48-.166.606a6.225,6.225,0,0,1,2.475,1.509,2.182,2.182,0,0,1,.747,1.161.685.685,0,0,1-.144.558.4.4,0,0,1-.449.107c-.358-.182-.678.358-.317.543a1.063,1.063,0,0,0,1.471-.634A1.862,1.862,0,0,0,186.537,82.845Z" transform="translate(-158.429 -76.041)" fill="#332b35"/>
            <path id="Path_65607" data-name="Path 65607" d="M171.406,81.934a5.991,5.991,0,0,0-1.544-.941.316.316,0,0,0-.386.22.321.321,0,0,0,.22.386,5.009,5.009,0,0,1,1.145.678,5.161,5.161,0,0,1,.5.449c.129.135.342.317.355.518.022.3-.762.229-.951.213a2.758,2.758,0,0,1-1.267-.461c-.342-.226-.64.311-.317.543.16.116.5.4.141.471a2.484,2.484,0,0,1-1.051-.094.314.314,0,0,0-.166.606,2.139,2.139,0,0,0,1.757-.085.691.691,0,0,0,.245-.48,3.479,3.479,0,0,0,.784.135c.543.025,1.333-.028,1.437-.693C172.394,82.791,171.82,82.286,171.406,81.934Z" transform="translate(-148.026 -76.206)" fill="#332b35"/>
            <path id="Path_65608" data-name="Path 65608" d="M127.769,116.008c-.044.1-.157.376-.27.389-.078.006-.173-.1-.223-.147a3.457,3.457,0,0,1-.282-.286,1.242,1.242,0,0,1-.358-1.246c.132-.345-.389-.527-.574-.242a5.442,5.442,0,0,1-.856,1.139c-.154.135-.295-.044-.411-.163a2.086,2.086,0,0,1-.361-.5,5.035,5.035,0,0,1-.3-2.733c.028-.4-.6-.4-.627,0a4.95,4.95,0,0,0,.609,3.4c.295.392.806.894,1.327.59a2.2,2.2,0,0,0,.58-.612c.006-.009.013-.016.019-.025a2.819,2.819,0,0,0,.668,1c.251.248.568.524.948.42a1.114,1.114,0,0,0,.649-.675C128.474,115.961,127.935,115.641,127.769,116.008Z" transform="translate(-117.563 -97.442)" fill="#332b35"/>
            <path id="Path_65609" data-name="Path 65609" d="M144.314,94.27a.316.316,0,0,0-.386.22c-.031.2-.066.392-.113.587-.006.022-.041.129-.063.207l-.075-.016a1.07,1.07,0,0,1-.615-.577.329.329,0,0,0-.3-.229.316.316,0,0,0-.3.229,3.292,3.292,0,0,1-.483,1.12.949.949,0,0,0-.069.088.024.024,0,0,1-.013,0c-.069-.038-.144-.066-.213-.11a1.551,1.551,0,0,1-.377-.339,3.2,3.2,0,0,1-.442-2.353.317.317,0,0,0-.314-.314.321.321,0,0,0-.314.314,3.48,3.48,0,0,0,.809,2.993c.348.317.916.662,1.321.242a2.623,2.623,0,0,0,.508-.85,1.58,1.58,0,0,0,.74.424.559.559,0,0,0,.725-.336,4.734,4.734,0,0,0,.2-.913A.326.326,0,0,0,144.314,94.27Z" transform="translate(-129.048 -84.306)" fill="#332b35"/>
            <path id="Path_65610" data-name="Path 65610" d="M108.029,126.21c.038-.1.053-.21.1-.314.119-.289-.329-.536-.524-.3-.342.408-.6.957-1.079,1.22a.8.8,0,0,1-1.082-.392,2,2,0,0,1-.016-1.562,6.6,6.6,0,0,1,.731-1.669c.216-.342-.326-.656-.543-.317a6.953,6.953,0,0,0-.857,2.039,2.362,2.362,0,0,0,.238,1.977,1.4,1.4,0,0,0,1.619.565,2.2,2.2,0,0,0,.951-.794c.006.006.013.016.019.022a.569.569,0,0,0,.8.025C108.65,126.454,108.311,126.072,108.029,126.21Z" transform="translate(-104.65 -104.857)" fill="#332b35"/>
            <path id="Path_65611" data-name="Path 65611" d="M205.735,92.875a4.174,4.174,0,0,0-1.082-1.682,5.9,5.9,0,0,0-1.578-1.261c-.355-.191-.675.351-.317.543a5.885,5.885,0,0,1,2.143,2.058c.207.333.436.925-.013,1.18s-.976-.06-1.365-.27c-.26-.141-.609.154-.43.43a3.1,3.1,0,0,1,.471,1.064,1.7,1.7,0,0,1,.044.22.315.315,0,0,1,.009.078c0,.006,0,.006,0,.013a.313.313,0,0,0,.053.618c.555.022.605-.552.524-.963a3.455,3.455,0,0,0-.166-.558,1.518,1.518,0,0,0,1.032-.025A1.209,1.209,0,0,0,205.735,92.875Z" transform="translate(-171.87 -82.324)" fill="#332b35"/>
            <path id="Path_65612" data-name="Path 65612" d="M161.563,67.6c-.176-.345-.831-.433-1.167-.48a3.655,3.655,0,0,0-1.28.053,1.775,1.775,0,0,0,.182-.483c.144-.722-.518-.869-1.073-.907a6.636,6.636,0,0,0-3.956,1.01c-.342.213-.025.756.317.543a6.028,6.028,0,0,1,2.88-.932,6.185,6.185,0,0,1,.762.006c.191.013.505-.041.445.21a2.611,2.611,0,0,1-.935,1.189c-.273.223.091.7.38.493a2.976,2.976,0,0,1,2.2-.568,2.569,2.569,0,0,1,.571.122,2.158,2.158,0,0,1-.254.122c-.367.163-.05.7.317.543C161.274,68.384,161.776,68.021,161.563,67.6Z" transform="translate(-138.6 -65.772)" fill="#332b35"/>
            <path id="Path_65613" data-name="Path 65613" d="M115.291,93.575c-.16.257-.455.772-.838.621-.147-.056-.135-.2-.11-.336a4.326,4.326,0,0,0,.144-.744.318.318,0,0,0-.536-.223,3.712,3.712,0,0,1-1.33.85c-.141.041-.477.132-.6.006s.028-.5.072-.637a3.96,3.96,0,0,1,1.87-2.271c.354-.195.038-.737-.317-.543a4.614,4.614,0,0,0-2,2.215,1.88,1.88,0,0,0-.2,1.509c.267.493.938.455,1.4.307a3.182,3.182,0,0,0,.863-.449.856.856,0,0,0,0,.22.815.815,0,0,0,.577.7c.706.216,1.214-.38,1.547-.91C116.047,93.547,115.5,93.233,115.291,93.575Z" transform="translate(-109.248 -82.576)" fill="#332b35"/>
          </g>
          <g id="Group_57375" data-name="Group 57375" transform="translate(1.314 43.96)">
            <path id="Path_65614" data-name="Path 65614" d="M246.57,271.027q-1.322-6.287-3.228-12.427c-.119-.386-.725-.22-.605.166q1.906,6.132,3.228,12.427C246.046,271.589,246.652,271.419,246.57,271.027Z" transform="translate(-190.869 -239.686)" fill="#cc9d65"/>
            <path id="Path_65615" data-name="Path 65615" d="M240.053,303.844c-.044-.4-.671-.4-.627,0a95.392,95.392,0,0,1,.445,15.668c-.022.4.606.4.627,0A95.747,95.747,0,0,0,240.053,303.844Z" transform="translate(-188.606 -270.68)" fill="#cc9d65"/>
            <path id="Path_65616" data-name="Path 65616" d="M249.725,337.959c-.028-.4-.656-.4-.627,0a83.933,83.933,0,0,1,.157,9.569c-.016.4.612.4.628,0A83.94,83.94,0,0,0,249.725,337.959Z" transform="translate(-195.245 -294.09)" fill="#cc9d65"/>
            <path id="Path_65617" data-name="Path 65617" d="M94.079,226.535a55.2,55.2,0,0,0-5.117,12.358.314.314,0,0,0,.605.166,54.558,54.558,0,0,1,5.051-12.207A.313.313,0,0,0,94.079,226.535Z" transform="translate(-85.341 -217.727)" fill="#cc9d65"/>
            <path id="Path_65618" data-name="Path 65618" d="M97.084,256.383a21.679,21.679,0,0,0-1.528,4.863c-.075.4.53.565.606.166a20.994,20.994,0,0,1,1.465-4.712C97.79,256.333,97.25,256.016,97.084,256.383Z" transform="translate(-89.87 -238.203)" fill="#cc9d65"/>
            <path id="Path_65619" data-name="Path 65619" d="M86.434,293.087a26.929,26.929,0,0,1-8.527-3.815c-.336-.226-.649.317-.317.543a27.491,27.491,0,0,0,8.678,3.878A.314.314,0,0,0,86.434,293.087Z" transform="translate(-77.448 -260.848)" fill="#cc9d65"/>
            <path id="Path_65620" data-name="Path 65620" d="M257.219,289.495a.319.319,0,0,0-.386-.22l-1.98.546a.314.314,0,1,0,.166.606l1.98-.546A.315.315,0,0,0,257.219,289.495Z" transform="translate(-199.036 -260.88)" fill="#cc9d65"/>
            <path id="Path_65621" data-name="Path 65621" d="M190.938,198.845c-5.1,3.332-11.323,3.821-17.249,4.038-.4.016-.4.643,0,.627,6.033-.216,12.374-.731,17.566-4.122C191.594,199.169,191.28,198.623,190.938,198.845Z" transform="translate(-143.287 -198.793)" fill="#cc9d65"/>
            <path id="Path_65622" data-name="Path 65622" d="M139.553,206.018c-.5-.276-1-.549-1.5-.825a.314.314,0,1,0-.317.543l1.5.825a.314.314,0,0,0,.317-.543Z" transform="translate(-118.717 -203.158)" fill="#cc9d65"/>
          </g>
          <g id="Group_57377" data-name="Group 57377" transform="translate(6.241 24.483)">
            <path id="Path_65623" data-name="Path 65623" d="M100.224,310.254a.321.321,0,0,0-.386.22,39.743,39.743,0,0,0-1.644,4.876.314.314,0,0,0,.605.166,39.752,39.752,0,0,1,1.644-4.876A.312.312,0,0,0,100.224,310.254Z" transform="translate(-96.604 -255.799)" fill="#b17d69"/>
            <g id="Group_57376" data-name="Group 57376" transform="translate(14.834)">
              <path id="Path_65624" data-name="Path 65624" d="M156.423,163.974a13.291,13.291,0,0,1-.96-5.39c0-.885.072-1.763.129-2.648.038-.565.075-1.839-.766-1.826a.314.314,0,0,0,0,.627c.307-.006.069,2.152.056,2.378a24.055,24.055,0,0,0-.022,2.516,13.136,13.136,0,0,0,1.023,4.659C156.043,164.658,156.583,164.338,156.423,163.974Z" transform="translate(-150.103 -148.652)" fill="#b17d69"/>
              <path id="Path_65625" data-name="Path 65625" d="M148.853,143.169a.931.931,0,0,0-1.653.207c-.147.376.458.54.605.166a.326.326,0,0,1,.38-.163c.179.069.2.292.2.458a8.353,8.353,0,0,1-.2,1.239c-.154.929-.267,1.867-.339,2.8a31.814,31.814,0,0,0,.085,5.707c.041.4.668.4.627,0a31.622,31.622,0,0,1,.091-7.407c.082-.609.188-1.211.3-1.817A1.722,1.722,0,0,0,148.853,143.169Z" transform="translate(-145.062 -140.855)" fill="#b17d69"/>
              <path id="Path_65626" data-name="Path 65626" d="M142.08,136.856a1.069,1.069,0,0,0-1.1.031c-.37.163-.05.7.317.543.26-.113.417-.141.471.182a1.716,1.716,0,0,1-.141.756c-.141.433-.3.853-.436,1.289a17.474,17.474,0,0,0-.59,2.717,18.092,18.092,0,0,0,.085,5.428c.066.4.671.229.605-.166a17.32,17.32,0,0,1,.195-6.639q.174-.767.417-1.512a8.105,8.105,0,0,0,.477-1.588A1.131,1.131,0,0,0,142.08,136.856Z" transform="translate(-140.435 -136.713)" fill="#b17d69"/>
            </g>
            <path id="Path_65627" data-name="Path 65627" d="M117.777,219.586a207.461,207.461,0,0,1-5.845,23.386q-1.812,5.788-3.962,11.467c-1.18,3.119-2.394,6.35-4.49,8.988a11,11,0,0,1-4.468,3.514c-1.791.69-4.116.568-5.264-1.183-.22-.336-.766-.022-.543.317a4.525,4.525,0,0,0,4.226,1.886,8.755,8.755,0,0,0,4.769-2.281c2.566-2.215,4.1-5.365,5.355-8.452a189.7,189.7,0,0,0,7.708-23.59q1.8-6.885,3.119-13.883C118.458,219.357,117.852,219.191,117.777,219.586Z" transform="translate(-93.153 -193.431)" fill="#b17d69"/>
            <path id="Path_65628" data-name="Path 65628" d="M161.781,189.683c-.138-.376-.744-.213-.605.166a21.484,21.484,0,0,0,2.118,3.8,6.769,6.769,0,0,1,1.311,4.421c-.06.4.546.565.606.166C165.706,194.885,162.838,192.582,161.781,189.683Z" transform="translate(-139.82 -172.918)" fill="#b17d69"/>
          </g>
        </g>
      </g>
    </g>
  </g>
</svg>
