<svg xmlns="http://www.w3.org/2000/svg" xmlns:xlink="http://www.w3.org/1999/xlink" width="41.748" height="41.748" viewBox="0 0 41.748 41.748">
  <defs>
    <linearGradient id="linear-gradient" x1="0.5" x2="0.5" y2="1" gradientUnits="objectBoundingBox">
      <stop offset="0" stop-color="#f95e1b"/>
      <stop offset="1" stop-color="#ff8f00"/>
    </linearGradient>
  </defs>
  <g id="Group_57270" data-name="Group 57270" transform="translate(-166.626 -502.382)">
    <path id="Shape" d="M18.8,0h3.149a18.8,18.8,0,0,1,18.8,18.8v3.149a18.8,18.8,0,0,1-18.8,18.8H18.8A18.8,18.8,0,0,1,0,21.948V18.8A18.8,18.8,0,0,1,18.8,0Z" transform="translate(167.126 502.882)" fill="url(#linear-gradient)"/>
    <g id="rocket_1_" data-name="rocket (1)" transform="translate(-295.583 166.39)">
      <g id="Group_57263" data-name="Group 57263" transform="translate(474.518 348.3)">
        <path id="Path_65246" data-name="Path 65246" d="M510.482,349.6c-.058.469-.112.938-.21,1.4a13.584,13.584,0,0,1-2.644,5.584,10.945,10.945,0,0,1-1.42,1.528.316.316,0,0,0-.107.25,9.078,9.078,0,0,1-2.01,5.351c-.183.228-.38.438-.576.648a.395.395,0,0,1-.71-.223c-.116-.822-.237-1.639-.357-2.461,0-.045.009-.1-.036-.121s-.085.04-.121.067c-.062.049-.116.1-.179.152a.384.384,0,0,1-.612-.027q-2.238-2.238-4.48-4.48a.386.386,0,0,1-.022-.612c.018-.022.036-.04.054-.063.054-.076.192-.147.161-.214-.04-.094-.188-.063-.286-.076-.768-.116-1.541-.223-2.314-.335a.4.4,0,0,1-.362-.272.41.41,0,0,1,.152-.429,9.076,9.076,0,0,1,4.726-2.443,9.666,9.666,0,0,1,1.3-.143.347.347,0,0,0,.246-.116,13.6,13.6,0,0,1,6.057-3.775,11.056,11.056,0,0,1,2.4-.469.273.273,0,0,0,.08-.022c.393,0,.786,0,1.179,0,.08,0,.094.018.094.094Zm-3.145,3.6a1.753,1.753,0,1,0-1.764,1.747A1.728,1.728,0,0,0,507.337,353.2Z" transform="translate(-493.352 -348.3)" fill="#fff"/>
        <path id="Path_65247" data-name="Path 65247" d="M480.257,605.7a2.106,2.106,0,0,1-1.121,1.8,17.836,17.836,0,0,1-3.011,1.233c-.353.121-.71.228-1.068.344a.382.382,0,0,1-.514-.5,25.964,25.964,0,0,1,1.434-3.828,2.324,2.324,0,0,1,1.255-1.233A2.245,2.245,0,0,1,480.257,605.7Z" transform="translate(-474.518 -591.977)" fill="#fff"/>
      </g>
    </g>
  </g>
</svg>
