<svg xmlns="http://www.w3.org/2000/svg" width="24.496" height="24.495" viewBox="0 0 24.496 24.495">
  <g id="More" transform="translate(-575.37 -281.833)">
    <path id="Icon_ionic-md-settings" data-name="Icon ionic-md-settings" d="M24.924,16.847a7.66,7.66,0,0,0,.062-1.225c0-.429-.062-.8-.062-1.225l2.63-2.021a.562.562,0,0,0,.125-.8L25.174,7.355a.61.61,0,0,0-.752-.245L21.291,8.335A9.116,9.116,0,0,0,19.162,7.11l-.439-3.245a.671.671,0,0,0-.626-.49H13.086a.671.671,0,0,0-.626.49l-.5,3.245a10.607,10.607,0,0,0-2.13,1.225L6.7,7.11a.587.587,0,0,0-.752.245L3.44,11.581a.74.74,0,0,0,.125.8L6.258,14.4c0,.429-.062.8-.062,1.225s.062.8.062,1.225l-2.63,2.021a.563.563,0,0,0-.125.8L6.008,23.89a.61.61,0,0,0,.752.245L9.892,22.91a9.115,9.115,0,0,0,2.129,1.225l.5,3.245a.607.607,0,0,0,.626.49h5.011a.671.671,0,0,0,.626-.49l.5-3.245a10.6,10.6,0,0,0,2.129-1.225l3.132,1.225a.587.587,0,0,0,.752-.245l2.505-4.226a.739.739,0,0,0-.125-.8Zm-9.333,3.062a4.288,4.288,0,1,1,4.384-4.287A4.309,4.309,0,0,1,15.591,19.909Z" transform="translate(571.995 278.458)" fill="#b5b5b5"/>
  </g>
</svg>
