<svg xmlns="http://www.w3.org/2000/svg" xmlns:xlink="http://www.w3.org/1999/xlink" width="40.748" height="40.748" viewBox="0 0 40.748 40.748">
  <defs>
    <linearGradient id="linear-gradient" x1="1.45" y1="1.064" x2="0.156" y2="0.08" gradientUnits="objectBoundingBox">
      <stop offset="0" stop-color="#ff8000"/>
      <stop offset="1" stop-color="#fc0"/>
    </linearGradient>
    <clipPath id="clip-path">
      <path id="Shape" d="M3.623,17.219a1.247,1.247,0,0,1,0-2.495H19.9a1.247,1.247,0,0,1,0,2.495Zm16.771-3.945H2.605L1.414,3.88A1.985,1.985,0,0,1,0,1.991,2.009,2.009,0,0,1,2.021,0,2.009,2.009,0,0,1,4.043,1.991,1.972,1.972,0,0,1,3.3,3.523l3.486,2.9,3.441-2.9a1.972,1.972,0,0,1-.745-1.532,2.022,2.022,0,0,1,4.043,0,1.972,1.972,0,0,1-.745,1.532l3.441,2.9,3.485-2.9a1.972,1.972,0,0,1-.745-1.532,2.022,2.022,0,0,1,4.044,0A1.983,1.983,0,0,1,21.587,3.88l-1.192,9.393h0ZM9.479,9.956A2.022,2.022,0,1,0,11.5,7.965,2.009,2.009,0,0,0,9.479,9.956Zm6.738.663a.674.674,0,1,0,.673-.663A.67.67,0,0,0,16.217,10.619Zm-10.782,0a.674.674,0,1,0,.674-.663A.67.67,0,0,0,5.435,10.619Zm5.3-.213a.771.771,0,1,1,.767.693A.732.732,0,0,1,10.733,10.406Z" transform="translate(4 6)" fill="#fff"/>
    </clipPath>
  </defs>
  <g id="Group_57269" data-name="Group 57269" transform="translate(-167.126 -502.882)">
    <path id="Shape-2" data-name="Shape" d="M18.8,0h3.149a18.8,18.8,0,0,1,18.8,18.8v3.149a18.8,18.8,0,0,1-18.8,18.8H18.8A18.8,18.8,0,0,1,0,21.948V18.8A18.8,18.8,0,0,1,18.8,0Z" transform="translate(167.126 502.882)" fill="url(#linear-gradient)"/>
    <g id="Group_57262" data-name="Group 57262" transform="translate(172 508.646)" clip-path="url(#clip-path)">
      <g id="color_primary" data-name="color/primary">
        <rect id="color_primary_background" data-name="color/primary background" width="30" height="30" fill="#fff"/>
        <rect id="color_primary-2" data-name="color/primary" width="30" height="30" fill="#fff"/>
      </g>
    </g>
  </g>
</svg>
