<svg xmlns="http://www.w3.org/2000/svg" width="19.868" height="14.893" viewBox="0 0 19.868 14.893">
  <g id="_Icons_7_Credit_card_Copy" data-name="_Icons / 7 Credit card Copy" transform="translate(0)">
    <path id="_10_Crown" data-name="10 Crown" d="M16.433,14.893H3.459a2.07,2.07,0,0,1-2.07-1.8L.01,2.734A1.242,1.242,0,0,1,2.08,1.658L4.4,3.806A1.242,1.242,0,0,0,6.22,3.715L8.994.445a1.242,1.242,0,0,1,1.9,0l2.774,3.271a1.242,1.242,0,0,0,1.8.108l2.318-2.178a1.242,1.242,0,0,1,2.07,1.076l-1.379,10.35A2.07,2.07,0,0,1,16.433,14.893Z" transform="translate(0 0)" fill="#fff"/>
  </g>
</svg>
