<svg xmlns="http://www.w3.org/2000/svg" width="16.262" height="17.173" viewBox="0 0 16.262 17.173">
  <g id="Trash_09" transform="translate(0.75)">
    <line id="Line_19" data-name="Line 19" x2="14.762" transform="translate(0 3.322)" fill="none" stroke="#8d8d8d" stroke-linecap="round" stroke-width="1.5"/>
    <g id="Group_1059" data-name="Group 1059" transform="translate(5.308 7.7)">
      <line id="Line_20" data-name="Line 20" y2="3.683" fill="none" stroke="#8d8d8d" stroke-linecap="round" stroke-width="1.5"/>
      <path id="Path_192" data-name="Path 192" d="M-1.411.116V3.8" transform="translate(5.536 -0.03)" fill="none" stroke="#8d8d8d" stroke-linecap="round" stroke-width="1.5"/>
    </g>
    <path id="Path_157" data-name="Path 157" d="M3907.714,1583.666s0,6.159,0,8.908a3.958,3.958,0,0,0,4.026,4.091h4.767a3.957,3.957,0,0,0,4.162-4.162v-8.939" transform="translate(-3906.818 -1580.243)" fill="none" stroke="#8d8d8d" stroke-width="1.5"/>
    <g id="Path_158" data-name="Path 158" transform="translate(2.963)" fill="none">
      <path d="M1.623,0H7.3A1.555,1.555,0,0,1,8.926,1.476v2.4H0v-2.4A1.555,1.555,0,0,1,1.623,0Z" stroke="none"/>
      <path d="M 1.622875690460205 1.500002384185791 C 1.563249588012695 1.500002384185791 1.52246618270874 1.51645565032959 1.499995708465576 1.530414819717407 L 1.499995708465576 2.376162528991699 L 7.425816059112549 2.376162528991699 L 7.425816059112549 1.530414819717407 C 7.403345584869385 1.51645565032959 7.36256217956543 1.500002384185791 7.302935600280762 1.500002384185791 L 1.622875690460205 1.500002384185791 M 1.622875690460205 2.384185791015625e-06 L 7.302935600280762 2.384185791015625e-06 C 8.199226379394531 2.384185791015625e-06 8.925815582275391 0.6609225273132324 8.925815582275391 1.476222515106201 L 8.925815582275391 3.876162528991699 L -3.814697265625e-06 3.876162528991699 L -3.814697265625e-06 1.476222515106201 C -3.814697265625e-06 0.6609225273132324 0.7265863418579102 2.384185791015625e-06 1.622875690460205 2.384185791015625e-06 Z" stroke="none" fill="#8d8d8d"/>
    </g>
  </g>
</svg>
