<svg id="business-and-finance" xmlns="http://www.w3.org/2000/svg" width="27.121" height="24.495" viewBox="0 0 27.121 24.495">
  <path id="Path_13424" data-name="Path 13424" d="M9.988,170.345a18.117,18.117,0,0,0,5.4-.657,2.619,2.619,0,0,1,.759-2.4,2.661,2.661,0,0,1,0-3.822,2.662,2.662,0,0,1,0-3.822,2.657,2.657,0,0,1,.292-4.062,10.846,10.846,0,0,0-1.45-1.118,1.5,1.5,0,0,0,.349-.935A1.529,1.529,0,0,0,13.81,152H6.166a1.529,1.529,0,0,0-1.529,1.529,1.5,1.5,0,0,0,.348.933,10.94,10.94,0,0,0-4.985,9c0,6.167,5.722,6.879,9.988,6.879Zm-.008-7.42a2.287,2.287,0,0,1-.756-4.448v-1.127a.764.764,0,0,1,1.529,0v1.132a2.289,2.289,0,0,1,1.521,2.15.764.764,0,0,1-1.529,0,.764.764,0,1,0-.764.764,2.288,2.288,0,0,1,.773,4.443v.684a.764.764,0,1,1-1.529,0v-.679a2.289,2.289,0,0,1-1.537-2.155.764.764,0,1,1,1.529,0,.764.764,0,1,0,.764-.764Zm0,0" transform="translate(0 -145.85)" fill="#b5b5b5"/>
  <path id="Path_13425" data-name="Path 13425" d="M339.077,467h-6.93a1.147,1.147,0,1,0,0,2.293h6.93a1.147,1.147,0,0,0,0-2.293Zm0,0" transform="translate(-313.103 -444.798)" fill="#b5b5b5"/>
  <path id="Path_13426" data-name="Path 13426" d="M339.077,392h-6.93a1.147,1.147,0,1,0,0,2.293h6.93a1.147,1.147,0,0,0,0-2.293Zm0,0" transform="translate(-313.103 -373.62)" fill="#b5b5b5"/>
  <path id="Path_13427" data-name="Path 13427" d="M339.077,317h-6.93a1.147,1.147,0,1,0,0,2.293h6.93a1.147,1.147,0,0,0,0-2.293Zm0,0" transform="translate(-313.103 -301.929)" fill="#b5b5b5"/>
  <path id="Path_13428" data-name="Path 13428" d="M339.077,242h-6.93a1.147,1.147,0,1,0,0,2.293h6.93a1.147,1.147,0,0,0,0-2.293Zm0,0" transform="translate(-313.103 -230.495)" fill="#b5b5b5"/>
  <path id="Path_13429" data-name="Path 13429" d="M98.5,1.529a2.287,2.287,0,0,0-4.315,0H91.764a.764.764,0,0,0-.725,1.006l1.193,3.682h8.235l1.193-3.682a.764.764,0,0,0-.725-1.006Zm0,0" transform="translate(-86.052)" fill="#b5b5b5"/>
</svg>
