<svg xmlns="http://www.w3.org/2000/svg" width="20.412" height="24.495" viewBox="0 0 20.412 24.495">
  <path id="icon" d="M18.923,2.184,12.529.052a1.021,1.021,0,0,0-.645,0l-6.4,2.132A5.1,5.1,0,0,0,2,7.025v5.222c0,7.719,9.39,11.982,9.792,12.16a1.021,1.021,0,0,0,.829,0c.4-.178,9.792-4.441,9.792-12.16V7.025a5.1,5.1,0,0,0-3.489-4.841ZM12.206,19.392a1.021,1.021,0,1,1,1.021-1.021A1.021,1.021,0,0,1,12.206,19.392Zm1.021-5.1a1.021,1.021,0,1,1-2.041,0V6.124a1.021,1.021,0,1,1,2.041,0Z" transform="translate(-2 0)" fill="#b5b5b5"/>
</svg>
