<svg xmlns="http://www.w3.org/2000/svg" width="58.713" height="106.206" viewBox="0 0 58.713 106.206">
  <g id="swipe_right" data-name="swipe right" transform="translate(-227.269 -208.94)">
    <g id="Group_57465" data-name="Group 57465" transform="translate(235.473 208.94)">
      <path id="Path_65767" data-name="Path 65767" d="M258.42,208.94l12.808,8.384-12.808,8.4Z" transform="translate(-226.321 -208.94)" fill="#6faeb5"/>
      <path id="Path_65768" data-name="Path 65768" d="M265.709,212.29l-32.1,4.05,32.1,4.05Z" transform="translate(-233.61 -207.956)" fill="#6faeb5"/>
    </g>
    <g id="Group_57466" data-name="Group 57466" transform="translate(227.269 214.733)">
      <path id="Path_65769" data-name="Path 65769" d="M256.06,313.8s-4.774-12.2-6.534-14.8-4.282-6.728-5.473-8.513c-1.617-2.432-6.43-14.671-6.6-15.758a83.265,83.265,0,0,0-4.9-17.634c-1.54-2.924-5.512-5.02-4.761-6.676.737-1.617,6.973-2.9,10.557,1.384s6.831,14.335,6.831,14.335,1.048-6.158,1.772-9.432c.789-3.558,5.447-18.7,6.521-21.71s4.774-15.487,5.744-17.207,2.225-5.214,5.46-4.166c3,.983,2.329,4.3,1.449,7.556-.983,3.636-3.209,13.2-4.36,17.207-1.113,3.868-2.005,7.737-2.005,7.737s1.2-4.528,4.929-4.049c3.493.453,3.843,4.916,3.843,4.916a3.9,3.9,0,0,1,2.782-.349c1.643.427,2.484,1.578,2.769,3.584.1.763.181,2.769.181,2.769a3.116,3.116,0,0,1,2.652-.155c1.475.582,1.85,2.833,2.044,4.075s1.4,10.195,1.268,13.391-3.778,18.747-3.687,21.192,9.315,22.331,9.315,22.331h-29.8Z" transform="translate(-227.143 -213.414)" fill="#ffbd95"/>
      <path id="Path_65770" data-name="Path 65770" d="M257.4,213.615a2.781,2.781,0,0,1,2.057,2.51c.091.97-1.6,5.046-2.251,5.447s-4.166-.582-4.567-1.333c-.543-1.009.906-4.658,1.475-5.6A2.565,2.565,0,0,1,257.4,213.615Z" transform="translate(-219.852 -213.418)" fill="#ffc8a7"/>
      <path id="Path_65771" data-name="Path 65771" d="M237.12,244.78a73.886,73.886,0,0,1,4.528,9.949c.272.763.763,2.2.763,2.2a43.586,43.586,0,0,0-1.954,5.486,24.88,24.88,0,0,0,.039,5.537,11.663,11.663,0,0,1-1.164-7.271,58.9,58.9,0,0,0,.919-5.887C240.367,251.7,237.12,244.78,237.12,244.78Z" transform="translate(-224.375 -204.204)" fill="#f9a983"/>
      <path id="Path_65772" data-name="Path 65772" d="M259.484,239.35s-1.139,7.491-.97,9.056c.181,1.747.815,2.976,1.449,3.027.88.078,1.087-1.281.8-3.312S259.484,239.35,259.484,239.35Z" transform="translate(-218.095 -205.799)" fill="#f9a983"/>
      <path id="Path_65773" data-name="Path 65773" d="M263.747,243.98a44.248,44.248,0,0,0-.155,6.65c.285,1.63.53,2.51,1.19,2.7s.931-.543.789-1.76A73.224,73.224,0,0,0,263.747,243.98Z" transform="translate(-216.627 -204.439)" fill="#f9a983"/>
      <path id="Path_65774" data-name="Path 65774" d="M252.6,218.745h0c.388.737,3.713,1.682,4.5,1.358a4.754,4.754,0,0,0-2.135-1.41A3.237,3.237,0,0,0,252.6,218.745Z" transform="translate(-219.828 -211.924)" fill="#ffd3b9"/>
      <path id="Path_65775" data-name="Path 65775" d="M255.282,291.912c-2.523-3.881-6.689-7.271-9.975-11.541s-6.715-13.209-7.1-15.305c-1.255-7-3.92-14.3-4.968-16.03-2.122-3.532,1.229-4.114-2.846-3.222a9.717,9.717,0,0,1,1.345,1.863,83.264,83.264,0,0,1,4.9,17.634c.168,1.1,4.981,13.339,6.6,15.758,1.19,1.785,3.713,5.913,5.473,8.513s6.534,14.8,6.534,14.8h5.706A57.748,57.748,0,0,0,255.282,291.912Z" transform="translate(-226.352 -204.009)" fill="#f9a983"/>
      <path id="Path_65776" data-name="Path 65776" d="M232.212,247.788a3.216,3.216,0,0,0,1.358-1.4c-.039-.259-2.652-3.726-3.907-4.088s-2.3-.142-2.394.168S231.928,247.788,232.212,247.788Z" transform="translate(-227.269 -204.987)" fill="#ffc8a7"/>
      <path id="Path_65778" data-name="Path 65778" d="M252.9,238.33s-1.462,5.072-1.281,6.87.414,2.795,1.423,3.234,1.527-.246,1.488-1.565A63.045,63.045,0,0,0,252.9,238.33Z" transform="translate(-220.119 -206.099)" fill="#f9a983"/>
    </g>
  </g>
</svg>
