<svg xmlns="http://www.w3.org/2000/svg" width="71.023" height="108.241" viewBox="0 0 71.023 108.241">
  <g id="swipe_left" data-name="swipe left" transform="translate(-210.698 -221.207) rotate(3)">
    <g id="Group_57467" data-name="Group 57467" transform="translate(222.87 209.83)">
      <path id="Path_65779" data-name="Path 65779" d="M235.779,209.83l-12.909,8.462,12.909,8.449Z" transform="translate(-222.87 -209.83)" fill="#6faeb5"/>
      <path id="Path_65780" data-name="Path 65780" d="M232.77,213.19l32.35,4.081-32.35,4.081Z" transform="translate(-219.861 -208.809)" fill="#6faeb5"/>
    </g>
    <g id="Group_57468" data-name="Group 57468" transform="translate(229.65 215.951)">
      <path id="Path_65781" data-name="Path 65781" d="M261.67,313.1s-.887-12.5-3.09-14.773-5.437-5.92-6.924-7.485c-2.034-2.125-8.945-13.43-9.31-14.487a84.264,84.264,0,0,0-7.954-16.651c-2.034-2.634-6.35-4.016-5.894-5.789.443-1.734,6.415-4.094,10.731-.482s9.3,13.026,9.3,13.026a86.574,86.574,0,0,0-1.682-8.984c-1.4-4.994-4.942-17.2-5.92-20.276-1.239-3.925-4.72-13.678-5.085-15.647s-1.669-5.477,1.526-6.754c2.96-1.187,4.694,1.76,6.011,4.89s5.255,13.065,6.715,16.977a84.4,84.4,0,0,0,5.646,11.84,5.921,5.921,0,0,0,3.116,1.917s.456-4.355.652-6.4c.091-.926.391-4.707,4.186-4.89,3.547-.17,4.681,4.212,4.681,4.212a3.934,3.934,0,0,1,2.7-.835c1.708.143,2.751,1.121,3.377,3.064.248.743.665,2.712.665,2.712a3.1,3.1,0,0,1,2.595-.613c1.565.326,2.334,2.49,2.751,3.677s3.169,9.871,3.6,13.065-.469,19.272.052,21.684,7.615,26.978,7.615,26.978H261.67Z" transform="translate(-227.95 -214.524)" fill="#ffbd95"/>
      <path id="Path_65782" data-name="Path 65782" d="M236.137,214.79a2.835,2.835,0,0,1,3.221.6c.7.691,2.021,4.929,1.786,5.672s-3.6,2.256-4.394,1.93c-1.069-.43-2.308-4.186-2.491-5.281A2.58,2.58,0,0,1,236.137,214.79Z" transform="translate(-226.201 -214.521)" fill="#ffc8a7"/>
      <path id="Path_65783" data-name="Path 65783" d="M238.19,245.82a74.557,74.557,0,0,1,6.233,9.075c.4.717,1.147,2.047,1.147,2.047a42.707,42.707,0,0,0-.978,5.789,25.236,25.236,0,0,0,1.017,5.489,11.728,11.728,0,0,1-2.425-7.015,55.339,55.339,0,0,0-.13-6C242.623,252.131,238.19,245.82,238.19,245.82Z" transform="translate(-224.994 -205.012)" fill="#f9a983"/>
      <path id="Path_65784" data-name="Path 65784" d="M259.05,236.62s.183,7.628.626,9.154c.5,1.708,1.33,2.816,1.969,2.751.887-.078.848-1.46.222-3.416S259.05,236.62,259.05,236.62Z" transform="translate(-218.654 -207.809)" fill="#f9a983"/>
      <path id="Path_65785" data-name="Path 65785" d="M264.22,240.42a45.278,45.278,0,0,0,1,6.624c.574,1.565.965,2.4,1.656,2.477s.835-.7.469-1.891A74.122,74.122,0,0,0,264.22,240.42Z" transform="translate(-217.083 -206.654)" fill="#f9a983"/>
      <path id="Path_65786" data-name="Path 65786" d="M249.14,240.17a6.521,6.521,0,0,0,1.526,2.856,3.412,3.412,0,0,0,1.852,1.069l.013-1.473a13.472,13.472,0,0,1-1.747-.73A3.872,3.872,0,0,1,249.14,240.17Z" transform="translate(-221.666 -206.73)" fill="#f9a983"/>
      <path id="Path_65787" data-name="Path 65787" d="M236.15,221.479h0c.782.313,3.964-1.108,4.355-1.865a4.765,4.765,0,0,0-2.569.3A3.263,3.263,0,0,0,236.15,221.479Z" transform="translate(-225.614 -212.995)" fill="#ffd3b9"/>
      <path id="Path_65788" data-name="Path 65788" d="M264.5,289.485c-3.182-3.416-7.9-6.05-11.918-9.7s-8.984-11.931-9.727-13.952c-2.477-6.715-6.389-13.5-7.732-15.047-2.725-3.129.509-4.29-3.39-2.7a9.273,9.273,0,0,1,1.656,1.617,83.886,83.886,0,0,1,7.954,16.651c.352,1.056,7.276,12.361,9.31,14.487,1.486,1.565,4.72,5.216,6.924,7.485s3.09,14.773,3.09,14.773h5.75C265.228,299.043,266.753,291.91,264.5,289.485Z" transform="translate(-226.958 -204.54)" fill="#f9a983"/>
      <path id="Path_65789" data-name="Path 65789" d="M233.912,249.734a3.222,3.222,0,0,0,1.1-1.63c-.078-.248-3.286-3.234-4.59-3.377s-2.308.261-2.347.574S233.625,249.786,233.912,249.734Z" transform="translate(-228.07 -205.354)" fill="#ffc8a7"/>
    </g>
  </g>
</svg>
