<svg width="53" height="52" viewBox="0 0 53 52" fill="none" xmlns="http://www.w3.org/2000/svg">
<defs>
<linearGradient id="paint0_linear_3_3" x1="26.758" y1="0.199493" x2="26.758" y2="51.8015" gradientUnits="userSpaceOnUse">
<stop stop-color="#FF8787"/>
<stop offset="1" stop-color="#EB2323"/>
</linearGradient>
</defs>

<path d="M26.758 51.8015C41.0075 51.8015 52.559 40.25 52.559 26.0005C52.559 11.751 41.0075 0.199493 26.758 0.199493C12.5085 0.199493 0.957001 11.751 0.957001 26.0005C0.957001 40.25 12.5085 51.8015 26.758 51.8015Z" fill="url(#paint0_linear_3_3)"/>
<path d="M28.575 25.9985L34.118 20.4685C34.3607 20.2258 34.497 19.8967 34.497 19.5535C34.497 19.2103 34.3607 18.8812 34.118 18.6385C33.8753 18.3958 33.5462 18.2595 33.203 18.2595C32.8598 18.2595 32.5307 18.3958 32.288 18.6385L26.758 24.1815L21.229 18.6385C20.9863 18.3958 20.6572 18.2595 20.314 18.2595C19.9708 18.2595 19.6417 18.3958 19.399 18.6385C19.1563 18.8812 19.02 19.2103 19.02 19.5535C19.02 19.8967 19.1563 20.2258 19.399 20.4685L24.941 25.9985L19.399 31.5285C19.1563 31.7712 19.02 32.1003 19.02 32.4435C19.02 32.7867 19.1563 33.1158 19.399 33.3585C19.6417 33.6012 19.9708 33.7375 20.314 33.7375C20.6572 33.7375 20.9863 33.6012 21.229 33.3585L26.758 27.8165L32.287 33.3595C32.4072 33.4797 32.5498 33.575 32.7068 33.64C32.8638 33.705 33.0321 33.7385 33.202 33.7385C33.3719 33.7385 33.5402 33.705 33.6972 33.64C33.8542 33.575 33.9968 33.4797 34.117 33.3595C34.2372 33.2393 34.3325 33.0967 34.3975 32.9397C34.4625 32.7827 34.496 32.6144 34.496 32.4445C34.496 32.2746 34.4625 32.1063 34.3975 31.9493C34.3325 31.7923 34.2372 31.6497 34.117 31.5295L28.575 25.9985Z" fill="white"/>
</svg>
