<svg width="58" height="58" viewBox="0 0 58 58" fill="none" xmlns="http://www.w3.org/2000/svg">
<defs>
<linearGradient id="paint0_linear_3_11" x1="28.957" y1="0.5" x2="28.957" y2="57.5" gradientUnits="userSpaceOnUse">
<stop stop-color="#9FDEFF"/>
<stop offset="1" stop-color="#28BCF3"/>
</linearGradient>
</defs>

<path d="M28.957 57.5C44.6971 57.5 57.457 44.7401 57.457 29C57.457 13.2599 44.6971 0.5 28.957 0.5C13.2169 0.5 0.457001 13.2599 0.457001 29C0.457001 44.7401 13.2169 57.5 28.957 57.5Z" fill="url(#paint0_linear_3_11)"/>
<path d="M28.957 37.582C28.6801 37.5844 28.4131 37.4794 28.212 37.289L20.069 29.434C19.5647 28.9513 19.1634 28.3714 18.8892 27.7294C18.615 27.0875 18.4736 26.3966 18.4736 25.6985C18.4736 25.0004 18.615 24.3095 18.8892 23.6675C19.1634 23.0255 19.5647 22.4457 20.069 21.963C21.1175 20.9714 22.5059 20.4189 23.949 20.4189C25.3921 20.4189 26.7805 20.9714 27.829 21.963L28.962 23.053L30.095 21.963C31.1435 20.9714 32.5319 20.4189 33.975 20.4189C35.4181 20.4189 36.8065 20.9714 37.855 21.963C38.3593 22.4457 38.7606 23.0255 39.0348 23.6675C39.309 24.3095 39.4503 25.0004 39.4503 25.6985C39.4503 26.3966 39.309 27.0875 39.0348 27.7294C38.7606 28.3714 38.3593 28.9513 37.855 29.434L29.702 37.289C29.5009 37.4794 29.2339 37.5844 28.957 37.582V37.582Z" fill="white"/>

</svg>
