<svg xmlns="http://www.w3.org/2000/svg" width="9.141" height="9.141" viewBox="0 0 9.141 9.141">
  <g id="icon_instagram" transform="translate(-1.359 -1.811)">
    <path id="Path_6" data-name="Path 6" d="M6.856.857H2.285A1.428,1.428,0,0,0,.857,2.285v4.57A1.428,1.428,0,0,0,2.285,8.284h4.57A1.428,1.428,0,0,0,8.284,6.856V2.285A1.428,1.428,0,0,0,6.856.857ZM2.285,0A2.285,2.285,0,0,0,0,2.285v4.57A2.285,2.285,0,0,0,2.285,9.141h4.57A2.285,2.285,0,0,0,9.141,6.856V2.285A2.285,2.285,0,0,0,6.856,0Z" transform="translate(1.359 1.811)" fill="#888" fill-rule="evenodd"/>
    <path id="Path_8" data-name="Path 8" d="M11.5,3.191a.691.691,0,1,1,.691.691A.691.691,0,0,1,11.5,3.191Z" transform="translate(-6.295 1.475)" fill="#888"/>
    <path id="Path_65040" data-name="Path 65040" d="M11.5,3.844c0-.742.309-1.344.691-1.344s.691.6.691,1.344-.309,1.344-.691,1.344S11.5,4.586,11.5,3.844Z" transform="translate(-6.295 3.628)" fill="#888"/>
  </g>
</svg>
