<svg xmlns="http://www.w3.org/2000/svg" width="20" height="18" viewBox="0 0 20 18">
  <path id="Path_62017" data-name="Path 62017" d="M273,72a1,1,0,0,0,1,1h6V71h-6A1,1,0,0,0,273,72Zm11,2V73h8a1,1,0,0,0,0-2h-8V70a1,1,0,0,0-2,0v4a1,1,0,0,0,2,0Zm-6-10v1h-4a1,1,0,0,0,0,2h4v1a1,1,0,0,0,2,0V64a1,1,0,0,0-2,0Zm15,2a1,1,0,0,0-1-1H282v2h10A1,1,0,0,0,293,66Zm-20-6a1,1,0,0,0,1,1h10V59H274A1,1,0,0,0,273,60Zm14,3a1,1,0,0,0,1-1V61h4a1,1,0,0,0,0-2h-4V58a1,1,0,0,0-2,0v4A1,1,0,0,0,287,63Z" transform="translate(-273 -57)" fill="#363d4e" fill-rule="evenodd"/>
</svg>
