<svg width="38" height="38" viewBox="0 0 38 38" fill="none" xmlns="http://www.w3.org/2000/svg">
<path d="M19 38C29.4934 38 38 29.4934 38 19C38 8.50659 29.4934 0 19 0C8.50659 0 0 8.50659 0 19C0 29.4934 8.50659 38 19 38Z" fill="#EBF0FB"/>
<path d="M24.1485 14.4089C23.5093 13.7289 22.7365 13.1882 21.8787 12.8205C21.021 12.4528 20.0966 12.266 19.1634 12.2719C17.8295 12.2642 16.5203 12.6313 15.3848 13.3313C14.2493 14.0312 13.3331 15.036 12.7408 16.2312C12.1484 17.4263 11.9036 18.7638 12.0342 20.0913C12.1649 21.4188 12.6656 22.6829 13.4795 23.7397C14.2935 24.7965 15.3878 25.6036 16.638 26.0688C17.8882 26.534 19.244 26.6387 20.5508 26.3711C21.8576 26.1035 23.0629 25.4743 24.0296 24.5551C24.9963 23.636 25.6853 22.4638 26.0184 21.1721H24.1485C23.7885 22.2087 23.1154 23.108 22.2225 23.7458C21.3296 24.3837 20.2607 24.7287 19.1634 24.7331C17.7594 24.7139 16.4195 24.1427 15.4334 23.143C14.4474 22.1434 13.8946 20.7957 13.8946 19.3916C13.8946 17.9874 14.4474 16.6397 15.4334 15.6401C16.4195 14.6405 17.7594 14.0692 19.1634 14.05C19.8624 14.0503 20.5542 14.1923 21.1968 14.4673C21.8395 14.7423 22.4196 15.1446 22.9024 15.6501L20.0535 18.499H26.2855V12.269L24.1485 14.4089Z" fill="#EC488D"/>
</svg>
