<svg id="Icon" xmlns="http://www.w3.org/2000/svg" width="52.589" height="9.043" viewBox="0 0 52.589 9.043">
  <path id="Vector_4" d="M155.585,349.34a4.522,4.522,0,1,0-4.521-4.521A4.522,4.522,0,0,0,155.585,349.34Z" transform="translate(-135.706 -340.297)" fill="#e665a7"/>
  <path id="Vector_5" d="M166.9,349.34a4.522,4.522,0,1,0-4.522-4.521A4.522,4.522,0,0,0,166.9,349.34Z" transform="translate(-132.932 -340.297)" fill="#9a69ad"/>
  <path id="Vector_6" d="M178.224,349.34a4.522,4.522,0,1,0-4.522-4.521A4.522,4.522,0,0,0,178.224,349.34Z" transform="translate(-130.156 -340.297)" fill="#81cae5"/>
  <path id="Vector_4-2" data-name="Vector_4" d="M155.585,349.34a4.522,4.522,0,1,0-4.521-4.521A4.522,4.522,0,0,0,155.585,349.34Z" transform="translate(-151.064 -340.297)" fill="#f7c83a"/>
</svg>
