<svg xmlns="http://www.w3.org/2000/svg" width="18.563" height="22" viewBox="0 0 18.563 22">
  <g id="Location_Icon" transform="translate(-30 -472)">
    <path id="Location_Icon_2" d="M48.519,480.4a9.283,9.283,0,1,0-15.789,7.467l5.787,5.806a1.094,1.094,0,0,0,1.55,0l5.765-5.806a9.256,9.256,0,0,0,2.686-7.467ZM44.3,486.329l-5.023,5.029-5.023-5.029a7.1,7.1,0,0,1-2.042-5.707,7.183,7.183,0,0,1,3.156-5.28,7.061,7.061,0,0,1,7.818,0,7.163,7.163,0,0,1,2.779,8.353A7.08,7.08,0,0,1,44.3,486.329Zm-5.023-9.895a4.928,4.928,0,1,0,3.471,1.445A4.907,4.907,0,0,0,39.281,476.435Zm0,7.654a2.732,2.732,0,1,1,1.93-.8A2.726,2.726,0,0,1,39.281,484.089Z" fill="#acacac"/>
  </g>
</svg>
