<svg xmlns="http://www.w3.org/2000/svg" width="28.283" height="28.283" viewBox="0 0 28.283 28.283">
  <g id="noun_Plus_201304" transform="translate(-261 56)">
    <g id="Group_42" data-name="Group 42" transform="translate(261 -56)">
      <g id="Group_41" data-name="Group 41">
        <path id="Path_4" data-name="Path 4" d="M5.3,10.6A1.324,1.324,0,0,0,6.622,9.271V6.622H9.271a1.324,1.324,0,1,0,0-2.649H6.622V1.324a1.324,1.324,0,0,0-2.649,0V3.973H1.324a1.324,1.324,0,0,0,0,2.649H3.973V9.271A1.324,1.324,0,0,0,5.3,10.6Z" transform="translate(6.667 14.664) rotate(-49)" fill="#ff0505"/>
        <path id="Path_5" data-name="Path 5" d="M16.141,2a14.141,14.141,0,1,0,7.27,26.257,1.768,1.768,0,0,0-1.822-3.03,10.643,10.643,0,1,1,3.636-3.636,1.768,1.768,0,0,0,3.032,1.821A14.124,14.124,0,0,0,16.141,2Z" transform="translate(-2 -2)" fill="#ff0505"/>
      </g>
    </g>
  </g>
</svg>
