<svg xmlns="http://www.w3.org/2000/svg" width="18.54" height="22.058" viewBox="0 0 18.54 22.058">
  <path id="Swipe_active" d="M1196.771,1411.085h-8.386a2,2,0,0,1-1.68-.894l7.733-1.514a3.179,3.179,0,0,0,2.484-3.723l-2.373-12.44h2.224a1.78,1.78,0,0,1,1.763,1.786v15.016A1.768,1.768,0,0,1,1196.771,1411.085Zm-2.594-3.775-9.27,1.642a1.77,1.77,0,0,1-2.066-1.415l-2.812-14.743a1.79,1.79,0,0,1,1.4-2.093l9.27-1.642a1.769,1.769,0,0,1,2.065,1.415l2.812,14.743A1.79,1.79,0,0,1,1194.177,1407.31Zm-3.915-9.869a2.314,2.314,0,0,0-.115-.306,1.411,1.411,0,0,0-1.675-.83,1.263,1.263,0,0,1-1.986.592,1.409,1.409,0,0,0-.949,1.6,2.649,2.649,0,0,0,.072.325c.136.5.7,1.727,2.995,2.426a.481.481,0,0,0,.266,0,.476.476,0,0,0,.214-.144C1190.623,1399.266,1190.42,1397.928,1190.262,1397.441Z" transform="translate(-1179.997 -1389.027)" fill="#c4c5ce"/>
</svg>
