<svg xmlns="http://www.w3.org/2000/svg" xmlns:xlink="http://www.w3.org/1999/xlink" width="14.573" height="13.359" viewBox="0 0 14.573 13.359">
  <defs>
    <linearGradient id="linear-gradient" x1="0.524" y1="-0.136" x2="0.5" y2="1" gradientUnits="objectBoundingBox">
      <stop offset="0" stop-color="#9fdeff"/>
      <stop offset="1" stop-color="#28bcf3"/>
    </linearGradient>
    <clipPath id="clip-path">
      <path id="Shape" d="M.608,13.359a.607.607,0,1,1,0-1.214H13.966a.607.607,0,0,1,0,1.214ZM4.1,10.931H1.822V8.654L8.537,1.939l2.277,2.277L4.1,10.931Zm5.09-9.642L10.3.177a.606.606,0,0,1,.857,0L12.575,1.6a.607.607,0,0,1,0,.857L11.464,3.566Z" fill="url(#linear-gradient)"/>
    </clipPath>
  </defs>
  <g id="Group_57067" data-name="Group 57067" clip-path="url(#clip-path)">
    <g id="color_primary" data-name="color/primary" transform="translate(-1.822 -2.429)">
      <path id="color_primary_background" data-name="color/primary background" d="M9,0H9a9,9,0,0,1,9,9v9a0,0,0,0,1,0,0H0a0,0,0,0,1,0,0V9A9,9,0,0,1,9,0Z" transform="translate(0 0.216)" stroke="rgba(0,0,0,0)" stroke-width="1" fill="url(#linear-gradient)"/>
      <path id="color_primary-2" data-name="color/primary" d="M9,0H9a9,9,0,0,1,9,9v9a0,0,0,0,1,0,0H0a0,0,0,0,1,0,0V9A9,9,0,0,1,9,0Z" transform="translate(0 0.216)" stroke="rgba(0,0,0,0)" stroke-width="1" fill="url(#linear-gradient)"/>
    </g>
  </g>
</svg>
